0
SECTION
2
HEADER
9
$INSUNITS
70
4
9
$ACADVER
1
AC1014
9
$HANDSEED
5
FFFF
0
ENDSEC
0
SECTION
2
TABLES
0
TABLE
2
VPORT
5
8
100
AcDbSymbolTable
0
ENDTAB
0
TABLE
2
LTYPE
5
5
100
AcDbSymbolTable
0
LTYPE
5
14
100
AcDbSymbolTableRecord
100
AcDbLinetypeTableRecord
2
BYBLOCK
70
0
0
LTYPE
5
15
100
AcDbSymbolTableRecord
100
AcDbLinetypeTableRecord
2
BYLAYER
70
0
0
ENDTAB
0
TABLE
2
LAYER
5
2
100
AcDbSymbolTable
70
2
0
LAYER
5
50
100
AcDbSymbolTableRecord
100
AcDbLayerTableRecord
2
0
70
0
6
CONTINUOUS
0
ENDTAB
0
TABLE
2
STYLE
5
3
100
AcDbSymbolTable
70
1
0
STYLE
5
11
100
AcDbSymbolTableRecord
100
AcDbTextStyleTableRecord
2
STANDARD
70
0
0
ENDTAB
0
TABLE
2
VIEW
5
6
100
AcDbSymbolTable
70
0
0
ENDTAB
0
TABLE
2
UCS
5
7
100
AcDbSymbolTable
70
0
0
ENDTAB
0
TABLE
2
APPID
5
9
100
AcDbSymbolTable
70
2
0
APPID
5
12
100
AcDbSymbolTableRecord
100
AcDbRegAppTableRecord
2
ACAD
70
0
0
ENDTAB
0
TABLE
2
DIMSTYLE
5
A
100
AcDbSymbolTable
70
1
0
ENDTAB
0
TABLE
2
BLOCK_RECORD
5
1
100
AcDbSymbolTable
70
1
0
BLOCK_RECORD
5
1F
100
AcDbSymbolTableRecord
100
AcDbBlockTableRecord
2
*MODEL_SPACE
0
BLOCK_RECORD
5
1B
100
AcDbSymbolTableRecord
100
AcDbBlockTableRecord
2
*PAPER_SPACE
0
ENDTAB
0
ENDSEC
0
SECTION
2
BLOCKS
0
BLOCK
5
20
100
AcDbEntity
100
AcDbBlockBegin
2
*MODEL_SPACE
0
ENDBLK
5
21
100
AcDbEntity
100
AcDbBlockEnd
0
BLOCK
5
1C
100
AcDbEntity
100
AcDbBlockBegin
2
*PAPER_SPACE
0
ENDBLK
5
1D
100
AcDbEntity
100
AcDbBlockEnd
0
ENDSEC
0
SECTION
2
ENTITIES
0
LWPOLYLINE
5
100
100
AcDbEntity
8
0
100
AcDbPolyline
90
3
70
1
43
0.0
10
-12.727922061357877
20
-21.213203435596405
10
-31.752463879358071
20
-40.237745253596493
10
-6.0598546173125589
20
-27.881270879641725
0
LINE
5
101
100
AcDbEntity
8
0
100
AcDbLine
10
-23.881643315636516
20
11.485517513143
30
0
11
-50.467911214037997
21
-43.79486200106102
31
0
0
ARC
5
102
100
AcDbEntity
8
0
100
AcDbCircle
10
-45.961940777125449
20
-45.96194077712574
30
0
40
5.0000000000000036
100
AcDbArc
50
154.31547130844424
51
295.68452869155635
0
ARC
5
103
100
AcDbEntity
8
0
100
AcDbCircle
10
0
20
0
30
0
40
26.500000000000018
100
AcDbArc
50
-64.315471308443932
51
40.671674567404857
0
LINE
5
104
100
AcDbEntity
8
0
100
AcDbLine
10
20.099100503427817
20
17.270673378681792
30
0
11
14.999999999999996
21
12.171572875253931
31
0
0
LINE
5
105
100
AcDbEntity
8
0
100
AcDbLine
10
14.999999999999996
20
12.171572875253931
30
0
11
14.999999999999996
21
-15
31
0
0
LINE
5
106
100
AcDbEntity
8
0
100
AcDbLine
10
14.999999999999996
20
-15
30
0
11
-12.1715728752537
21
-15.000000000000009
31
0
0
LINE
5
107
100
AcDbEntity
8
0
100
AcDbLine
10
-12.1715728752537
20
-15.000000000000009
30
0
11
-35.895520572802681
21
-38.723947697549214
31
0
0
ARC
5
108
100
AcDbEntity
8
0
100
AcDbCircle
10
-38.890872965259966
20
-38.890872965260264
30
0
40
2.9999999999999978
100
AcDbArc
50
-273.18968510422138
51
3.1896851042205743
0
LINE
5
109
100
AcDbEntity
8
0
100
AcDbLine
10
-38.723947697548873
20
-35.89552057280298
30
0
11
-14.999999999999996
21
-12.171572875253919
31
0
0
LINE
5
110
100
AcDbEntity
8
0
100
AcDbLine
10
-14.999999999999996
20
-12.171572875253919
30
0
11
-14.999999999999998
21
15
31
0
0
LINE
5
111
100
AcDbEntity
8
0
100
AcDbLine
10
-14.999999999999998
20
15
30
0
11
12.171572875253693
21
15
31
0
0
LINE
5
112
100
AcDbEntity
8
0
100
AcDbLine
10
12.171572875253693
20
15
30
0
11
17.270673378681622
21
20.099100503427969
31
0
0
ARC
5
113
100
AcDbEntity
8
0
100
AcDbCircle
10
0.44459897893148304
20
36.925174903178124
30
0
40
23.795662617625393
100
AcDbArc
50
-45.00000000000005
51
8.9358325984981608
0
ARC
5
114
100
AcDbEntity
8
0
100
AcDbCircle
10
19.999999999999996
20
39.999999999999972
30
0
40
3.9999999999999631
100
AcDbArc
50
8.935832598497834
51
197.94794099083265
0
ARC
5
115
100
AcDbEntity
8
0
100
AcDbCircle
10
6.8060877095782946
20
35.726287729127407
30
0
40
9.8688117047406649
100
AcDbArc
50
-100.78597006965576
51
17.947940990832894
0
ARC
5
116
100
AcDbEntity
8
0
100
AcDbCircle
10
0
20
0
30
0
40
26.499999999999876
100
AcDbArc
50
79.214029930343926
51
154.3154713084443
0
LINE
5
117
100
AcDbEntity
8
0
100
AcDbLine
10
11.485517513143149
20
-23.881643315636442
30
0
11
-43.794862001060686
21
-50.467911214038274
31
0
0
ARC
5
118
100
AcDbEntity
8
0
100
AcDbCircle
10
0.44459897893148304
20
36.925174903178124
30
0
40
23.795662617625393
100
AcDbArc
50
-45.00000000000005
51
8.9358325984981608
0
ARC
5
119
100
AcDbEntity
8
0
100
AcDbCircle
10
6.8060877095782892
20
35.726287729127414
30
0
40
9.8688117047406685
100
AcDbArc
50
-100.78597006965576
51
17.947940990832834
0
ARC
5
120
100
AcDbEntity
8
0
100
AcDbCircle
10
19.999999999999996
20
39.999999999999972
30
0
40
3.9999999999999956
100
AcDbArc
50
8.935832598497834
51
197.94794099083256
0
LINE
5
121
100
AcDbEntity
8
0
100
AcDbLine
10
14.999999999999996
20
12.171572875253931
30
0
11
14.999999999999998
21
-15
31
0
0
LINE
5
122
100
AcDbEntity
8
0
100
AcDbLine
10
14.999999999999998
20
-15
30
0
11
-12.1715728752537
21
-15.000000000000009
31
0
0
LINE
5
123
100
AcDbEntity
8
0
100
AcDbLine
10
-14.999999999999996
20
-12.171572875253919
30
0
11
-14.999999999999998
21
15
31
0
0
LINE
5
124
100
AcDbEntity
8
0
100
AcDbLine
10
-14.999999999999998
20
15
30
0
11
12.171572875253693
21
15
31
0
0
LINE
5
125
100
AcDbEntity
8
0
100
AcDbLine
10
-6.0598546173125589
20
-27.881270879641725
30
0
11
-31.752463879358071
21
-40.237745253596493
31
0
0
LINE
5
126
100
AcDbEntity
8
0
100
AcDbLine
10
-31.752463879358071
20
-40.237745253596493
30
0
11
-12.727922061357877
21
-21.213203435596405
31
0
0
LINE
5
127
100
AcDbEntity
8
0
100
AcDbLine
10
-12.727922061357877
20
-21.213203435596405
30
0
11
-6.0598546173125589
21
-27.881270879641725
31
0
0
LINE
5
128
100
AcDbEntity
8
0
100
AcDbLine
10
-23.881643315636516
20
11.485517513142995
30
0
11
-50.467911214037997
21
-43.79486200106102
31
0
0
ARC
5
129
100
AcDbEntity
8
0
100
AcDbCircle
10
0
20
0
30
0
40
26.500000000000007
100
AcDbArc
50
79.214029930343926
51
154.3154713084443
0
LINE
5
130
100
AcDbEntity
8
0
100
AcDbLine
10
20.099100503427817
20
17.270673378681792
30
0
11
14.999999999999996
21
12.171572875253931
31
0
0
LINE
5
131
100
AcDbEntity
8
0
100
AcDbLine
10
17.270673378681618
20
20.099100503427966
30
0
11
12.171572875253693
21
15
31
0
0
ARC
5
132
100
AcDbEntity
8
0
100
AcDbCircle
10
0
20
0
30
0
40
26.499999999999876
100
AcDbArc
50
79.214029930343926
51
154.3154713084443
0
ARC
5
133
100
AcDbEntity
8
0
100
AcDbCircle
10
0
20
0
30
0
40
26.500000000000018
100
AcDbArc
50
-64.315471308443932
51
40.671674567404857
0
ARC
5
134
100
AcDbEntity
8
0
100
AcDbCircle
10
-38.890872965259966
20
-38.890872965260264
30
0
40
2.9999999999999978
100
AcDbArc
50
-273.18968510422138
51
3.1896851042205743
0
LINE
5
135
100
AcDbEntity
8
0
100
AcDbLine
10
-12.1715728752537
20
-15.000000000000009
30
0
11
-35.895520572802681
21
-38.723947697549214
31
0
0
LINE
5
136
100
AcDbEntity
8
0
100
AcDbLine
10
-14.999999999999996
20
-12.171572875253919
30
0
11
-38.723947697548873
21
-35.89552057280298
31
0
0
ARC
5
137
100
AcDbEntity
8
0
100
AcDbCircle
10
-45.961940777125449
20
-45.96194077712574
30
0
40
5.0000000000000036
100
AcDbArc
50
154.31547130844424
51
295.68452869155635
0
ENDSEC
0
SECTION
2
OBJECTS
0
DICTIONARY
5
C
100
AcDbDictionary
3
ACAD_GROUP
350
D
3
ACAD_MLINESTYLE
350
17
0
DICTIONARY
5
D
100
AcDbDictionary
0
DICTIONARY
5
1A
330
C
100
AcDbDictionary
0
DICTIONARY
5
17
100
AcDbDictionary
0
ENDSEC
0
EOF
