<?xml version="1.0" encoding="utf-8"?>
<!-- Generator: Adobe Illustrator 21.1.0, SVG Export Plug-In . SVG Version: 6.00 Build 0)  -->
<svg version="1.2" baseProfile="tiny" id="Layer_1" xmlns="http://www.w3.org/2000/svg" xmlns:xlink="http://www.w3.org/1999/xlink"
	 width="100%" height="100%" viewBox="0 0 269.1 262.5" xml:space="preserve">
<g id="board">
	<g>
		<path fill="#009245" d="M15.5,0.5h81.6c17,32.6,33.3,62.8,49.1,90.5c15.7,27.8,31.8,62.2,48.3,103.3v-87.7
			c0-37.1-0.4-63.8-1.1-80.1h-21.5c-2.2-5.6-3.2-10.9-3.2-16c0-3.5,1-6.1,2.9-7.7c1.9-1.6,4.7-2.4,8.4-2.4h85.6
			c2.2,4.7,3.2,9.4,3.2,14.1c0,4.6-0.8,7.7-2.5,9.4c-1.7,1.7-4.3,2.6-8,2.6h-16.5c-0.5,16.2-0.8,43-0.8,80.3v127.6
			c0,12-1.4,19.7-4.2,22.8c-2.8,3.2-10.1,4.8-22.1,4.8c-23.7,0-37.1-0.9-40.3-2.7c-3.2-1.8-15.8-21-38-57.6
			c-22.2-36.6-42.7-77.6-61.4-122.8c0,87.2,0.3,139,1,155.2h19.8c2.2,4.6,3.2,9.3,3.2,14.1c0,4.4-0.8,7.5-2.5,9.3
			c-1.6,1.8-4.2,2.7-7.8,2.7H3.9c-2.3-5.6-3.4-11-3.4-16.2c0-3.4,1-5.9,2.9-7.5c1.9-1.6,4.7-2.4,8.4-2.4h15.8
			c0.8-16.2,1.1-58.7,1.1-127.4c-0.1-37.1-0.6-63.8-1.3-80.1H7.7c-2.3-5.6-3.4-10.9-3.4-16c0-3.5,1-6.1,2.9-7.7
			C9.1,1.3,11.8,0.5,15.5,0.5z"/>
	</g>
</g>
<g id="silkscreen">
	<g>
		<path fill="none" stroke="#FFFFFF" stroke-miterlimit="10" d="M15.5,0.5h81.6c17,32.6,33.3,62.8,49.1,90.5
			c15.7,27.8,31.8,62.2,48.3,103.3v-87.7c0-37.1-0.4-63.8-1.1-80.1h-21.5c-2.2-5.6-3.2-10.9-3.2-16c0-3.5,1-6.1,2.9-7.7
			c1.9-1.6,4.7-2.4,8.4-2.4h85.6c2.2,4.7,3.2,9.4,3.2,14.1c0,4.6-0.8,7.7-2.5,9.4c-1.7,1.7-4.3,2.6-8,2.6h-16.5
			c-0.5,16.2-0.8,43-0.8,80.3v127.6c0,12-1.4,19.7-4.2,22.8c-2.8,3.2-10.1,4.8-22.1,4.8c-23.7,0-37.1-0.9-40.3-2.7
			c-3.2-1.8-15.8-21-38-57.6c-22.2-36.6-42.7-77.6-61.4-122.8c0,87.2,0.3,139,1,155.2h19.8c2.2,4.6,3.2,9.3,3.2,14.1
			c0,4.4-0.8,7.5-2.5,9.3c-1.6,1.8-4.2,2.7-7.8,2.7H3.9c-2.3-5.6-3.4-11-3.4-16.2c0-3.4,1-5.9,2.9-7.5c1.9-1.6,4.7-2.4,8.4-2.4h15.8
			c0.8-16.2,1.1-58.7,1.1-127.4c-0.1-37.1-0.6-63.8-1.3-80.1H7.7c-2.3-5.6-3.4-10.9-3.4-16c0-3.5,1-6.1,2.9-7.7
			C9.1,1.3,11.8,0.5,15.5,0.5z"/>
	</g>
</g>
</svg>
