G04 MADE WITH FRITZING*
G04 WWW.FRITZING.ORG*
G04 DOUBLE SIDED*
G04 HOLES PLATED*
G04 CONTOUR ON CENTER OF CONTOUR VECTOR*
%ASAXBY*%
%FSLAX23Y23*%
%MOIN*%
%OFA0B0*%
%SFA1.0B1.0*%
%ADD10C,0.072992*%
%ADD11C,0.085000*%
%ADD12C,0.088000*%
%ADD13R,0.072992X0.072992*%
%ADD14C,0.025748*%
%LNMASK0*%
G90*
G70*
G54D10*
X1271Y3057D03*
X1370Y3057D03*
X3171Y3607D03*
X3270Y3607D03*
X3268Y2507D03*
X3170Y2507D03*
X3268Y1457D03*
X3170Y1457D03*
X3268Y357D03*
X3170Y357D03*
X2571Y657D03*
X2670Y657D03*
X2121Y1457D03*
X2220Y1457D03*
X1717Y2207D03*
X1815Y2207D03*
X671Y3557D03*
X770Y3557D03*
X768Y2457D03*
X670Y2457D03*
X768Y1407D03*
X670Y1407D03*
X768Y307D03*
X670Y307D03*
G54D11*
X3270Y3107D03*
X3270Y2807D03*
X3120Y957D03*
X3120Y657D03*
X2570Y907D03*
X2420Y1167D03*
X1670Y2507D03*
X1520Y2767D03*
X770Y3207D03*
X770Y2907D03*
X620Y1007D03*
X620Y707D03*
G54D12*
X120Y107D03*
X120Y207D03*
X3420Y107D03*
X3420Y207D03*
G54D13*
X768Y2457D03*
X768Y307D03*
G54D14*
G36*
X1295Y3034D02*
X1248Y3034D01*
X1248Y3081D01*
X1295Y3081D01*
X1295Y3034D01*
G37*
D02*
G36*
X3195Y3584D02*
X3148Y3584D01*
X3148Y3631D01*
X3195Y3631D01*
X3195Y3584D01*
G37*
D02*
G36*
X3244Y2531D02*
X3292Y2531D01*
X3292Y2484D01*
X3244Y2484D01*
X3244Y2531D01*
G37*
D02*
G36*
X3244Y1481D02*
X3292Y1481D01*
X3292Y1434D01*
X3244Y1434D01*
X3244Y1481D01*
G37*
D02*
G36*
X3244Y381D02*
X3292Y381D01*
X3292Y334D01*
X3244Y334D01*
X3244Y381D01*
G37*
D02*
G36*
X2595Y634D02*
X2548Y634D01*
X2548Y681D01*
X2595Y681D01*
X2595Y634D01*
G37*
D02*
G36*
X2145Y1434D02*
X2098Y1434D01*
X2098Y1481D01*
X2145Y1481D01*
X2145Y1434D01*
G37*
D02*
G36*
X1740Y2184D02*
X1693Y2184D01*
X1693Y2231D01*
X1740Y2231D01*
X1740Y2184D01*
G37*
D02*
G36*
X695Y3534D02*
X648Y3534D01*
X648Y3581D01*
X695Y3581D01*
X695Y3534D01*
G37*
D02*
G36*
X744Y1431D02*
X792Y1431D01*
X792Y1384D01*
X744Y1384D01*
X744Y1431D01*
G37*
D02*
G04 End of Mask0*
M02*