G04 MADE WITH FRITZING*
G04 WWW.FRITZING.ORG*
G04 DOUBLE SIDED*
G04 HOLES PLATED*
G04 CONTOUR ON CENTER OF CONTOUR VECTOR*
%ASAXBY*%
%FSLAX23Y23*%
%MOIN*%
%OFA0B0*%
%SFA1.0B1.0*%
%ADD10C,0.075000*%
%ADD11C,0.062992*%
%ADD12C,0.078000*%
%ADD13R,0.062992X0.062992*%
%ADD14C,0.024000*%
%ADD15C,0.015748*%
%LNCOPPER0*%
G90*
G70*
G54D10*
X2656Y3811D03*
X984Y405D03*
G54D11*
X1335Y3105D03*
X1434Y3105D03*
X3235Y3655D03*
X3334Y3655D03*
X3332Y2555D03*
X3234Y2555D03*
X3332Y1505D03*
X3234Y1505D03*
X3332Y405D03*
X3234Y405D03*
X2635Y705D03*
X2734Y705D03*
X2185Y1505D03*
X2284Y1505D03*
X1781Y2255D03*
X1879Y2255D03*
X735Y3605D03*
X834Y3605D03*
X832Y2505D03*
X734Y2505D03*
X832Y1455D03*
X734Y1455D03*
X832Y355D03*
X734Y355D03*
G54D10*
X3334Y3155D03*
X3334Y2855D03*
X3184Y1005D03*
X3184Y705D03*
X2634Y955D03*
X2484Y1215D03*
X1734Y2555D03*
X1584Y2815D03*
X834Y3255D03*
X834Y2955D03*
X684Y1055D03*
X684Y755D03*
G54D12*
X134Y155D03*
X134Y255D03*
X3484Y155D03*
X3484Y255D03*
G54D13*
X832Y2505D03*
X832Y355D03*
G54D14*
X3433Y2454D02*
X3351Y2536D01*
D02*
X3433Y504D02*
X3433Y2454D01*
D02*
X3351Y424D02*
X3433Y504D01*
D02*
X3335Y154D02*
X3454Y155D01*
D02*
X3332Y379D02*
X3335Y154D01*
D02*
X1683Y2305D02*
X1757Y2268D01*
D02*
X1385Y3005D02*
X1683Y2305D01*
D02*
X1422Y3081D02*
X1385Y3005D01*
D02*
X1035Y2954D02*
X1133Y2954D01*
D02*
X1133Y2954D02*
X1314Y3089D01*
D02*
X1035Y2356D02*
X1035Y2954D01*
D02*
X783Y457D02*
X745Y380D01*
D02*
X783Y1353D02*
X783Y457D01*
D02*
X820Y1431D02*
X783Y1353D01*
D02*
X3284Y1405D02*
X3284Y555D01*
D02*
X3284Y555D02*
X3242Y431D01*
D02*
X3320Y1481D02*
X3284Y1405D01*
D02*
X734Y2532D02*
X735Y3579D01*
D02*
X3334Y3184D02*
X3334Y3629D01*
D02*
X2635Y154D02*
X3335Y154D01*
D02*
X1833Y1507D02*
X2635Y154D01*
D02*
X685Y1353D02*
X722Y1431D01*
D02*
X684Y1084D02*
X685Y1353D01*
D02*
X834Y3284D02*
X834Y3579D01*
D02*
X3235Y3629D02*
X3234Y2582D01*
D02*
X732Y154D02*
X164Y155D01*
D02*
X820Y331D02*
X732Y154D01*
D02*
X1868Y2280D02*
X1746Y2530D01*
D02*
X2644Y929D02*
X2724Y730D01*
D02*
X3185Y1405D02*
X3222Y1481D01*
D02*
X3184Y1034D02*
X3185Y1405D01*
D02*
X1133Y2954D02*
X1833Y1507D01*
D02*
X1833Y1507D02*
X2158Y1506D01*
D02*
X1035Y2356D02*
X854Y2489D01*
D02*
X1035Y555D02*
X1035Y2356D01*
D02*
X851Y374D02*
X1035Y555D01*
D02*
X2533Y756D02*
X2234Y1405D01*
D02*
X2234Y1405D02*
X2272Y1481D01*
D02*
X2611Y717D02*
X2533Y756D01*
G36*
X2714Y3891D02*
X2714Y3889D01*
X2696Y3889D01*
X2696Y3887D01*
X2684Y3887D01*
X2684Y3885D01*
X2674Y3885D01*
X2674Y3883D01*
X2666Y3883D01*
X2666Y3881D01*
X2660Y3881D01*
X2660Y3879D01*
X2654Y3879D01*
X2654Y3877D01*
X2650Y3877D01*
X2650Y3875D01*
X2644Y3875D01*
X2644Y3873D01*
X2640Y3873D01*
X2640Y3871D01*
X2636Y3871D01*
X2636Y3869D01*
X2632Y3869D01*
X2632Y3867D01*
X2630Y3867D01*
X2630Y3865D01*
X2626Y3865D01*
X2626Y3863D01*
X2624Y3863D01*
X2624Y3861D01*
X2620Y3861D01*
X2620Y3859D01*
X2618Y3859D01*
X2618Y3857D01*
X2616Y3857D01*
X2616Y3855D01*
X2612Y3855D01*
X2612Y3853D01*
X2610Y3853D01*
X2610Y3851D01*
X2608Y3851D01*
X2608Y3849D01*
X2606Y3849D01*
X2606Y3847D01*
X2604Y3847D01*
X2604Y3845D01*
X2602Y3845D01*
X2602Y3841D01*
X2600Y3841D01*
X2600Y3839D01*
X2598Y3839D01*
X2598Y3837D01*
X2596Y3837D01*
X2596Y3835D01*
X2594Y3835D01*
X2594Y3831D01*
X2592Y3831D01*
X2592Y3827D01*
X2590Y3827D01*
X2590Y3825D01*
X2588Y3825D01*
X2588Y3821D01*
X2586Y3821D01*
X2586Y3817D01*
X2584Y3817D01*
X2584Y3811D01*
X2582Y3811D01*
X2582Y3807D01*
X2580Y3807D01*
X2580Y3801D01*
X2578Y3801D01*
X2578Y3795D01*
X2576Y3795D01*
X2576Y3787D01*
X2574Y3787D01*
X2574Y3745D01*
X2576Y3745D01*
X2576Y3731D01*
X2578Y3731D01*
X2578Y3719D01*
X2580Y3719D01*
X2580Y3707D01*
X2582Y3707D01*
X2582Y3697D01*
X3342Y3697D01*
X3342Y3695D01*
X3348Y3695D01*
X3348Y3693D01*
X3352Y3693D01*
X3352Y3691D01*
X3356Y3691D01*
X3356Y3689D01*
X3358Y3689D01*
X3358Y3687D01*
X3362Y3687D01*
X3362Y3685D01*
X3364Y3685D01*
X3364Y3683D01*
X3366Y3683D01*
X3366Y3679D01*
X3368Y3679D01*
X3368Y3677D01*
X3370Y3677D01*
X3370Y3673D01*
X3372Y3673D01*
X3372Y3667D01*
X3374Y3667D01*
X3374Y3657D01*
X3376Y3657D01*
X3376Y3653D01*
X3374Y3653D01*
X3374Y3643D01*
X3372Y3643D01*
X3372Y3637D01*
X3370Y3637D01*
X3370Y3635D01*
X3368Y3635D01*
X3368Y3631D01*
X3366Y3631D01*
X3366Y3629D01*
X3364Y3629D01*
X3364Y3627D01*
X3362Y3627D01*
X3362Y3625D01*
X3360Y3625D01*
X3360Y3623D01*
X3358Y3623D01*
X3358Y3621D01*
X3356Y3621D01*
X3356Y3197D01*
X3358Y3197D01*
X3358Y3195D01*
X3362Y3195D01*
X3362Y3193D01*
X3364Y3193D01*
X3364Y3191D01*
X3366Y3191D01*
X3366Y3189D01*
X3368Y3189D01*
X3368Y3187D01*
X3370Y3187D01*
X3370Y3185D01*
X3372Y3185D01*
X3372Y3181D01*
X3374Y3181D01*
X3374Y3179D01*
X3376Y3179D01*
X3376Y3175D01*
X3378Y3175D01*
X3378Y3169D01*
X3380Y3169D01*
X3380Y3159D01*
X3382Y3159D01*
X3382Y3153D01*
X3380Y3153D01*
X3380Y3143D01*
X3378Y3143D01*
X3378Y3137D01*
X3376Y3137D01*
X3376Y3133D01*
X3374Y3133D01*
X3374Y3129D01*
X3372Y3129D01*
X3372Y3127D01*
X3370Y3127D01*
X3370Y3123D01*
X3368Y3123D01*
X3368Y3121D01*
X3366Y3121D01*
X3366Y3119D01*
X3362Y3119D01*
X3362Y3117D01*
X3360Y3117D01*
X3360Y3115D01*
X3356Y3115D01*
X3356Y3113D01*
X3352Y3113D01*
X3352Y3111D01*
X3346Y3111D01*
X3346Y3109D01*
X3336Y3109D01*
X3336Y3107D01*
X3578Y3107D01*
X3578Y3199D01*
X3580Y3199D01*
X3580Y3335D01*
X3582Y3335D01*
X3582Y3439D01*
X3584Y3439D01*
X3584Y3523D01*
X3586Y3523D01*
X3586Y3579D01*
X3848Y3579D01*
X3848Y3581D01*
X3872Y3581D01*
X3872Y3583D01*
X3884Y3583D01*
X3884Y3585D01*
X3892Y3585D01*
X3892Y3587D01*
X3900Y3587D01*
X3900Y3589D01*
X3906Y3589D01*
X3906Y3591D01*
X3912Y3591D01*
X3912Y3593D01*
X3916Y3593D01*
X3916Y3595D01*
X3922Y3595D01*
X3922Y3597D01*
X3926Y3597D01*
X3926Y3599D01*
X3930Y3599D01*
X3930Y3601D01*
X3932Y3601D01*
X3932Y3603D01*
X3936Y3603D01*
X3936Y3605D01*
X3938Y3605D01*
X3938Y3607D01*
X3942Y3607D01*
X3942Y3609D01*
X3944Y3609D01*
X3944Y3611D01*
X3946Y3611D01*
X3946Y3613D01*
X3948Y3613D01*
X3948Y3615D01*
X3952Y3615D01*
X3952Y3617D01*
X3954Y3617D01*
X3954Y3619D01*
X3956Y3619D01*
X3956Y3621D01*
X3958Y3621D01*
X3958Y3625D01*
X3960Y3625D01*
X3960Y3627D01*
X3962Y3627D01*
X3962Y3629D01*
X3964Y3629D01*
X3964Y3633D01*
X3966Y3633D01*
X3966Y3635D01*
X3968Y3635D01*
X3968Y3639D01*
X3970Y3639D01*
X3970Y3643D01*
X3972Y3643D01*
X3972Y3647D01*
X3974Y3647D01*
X3974Y3651D01*
X3976Y3651D01*
X3976Y3657D01*
X3978Y3657D01*
X3978Y3663D01*
X3980Y3663D01*
X3980Y3669D01*
X3982Y3669D01*
X3982Y3675D01*
X3984Y3675D01*
X3984Y3685D01*
X3986Y3685D01*
X3986Y3695D01*
X3988Y3695D01*
X3988Y3745D01*
X3986Y3745D01*
X3986Y3759D01*
X3984Y3759D01*
X3984Y3769D01*
X3982Y3769D01*
X3982Y3779D01*
X3980Y3779D01*
X3980Y3789D01*
X3978Y3789D01*
X3978Y3797D01*
X3976Y3797D01*
X3976Y3805D01*
X3974Y3805D01*
X3974Y3813D01*
X3972Y3813D01*
X3972Y3819D01*
X3970Y3819D01*
X3970Y3825D01*
X3968Y3825D01*
X3968Y3831D01*
X3966Y3831D01*
X3966Y3837D01*
X3964Y3837D01*
X3964Y3843D01*
X3962Y3843D01*
X3962Y3849D01*
X3960Y3849D01*
X3960Y3853D01*
X3958Y3853D01*
X3958Y3859D01*
X3956Y3859D01*
X3956Y3865D01*
X3954Y3865D01*
X3954Y3869D01*
X3952Y3869D01*
X3952Y3873D01*
X3950Y3873D01*
X3950Y3879D01*
X3948Y3879D01*
X3948Y3883D01*
X3946Y3883D01*
X3946Y3887D01*
X3944Y3887D01*
X3944Y3891D01*
X2714Y3891D01*
G37*
D02*
G36*
X242Y3889D02*
X242Y3887D01*
X226Y3887D01*
X226Y3885D01*
X214Y3885D01*
X214Y3883D01*
X206Y3883D01*
X206Y3881D01*
X198Y3881D01*
X198Y3879D01*
X192Y3879D01*
X192Y3877D01*
X186Y3877D01*
X186Y3875D01*
X182Y3875D01*
X182Y3873D01*
X178Y3873D01*
X178Y3871D01*
X174Y3871D01*
X174Y3869D01*
X170Y3869D01*
X170Y3867D01*
X166Y3867D01*
X166Y3865D01*
X162Y3865D01*
X162Y3863D01*
X160Y3863D01*
X160Y3861D01*
X156Y3861D01*
X156Y3859D01*
X154Y3859D01*
X154Y3857D01*
X152Y3857D01*
X152Y3855D01*
X148Y3855D01*
X148Y3853D01*
X146Y3853D01*
X146Y3851D01*
X144Y3851D01*
X144Y3849D01*
X142Y3849D01*
X142Y3847D01*
X140Y3847D01*
X140Y3845D01*
X138Y3845D01*
X138Y3843D01*
X136Y3843D01*
X136Y3841D01*
X134Y3841D01*
X134Y3837D01*
X132Y3837D01*
X132Y3835D01*
X130Y3835D01*
X130Y3833D01*
X128Y3833D01*
X128Y3829D01*
X126Y3829D01*
X126Y3825D01*
X124Y3825D01*
X124Y3823D01*
X122Y3823D01*
X122Y3819D01*
X120Y3819D01*
X120Y3815D01*
X118Y3815D01*
X118Y3809D01*
X116Y3809D01*
X116Y3805D01*
X114Y3805D01*
X114Y3799D01*
X112Y3799D01*
X112Y3793D01*
X110Y3793D01*
X110Y3783D01*
X108Y3783D01*
X108Y3749D01*
X110Y3749D01*
X110Y3735D01*
X112Y3735D01*
X112Y3723D01*
X114Y3723D01*
X114Y3711D01*
X116Y3711D01*
X116Y3701D01*
X118Y3701D01*
X118Y3693D01*
X120Y3693D01*
X120Y3685D01*
X122Y3685D01*
X122Y3675D01*
X124Y3675D01*
X124Y3667D01*
X126Y3667D01*
X126Y3661D01*
X128Y3661D01*
X128Y3653D01*
X130Y3653D01*
X130Y3647D01*
X842Y3647D01*
X842Y3645D01*
X848Y3645D01*
X848Y3643D01*
X852Y3643D01*
X852Y3641D01*
X856Y3641D01*
X856Y3639D01*
X858Y3639D01*
X858Y3637D01*
X862Y3637D01*
X862Y3635D01*
X864Y3635D01*
X864Y3633D01*
X866Y3633D01*
X866Y3629D01*
X868Y3629D01*
X868Y3627D01*
X870Y3627D01*
X870Y3623D01*
X872Y3623D01*
X872Y3617D01*
X874Y3617D01*
X874Y3607D01*
X876Y3607D01*
X876Y3603D01*
X874Y3603D01*
X874Y3593D01*
X872Y3593D01*
X872Y3587D01*
X870Y3587D01*
X870Y3585D01*
X868Y3585D01*
X868Y3581D01*
X866Y3581D01*
X866Y3579D01*
X864Y3579D01*
X864Y3577D01*
X862Y3577D01*
X862Y3575D01*
X860Y3575D01*
X860Y3573D01*
X858Y3573D01*
X858Y3571D01*
X856Y3571D01*
X856Y3297D01*
X858Y3297D01*
X858Y3295D01*
X862Y3295D01*
X862Y3293D01*
X864Y3293D01*
X864Y3291D01*
X866Y3291D01*
X866Y3289D01*
X868Y3289D01*
X868Y3287D01*
X870Y3287D01*
X870Y3285D01*
X872Y3285D01*
X872Y3281D01*
X874Y3281D01*
X874Y3279D01*
X876Y3279D01*
X876Y3275D01*
X878Y3275D01*
X878Y3269D01*
X880Y3269D01*
X880Y3259D01*
X882Y3259D01*
X882Y3253D01*
X880Y3253D01*
X880Y3243D01*
X878Y3243D01*
X878Y3237D01*
X876Y3237D01*
X876Y3233D01*
X874Y3233D01*
X874Y3229D01*
X872Y3229D01*
X872Y3227D01*
X870Y3227D01*
X870Y3223D01*
X868Y3223D01*
X868Y3221D01*
X866Y3221D01*
X866Y3219D01*
X862Y3219D01*
X862Y3217D01*
X860Y3217D01*
X860Y3215D01*
X856Y3215D01*
X856Y3213D01*
X852Y3213D01*
X852Y3211D01*
X846Y3211D01*
X846Y3209D01*
X836Y3209D01*
X836Y3207D01*
X1778Y3207D01*
X1778Y3209D01*
X1776Y3209D01*
X1776Y3213D01*
X1774Y3213D01*
X1774Y3217D01*
X1772Y3217D01*
X1772Y3221D01*
X1770Y3221D01*
X1770Y3225D01*
X1768Y3225D01*
X1768Y3229D01*
X1766Y3229D01*
X1766Y3233D01*
X1764Y3233D01*
X1764Y3235D01*
X1762Y3235D01*
X1762Y3239D01*
X1760Y3239D01*
X1760Y3243D01*
X1758Y3243D01*
X1758Y3247D01*
X1756Y3247D01*
X1756Y3251D01*
X1754Y3251D01*
X1754Y3255D01*
X1752Y3255D01*
X1752Y3259D01*
X1750Y3259D01*
X1750Y3261D01*
X1748Y3261D01*
X1748Y3265D01*
X1746Y3265D01*
X1746Y3269D01*
X1744Y3269D01*
X1744Y3273D01*
X1742Y3273D01*
X1742Y3277D01*
X1740Y3277D01*
X1740Y3281D01*
X1738Y3281D01*
X1738Y3283D01*
X1736Y3283D01*
X1736Y3287D01*
X1734Y3287D01*
X1734Y3291D01*
X1732Y3291D01*
X1732Y3295D01*
X1730Y3295D01*
X1730Y3299D01*
X1728Y3299D01*
X1728Y3303D01*
X1726Y3303D01*
X1726Y3307D01*
X1724Y3307D01*
X1724Y3309D01*
X1722Y3309D01*
X1722Y3313D01*
X1720Y3313D01*
X1720Y3317D01*
X1718Y3317D01*
X1718Y3321D01*
X1716Y3321D01*
X1716Y3325D01*
X1714Y3325D01*
X1714Y3329D01*
X1712Y3329D01*
X1712Y3333D01*
X1710Y3333D01*
X1710Y3335D01*
X1708Y3335D01*
X1708Y3339D01*
X1706Y3339D01*
X1706Y3343D01*
X1704Y3343D01*
X1704Y3347D01*
X1702Y3347D01*
X1702Y3351D01*
X1700Y3351D01*
X1700Y3355D01*
X1698Y3355D01*
X1698Y3359D01*
X1696Y3359D01*
X1696Y3361D01*
X1694Y3361D01*
X1694Y3365D01*
X1692Y3365D01*
X1692Y3369D01*
X1690Y3369D01*
X1690Y3373D01*
X1688Y3373D01*
X1688Y3377D01*
X1686Y3377D01*
X1686Y3381D01*
X1684Y3381D01*
X1684Y3385D01*
X1682Y3385D01*
X1682Y3389D01*
X1680Y3389D01*
X1680Y3391D01*
X1678Y3391D01*
X1678Y3395D01*
X1676Y3395D01*
X1676Y3399D01*
X1674Y3399D01*
X1674Y3403D01*
X1672Y3403D01*
X1672Y3407D01*
X1670Y3407D01*
X1670Y3411D01*
X1668Y3411D01*
X1668Y3415D01*
X1666Y3415D01*
X1666Y3419D01*
X1664Y3419D01*
X1664Y3421D01*
X1662Y3421D01*
X1662Y3425D01*
X1660Y3425D01*
X1660Y3429D01*
X1658Y3429D01*
X1658Y3433D01*
X1656Y3433D01*
X1656Y3437D01*
X1654Y3437D01*
X1654Y3441D01*
X1652Y3441D01*
X1652Y3445D01*
X1650Y3445D01*
X1650Y3449D01*
X1648Y3449D01*
X1648Y3451D01*
X1646Y3451D01*
X1646Y3455D01*
X1644Y3455D01*
X1644Y3459D01*
X1642Y3459D01*
X1642Y3463D01*
X1640Y3463D01*
X1640Y3467D01*
X1638Y3467D01*
X1638Y3471D01*
X1636Y3471D01*
X1636Y3475D01*
X1634Y3475D01*
X1634Y3479D01*
X1632Y3479D01*
X1632Y3481D01*
X1630Y3481D01*
X1630Y3485D01*
X1628Y3485D01*
X1628Y3489D01*
X1626Y3489D01*
X1626Y3493D01*
X1624Y3493D01*
X1624Y3497D01*
X1622Y3497D01*
X1622Y3501D01*
X1620Y3501D01*
X1620Y3505D01*
X1618Y3505D01*
X1618Y3509D01*
X1616Y3509D01*
X1616Y3511D01*
X1614Y3511D01*
X1614Y3515D01*
X1612Y3515D01*
X1612Y3519D01*
X1610Y3519D01*
X1610Y3523D01*
X1608Y3523D01*
X1608Y3527D01*
X1606Y3527D01*
X1606Y3531D01*
X1604Y3531D01*
X1604Y3535D01*
X1602Y3535D01*
X1602Y3539D01*
X1600Y3539D01*
X1600Y3543D01*
X1598Y3543D01*
X1598Y3545D01*
X1596Y3545D01*
X1596Y3549D01*
X1594Y3549D01*
X1594Y3553D01*
X1592Y3553D01*
X1592Y3557D01*
X1590Y3557D01*
X1590Y3561D01*
X1588Y3561D01*
X1588Y3565D01*
X1586Y3565D01*
X1586Y3569D01*
X1584Y3569D01*
X1584Y3573D01*
X1582Y3573D01*
X1582Y3577D01*
X1580Y3577D01*
X1580Y3579D01*
X1578Y3579D01*
X1578Y3583D01*
X1576Y3583D01*
X1576Y3587D01*
X1574Y3587D01*
X1574Y3591D01*
X1572Y3591D01*
X1572Y3595D01*
X1570Y3595D01*
X1570Y3599D01*
X1568Y3599D01*
X1568Y3603D01*
X1566Y3603D01*
X1566Y3607D01*
X1564Y3607D01*
X1564Y3611D01*
X1562Y3611D01*
X1562Y3615D01*
X1560Y3615D01*
X1560Y3617D01*
X1558Y3617D01*
X1558Y3621D01*
X1556Y3621D01*
X1556Y3625D01*
X1554Y3625D01*
X1554Y3629D01*
X1552Y3629D01*
X1552Y3633D01*
X1550Y3633D01*
X1550Y3637D01*
X1548Y3637D01*
X1548Y3641D01*
X1546Y3641D01*
X1546Y3645D01*
X1544Y3645D01*
X1544Y3649D01*
X1542Y3649D01*
X1542Y3651D01*
X1540Y3651D01*
X1540Y3655D01*
X1538Y3655D01*
X1538Y3659D01*
X1536Y3659D01*
X1536Y3663D01*
X1534Y3663D01*
X1534Y3667D01*
X1532Y3667D01*
X1532Y3671D01*
X1530Y3671D01*
X1530Y3675D01*
X1528Y3675D01*
X1528Y3679D01*
X1526Y3679D01*
X1526Y3683D01*
X1524Y3683D01*
X1524Y3685D01*
X1522Y3685D01*
X1522Y3689D01*
X1520Y3689D01*
X1520Y3693D01*
X1518Y3693D01*
X1518Y3697D01*
X1516Y3697D01*
X1516Y3701D01*
X1514Y3701D01*
X1514Y3705D01*
X1512Y3705D01*
X1512Y3709D01*
X1510Y3709D01*
X1510Y3713D01*
X1508Y3713D01*
X1508Y3717D01*
X1506Y3717D01*
X1506Y3721D01*
X1504Y3721D01*
X1504Y3723D01*
X1502Y3723D01*
X1502Y3727D01*
X1500Y3727D01*
X1500Y3731D01*
X1498Y3731D01*
X1498Y3735D01*
X1496Y3735D01*
X1496Y3739D01*
X1494Y3739D01*
X1494Y3743D01*
X1492Y3743D01*
X1492Y3747D01*
X1490Y3747D01*
X1490Y3751D01*
X1488Y3751D01*
X1488Y3755D01*
X1486Y3755D01*
X1486Y3759D01*
X1484Y3759D01*
X1484Y3763D01*
X1482Y3763D01*
X1482Y3765D01*
X1480Y3765D01*
X1480Y3769D01*
X1478Y3769D01*
X1478Y3773D01*
X1476Y3773D01*
X1476Y3777D01*
X1474Y3777D01*
X1474Y3781D01*
X1472Y3781D01*
X1472Y3785D01*
X1470Y3785D01*
X1470Y3789D01*
X1468Y3789D01*
X1468Y3793D01*
X1466Y3793D01*
X1466Y3797D01*
X1464Y3797D01*
X1464Y3801D01*
X1462Y3801D01*
X1462Y3805D01*
X1460Y3805D01*
X1460Y3807D01*
X1458Y3807D01*
X1458Y3811D01*
X1456Y3811D01*
X1456Y3815D01*
X1454Y3815D01*
X1454Y3819D01*
X1452Y3819D01*
X1452Y3823D01*
X1450Y3823D01*
X1450Y3827D01*
X1448Y3827D01*
X1448Y3831D01*
X1446Y3831D01*
X1446Y3835D01*
X1444Y3835D01*
X1444Y3839D01*
X1442Y3839D01*
X1442Y3843D01*
X1440Y3843D01*
X1440Y3847D01*
X1438Y3847D01*
X1438Y3849D01*
X1436Y3849D01*
X1436Y3853D01*
X1434Y3853D01*
X1434Y3857D01*
X1432Y3857D01*
X1432Y3861D01*
X1430Y3861D01*
X1430Y3865D01*
X1428Y3865D01*
X1428Y3869D01*
X1426Y3869D01*
X1426Y3873D01*
X1424Y3873D01*
X1424Y3877D01*
X1422Y3877D01*
X1422Y3881D01*
X1420Y3881D01*
X1420Y3885D01*
X1418Y3885D01*
X1418Y3889D01*
X242Y3889D01*
G37*
D02*
G36*
X2584Y3697D02*
X2584Y3687D01*
X2586Y3687D01*
X2586Y3679D01*
X2588Y3679D01*
X2588Y3671D01*
X2590Y3671D01*
X2590Y3663D01*
X2592Y3663D01*
X2592Y3655D01*
X2594Y3655D01*
X2594Y3649D01*
X2596Y3649D01*
X2596Y3641D01*
X2598Y3641D01*
X2598Y3635D01*
X2600Y3635D01*
X2600Y3629D01*
X2602Y3629D01*
X2602Y3623D01*
X2604Y3623D01*
X2604Y3615D01*
X2606Y3615D01*
X2606Y3609D01*
X2608Y3609D01*
X2608Y3605D01*
X2610Y3605D01*
X2610Y3599D01*
X2612Y3599D01*
X2612Y3593D01*
X2614Y3593D01*
X2614Y3589D01*
X2616Y3589D01*
X2616Y3583D01*
X2618Y3583D01*
X2618Y3579D01*
X2940Y3579D01*
X2940Y3571D01*
X2942Y3571D01*
X2942Y3517D01*
X2944Y3517D01*
X2944Y3459D01*
X2946Y3459D01*
X2946Y3389D01*
X2948Y3389D01*
X2948Y3305D01*
X2950Y3305D01*
X2950Y3205D01*
X2952Y3205D01*
X2952Y3079D01*
X2954Y3079D01*
X2954Y2897D01*
X2956Y2897D01*
X2956Y2513D01*
X3232Y2513D01*
X3232Y2515D01*
X3222Y2515D01*
X3222Y2517D01*
X3216Y2517D01*
X3216Y2519D01*
X3212Y2519D01*
X3212Y2521D01*
X3210Y2521D01*
X3210Y2523D01*
X3206Y2523D01*
X3206Y2525D01*
X3204Y2525D01*
X3204Y2527D01*
X3202Y2527D01*
X3202Y2531D01*
X3200Y2531D01*
X3200Y2533D01*
X3198Y2533D01*
X3198Y2537D01*
X3196Y2537D01*
X3196Y2541D01*
X3194Y2541D01*
X3194Y2547D01*
X3192Y2547D01*
X3192Y2563D01*
X3194Y2563D01*
X3194Y2571D01*
X3196Y2571D01*
X3196Y2575D01*
X3198Y2575D01*
X3198Y2577D01*
X3200Y2577D01*
X3200Y2581D01*
X3202Y2581D01*
X3202Y2583D01*
X3204Y2583D01*
X3204Y2585D01*
X3206Y2585D01*
X3206Y2587D01*
X3208Y2587D01*
X3208Y2589D01*
X3212Y2589D01*
X3212Y3505D01*
X3214Y3505D01*
X3214Y3613D01*
X3194Y3613D01*
X3194Y3697D01*
X2584Y3697D01*
G37*
D02*
G36*
X3276Y3697D02*
X3276Y3671D01*
X3296Y3671D01*
X3296Y3675D01*
X3298Y3675D01*
X3298Y3677D01*
X3300Y3677D01*
X3300Y3681D01*
X3302Y3681D01*
X3302Y3683D01*
X3304Y3683D01*
X3304Y3685D01*
X3306Y3685D01*
X3306Y3687D01*
X3308Y3687D01*
X3308Y3689D01*
X3312Y3689D01*
X3312Y3691D01*
X3314Y3691D01*
X3314Y3693D01*
X3318Y3693D01*
X3318Y3695D01*
X3326Y3695D01*
X3326Y3697D01*
X3276Y3697D01*
G37*
D02*
G36*
X132Y3647D02*
X132Y3641D01*
X134Y3641D01*
X134Y3635D01*
X136Y3635D01*
X136Y3629D01*
X138Y3629D01*
X138Y3623D01*
X140Y3623D01*
X140Y3617D01*
X142Y3617D01*
X142Y3611D01*
X144Y3611D01*
X144Y3605D01*
X146Y3605D01*
X146Y3601D01*
X148Y3601D01*
X148Y3595D01*
X150Y3595D01*
X150Y3589D01*
X152Y3589D01*
X152Y3585D01*
X154Y3585D01*
X154Y3579D01*
X450Y3579D01*
X450Y3577D01*
X452Y3577D01*
X452Y3525D01*
X454Y3525D01*
X454Y3471D01*
X456Y3471D01*
X456Y3405D01*
X458Y3405D01*
X458Y3333D01*
X460Y3333D01*
X460Y3251D01*
X462Y3251D01*
X462Y3149D01*
X464Y3149D01*
X464Y3029D01*
X466Y3029D01*
X466Y2879D01*
X468Y2879D01*
X468Y2659D01*
X470Y2659D01*
X470Y2463D01*
X732Y2463D01*
X732Y2465D01*
X722Y2465D01*
X722Y2467D01*
X716Y2467D01*
X716Y2469D01*
X712Y2469D01*
X712Y2471D01*
X710Y2471D01*
X710Y2473D01*
X706Y2473D01*
X706Y2475D01*
X704Y2475D01*
X704Y2477D01*
X702Y2477D01*
X702Y2481D01*
X700Y2481D01*
X700Y2483D01*
X698Y2483D01*
X698Y2487D01*
X696Y2487D01*
X696Y2491D01*
X694Y2491D01*
X694Y2497D01*
X692Y2497D01*
X692Y2513D01*
X694Y2513D01*
X694Y2521D01*
X696Y2521D01*
X696Y2525D01*
X698Y2525D01*
X698Y2527D01*
X700Y2527D01*
X700Y2531D01*
X702Y2531D01*
X702Y2533D01*
X704Y2533D01*
X704Y2535D01*
X706Y2535D01*
X706Y2537D01*
X708Y2537D01*
X708Y2539D01*
X712Y2539D01*
X712Y3451D01*
X714Y3451D01*
X714Y3563D01*
X694Y3563D01*
X694Y3647D01*
X132Y3647D01*
G37*
D02*
G36*
X776Y3647D02*
X776Y3621D01*
X796Y3621D01*
X796Y3625D01*
X798Y3625D01*
X798Y3627D01*
X800Y3627D01*
X800Y3631D01*
X802Y3631D01*
X802Y3633D01*
X804Y3633D01*
X804Y3635D01*
X806Y3635D01*
X806Y3637D01*
X808Y3637D01*
X808Y3639D01*
X812Y3639D01*
X812Y3641D01*
X814Y3641D01*
X814Y3643D01*
X818Y3643D01*
X818Y3645D01*
X826Y3645D01*
X826Y3647D01*
X776Y3647D01*
G37*
D02*
G36*
X3276Y3641D02*
X3276Y3613D01*
X3258Y3613D01*
X3258Y3497D01*
X3256Y3497D01*
X3256Y3107D01*
X3332Y3107D01*
X3332Y3109D01*
X3320Y3109D01*
X3320Y3111D01*
X3314Y3111D01*
X3314Y3113D01*
X3310Y3113D01*
X3310Y3115D01*
X3308Y3115D01*
X3308Y3117D01*
X3304Y3117D01*
X3304Y3119D01*
X3302Y3119D01*
X3302Y3121D01*
X3300Y3121D01*
X3300Y3123D01*
X3298Y3123D01*
X3298Y3125D01*
X3296Y3125D01*
X3296Y3129D01*
X3294Y3129D01*
X3294Y3131D01*
X3292Y3131D01*
X3292Y3135D01*
X3290Y3135D01*
X3290Y3139D01*
X3288Y3139D01*
X3288Y3147D01*
X3286Y3147D01*
X3286Y3163D01*
X3288Y3163D01*
X3288Y3171D01*
X3290Y3171D01*
X3290Y3175D01*
X3292Y3175D01*
X3292Y3179D01*
X3294Y3179D01*
X3294Y3183D01*
X3296Y3183D01*
X3296Y3185D01*
X3298Y3185D01*
X3298Y3187D01*
X3300Y3187D01*
X3300Y3189D01*
X3302Y3189D01*
X3302Y3191D01*
X3304Y3191D01*
X3304Y3193D01*
X3306Y3193D01*
X3306Y3195D01*
X3310Y3195D01*
X3310Y3197D01*
X3312Y3197D01*
X3312Y3621D01*
X3310Y3621D01*
X3310Y3623D01*
X3306Y3623D01*
X3306Y3625D01*
X3304Y3625D01*
X3304Y3627D01*
X3302Y3627D01*
X3302Y3631D01*
X3300Y3631D01*
X3300Y3633D01*
X3298Y3633D01*
X3298Y3637D01*
X3296Y3637D01*
X3296Y3641D01*
X3276Y3641D01*
G37*
D02*
G36*
X776Y3591D02*
X776Y3563D01*
X758Y3563D01*
X758Y3443D01*
X756Y3443D01*
X756Y3207D01*
X832Y3207D01*
X832Y3209D01*
X820Y3209D01*
X820Y3211D01*
X814Y3211D01*
X814Y3213D01*
X810Y3213D01*
X810Y3215D01*
X808Y3215D01*
X808Y3217D01*
X804Y3217D01*
X804Y3219D01*
X802Y3219D01*
X802Y3221D01*
X800Y3221D01*
X800Y3223D01*
X798Y3223D01*
X798Y3225D01*
X796Y3225D01*
X796Y3229D01*
X794Y3229D01*
X794Y3231D01*
X792Y3231D01*
X792Y3235D01*
X790Y3235D01*
X790Y3239D01*
X788Y3239D01*
X788Y3247D01*
X786Y3247D01*
X786Y3263D01*
X788Y3263D01*
X788Y3271D01*
X790Y3271D01*
X790Y3275D01*
X792Y3275D01*
X792Y3279D01*
X794Y3279D01*
X794Y3283D01*
X796Y3283D01*
X796Y3285D01*
X798Y3285D01*
X798Y3287D01*
X800Y3287D01*
X800Y3289D01*
X802Y3289D01*
X802Y3291D01*
X804Y3291D01*
X804Y3293D01*
X806Y3293D01*
X806Y3295D01*
X810Y3295D01*
X810Y3297D01*
X812Y3297D01*
X812Y3571D01*
X810Y3571D01*
X810Y3573D01*
X806Y3573D01*
X806Y3575D01*
X804Y3575D01*
X804Y3577D01*
X802Y3577D01*
X802Y3581D01*
X800Y3581D01*
X800Y3583D01*
X798Y3583D01*
X798Y3587D01*
X796Y3587D01*
X796Y3591D01*
X776Y3591D01*
G37*
D02*
G36*
X756Y3207D02*
X756Y3205D01*
X1780Y3205D01*
X1780Y3207D01*
X756Y3207D01*
G37*
D02*
G36*
X756Y3207D02*
X756Y3205D01*
X1780Y3205D01*
X1780Y3207D01*
X756Y3207D01*
G37*
D02*
G36*
X756Y3205D02*
X756Y3147D01*
X1442Y3147D01*
X1442Y3145D01*
X1448Y3145D01*
X1448Y3143D01*
X1452Y3143D01*
X1452Y3141D01*
X1456Y3141D01*
X1456Y3139D01*
X1458Y3139D01*
X1458Y3137D01*
X1462Y3137D01*
X1462Y3135D01*
X1464Y3135D01*
X1464Y3133D01*
X1466Y3133D01*
X1466Y3129D01*
X1468Y3129D01*
X1468Y3127D01*
X1470Y3127D01*
X1470Y3123D01*
X1472Y3123D01*
X1472Y3117D01*
X1474Y3117D01*
X1474Y3107D01*
X1476Y3107D01*
X1476Y3103D01*
X1474Y3103D01*
X1474Y3093D01*
X1472Y3093D01*
X1472Y3087D01*
X1470Y3087D01*
X1470Y3085D01*
X1468Y3085D01*
X1468Y3081D01*
X1466Y3081D01*
X1466Y3079D01*
X1464Y3079D01*
X1464Y3077D01*
X1462Y3077D01*
X1462Y3075D01*
X1460Y3075D01*
X1460Y3073D01*
X1458Y3073D01*
X1458Y3071D01*
X1454Y3071D01*
X1454Y3069D01*
X1452Y3069D01*
X1452Y3067D01*
X1446Y3067D01*
X1446Y3065D01*
X1438Y3065D01*
X1438Y3061D01*
X1436Y3061D01*
X1436Y3057D01*
X1434Y3057D01*
X1434Y3053D01*
X1432Y3053D01*
X1432Y3049D01*
X1430Y3049D01*
X1430Y3045D01*
X1428Y3045D01*
X1428Y3041D01*
X1426Y3041D01*
X1426Y3037D01*
X1424Y3037D01*
X1424Y3033D01*
X1422Y3033D01*
X1422Y3029D01*
X1420Y3029D01*
X1420Y3025D01*
X1418Y3025D01*
X1418Y3021D01*
X1416Y3021D01*
X1416Y3017D01*
X1414Y3017D01*
X1414Y2989D01*
X1416Y2989D01*
X1416Y2985D01*
X1418Y2985D01*
X1418Y2981D01*
X1420Y2981D01*
X1420Y2975D01*
X1422Y2975D01*
X1422Y2971D01*
X1424Y2971D01*
X1424Y2967D01*
X1426Y2967D01*
X1426Y2961D01*
X1428Y2961D01*
X1428Y2957D01*
X1430Y2957D01*
X1430Y2953D01*
X1432Y2953D01*
X1432Y2947D01*
X1434Y2947D01*
X1434Y2943D01*
X1436Y2943D01*
X1436Y2939D01*
X1438Y2939D01*
X1438Y2933D01*
X1440Y2933D01*
X1440Y2929D01*
X1442Y2929D01*
X1442Y2925D01*
X1444Y2925D01*
X1444Y2919D01*
X1446Y2919D01*
X1446Y2915D01*
X1448Y2915D01*
X1448Y2911D01*
X1450Y2911D01*
X1450Y2905D01*
X1452Y2905D01*
X1452Y2901D01*
X1454Y2901D01*
X1454Y2897D01*
X1456Y2897D01*
X1456Y2891D01*
X1458Y2891D01*
X1458Y2887D01*
X1460Y2887D01*
X1460Y2881D01*
X1462Y2881D01*
X1462Y2877D01*
X1464Y2877D01*
X1464Y2873D01*
X1466Y2873D01*
X1466Y2867D01*
X1468Y2867D01*
X1468Y2863D01*
X1590Y2863D01*
X1590Y2861D01*
X1598Y2861D01*
X1598Y2859D01*
X1604Y2859D01*
X1604Y2857D01*
X1608Y2857D01*
X1608Y2855D01*
X1610Y2855D01*
X1610Y2853D01*
X1614Y2853D01*
X1614Y2851D01*
X1616Y2851D01*
X1616Y2849D01*
X1618Y2849D01*
X1618Y2847D01*
X1620Y2847D01*
X1620Y2845D01*
X1622Y2845D01*
X1622Y2841D01*
X1624Y2841D01*
X1624Y2839D01*
X1626Y2839D01*
X1626Y2835D01*
X1628Y2835D01*
X1628Y2829D01*
X1630Y2829D01*
X1630Y2801D01*
X1628Y2801D01*
X1628Y2797D01*
X1626Y2797D01*
X1626Y2793D01*
X1624Y2793D01*
X1624Y2789D01*
X1622Y2789D01*
X1622Y2785D01*
X1620Y2785D01*
X1620Y2783D01*
X1618Y2783D01*
X1618Y2781D01*
X1616Y2781D01*
X1616Y2779D01*
X1612Y2779D01*
X1612Y2777D01*
X1610Y2777D01*
X1610Y2775D01*
X1608Y2775D01*
X1608Y2773D01*
X1604Y2773D01*
X1604Y2771D01*
X1598Y2771D01*
X1598Y2769D01*
X1586Y2769D01*
X1586Y2767D01*
X2020Y2767D01*
X2020Y2769D01*
X2018Y2769D01*
X2018Y2773D01*
X2016Y2773D01*
X2016Y2777D01*
X2014Y2777D01*
X2014Y2781D01*
X2012Y2781D01*
X2012Y2783D01*
X2010Y2783D01*
X2010Y2787D01*
X2008Y2787D01*
X2008Y2791D01*
X2006Y2791D01*
X2006Y2795D01*
X2004Y2795D01*
X2004Y2799D01*
X2002Y2799D01*
X2002Y2801D01*
X2000Y2801D01*
X2000Y2805D01*
X1998Y2805D01*
X1998Y2809D01*
X1996Y2809D01*
X1996Y2813D01*
X1994Y2813D01*
X1994Y2815D01*
X1992Y2815D01*
X1992Y2819D01*
X1990Y2819D01*
X1990Y2823D01*
X1988Y2823D01*
X1988Y2827D01*
X1986Y2827D01*
X1986Y2831D01*
X1984Y2831D01*
X1984Y2833D01*
X1982Y2833D01*
X1982Y2837D01*
X1980Y2837D01*
X1980Y2841D01*
X1978Y2841D01*
X1978Y2845D01*
X1976Y2845D01*
X1976Y2849D01*
X1974Y2849D01*
X1974Y2851D01*
X1972Y2851D01*
X1972Y2855D01*
X1970Y2855D01*
X1970Y2859D01*
X1968Y2859D01*
X1968Y2863D01*
X1966Y2863D01*
X1966Y2867D01*
X1964Y2867D01*
X1964Y2869D01*
X1962Y2869D01*
X1962Y2873D01*
X1960Y2873D01*
X1960Y2877D01*
X1958Y2877D01*
X1958Y2881D01*
X1956Y2881D01*
X1956Y2885D01*
X1954Y2885D01*
X1954Y2889D01*
X1952Y2889D01*
X1952Y2891D01*
X1950Y2891D01*
X1950Y2895D01*
X1948Y2895D01*
X1948Y2899D01*
X1946Y2899D01*
X1946Y2903D01*
X1944Y2903D01*
X1944Y2907D01*
X1942Y2907D01*
X1942Y2909D01*
X1940Y2909D01*
X1940Y2913D01*
X1938Y2913D01*
X1938Y2917D01*
X1936Y2917D01*
X1936Y2921D01*
X1934Y2921D01*
X1934Y2925D01*
X1932Y2925D01*
X1932Y2927D01*
X1930Y2927D01*
X1930Y2931D01*
X1928Y2931D01*
X1928Y2935D01*
X1926Y2935D01*
X1926Y2939D01*
X1924Y2939D01*
X1924Y2943D01*
X1922Y2943D01*
X1922Y2947D01*
X1920Y2947D01*
X1920Y2949D01*
X1918Y2949D01*
X1918Y2953D01*
X1916Y2953D01*
X1916Y2957D01*
X1914Y2957D01*
X1914Y2961D01*
X1912Y2961D01*
X1912Y2965D01*
X1910Y2965D01*
X1910Y2967D01*
X1908Y2967D01*
X1908Y2971D01*
X1906Y2971D01*
X1906Y2975D01*
X1904Y2975D01*
X1904Y2979D01*
X1902Y2979D01*
X1902Y2983D01*
X1900Y2983D01*
X1900Y2985D01*
X1898Y2985D01*
X1898Y2989D01*
X1896Y2989D01*
X1896Y2993D01*
X1894Y2993D01*
X1894Y2997D01*
X1892Y2997D01*
X1892Y3001D01*
X1890Y3001D01*
X1890Y3005D01*
X1888Y3005D01*
X1888Y3007D01*
X1886Y3007D01*
X1886Y3011D01*
X1884Y3011D01*
X1884Y3015D01*
X1882Y3015D01*
X1882Y3019D01*
X1880Y3019D01*
X1880Y3023D01*
X1878Y3023D01*
X1878Y3025D01*
X1876Y3025D01*
X1876Y3029D01*
X1874Y3029D01*
X1874Y3033D01*
X1872Y3033D01*
X1872Y3037D01*
X1870Y3037D01*
X1870Y3041D01*
X1868Y3041D01*
X1868Y3045D01*
X1866Y3045D01*
X1866Y3047D01*
X1864Y3047D01*
X1864Y3051D01*
X1862Y3051D01*
X1862Y3055D01*
X1860Y3055D01*
X1860Y3059D01*
X1858Y3059D01*
X1858Y3063D01*
X1856Y3063D01*
X1856Y3067D01*
X1854Y3067D01*
X1854Y3071D01*
X1852Y3071D01*
X1852Y3073D01*
X1850Y3073D01*
X1850Y3077D01*
X1848Y3077D01*
X1848Y3081D01*
X1846Y3081D01*
X1846Y3085D01*
X1844Y3085D01*
X1844Y3089D01*
X1842Y3089D01*
X1842Y3093D01*
X1840Y3093D01*
X1840Y3095D01*
X1838Y3095D01*
X1838Y3099D01*
X1836Y3099D01*
X1836Y3103D01*
X1834Y3103D01*
X1834Y3107D01*
X1832Y3107D01*
X1832Y3111D01*
X1830Y3111D01*
X1830Y3115D01*
X1828Y3115D01*
X1828Y3117D01*
X1826Y3117D01*
X1826Y3121D01*
X1824Y3121D01*
X1824Y3125D01*
X1822Y3125D01*
X1822Y3129D01*
X1820Y3129D01*
X1820Y3133D01*
X1818Y3133D01*
X1818Y3137D01*
X1816Y3137D01*
X1816Y3139D01*
X1814Y3139D01*
X1814Y3143D01*
X1812Y3143D01*
X1812Y3147D01*
X1810Y3147D01*
X1810Y3151D01*
X1808Y3151D01*
X1808Y3155D01*
X1806Y3155D01*
X1806Y3159D01*
X1804Y3159D01*
X1804Y3161D01*
X1802Y3161D01*
X1802Y3165D01*
X1800Y3165D01*
X1800Y3169D01*
X1798Y3169D01*
X1798Y3173D01*
X1796Y3173D01*
X1796Y3177D01*
X1794Y3177D01*
X1794Y3181D01*
X1792Y3181D01*
X1792Y3183D01*
X1790Y3183D01*
X1790Y3187D01*
X1788Y3187D01*
X1788Y3191D01*
X1786Y3191D01*
X1786Y3195D01*
X1784Y3195D01*
X1784Y3199D01*
X1782Y3199D01*
X1782Y3203D01*
X1780Y3203D01*
X1780Y3205D01*
X756Y3205D01*
G37*
D02*
G36*
X756Y3147D02*
X756Y3003D01*
X842Y3003D01*
X842Y3001D01*
X850Y3001D01*
X850Y2999D01*
X854Y2999D01*
X854Y2997D01*
X858Y2997D01*
X858Y2995D01*
X862Y2995D01*
X862Y2993D01*
X864Y2993D01*
X864Y2991D01*
X866Y2991D01*
X866Y2989D01*
X868Y2989D01*
X868Y2987D01*
X870Y2987D01*
X870Y2985D01*
X872Y2985D01*
X872Y2981D01*
X874Y2981D01*
X874Y2979D01*
X876Y2979D01*
X876Y2975D01*
X878Y2975D01*
X878Y2969D01*
X880Y2969D01*
X880Y2959D01*
X882Y2959D01*
X882Y2953D01*
X880Y2953D01*
X880Y2943D01*
X878Y2943D01*
X878Y2937D01*
X876Y2937D01*
X876Y2933D01*
X874Y2933D01*
X874Y2929D01*
X872Y2929D01*
X872Y2927D01*
X870Y2927D01*
X870Y2923D01*
X868Y2923D01*
X868Y2921D01*
X866Y2921D01*
X866Y2919D01*
X862Y2919D01*
X862Y2917D01*
X860Y2917D01*
X860Y2915D01*
X856Y2915D01*
X856Y2913D01*
X852Y2913D01*
X852Y2911D01*
X846Y2911D01*
X846Y2909D01*
X836Y2909D01*
X836Y2907D01*
X1012Y2907D01*
X1012Y2957D01*
X1014Y2957D01*
X1014Y2963D01*
X1016Y2963D01*
X1016Y2967D01*
X1018Y2967D01*
X1018Y2969D01*
X1020Y2969D01*
X1020Y2971D01*
X1022Y2971D01*
X1022Y2973D01*
X1026Y2973D01*
X1026Y2975D01*
X1126Y2975D01*
X1126Y2977D01*
X1128Y2977D01*
X1128Y2979D01*
X1132Y2979D01*
X1132Y2981D01*
X1134Y2981D01*
X1134Y2983D01*
X1136Y2983D01*
X1136Y2985D01*
X1140Y2985D01*
X1140Y2987D01*
X1142Y2987D01*
X1142Y2989D01*
X1144Y2989D01*
X1144Y2991D01*
X1148Y2991D01*
X1148Y2993D01*
X1150Y2993D01*
X1150Y2995D01*
X1152Y2995D01*
X1152Y2997D01*
X1156Y2997D01*
X1156Y2999D01*
X1158Y2999D01*
X1158Y3001D01*
X1160Y3001D01*
X1160Y3003D01*
X1164Y3003D01*
X1164Y3005D01*
X1166Y3005D01*
X1166Y3007D01*
X1168Y3007D01*
X1168Y3009D01*
X1172Y3009D01*
X1172Y3011D01*
X1174Y3011D01*
X1174Y3013D01*
X1176Y3013D01*
X1176Y3015D01*
X1180Y3015D01*
X1180Y3017D01*
X1182Y3017D01*
X1182Y3019D01*
X1184Y3019D01*
X1184Y3021D01*
X1188Y3021D01*
X1188Y3023D01*
X1190Y3023D01*
X1190Y3025D01*
X1192Y3025D01*
X1192Y3027D01*
X1196Y3027D01*
X1196Y3029D01*
X1198Y3029D01*
X1198Y3031D01*
X1200Y3031D01*
X1200Y3033D01*
X1204Y3033D01*
X1204Y3035D01*
X1206Y3035D01*
X1206Y3037D01*
X1208Y3037D01*
X1208Y3039D01*
X1212Y3039D01*
X1212Y3041D01*
X1214Y3041D01*
X1214Y3043D01*
X1216Y3043D01*
X1216Y3045D01*
X1220Y3045D01*
X1220Y3047D01*
X1222Y3047D01*
X1222Y3049D01*
X1224Y3049D01*
X1224Y3051D01*
X1228Y3051D01*
X1228Y3053D01*
X1230Y3053D01*
X1230Y3055D01*
X1232Y3055D01*
X1232Y3057D01*
X1236Y3057D01*
X1236Y3059D01*
X1238Y3059D01*
X1238Y3061D01*
X1240Y3061D01*
X1240Y3063D01*
X1244Y3063D01*
X1244Y3065D01*
X1246Y3065D01*
X1246Y3067D01*
X1248Y3067D01*
X1248Y3069D01*
X1252Y3069D01*
X1252Y3071D01*
X1254Y3071D01*
X1254Y3073D01*
X1256Y3073D01*
X1256Y3075D01*
X1260Y3075D01*
X1260Y3077D01*
X1262Y3077D01*
X1262Y3079D01*
X1264Y3079D01*
X1264Y3081D01*
X1268Y3081D01*
X1268Y3083D01*
X1270Y3083D01*
X1270Y3085D01*
X1272Y3085D01*
X1272Y3087D01*
X1276Y3087D01*
X1276Y3089D01*
X1278Y3089D01*
X1278Y3091D01*
X1280Y3091D01*
X1280Y3093D01*
X1284Y3093D01*
X1284Y3095D01*
X1286Y3095D01*
X1286Y3097D01*
X1288Y3097D01*
X1288Y3099D01*
X1292Y3099D01*
X1292Y3101D01*
X1294Y3101D01*
X1294Y3147D01*
X756Y3147D01*
G37*
D02*
G36*
X1376Y3147D02*
X1376Y3121D01*
X1396Y3121D01*
X1396Y3125D01*
X1398Y3125D01*
X1398Y3127D01*
X1400Y3127D01*
X1400Y3131D01*
X1402Y3131D01*
X1402Y3133D01*
X1404Y3133D01*
X1404Y3135D01*
X1406Y3135D01*
X1406Y3137D01*
X1408Y3137D01*
X1408Y3139D01*
X1412Y3139D01*
X1412Y3141D01*
X1414Y3141D01*
X1414Y3143D01*
X1418Y3143D01*
X1418Y3145D01*
X1426Y3145D01*
X1426Y3147D01*
X1376Y3147D01*
G37*
D02*
G36*
X3256Y3107D02*
X3256Y3105D01*
X3578Y3105D01*
X3578Y3107D01*
X3256Y3107D01*
G37*
D02*
G36*
X3256Y3107D02*
X3256Y3105D01*
X3578Y3105D01*
X3578Y3107D01*
X3256Y3107D01*
G37*
D02*
G36*
X3256Y3105D02*
X3256Y2903D01*
X3342Y2903D01*
X3342Y2901D01*
X3350Y2901D01*
X3350Y2899D01*
X3354Y2899D01*
X3354Y2897D01*
X3358Y2897D01*
X3358Y2895D01*
X3362Y2895D01*
X3362Y2893D01*
X3364Y2893D01*
X3364Y2891D01*
X3366Y2891D01*
X3366Y2889D01*
X3368Y2889D01*
X3368Y2887D01*
X3370Y2887D01*
X3370Y2885D01*
X3372Y2885D01*
X3372Y2881D01*
X3374Y2881D01*
X3374Y2879D01*
X3376Y2879D01*
X3376Y2875D01*
X3378Y2875D01*
X3378Y2869D01*
X3380Y2869D01*
X3380Y2859D01*
X3382Y2859D01*
X3382Y2853D01*
X3380Y2853D01*
X3380Y2843D01*
X3378Y2843D01*
X3378Y2837D01*
X3376Y2837D01*
X3376Y2833D01*
X3374Y2833D01*
X3374Y2829D01*
X3372Y2829D01*
X3372Y2827D01*
X3370Y2827D01*
X3370Y2823D01*
X3368Y2823D01*
X3368Y2821D01*
X3366Y2821D01*
X3366Y2819D01*
X3362Y2819D01*
X3362Y2817D01*
X3360Y2817D01*
X3360Y2815D01*
X3356Y2815D01*
X3356Y2813D01*
X3352Y2813D01*
X3352Y2811D01*
X3346Y2811D01*
X3346Y2809D01*
X3336Y2809D01*
X3336Y2807D01*
X3576Y2807D01*
X3576Y3009D01*
X3578Y3009D01*
X3578Y3105D01*
X3256Y3105D01*
G37*
D02*
G36*
X1314Y3063D02*
X1314Y3061D01*
X1312Y3061D01*
X1312Y3059D01*
X1308Y3059D01*
X1308Y3057D01*
X1306Y3057D01*
X1306Y3055D01*
X1304Y3055D01*
X1304Y3053D01*
X1300Y3053D01*
X1300Y3051D01*
X1298Y3051D01*
X1298Y3049D01*
X1296Y3049D01*
X1296Y3047D01*
X1292Y3047D01*
X1292Y3045D01*
X1290Y3045D01*
X1290Y3043D01*
X1288Y3043D01*
X1288Y3041D01*
X1284Y3041D01*
X1284Y3039D01*
X1282Y3039D01*
X1282Y3037D01*
X1280Y3037D01*
X1280Y3035D01*
X1276Y3035D01*
X1276Y3033D01*
X1274Y3033D01*
X1274Y3031D01*
X1272Y3031D01*
X1272Y3029D01*
X1268Y3029D01*
X1268Y3027D01*
X1266Y3027D01*
X1266Y3025D01*
X1264Y3025D01*
X1264Y3023D01*
X1260Y3023D01*
X1260Y3021D01*
X1258Y3021D01*
X1258Y3019D01*
X1256Y3019D01*
X1256Y3017D01*
X1252Y3017D01*
X1252Y3015D01*
X1250Y3015D01*
X1250Y3013D01*
X1248Y3013D01*
X1248Y3011D01*
X1244Y3011D01*
X1244Y3009D01*
X1242Y3009D01*
X1242Y3007D01*
X1240Y3007D01*
X1240Y3005D01*
X1236Y3005D01*
X1236Y3003D01*
X1234Y3003D01*
X1234Y3001D01*
X1232Y3001D01*
X1232Y2999D01*
X1228Y2999D01*
X1228Y2997D01*
X1226Y2997D01*
X1226Y2995D01*
X1224Y2995D01*
X1224Y2993D01*
X1220Y2993D01*
X1220Y2991D01*
X1218Y2991D01*
X1218Y2989D01*
X1216Y2989D01*
X1216Y2987D01*
X1212Y2987D01*
X1212Y2985D01*
X1210Y2985D01*
X1210Y2983D01*
X1208Y2983D01*
X1208Y2981D01*
X1204Y2981D01*
X1204Y2979D01*
X1202Y2979D01*
X1202Y2977D01*
X1200Y2977D01*
X1200Y2975D01*
X1196Y2975D01*
X1196Y2973D01*
X1194Y2973D01*
X1194Y2971D01*
X1192Y2971D01*
X1192Y2969D01*
X1188Y2969D01*
X1188Y2967D01*
X1186Y2967D01*
X1186Y2965D01*
X1184Y2965D01*
X1184Y2963D01*
X1180Y2963D01*
X1180Y2961D01*
X1178Y2961D01*
X1178Y2959D01*
X1176Y2959D01*
X1176Y2957D01*
X1172Y2957D01*
X1172Y2955D01*
X1170Y2955D01*
X1170Y2953D01*
X1168Y2953D01*
X1168Y2929D01*
X1170Y2929D01*
X1170Y2925D01*
X1172Y2925D01*
X1172Y2921D01*
X1174Y2921D01*
X1174Y2917D01*
X1176Y2917D01*
X1176Y2913D01*
X1178Y2913D01*
X1178Y2909D01*
X1180Y2909D01*
X1180Y2905D01*
X1182Y2905D01*
X1182Y2901D01*
X1184Y2901D01*
X1184Y2897D01*
X1186Y2897D01*
X1186Y2893D01*
X1188Y2893D01*
X1188Y2889D01*
X1190Y2889D01*
X1190Y2883D01*
X1192Y2883D01*
X1192Y2879D01*
X1194Y2879D01*
X1194Y2875D01*
X1196Y2875D01*
X1196Y2871D01*
X1198Y2871D01*
X1198Y2867D01*
X1200Y2867D01*
X1200Y2863D01*
X1202Y2863D01*
X1202Y2859D01*
X1204Y2859D01*
X1204Y2855D01*
X1206Y2855D01*
X1206Y2851D01*
X1208Y2851D01*
X1208Y2847D01*
X1210Y2847D01*
X1210Y2843D01*
X1212Y2843D01*
X1212Y2839D01*
X1214Y2839D01*
X1214Y2835D01*
X1216Y2835D01*
X1216Y2831D01*
X1218Y2831D01*
X1218Y2827D01*
X1220Y2827D01*
X1220Y2821D01*
X1222Y2821D01*
X1222Y2817D01*
X1224Y2817D01*
X1224Y2813D01*
X1226Y2813D01*
X1226Y2809D01*
X1228Y2809D01*
X1228Y2805D01*
X1230Y2805D01*
X1230Y2801D01*
X1232Y2801D01*
X1232Y2797D01*
X1234Y2797D01*
X1234Y2793D01*
X1236Y2793D01*
X1236Y2789D01*
X1238Y2789D01*
X1238Y2785D01*
X1240Y2785D01*
X1240Y2781D01*
X1242Y2781D01*
X1242Y2777D01*
X1244Y2777D01*
X1244Y2773D01*
X1246Y2773D01*
X1246Y2769D01*
X1248Y2769D01*
X1248Y2765D01*
X1250Y2765D01*
X1250Y2759D01*
X1252Y2759D01*
X1252Y2755D01*
X1254Y2755D01*
X1254Y2751D01*
X1256Y2751D01*
X1256Y2747D01*
X1258Y2747D01*
X1258Y2743D01*
X1260Y2743D01*
X1260Y2739D01*
X1262Y2739D01*
X1262Y2735D01*
X1264Y2735D01*
X1264Y2731D01*
X1266Y2731D01*
X1266Y2727D01*
X1268Y2727D01*
X1268Y2723D01*
X1270Y2723D01*
X1270Y2719D01*
X1272Y2719D01*
X1272Y2715D01*
X1274Y2715D01*
X1274Y2711D01*
X1276Y2711D01*
X1276Y2707D01*
X1278Y2707D01*
X1278Y2703D01*
X1280Y2703D01*
X1280Y2697D01*
X1282Y2697D01*
X1282Y2693D01*
X1284Y2693D01*
X1284Y2689D01*
X1286Y2689D01*
X1286Y2685D01*
X1288Y2685D01*
X1288Y2681D01*
X1290Y2681D01*
X1290Y2677D01*
X1292Y2677D01*
X1292Y2673D01*
X1294Y2673D01*
X1294Y2669D01*
X1296Y2669D01*
X1296Y2665D01*
X1298Y2665D01*
X1298Y2661D01*
X1300Y2661D01*
X1300Y2657D01*
X1302Y2657D01*
X1302Y2653D01*
X1304Y2653D01*
X1304Y2649D01*
X1306Y2649D01*
X1306Y2645D01*
X1308Y2645D01*
X1308Y2641D01*
X1310Y2641D01*
X1310Y2635D01*
X1312Y2635D01*
X1312Y2631D01*
X1314Y2631D01*
X1314Y2627D01*
X1316Y2627D01*
X1316Y2623D01*
X1318Y2623D01*
X1318Y2619D01*
X1320Y2619D01*
X1320Y2615D01*
X1322Y2615D01*
X1322Y2611D01*
X1324Y2611D01*
X1324Y2607D01*
X1326Y2607D01*
X1326Y2603D01*
X1328Y2603D01*
X1328Y2599D01*
X1330Y2599D01*
X1330Y2595D01*
X1332Y2595D01*
X1332Y2591D01*
X1334Y2591D01*
X1334Y2587D01*
X1336Y2587D01*
X1336Y2583D01*
X1338Y2583D01*
X1338Y2579D01*
X1340Y2579D01*
X1340Y2573D01*
X1342Y2573D01*
X1342Y2569D01*
X1344Y2569D01*
X1344Y2565D01*
X1346Y2565D01*
X1346Y2561D01*
X1348Y2561D01*
X1348Y2557D01*
X1350Y2557D01*
X1350Y2553D01*
X1352Y2553D01*
X1352Y2549D01*
X1354Y2549D01*
X1354Y2545D01*
X1356Y2545D01*
X1356Y2541D01*
X1358Y2541D01*
X1358Y2537D01*
X1360Y2537D01*
X1360Y2533D01*
X1362Y2533D01*
X1362Y2529D01*
X1364Y2529D01*
X1364Y2525D01*
X1366Y2525D01*
X1366Y2521D01*
X1368Y2521D01*
X1368Y2517D01*
X1370Y2517D01*
X1370Y2511D01*
X1372Y2511D01*
X1372Y2507D01*
X1374Y2507D01*
X1374Y2503D01*
X1376Y2503D01*
X1376Y2499D01*
X1378Y2499D01*
X1378Y2495D01*
X1380Y2495D01*
X1380Y2491D01*
X1382Y2491D01*
X1382Y2487D01*
X1384Y2487D01*
X1384Y2483D01*
X1386Y2483D01*
X1386Y2479D01*
X1388Y2479D01*
X1388Y2475D01*
X1390Y2475D01*
X1390Y2471D01*
X1392Y2471D01*
X1392Y2467D01*
X1394Y2467D01*
X1394Y2463D01*
X1396Y2463D01*
X1396Y2459D01*
X1398Y2459D01*
X1398Y2455D01*
X1400Y2455D01*
X1400Y2449D01*
X1402Y2449D01*
X1402Y2445D01*
X1404Y2445D01*
X1404Y2441D01*
X1406Y2441D01*
X1406Y2437D01*
X1408Y2437D01*
X1408Y2433D01*
X1410Y2433D01*
X1410Y2429D01*
X1412Y2429D01*
X1412Y2425D01*
X1414Y2425D01*
X1414Y2421D01*
X1416Y2421D01*
X1416Y2417D01*
X1418Y2417D01*
X1418Y2413D01*
X1420Y2413D01*
X1420Y2409D01*
X1422Y2409D01*
X1422Y2405D01*
X1424Y2405D01*
X1424Y2401D01*
X1426Y2401D01*
X1426Y2397D01*
X1428Y2397D01*
X1428Y2393D01*
X1430Y2393D01*
X1430Y2387D01*
X1432Y2387D01*
X1432Y2383D01*
X1434Y2383D01*
X1434Y2379D01*
X1436Y2379D01*
X1436Y2375D01*
X1438Y2375D01*
X1438Y2371D01*
X1440Y2371D01*
X1440Y2367D01*
X1442Y2367D01*
X1442Y2363D01*
X1444Y2363D01*
X1444Y2359D01*
X1446Y2359D01*
X1446Y2355D01*
X1448Y2355D01*
X1448Y2351D01*
X1450Y2351D01*
X1450Y2347D01*
X1452Y2347D01*
X1452Y2343D01*
X1454Y2343D01*
X1454Y2339D01*
X1456Y2339D01*
X1456Y2335D01*
X1458Y2335D01*
X1458Y2329D01*
X1460Y2329D01*
X1460Y2325D01*
X1462Y2325D01*
X1462Y2321D01*
X1464Y2321D01*
X1464Y2317D01*
X1466Y2317D01*
X1466Y2313D01*
X1468Y2313D01*
X1468Y2309D01*
X1470Y2309D01*
X1470Y2305D01*
X1472Y2305D01*
X1472Y2301D01*
X1474Y2301D01*
X1474Y2297D01*
X1476Y2297D01*
X1476Y2293D01*
X1478Y2293D01*
X1478Y2289D01*
X1480Y2289D01*
X1480Y2285D01*
X1482Y2285D01*
X1482Y2281D01*
X1484Y2281D01*
X1484Y2277D01*
X1486Y2277D01*
X1486Y2273D01*
X1488Y2273D01*
X1488Y2267D01*
X1490Y2267D01*
X1490Y2263D01*
X1492Y2263D01*
X1492Y2259D01*
X1494Y2259D01*
X1494Y2255D01*
X1496Y2255D01*
X1496Y2251D01*
X1498Y2251D01*
X1498Y2247D01*
X1500Y2247D01*
X1500Y2243D01*
X1502Y2243D01*
X1502Y2239D01*
X1504Y2239D01*
X1504Y2235D01*
X1506Y2235D01*
X1506Y2231D01*
X1508Y2231D01*
X1508Y2227D01*
X1510Y2227D01*
X1510Y2223D01*
X1512Y2223D01*
X1512Y2219D01*
X1514Y2219D01*
X1514Y2215D01*
X1516Y2215D01*
X1516Y2213D01*
X1740Y2213D01*
X1740Y2251D01*
X1738Y2251D01*
X1738Y2253D01*
X1734Y2253D01*
X1734Y2255D01*
X1732Y2255D01*
X1732Y2257D01*
X1728Y2257D01*
X1728Y2259D01*
X1724Y2259D01*
X1724Y2261D01*
X1720Y2261D01*
X1720Y2263D01*
X1716Y2263D01*
X1716Y2265D01*
X1712Y2265D01*
X1712Y2267D01*
X1708Y2267D01*
X1708Y2269D01*
X1704Y2269D01*
X1704Y2271D01*
X1700Y2271D01*
X1700Y2273D01*
X1696Y2273D01*
X1696Y2275D01*
X1692Y2275D01*
X1692Y2277D01*
X1688Y2277D01*
X1688Y2279D01*
X1684Y2279D01*
X1684Y2281D01*
X1680Y2281D01*
X1680Y2283D01*
X1676Y2283D01*
X1676Y2285D01*
X1672Y2285D01*
X1672Y2287D01*
X1670Y2287D01*
X1670Y2289D01*
X1668Y2289D01*
X1668Y2291D01*
X1666Y2291D01*
X1666Y2293D01*
X1664Y2293D01*
X1664Y2297D01*
X1662Y2297D01*
X1662Y2301D01*
X1660Y2301D01*
X1660Y2305D01*
X1658Y2305D01*
X1658Y2311D01*
X1656Y2311D01*
X1656Y2315D01*
X1654Y2315D01*
X1654Y2319D01*
X1652Y2319D01*
X1652Y2325D01*
X1650Y2325D01*
X1650Y2329D01*
X1648Y2329D01*
X1648Y2335D01*
X1646Y2335D01*
X1646Y2339D01*
X1644Y2339D01*
X1644Y2343D01*
X1642Y2343D01*
X1642Y2349D01*
X1640Y2349D01*
X1640Y2353D01*
X1638Y2353D01*
X1638Y2357D01*
X1636Y2357D01*
X1636Y2363D01*
X1634Y2363D01*
X1634Y2367D01*
X1632Y2367D01*
X1632Y2371D01*
X1630Y2371D01*
X1630Y2377D01*
X1628Y2377D01*
X1628Y2381D01*
X1626Y2381D01*
X1626Y2385D01*
X1624Y2385D01*
X1624Y2391D01*
X1622Y2391D01*
X1622Y2395D01*
X1620Y2395D01*
X1620Y2399D01*
X1618Y2399D01*
X1618Y2405D01*
X1616Y2405D01*
X1616Y2409D01*
X1614Y2409D01*
X1614Y2413D01*
X1612Y2413D01*
X1612Y2419D01*
X1610Y2419D01*
X1610Y2423D01*
X1608Y2423D01*
X1608Y2427D01*
X1606Y2427D01*
X1606Y2433D01*
X1604Y2433D01*
X1604Y2437D01*
X1602Y2437D01*
X1602Y2441D01*
X1600Y2441D01*
X1600Y2447D01*
X1598Y2447D01*
X1598Y2451D01*
X1596Y2451D01*
X1596Y2455D01*
X1594Y2455D01*
X1594Y2461D01*
X1592Y2461D01*
X1592Y2465D01*
X1590Y2465D01*
X1590Y2469D01*
X1588Y2469D01*
X1588Y2475D01*
X1586Y2475D01*
X1586Y2479D01*
X1584Y2479D01*
X1584Y2483D01*
X1582Y2483D01*
X1582Y2489D01*
X1580Y2489D01*
X1580Y2493D01*
X1578Y2493D01*
X1578Y2499D01*
X1576Y2499D01*
X1576Y2503D01*
X1574Y2503D01*
X1574Y2507D01*
X1572Y2507D01*
X1572Y2513D01*
X1570Y2513D01*
X1570Y2517D01*
X1568Y2517D01*
X1568Y2521D01*
X1566Y2521D01*
X1566Y2527D01*
X1564Y2527D01*
X1564Y2531D01*
X1562Y2531D01*
X1562Y2535D01*
X1560Y2535D01*
X1560Y2541D01*
X1558Y2541D01*
X1558Y2545D01*
X1556Y2545D01*
X1556Y2549D01*
X1554Y2549D01*
X1554Y2555D01*
X1552Y2555D01*
X1552Y2559D01*
X1550Y2559D01*
X1550Y2563D01*
X1548Y2563D01*
X1548Y2569D01*
X1546Y2569D01*
X1546Y2573D01*
X1544Y2573D01*
X1544Y2577D01*
X1542Y2577D01*
X1542Y2583D01*
X1540Y2583D01*
X1540Y2587D01*
X1538Y2587D01*
X1538Y2591D01*
X1536Y2591D01*
X1536Y2597D01*
X1534Y2597D01*
X1534Y2601D01*
X1532Y2601D01*
X1532Y2605D01*
X1530Y2605D01*
X1530Y2611D01*
X1528Y2611D01*
X1528Y2615D01*
X1526Y2615D01*
X1526Y2619D01*
X1524Y2619D01*
X1524Y2625D01*
X1522Y2625D01*
X1522Y2629D01*
X1520Y2629D01*
X1520Y2633D01*
X1518Y2633D01*
X1518Y2639D01*
X1516Y2639D01*
X1516Y2643D01*
X1514Y2643D01*
X1514Y2647D01*
X1512Y2647D01*
X1512Y2653D01*
X1510Y2653D01*
X1510Y2657D01*
X1508Y2657D01*
X1508Y2663D01*
X1506Y2663D01*
X1506Y2667D01*
X1504Y2667D01*
X1504Y2671D01*
X1502Y2671D01*
X1502Y2677D01*
X1500Y2677D01*
X1500Y2681D01*
X1498Y2681D01*
X1498Y2685D01*
X1496Y2685D01*
X1496Y2691D01*
X1494Y2691D01*
X1494Y2695D01*
X1492Y2695D01*
X1492Y2699D01*
X1490Y2699D01*
X1490Y2705D01*
X1488Y2705D01*
X1488Y2709D01*
X1486Y2709D01*
X1486Y2713D01*
X1484Y2713D01*
X1484Y2719D01*
X1482Y2719D01*
X1482Y2723D01*
X1480Y2723D01*
X1480Y2727D01*
X1478Y2727D01*
X1478Y2733D01*
X1476Y2733D01*
X1476Y2737D01*
X1474Y2737D01*
X1474Y2741D01*
X1472Y2741D01*
X1472Y2747D01*
X1470Y2747D01*
X1470Y2751D01*
X1468Y2751D01*
X1468Y2755D01*
X1466Y2755D01*
X1466Y2761D01*
X1464Y2761D01*
X1464Y2765D01*
X1462Y2765D01*
X1462Y2769D01*
X1460Y2769D01*
X1460Y2775D01*
X1458Y2775D01*
X1458Y2779D01*
X1456Y2779D01*
X1456Y2783D01*
X1454Y2783D01*
X1454Y2789D01*
X1452Y2789D01*
X1452Y2793D01*
X1450Y2793D01*
X1450Y2797D01*
X1448Y2797D01*
X1448Y2803D01*
X1446Y2803D01*
X1446Y2807D01*
X1444Y2807D01*
X1444Y2813D01*
X1442Y2813D01*
X1442Y2817D01*
X1440Y2817D01*
X1440Y2821D01*
X1438Y2821D01*
X1438Y2827D01*
X1436Y2827D01*
X1436Y2831D01*
X1434Y2831D01*
X1434Y2835D01*
X1432Y2835D01*
X1432Y2841D01*
X1430Y2841D01*
X1430Y2845D01*
X1428Y2845D01*
X1428Y2849D01*
X1426Y2849D01*
X1426Y2855D01*
X1424Y2855D01*
X1424Y2859D01*
X1422Y2859D01*
X1422Y2863D01*
X1420Y2863D01*
X1420Y2869D01*
X1418Y2869D01*
X1418Y2873D01*
X1416Y2873D01*
X1416Y2877D01*
X1414Y2877D01*
X1414Y2883D01*
X1412Y2883D01*
X1412Y2887D01*
X1410Y2887D01*
X1410Y2891D01*
X1408Y2891D01*
X1408Y2897D01*
X1406Y2897D01*
X1406Y2901D01*
X1404Y2901D01*
X1404Y2905D01*
X1402Y2905D01*
X1402Y2911D01*
X1400Y2911D01*
X1400Y2915D01*
X1398Y2915D01*
X1398Y2919D01*
X1396Y2919D01*
X1396Y2925D01*
X1394Y2925D01*
X1394Y2929D01*
X1392Y2929D01*
X1392Y2933D01*
X1390Y2933D01*
X1390Y2939D01*
X1388Y2939D01*
X1388Y2943D01*
X1386Y2943D01*
X1386Y2947D01*
X1384Y2947D01*
X1384Y2953D01*
X1382Y2953D01*
X1382Y2957D01*
X1380Y2957D01*
X1380Y2961D01*
X1378Y2961D01*
X1378Y2967D01*
X1376Y2967D01*
X1376Y2971D01*
X1374Y2971D01*
X1374Y2977D01*
X1372Y2977D01*
X1372Y2981D01*
X1370Y2981D01*
X1370Y2985D01*
X1368Y2985D01*
X1368Y2991D01*
X1366Y2991D01*
X1366Y2995D01*
X1364Y2995D01*
X1364Y3001D01*
X1362Y3001D01*
X1362Y3009D01*
X1364Y3009D01*
X1364Y3015D01*
X1366Y3015D01*
X1366Y3019D01*
X1368Y3019D01*
X1368Y3023D01*
X1370Y3023D01*
X1370Y3027D01*
X1372Y3027D01*
X1372Y3031D01*
X1374Y3031D01*
X1374Y3035D01*
X1376Y3035D01*
X1376Y3039D01*
X1378Y3039D01*
X1378Y3043D01*
X1380Y3043D01*
X1380Y3047D01*
X1382Y3047D01*
X1382Y3051D01*
X1384Y3051D01*
X1384Y3055D01*
X1386Y3055D01*
X1386Y3059D01*
X1388Y3059D01*
X1388Y3063D01*
X1314Y3063D01*
G37*
D02*
G36*
X756Y3003D02*
X756Y2907D01*
X832Y2907D01*
X832Y2909D01*
X820Y2909D01*
X820Y2911D01*
X814Y2911D01*
X814Y2913D01*
X810Y2913D01*
X810Y2915D01*
X808Y2915D01*
X808Y2917D01*
X804Y2917D01*
X804Y2919D01*
X802Y2919D01*
X802Y2921D01*
X800Y2921D01*
X800Y2923D01*
X798Y2923D01*
X798Y2925D01*
X796Y2925D01*
X796Y2929D01*
X794Y2929D01*
X794Y2931D01*
X792Y2931D01*
X792Y2935D01*
X790Y2935D01*
X790Y2939D01*
X788Y2939D01*
X788Y2947D01*
X786Y2947D01*
X786Y2963D01*
X788Y2963D01*
X788Y2971D01*
X790Y2971D01*
X790Y2975D01*
X792Y2975D01*
X792Y2979D01*
X794Y2979D01*
X794Y2983D01*
X796Y2983D01*
X796Y2985D01*
X798Y2985D01*
X798Y2987D01*
X800Y2987D01*
X800Y2989D01*
X802Y2989D01*
X802Y2991D01*
X804Y2991D01*
X804Y2993D01*
X806Y2993D01*
X806Y2995D01*
X810Y2995D01*
X810Y2997D01*
X814Y2997D01*
X814Y2999D01*
X818Y2999D01*
X818Y3001D01*
X826Y3001D01*
X826Y3003D01*
X756Y3003D01*
G37*
D02*
G36*
X756Y2907D02*
X756Y2905D01*
X1012Y2905D01*
X1012Y2907D01*
X756Y2907D01*
G37*
D02*
G36*
X756Y2907D02*
X756Y2905D01*
X1012Y2905D01*
X1012Y2907D01*
X756Y2907D01*
G37*
D02*
G36*
X756Y2905D02*
X756Y2547D01*
X874Y2547D01*
X874Y2501D01*
X876Y2501D01*
X876Y2499D01*
X880Y2499D01*
X880Y2497D01*
X882Y2497D01*
X882Y2495D01*
X884Y2495D01*
X884Y2493D01*
X888Y2493D01*
X888Y2491D01*
X890Y2491D01*
X890Y2489D01*
X892Y2489D01*
X892Y2487D01*
X896Y2487D01*
X896Y2485D01*
X898Y2485D01*
X898Y2483D01*
X900Y2483D01*
X900Y2481D01*
X904Y2481D01*
X904Y2479D01*
X906Y2479D01*
X906Y2477D01*
X910Y2477D01*
X910Y2475D01*
X912Y2475D01*
X912Y2473D01*
X914Y2473D01*
X914Y2471D01*
X918Y2471D01*
X918Y2469D01*
X920Y2469D01*
X920Y2467D01*
X922Y2467D01*
X922Y2465D01*
X926Y2465D01*
X926Y2463D01*
X928Y2463D01*
X928Y2461D01*
X930Y2461D01*
X930Y2459D01*
X934Y2459D01*
X934Y2457D01*
X936Y2457D01*
X936Y2455D01*
X938Y2455D01*
X938Y2453D01*
X942Y2453D01*
X942Y2451D01*
X944Y2451D01*
X944Y2449D01*
X948Y2449D01*
X948Y2447D01*
X950Y2447D01*
X950Y2445D01*
X952Y2445D01*
X952Y2443D01*
X956Y2443D01*
X956Y2441D01*
X958Y2441D01*
X958Y2439D01*
X960Y2439D01*
X960Y2437D01*
X964Y2437D01*
X964Y2435D01*
X966Y2435D01*
X966Y2433D01*
X968Y2433D01*
X968Y2431D01*
X972Y2431D01*
X972Y2429D01*
X974Y2429D01*
X974Y2427D01*
X976Y2427D01*
X976Y2425D01*
X980Y2425D01*
X980Y2423D01*
X982Y2423D01*
X982Y2421D01*
X986Y2421D01*
X986Y2419D01*
X988Y2419D01*
X988Y2417D01*
X990Y2417D01*
X990Y2415D01*
X1012Y2415D01*
X1012Y2905D01*
X756Y2905D01*
G37*
D02*
G36*
X3256Y2903D02*
X3256Y2807D01*
X3332Y2807D01*
X3332Y2809D01*
X3320Y2809D01*
X3320Y2811D01*
X3314Y2811D01*
X3314Y2813D01*
X3310Y2813D01*
X3310Y2815D01*
X3308Y2815D01*
X3308Y2817D01*
X3304Y2817D01*
X3304Y2819D01*
X3302Y2819D01*
X3302Y2821D01*
X3300Y2821D01*
X3300Y2823D01*
X3298Y2823D01*
X3298Y2825D01*
X3296Y2825D01*
X3296Y2829D01*
X3294Y2829D01*
X3294Y2831D01*
X3292Y2831D01*
X3292Y2835D01*
X3290Y2835D01*
X3290Y2839D01*
X3288Y2839D01*
X3288Y2847D01*
X3286Y2847D01*
X3286Y2863D01*
X3288Y2863D01*
X3288Y2871D01*
X3290Y2871D01*
X3290Y2875D01*
X3292Y2875D01*
X3292Y2879D01*
X3294Y2879D01*
X3294Y2883D01*
X3296Y2883D01*
X3296Y2885D01*
X3298Y2885D01*
X3298Y2887D01*
X3300Y2887D01*
X3300Y2889D01*
X3302Y2889D01*
X3302Y2891D01*
X3304Y2891D01*
X3304Y2893D01*
X3306Y2893D01*
X3306Y2895D01*
X3310Y2895D01*
X3310Y2897D01*
X3314Y2897D01*
X3314Y2899D01*
X3318Y2899D01*
X3318Y2901D01*
X3326Y2901D01*
X3326Y2903D01*
X3256Y2903D01*
G37*
D02*
G36*
X1470Y2863D02*
X1470Y2859D01*
X1472Y2859D01*
X1472Y2853D01*
X1474Y2853D01*
X1474Y2849D01*
X1476Y2849D01*
X1476Y2845D01*
X1478Y2845D01*
X1478Y2839D01*
X1480Y2839D01*
X1480Y2835D01*
X1482Y2835D01*
X1482Y2831D01*
X1484Y2831D01*
X1484Y2825D01*
X1486Y2825D01*
X1486Y2821D01*
X1488Y2821D01*
X1488Y2817D01*
X1490Y2817D01*
X1490Y2811D01*
X1492Y2811D01*
X1492Y2807D01*
X1494Y2807D01*
X1494Y2803D01*
X1496Y2803D01*
X1496Y2797D01*
X1498Y2797D01*
X1498Y2793D01*
X1500Y2793D01*
X1500Y2789D01*
X1502Y2789D01*
X1502Y2783D01*
X1504Y2783D01*
X1504Y2779D01*
X1506Y2779D01*
X1506Y2775D01*
X1508Y2775D01*
X1508Y2769D01*
X1510Y2769D01*
X1510Y2767D01*
X1580Y2767D01*
X1580Y2769D01*
X1570Y2769D01*
X1570Y2771D01*
X1564Y2771D01*
X1564Y2773D01*
X1560Y2773D01*
X1560Y2775D01*
X1558Y2775D01*
X1558Y2777D01*
X1554Y2777D01*
X1554Y2779D01*
X1552Y2779D01*
X1552Y2781D01*
X1550Y2781D01*
X1550Y2783D01*
X1548Y2783D01*
X1548Y2785D01*
X1546Y2785D01*
X1546Y2787D01*
X1544Y2787D01*
X1544Y2791D01*
X1542Y2791D01*
X1542Y2795D01*
X1540Y2795D01*
X1540Y2799D01*
X1538Y2799D01*
X1538Y2807D01*
X1536Y2807D01*
X1536Y2823D01*
X1538Y2823D01*
X1538Y2831D01*
X1540Y2831D01*
X1540Y2835D01*
X1542Y2835D01*
X1542Y2839D01*
X1544Y2839D01*
X1544Y2843D01*
X1546Y2843D01*
X1546Y2845D01*
X1548Y2845D01*
X1548Y2847D01*
X1550Y2847D01*
X1550Y2849D01*
X1552Y2849D01*
X1552Y2851D01*
X1554Y2851D01*
X1554Y2853D01*
X1556Y2853D01*
X1556Y2855D01*
X1560Y2855D01*
X1560Y2857D01*
X1564Y2857D01*
X1564Y2859D01*
X1568Y2859D01*
X1568Y2861D01*
X1576Y2861D01*
X1576Y2863D01*
X1470Y2863D01*
G37*
D02*
G36*
X3256Y2807D02*
X3256Y2805D01*
X3576Y2805D01*
X3576Y2807D01*
X3256Y2807D01*
G37*
D02*
G36*
X3256Y2807D02*
X3256Y2805D01*
X3576Y2805D01*
X3576Y2807D01*
X3256Y2807D01*
G37*
D02*
G36*
X3256Y2805D02*
X3256Y2597D01*
X3374Y2597D01*
X3374Y2543D01*
X3376Y2543D01*
X3376Y2541D01*
X3378Y2541D01*
X3378Y2539D01*
X3380Y2539D01*
X3380Y2537D01*
X3382Y2537D01*
X3382Y2535D01*
X3384Y2535D01*
X3384Y2533D01*
X3386Y2533D01*
X3386Y2531D01*
X3388Y2531D01*
X3388Y2529D01*
X3390Y2529D01*
X3390Y2527D01*
X3392Y2527D01*
X3392Y2525D01*
X3394Y2525D01*
X3394Y2523D01*
X3396Y2523D01*
X3396Y2521D01*
X3398Y2521D01*
X3398Y2519D01*
X3400Y2519D01*
X3400Y2517D01*
X3402Y2517D01*
X3402Y2515D01*
X3404Y2515D01*
X3404Y2513D01*
X3406Y2513D01*
X3406Y2511D01*
X3408Y2511D01*
X3408Y2509D01*
X3410Y2509D01*
X3410Y2507D01*
X3412Y2507D01*
X3412Y2505D01*
X3414Y2505D01*
X3414Y2503D01*
X3416Y2503D01*
X3416Y2501D01*
X3418Y2501D01*
X3418Y2499D01*
X3420Y2499D01*
X3420Y2497D01*
X3422Y2497D01*
X3422Y2495D01*
X3424Y2495D01*
X3424Y2493D01*
X3426Y2493D01*
X3426Y2491D01*
X3428Y2491D01*
X3428Y2489D01*
X3430Y2489D01*
X3430Y2487D01*
X3432Y2487D01*
X3432Y2485D01*
X3434Y2485D01*
X3434Y2483D01*
X3436Y2483D01*
X3436Y2481D01*
X3438Y2481D01*
X3438Y2479D01*
X3440Y2479D01*
X3440Y2477D01*
X3442Y2477D01*
X3442Y2475D01*
X3444Y2475D01*
X3444Y2473D01*
X3446Y2473D01*
X3446Y2471D01*
X3448Y2471D01*
X3448Y2469D01*
X3450Y2469D01*
X3450Y2467D01*
X3452Y2467D01*
X3452Y2463D01*
X3454Y2463D01*
X3454Y495D01*
X3452Y495D01*
X3452Y491D01*
X3450Y491D01*
X3450Y489D01*
X3448Y489D01*
X3448Y487D01*
X3446Y487D01*
X3446Y485D01*
X3444Y485D01*
X3444Y483D01*
X3442Y483D01*
X3442Y481D01*
X3440Y481D01*
X3440Y479D01*
X3438Y479D01*
X3438Y477D01*
X3436Y477D01*
X3436Y475D01*
X3434Y475D01*
X3434Y473D01*
X3432Y473D01*
X3432Y471D01*
X3430Y471D01*
X3430Y469D01*
X3428Y469D01*
X3428Y467D01*
X3426Y467D01*
X3426Y465D01*
X3424Y465D01*
X3424Y463D01*
X3422Y463D01*
X3422Y461D01*
X3420Y461D01*
X3420Y459D01*
X3418Y459D01*
X3418Y457D01*
X3416Y457D01*
X3416Y455D01*
X3414Y455D01*
X3414Y453D01*
X3412Y453D01*
X3412Y451D01*
X3410Y451D01*
X3410Y449D01*
X3406Y449D01*
X3406Y447D01*
X3404Y447D01*
X3404Y445D01*
X3402Y445D01*
X3402Y443D01*
X3400Y443D01*
X3400Y441D01*
X3398Y441D01*
X3398Y439D01*
X3396Y439D01*
X3396Y437D01*
X3394Y437D01*
X3394Y435D01*
X3392Y435D01*
X3392Y433D01*
X3390Y433D01*
X3390Y431D01*
X3388Y431D01*
X3388Y429D01*
X3386Y429D01*
X3386Y427D01*
X3384Y427D01*
X3384Y425D01*
X3382Y425D01*
X3382Y423D01*
X3380Y423D01*
X3380Y421D01*
X3378Y421D01*
X3378Y419D01*
X3376Y419D01*
X3376Y417D01*
X3374Y417D01*
X3374Y365D01*
X3372Y365D01*
X3372Y363D01*
X3354Y363D01*
X3354Y319D01*
X3356Y319D01*
X3356Y305D01*
X3490Y305D01*
X3490Y303D01*
X3498Y303D01*
X3498Y301D01*
X3504Y301D01*
X3504Y299D01*
X3508Y299D01*
X3508Y297D01*
X3510Y297D01*
X3510Y295D01*
X3514Y295D01*
X3514Y293D01*
X3516Y293D01*
X3516Y291D01*
X3518Y291D01*
X3518Y289D01*
X3520Y289D01*
X3520Y287D01*
X3522Y287D01*
X3522Y285D01*
X3524Y285D01*
X3524Y281D01*
X3526Y281D01*
X3526Y277D01*
X3528Y277D01*
X3528Y273D01*
X3530Y273D01*
X3530Y267D01*
X3532Y267D01*
X3532Y243D01*
X3530Y243D01*
X3530Y237D01*
X3528Y237D01*
X3528Y233D01*
X3526Y233D01*
X3526Y229D01*
X3524Y229D01*
X3524Y227D01*
X3522Y227D01*
X3522Y225D01*
X3520Y225D01*
X3520Y221D01*
X3518Y221D01*
X3518Y219D01*
X3514Y219D01*
X3514Y217D01*
X3512Y217D01*
X3512Y215D01*
X3510Y215D01*
X3510Y195D01*
X3514Y195D01*
X3514Y193D01*
X3516Y193D01*
X3516Y191D01*
X3518Y191D01*
X3518Y189D01*
X3520Y189D01*
X3520Y187D01*
X3522Y187D01*
X3522Y185D01*
X3524Y185D01*
X3524Y181D01*
X3544Y181D01*
X3544Y183D01*
X3546Y183D01*
X3546Y191D01*
X3548Y191D01*
X3548Y197D01*
X3550Y197D01*
X3550Y205D01*
X3552Y205D01*
X3552Y213D01*
X3554Y213D01*
X3554Y221D01*
X3556Y221D01*
X3556Y231D01*
X3558Y231D01*
X3558Y241D01*
X3560Y241D01*
X3560Y253D01*
X3562Y253D01*
X3562Y267D01*
X3564Y267D01*
X3564Y281D01*
X3566Y281D01*
X3566Y299D01*
X3568Y299D01*
X3568Y319D01*
X3570Y319D01*
X3570Y345D01*
X3572Y345D01*
X3572Y383D01*
X3574Y383D01*
X3574Y2651D01*
X3576Y2651D01*
X3576Y2805D01*
X3256Y2805D01*
G37*
D02*
G36*
X1510Y2767D02*
X1510Y2765D01*
X2020Y2765D01*
X2020Y2767D01*
X1510Y2767D01*
G37*
D02*
G36*
X1510Y2767D02*
X1510Y2765D01*
X2020Y2765D01*
X2020Y2767D01*
X1510Y2767D01*
G37*
D02*
G36*
X1512Y2765D02*
X1512Y2761D01*
X1514Y2761D01*
X1514Y2755D01*
X1516Y2755D01*
X1516Y2751D01*
X1518Y2751D01*
X1518Y2747D01*
X1520Y2747D01*
X1520Y2741D01*
X1522Y2741D01*
X1522Y2737D01*
X1524Y2737D01*
X1524Y2733D01*
X1526Y2733D01*
X1526Y2727D01*
X1528Y2727D01*
X1528Y2723D01*
X1530Y2723D01*
X1530Y2717D01*
X1532Y2717D01*
X1532Y2713D01*
X1534Y2713D01*
X1534Y2709D01*
X1536Y2709D01*
X1536Y2703D01*
X1538Y2703D01*
X1538Y2699D01*
X1540Y2699D01*
X1540Y2695D01*
X1542Y2695D01*
X1542Y2689D01*
X1544Y2689D01*
X1544Y2685D01*
X1546Y2685D01*
X1546Y2681D01*
X1548Y2681D01*
X1548Y2675D01*
X1550Y2675D01*
X1550Y2671D01*
X1552Y2671D01*
X1552Y2667D01*
X1554Y2667D01*
X1554Y2661D01*
X1556Y2661D01*
X1556Y2657D01*
X1558Y2657D01*
X1558Y2653D01*
X1560Y2653D01*
X1560Y2647D01*
X1562Y2647D01*
X1562Y2643D01*
X1564Y2643D01*
X1564Y2639D01*
X1566Y2639D01*
X1566Y2633D01*
X1568Y2633D01*
X1568Y2629D01*
X1570Y2629D01*
X1570Y2625D01*
X1572Y2625D01*
X1572Y2619D01*
X1574Y2619D01*
X1574Y2615D01*
X1576Y2615D01*
X1576Y2611D01*
X1578Y2611D01*
X1578Y2605D01*
X1580Y2605D01*
X1580Y2603D01*
X1742Y2603D01*
X1742Y2601D01*
X1750Y2601D01*
X1750Y2599D01*
X1754Y2599D01*
X1754Y2597D01*
X1758Y2597D01*
X1758Y2595D01*
X1762Y2595D01*
X1762Y2593D01*
X1764Y2593D01*
X1764Y2591D01*
X1766Y2591D01*
X1766Y2589D01*
X1768Y2589D01*
X1768Y2587D01*
X1770Y2587D01*
X1770Y2585D01*
X1772Y2585D01*
X1772Y2581D01*
X1774Y2581D01*
X1774Y2579D01*
X1776Y2579D01*
X1776Y2575D01*
X1778Y2575D01*
X1778Y2569D01*
X1780Y2569D01*
X1780Y2541D01*
X1778Y2541D01*
X1778Y2537D01*
X1776Y2537D01*
X1776Y2517D01*
X1778Y2517D01*
X1778Y2513D01*
X1780Y2513D01*
X1780Y2509D01*
X1782Y2509D01*
X1782Y2505D01*
X1784Y2505D01*
X1784Y2499D01*
X1786Y2499D01*
X1786Y2495D01*
X1788Y2495D01*
X1788Y2491D01*
X1790Y2491D01*
X1790Y2487D01*
X1792Y2487D01*
X1792Y2483D01*
X1794Y2483D01*
X1794Y2479D01*
X1796Y2479D01*
X1796Y2475D01*
X1798Y2475D01*
X1798Y2471D01*
X1800Y2471D01*
X1800Y2467D01*
X1802Y2467D01*
X1802Y2463D01*
X1804Y2463D01*
X1804Y2459D01*
X1806Y2459D01*
X1806Y2455D01*
X1808Y2455D01*
X1808Y2451D01*
X1810Y2451D01*
X1810Y2447D01*
X1812Y2447D01*
X1812Y2443D01*
X1814Y2443D01*
X1814Y2439D01*
X1816Y2439D01*
X1816Y2435D01*
X1818Y2435D01*
X1818Y2429D01*
X1820Y2429D01*
X1820Y2425D01*
X1822Y2425D01*
X1822Y2421D01*
X1824Y2421D01*
X1824Y2417D01*
X1826Y2417D01*
X1826Y2413D01*
X1828Y2413D01*
X1828Y2409D01*
X1830Y2409D01*
X1830Y2405D01*
X1832Y2405D01*
X1832Y2401D01*
X1834Y2401D01*
X1834Y2397D01*
X1836Y2397D01*
X1836Y2393D01*
X1838Y2393D01*
X1838Y2389D01*
X1840Y2389D01*
X1840Y2385D01*
X1842Y2385D01*
X1842Y2381D01*
X1844Y2381D01*
X1844Y2377D01*
X1846Y2377D01*
X1846Y2373D01*
X1848Y2373D01*
X1848Y2369D01*
X1850Y2369D01*
X1850Y2363D01*
X1852Y2363D01*
X1852Y2359D01*
X1854Y2359D01*
X1854Y2355D01*
X1856Y2355D01*
X1856Y2351D01*
X1858Y2351D01*
X1858Y2347D01*
X1860Y2347D01*
X1860Y2343D01*
X1862Y2343D01*
X1862Y2339D01*
X1864Y2339D01*
X1864Y2335D01*
X1866Y2335D01*
X1866Y2331D01*
X1868Y2331D01*
X1868Y2327D01*
X1870Y2327D01*
X1870Y2323D01*
X1872Y2323D01*
X1872Y2319D01*
X1874Y2319D01*
X1874Y2315D01*
X1876Y2315D01*
X1876Y2311D01*
X1878Y2311D01*
X1878Y2307D01*
X1880Y2307D01*
X1880Y2303D01*
X1882Y2303D01*
X1882Y2299D01*
X1884Y2299D01*
X1884Y2297D01*
X1888Y2297D01*
X1888Y2295D01*
X1894Y2295D01*
X1894Y2293D01*
X1898Y2293D01*
X1898Y2291D01*
X1902Y2291D01*
X1902Y2289D01*
X1904Y2289D01*
X1904Y2287D01*
X1908Y2287D01*
X1908Y2285D01*
X1910Y2285D01*
X1910Y2281D01*
X1912Y2281D01*
X1912Y2279D01*
X1914Y2279D01*
X1914Y2277D01*
X1916Y2277D01*
X1916Y2273D01*
X1918Y2273D01*
X1918Y2267D01*
X1920Y2267D01*
X1920Y2245D01*
X1918Y2245D01*
X1918Y2239D01*
X1916Y2239D01*
X1916Y2235D01*
X1914Y2235D01*
X1914Y2231D01*
X1912Y2231D01*
X1912Y2229D01*
X1910Y2229D01*
X1910Y2227D01*
X1908Y2227D01*
X1908Y2225D01*
X1906Y2225D01*
X1906Y2223D01*
X1904Y2223D01*
X1904Y2221D01*
X1900Y2221D01*
X1900Y2219D01*
X1896Y2219D01*
X1896Y2217D01*
X1892Y2217D01*
X1892Y2215D01*
X1880Y2215D01*
X1880Y2213D01*
X2324Y2213D01*
X2324Y2215D01*
X2322Y2215D01*
X2322Y2219D01*
X2320Y2219D01*
X2320Y2223D01*
X2318Y2223D01*
X2318Y2227D01*
X2316Y2227D01*
X2316Y2231D01*
X2314Y2231D01*
X2314Y2235D01*
X2312Y2235D01*
X2312Y2239D01*
X2310Y2239D01*
X2310Y2243D01*
X2308Y2243D01*
X2308Y2247D01*
X2306Y2247D01*
X2306Y2251D01*
X2304Y2251D01*
X2304Y2253D01*
X2302Y2253D01*
X2302Y2257D01*
X2300Y2257D01*
X2300Y2261D01*
X2298Y2261D01*
X2298Y2265D01*
X2296Y2265D01*
X2296Y2269D01*
X2294Y2269D01*
X2294Y2273D01*
X2292Y2273D01*
X2292Y2277D01*
X2290Y2277D01*
X2290Y2281D01*
X2288Y2281D01*
X2288Y2285D01*
X2286Y2285D01*
X2286Y2289D01*
X2284Y2289D01*
X2284Y2293D01*
X2282Y2293D01*
X2282Y2297D01*
X2280Y2297D01*
X2280Y2301D01*
X2278Y2301D01*
X2278Y2303D01*
X2276Y2303D01*
X2276Y2307D01*
X2274Y2307D01*
X2274Y2311D01*
X2272Y2311D01*
X2272Y2315D01*
X2270Y2315D01*
X2270Y2319D01*
X2268Y2319D01*
X2268Y2323D01*
X2266Y2323D01*
X2266Y2327D01*
X2264Y2327D01*
X2264Y2331D01*
X2262Y2331D01*
X2262Y2335D01*
X2260Y2335D01*
X2260Y2337D01*
X2258Y2337D01*
X2258Y2341D01*
X2256Y2341D01*
X2256Y2345D01*
X2254Y2345D01*
X2254Y2349D01*
X2252Y2349D01*
X2252Y2353D01*
X2250Y2353D01*
X2250Y2357D01*
X2248Y2357D01*
X2248Y2361D01*
X2246Y2361D01*
X2246Y2365D01*
X2244Y2365D01*
X2244Y2369D01*
X2242Y2369D01*
X2242Y2371D01*
X2240Y2371D01*
X2240Y2375D01*
X2238Y2375D01*
X2238Y2379D01*
X2236Y2379D01*
X2236Y2383D01*
X2234Y2383D01*
X2234Y2387D01*
X2232Y2387D01*
X2232Y2391D01*
X2230Y2391D01*
X2230Y2393D01*
X2228Y2393D01*
X2228Y2397D01*
X2226Y2397D01*
X2226Y2401D01*
X2224Y2401D01*
X2224Y2405D01*
X2222Y2405D01*
X2222Y2409D01*
X2220Y2409D01*
X2220Y2413D01*
X2218Y2413D01*
X2218Y2415D01*
X2216Y2415D01*
X2216Y2419D01*
X2214Y2419D01*
X2214Y2423D01*
X2212Y2423D01*
X2212Y2427D01*
X2210Y2427D01*
X2210Y2431D01*
X2208Y2431D01*
X2208Y2435D01*
X2206Y2435D01*
X2206Y2439D01*
X2204Y2439D01*
X2204Y2441D01*
X2202Y2441D01*
X2202Y2445D01*
X2200Y2445D01*
X2200Y2449D01*
X2198Y2449D01*
X2198Y2453D01*
X2196Y2453D01*
X2196Y2457D01*
X2194Y2457D01*
X2194Y2459D01*
X2192Y2459D01*
X2192Y2463D01*
X2190Y2463D01*
X2190Y2467D01*
X2188Y2467D01*
X2188Y2471D01*
X2186Y2471D01*
X2186Y2475D01*
X2184Y2475D01*
X2184Y2477D01*
X2182Y2477D01*
X2182Y2481D01*
X2180Y2481D01*
X2180Y2485D01*
X2178Y2485D01*
X2178Y2489D01*
X2176Y2489D01*
X2176Y2493D01*
X2174Y2493D01*
X2174Y2495D01*
X2172Y2495D01*
X2172Y2499D01*
X2170Y2499D01*
X2170Y2503D01*
X2168Y2503D01*
X2168Y2507D01*
X2166Y2507D01*
X2166Y2511D01*
X2164Y2511D01*
X2164Y2513D01*
X2162Y2513D01*
X2162Y2517D01*
X2160Y2517D01*
X2160Y2521D01*
X2158Y2521D01*
X2158Y2525D01*
X2156Y2525D01*
X2156Y2529D01*
X2154Y2529D01*
X2154Y2531D01*
X2152Y2531D01*
X2152Y2535D01*
X2150Y2535D01*
X2150Y2539D01*
X2148Y2539D01*
X2148Y2543D01*
X2146Y2543D01*
X2146Y2545D01*
X2144Y2545D01*
X2144Y2549D01*
X2142Y2549D01*
X2142Y2553D01*
X2140Y2553D01*
X2140Y2557D01*
X2138Y2557D01*
X2138Y2559D01*
X2136Y2559D01*
X2136Y2563D01*
X2134Y2563D01*
X2134Y2567D01*
X2132Y2567D01*
X2132Y2571D01*
X2130Y2571D01*
X2130Y2575D01*
X2128Y2575D01*
X2128Y2577D01*
X2126Y2577D01*
X2126Y2581D01*
X2124Y2581D01*
X2124Y2585D01*
X2122Y2585D01*
X2122Y2589D01*
X2120Y2589D01*
X2120Y2591D01*
X2118Y2591D01*
X2118Y2595D01*
X2116Y2595D01*
X2116Y2599D01*
X2114Y2599D01*
X2114Y2603D01*
X2112Y2603D01*
X2112Y2605D01*
X2110Y2605D01*
X2110Y2609D01*
X2108Y2609D01*
X2108Y2613D01*
X2106Y2613D01*
X2106Y2617D01*
X2104Y2617D01*
X2104Y2619D01*
X2102Y2619D01*
X2102Y2623D01*
X2100Y2623D01*
X2100Y2627D01*
X2098Y2627D01*
X2098Y2631D01*
X2096Y2631D01*
X2096Y2635D01*
X2094Y2635D01*
X2094Y2637D01*
X2092Y2637D01*
X2092Y2641D01*
X2090Y2641D01*
X2090Y2645D01*
X2088Y2645D01*
X2088Y2649D01*
X2086Y2649D01*
X2086Y2651D01*
X2084Y2651D01*
X2084Y2655D01*
X2082Y2655D01*
X2082Y2659D01*
X2080Y2659D01*
X2080Y2663D01*
X2078Y2663D01*
X2078Y2665D01*
X2076Y2665D01*
X2076Y2669D01*
X2074Y2669D01*
X2074Y2673D01*
X2072Y2673D01*
X2072Y2677D01*
X2070Y2677D01*
X2070Y2681D01*
X2068Y2681D01*
X2068Y2683D01*
X2066Y2683D01*
X2066Y2687D01*
X2064Y2687D01*
X2064Y2691D01*
X2062Y2691D01*
X2062Y2695D01*
X2060Y2695D01*
X2060Y2697D01*
X2058Y2697D01*
X2058Y2701D01*
X2056Y2701D01*
X2056Y2705D01*
X2054Y2705D01*
X2054Y2709D01*
X2052Y2709D01*
X2052Y2713D01*
X2050Y2713D01*
X2050Y2715D01*
X2048Y2715D01*
X2048Y2719D01*
X2046Y2719D01*
X2046Y2723D01*
X2044Y2723D01*
X2044Y2727D01*
X2042Y2727D01*
X2042Y2731D01*
X2040Y2731D01*
X2040Y2733D01*
X2038Y2733D01*
X2038Y2737D01*
X2036Y2737D01*
X2036Y2741D01*
X2034Y2741D01*
X2034Y2745D01*
X2032Y2745D01*
X2032Y2747D01*
X2030Y2747D01*
X2030Y2751D01*
X2028Y2751D01*
X2028Y2755D01*
X2026Y2755D01*
X2026Y2759D01*
X2024Y2759D01*
X2024Y2763D01*
X2022Y2763D01*
X2022Y2765D01*
X1512Y2765D01*
G37*
D02*
G36*
X1580Y2603D02*
X1580Y2601D01*
X1582Y2601D01*
X1582Y2597D01*
X1584Y2597D01*
X1584Y2591D01*
X1586Y2591D01*
X1586Y2587D01*
X1588Y2587D01*
X1588Y2583D01*
X1590Y2583D01*
X1590Y2577D01*
X1592Y2577D01*
X1592Y2573D01*
X1594Y2573D01*
X1594Y2567D01*
X1596Y2567D01*
X1596Y2563D01*
X1598Y2563D01*
X1598Y2559D01*
X1600Y2559D01*
X1600Y2553D01*
X1602Y2553D01*
X1602Y2549D01*
X1604Y2549D01*
X1604Y2545D01*
X1606Y2545D01*
X1606Y2539D01*
X1608Y2539D01*
X1608Y2535D01*
X1610Y2535D01*
X1610Y2531D01*
X1612Y2531D01*
X1612Y2525D01*
X1614Y2525D01*
X1614Y2521D01*
X1616Y2521D01*
X1616Y2517D01*
X1618Y2517D01*
X1618Y2511D01*
X1620Y2511D01*
X1620Y2507D01*
X1622Y2507D01*
X1622Y2503D01*
X1624Y2503D01*
X1624Y2497D01*
X1626Y2497D01*
X1626Y2493D01*
X1628Y2493D01*
X1628Y2489D01*
X1630Y2489D01*
X1630Y2483D01*
X1632Y2483D01*
X1632Y2479D01*
X1634Y2479D01*
X1634Y2475D01*
X1636Y2475D01*
X1636Y2469D01*
X1638Y2469D01*
X1638Y2465D01*
X1640Y2465D01*
X1640Y2461D01*
X1642Y2461D01*
X1642Y2455D01*
X1644Y2455D01*
X1644Y2451D01*
X1646Y2451D01*
X1646Y2447D01*
X1648Y2447D01*
X1648Y2441D01*
X1650Y2441D01*
X1650Y2437D01*
X1652Y2437D01*
X1652Y2433D01*
X1654Y2433D01*
X1654Y2427D01*
X1656Y2427D01*
X1656Y2423D01*
X1658Y2423D01*
X1658Y2419D01*
X1660Y2419D01*
X1660Y2413D01*
X1662Y2413D01*
X1662Y2409D01*
X1664Y2409D01*
X1664Y2403D01*
X1666Y2403D01*
X1666Y2399D01*
X1668Y2399D01*
X1668Y2395D01*
X1670Y2395D01*
X1670Y2389D01*
X1672Y2389D01*
X1672Y2385D01*
X1674Y2385D01*
X1674Y2381D01*
X1676Y2381D01*
X1676Y2375D01*
X1678Y2375D01*
X1678Y2371D01*
X1680Y2371D01*
X1680Y2367D01*
X1682Y2367D01*
X1682Y2361D01*
X1684Y2361D01*
X1684Y2357D01*
X1686Y2357D01*
X1686Y2353D01*
X1688Y2353D01*
X1688Y2347D01*
X1690Y2347D01*
X1690Y2343D01*
X1692Y2343D01*
X1692Y2339D01*
X1694Y2339D01*
X1694Y2333D01*
X1696Y2333D01*
X1696Y2329D01*
X1698Y2329D01*
X1698Y2325D01*
X1700Y2325D01*
X1700Y2321D01*
X1702Y2321D01*
X1702Y2319D01*
X1706Y2319D01*
X1706Y2317D01*
X1710Y2317D01*
X1710Y2315D01*
X1714Y2315D01*
X1714Y2313D01*
X1718Y2313D01*
X1718Y2311D01*
X1722Y2311D01*
X1722Y2309D01*
X1726Y2309D01*
X1726Y2307D01*
X1730Y2307D01*
X1730Y2305D01*
X1734Y2305D01*
X1734Y2303D01*
X1738Y2303D01*
X1738Y2301D01*
X1742Y2301D01*
X1742Y2299D01*
X1746Y2299D01*
X1746Y2297D01*
X1834Y2297D01*
X1834Y2301D01*
X1832Y2301D01*
X1832Y2305D01*
X1830Y2305D01*
X1830Y2309D01*
X1828Y2309D01*
X1828Y2313D01*
X1826Y2313D01*
X1826Y2317D01*
X1824Y2317D01*
X1824Y2321D01*
X1822Y2321D01*
X1822Y2325D01*
X1820Y2325D01*
X1820Y2329D01*
X1818Y2329D01*
X1818Y2333D01*
X1816Y2333D01*
X1816Y2337D01*
X1814Y2337D01*
X1814Y2341D01*
X1812Y2341D01*
X1812Y2345D01*
X1810Y2345D01*
X1810Y2349D01*
X1808Y2349D01*
X1808Y2353D01*
X1806Y2353D01*
X1806Y2359D01*
X1804Y2359D01*
X1804Y2363D01*
X1802Y2363D01*
X1802Y2367D01*
X1800Y2367D01*
X1800Y2371D01*
X1798Y2371D01*
X1798Y2375D01*
X1796Y2375D01*
X1796Y2379D01*
X1794Y2379D01*
X1794Y2383D01*
X1792Y2383D01*
X1792Y2387D01*
X1790Y2387D01*
X1790Y2391D01*
X1788Y2391D01*
X1788Y2395D01*
X1786Y2395D01*
X1786Y2399D01*
X1784Y2399D01*
X1784Y2403D01*
X1782Y2403D01*
X1782Y2407D01*
X1780Y2407D01*
X1780Y2411D01*
X1778Y2411D01*
X1778Y2415D01*
X1776Y2415D01*
X1776Y2419D01*
X1774Y2419D01*
X1774Y2423D01*
X1772Y2423D01*
X1772Y2429D01*
X1770Y2429D01*
X1770Y2433D01*
X1768Y2433D01*
X1768Y2437D01*
X1766Y2437D01*
X1766Y2441D01*
X1764Y2441D01*
X1764Y2445D01*
X1762Y2445D01*
X1762Y2449D01*
X1760Y2449D01*
X1760Y2453D01*
X1758Y2453D01*
X1758Y2457D01*
X1756Y2457D01*
X1756Y2461D01*
X1754Y2461D01*
X1754Y2465D01*
X1752Y2465D01*
X1752Y2469D01*
X1750Y2469D01*
X1750Y2473D01*
X1748Y2473D01*
X1748Y2477D01*
X1746Y2477D01*
X1746Y2481D01*
X1744Y2481D01*
X1744Y2485D01*
X1742Y2485D01*
X1742Y2489D01*
X1740Y2489D01*
X1740Y2493D01*
X1738Y2493D01*
X1738Y2499D01*
X1736Y2499D01*
X1736Y2503D01*
X1734Y2503D01*
X1734Y2507D01*
X1732Y2507D01*
X1732Y2509D01*
X1720Y2509D01*
X1720Y2511D01*
X1714Y2511D01*
X1714Y2513D01*
X1710Y2513D01*
X1710Y2515D01*
X1708Y2515D01*
X1708Y2517D01*
X1704Y2517D01*
X1704Y2519D01*
X1702Y2519D01*
X1702Y2521D01*
X1700Y2521D01*
X1700Y2523D01*
X1698Y2523D01*
X1698Y2525D01*
X1696Y2525D01*
X1696Y2527D01*
X1694Y2527D01*
X1694Y2531D01*
X1692Y2531D01*
X1692Y2535D01*
X1690Y2535D01*
X1690Y2539D01*
X1688Y2539D01*
X1688Y2547D01*
X1686Y2547D01*
X1686Y2563D01*
X1688Y2563D01*
X1688Y2571D01*
X1690Y2571D01*
X1690Y2575D01*
X1692Y2575D01*
X1692Y2579D01*
X1694Y2579D01*
X1694Y2583D01*
X1696Y2583D01*
X1696Y2585D01*
X1698Y2585D01*
X1698Y2587D01*
X1700Y2587D01*
X1700Y2589D01*
X1702Y2589D01*
X1702Y2591D01*
X1704Y2591D01*
X1704Y2593D01*
X1706Y2593D01*
X1706Y2595D01*
X1710Y2595D01*
X1710Y2597D01*
X1712Y2597D01*
X1712Y2599D01*
X1718Y2599D01*
X1718Y2601D01*
X1726Y2601D01*
X1726Y2603D01*
X1580Y2603D01*
G37*
D02*
G36*
X3256Y2597D02*
X3256Y2589D01*
X3258Y2589D01*
X3258Y2587D01*
X3262Y2587D01*
X3262Y2585D01*
X3264Y2585D01*
X3264Y2583D01*
X3266Y2583D01*
X3266Y2579D01*
X3268Y2579D01*
X3268Y2577D01*
X3270Y2577D01*
X3270Y2573D01*
X3290Y2573D01*
X3290Y2597D01*
X3256Y2597D01*
G37*
D02*
G36*
X756Y2547D02*
X756Y2539D01*
X758Y2539D01*
X758Y2537D01*
X762Y2537D01*
X762Y2535D01*
X764Y2535D01*
X764Y2533D01*
X766Y2533D01*
X766Y2529D01*
X768Y2529D01*
X768Y2527D01*
X770Y2527D01*
X770Y2523D01*
X790Y2523D01*
X790Y2547D01*
X756Y2547D01*
G37*
D02*
G36*
X3270Y2537D02*
X3270Y2535D01*
X3268Y2535D01*
X3268Y2531D01*
X3266Y2531D01*
X3266Y2529D01*
X3264Y2529D01*
X3264Y2527D01*
X3262Y2527D01*
X3262Y2525D01*
X3260Y2525D01*
X3260Y2523D01*
X3258Y2523D01*
X3258Y2521D01*
X3254Y2521D01*
X3254Y2519D01*
X3252Y2519D01*
X3252Y2517D01*
X3246Y2517D01*
X3246Y2515D01*
X3234Y2515D01*
X3234Y2513D01*
X3292Y2513D01*
X3292Y2515D01*
X3290Y2515D01*
X3290Y2537D01*
X3270Y2537D01*
G37*
D02*
G36*
X2956Y2513D02*
X2956Y2511D01*
X3344Y2511D01*
X3344Y2513D01*
X2956Y2513D01*
G37*
D02*
G36*
X2956Y2513D02*
X2956Y2511D01*
X3344Y2511D01*
X3344Y2513D01*
X2956Y2513D01*
G37*
D02*
G36*
X2956Y2511D02*
X2956Y2471D01*
X2958Y2471D01*
X2958Y1547D01*
X3374Y1547D01*
X3374Y1465D01*
X3372Y1465D01*
X3372Y1463D01*
X3336Y1463D01*
X3336Y1461D01*
X3334Y1461D01*
X3334Y1457D01*
X3332Y1457D01*
X3332Y1453D01*
X3330Y1453D01*
X3330Y1449D01*
X3328Y1449D01*
X3328Y1445D01*
X3326Y1445D01*
X3326Y1439D01*
X3324Y1439D01*
X3324Y1435D01*
X3322Y1435D01*
X3322Y1431D01*
X3320Y1431D01*
X3320Y1427D01*
X3318Y1427D01*
X3318Y1423D01*
X3316Y1423D01*
X3316Y1419D01*
X3314Y1419D01*
X3314Y1415D01*
X3312Y1415D01*
X3312Y1411D01*
X3310Y1411D01*
X3310Y1407D01*
X3308Y1407D01*
X3308Y1403D01*
X3306Y1403D01*
X3306Y551D01*
X3304Y551D01*
X3304Y545D01*
X3302Y545D01*
X3302Y539D01*
X3300Y539D01*
X3300Y533D01*
X3298Y533D01*
X3298Y527D01*
X3296Y527D01*
X3296Y521D01*
X3294Y521D01*
X3294Y515D01*
X3292Y515D01*
X3292Y509D01*
X3290Y509D01*
X3290Y503D01*
X3288Y503D01*
X3288Y497D01*
X3286Y497D01*
X3286Y491D01*
X3284Y491D01*
X3284Y485D01*
X3282Y485D01*
X3282Y479D01*
X3280Y479D01*
X3280Y471D01*
X3278Y471D01*
X3278Y465D01*
X3276Y465D01*
X3276Y459D01*
X3274Y459D01*
X3274Y453D01*
X3272Y453D01*
X3272Y447D01*
X3270Y447D01*
X3270Y423D01*
X3290Y423D01*
X3290Y447D01*
X3344Y447D01*
X3344Y449D01*
X3346Y449D01*
X3346Y451D01*
X3348Y451D01*
X3348Y453D01*
X3350Y453D01*
X3350Y455D01*
X3352Y455D01*
X3352Y457D01*
X3354Y457D01*
X3354Y459D01*
X3356Y459D01*
X3356Y461D01*
X3358Y461D01*
X3358Y463D01*
X3360Y463D01*
X3360Y465D01*
X3362Y465D01*
X3362Y467D01*
X3364Y467D01*
X3364Y469D01*
X3366Y469D01*
X3366Y471D01*
X3368Y471D01*
X3368Y473D01*
X3370Y473D01*
X3370Y475D01*
X3372Y475D01*
X3372Y477D01*
X3374Y477D01*
X3374Y479D01*
X3376Y479D01*
X3376Y481D01*
X3378Y481D01*
X3378Y483D01*
X3380Y483D01*
X3380Y485D01*
X3382Y485D01*
X3382Y487D01*
X3384Y487D01*
X3384Y489D01*
X3386Y489D01*
X3386Y491D01*
X3388Y491D01*
X3388Y493D01*
X3392Y493D01*
X3392Y495D01*
X3394Y495D01*
X3394Y497D01*
X3396Y497D01*
X3396Y499D01*
X3398Y499D01*
X3398Y501D01*
X3400Y501D01*
X3400Y503D01*
X3402Y503D01*
X3402Y505D01*
X3404Y505D01*
X3404Y507D01*
X3406Y507D01*
X3406Y509D01*
X3408Y509D01*
X3408Y511D01*
X3410Y511D01*
X3410Y2447D01*
X3408Y2447D01*
X3408Y2449D01*
X3406Y2449D01*
X3406Y2451D01*
X3404Y2451D01*
X3404Y2453D01*
X3402Y2453D01*
X3402Y2455D01*
X3400Y2455D01*
X3400Y2457D01*
X3398Y2457D01*
X3398Y2459D01*
X3396Y2459D01*
X3396Y2461D01*
X3394Y2461D01*
X3394Y2463D01*
X3392Y2463D01*
X3392Y2465D01*
X3390Y2465D01*
X3390Y2467D01*
X3388Y2467D01*
X3388Y2469D01*
X3386Y2469D01*
X3386Y2471D01*
X3384Y2471D01*
X3384Y2473D01*
X3382Y2473D01*
X3382Y2475D01*
X3380Y2475D01*
X3380Y2477D01*
X3378Y2477D01*
X3378Y2479D01*
X3376Y2479D01*
X3376Y2481D01*
X3374Y2481D01*
X3374Y2483D01*
X3372Y2483D01*
X3372Y2485D01*
X3370Y2485D01*
X3370Y2487D01*
X3368Y2487D01*
X3368Y2489D01*
X3366Y2489D01*
X3366Y2491D01*
X3364Y2491D01*
X3364Y2493D01*
X3362Y2493D01*
X3362Y2495D01*
X3360Y2495D01*
X3360Y2497D01*
X3358Y2497D01*
X3358Y2499D01*
X3356Y2499D01*
X3356Y2501D01*
X3354Y2501D01*
X3354Y2503D01*
X3352Y2503D01*
X3352Y2505D01*
X3350Y2505D01*
X3350Y2507D01*
X3348Y2507D01*
X3348Y2509D01*
X3346Y2509D01*
X3346Y2511D01*
X2956Y2511D01*
G37*
D02*
G36*
X770Y2487D02*
X770Y2485D01*
X768Y2485D01*
X768Y2481D01*
X766Y2481D01*
X766Y2479D01*
X764Y2479D01*
X764Y2477D01*
X762Y2477D01*
X762Y2475D01*
X760Y2475D01*
X760Y2473D01*
X758Y2473D01*
X758Y2471D01*
X754Y2471D01*
X754Y2469D01*
X752Y2469D01*
X752Y2467D01*
X746Y2467D01*
X746Y2465D01*
X734Y2465D01*
X734Y2463D01*
X792Y2463D01*
X792Y2465D01*
X790Y2465D01*
X790Y2487D01*
X770Y2487D01*
G37*
D02*
G36*
X470Y2463D02*
X470Y2461D01*
X854Y2461D01*
X854Y2463D01*
X470Y2463D01*
G37*
D02*
G36*
X470Y2463D02*
X470Y2461D01*
X854Y2461D01*
X854Y2463D01*
X470Y2463D01*
G37*
D02*
G36*
X470Y2461D02*
X470Y1497D01*
X874Y1497D01*
X874Y1415D01*
X872Y1415D01*
X872Y1413D01*
X836Y1413D01*
X836Y1411D01*
X834Y1411D01*
X834Y1407D01*
X832Y1407D01*
X832Y1403D01*
X830Y1403D01*
X830Y1399D01*
X828Y1399D01*
X828Y1395D01*
X826Y1395D01*
X826Y1389D01*
X824Y1389D01*
X824Y1385D01*
X822Y1385D01*
X822Y1381D01*
X820Y1381D01*
X820Y1377D01*
X818Y1377D01*
X818Y1373D01*
X816Y1373D01*
X816Y1369D01*
X814Y1369D01*
X814Y1365D01*
X812Y1365D01*
X812Y1361D01*
X810Y1361D01*
X810Y1357D01*
X808Y1357D01*
X808Y1353D01*
X806Y1353D01*
X806Y457D01*
X804Y457D01*
X804Y449D01*
X802Y449D01*
X802Y445D01*
X800Y445D01*
X800Y439D01*
X798Y439D01*
X798Y435D01*
X796Y435D01*
X796Y431D01*
X794Y431D01*
X794Y427D01*
X792Y427D01*
X792Y423D01*
X790Y423D01*
X790Y419D01*
X788Y419D01*
X788Y415D01*
X786Y415D01*
X786Y411D01*
X784Y411D01*
X784Y407D01*
X782Y407D01*
X782Y403D01*
X780Y403D01*
X780Y399D01*
X778Y399D01*
X778Y397D01*
X844Y397D01*
X844Y399D01*
X846Y399D01*
X846Y401D01*
X848Y401D01*
X848Y403D01*
X850Y403D01*
X850Y405D01*
X852Y405D01*
X852Y407D01*
X854Y407D01*
X854Y409D01*
X856Y409D01*
X856Y411D01*
X858Y411D01*
X858Y413D01*
X860Y413D01*
X860Y415D01*
X862Y415D01*
X862Y417D01*
X864Y417D01*
X864Y419D01*
X866Y419D01*
X866Y421D01*
X868Y421D01*
X868Y423D01*
X870Y423D01*
X870Y425D01*
X872Y425D01*
X872Y427D01*
X874Y427D01*
X874Y429D01*
X876Y429D01*
X876Y431D01*
X878Y431D01*
X878Y433D01*
X880Y433D01*
X880Y435D01*
X882Y435D01*
X882Y437D01*
X884Y437D01*
X884Y439D01*
X886Y439D01*
X886Y441D01*
X888Y441D01*
X888Y443D01*
X890Y443D01*
X890Y445D01*
X892Y445D01*
X892Y447D01*
X894Y447D01*
X894Y449D01*
X896Y449D01*
X896Y451D01*
X898Y451D01*
X898Y453D01*
X900Y453D01*
X900Y455D01*
X902Y455D01*
X902Y457D01*
X904Y457D01*
X904Y459D01*
X906Y459D01*
X906Y461D01*
X908Y461D01*
X908Y463D01*
X910Y463D01*
X910Y465D01*
X912Y465D01*
X912Y467D01*
X914Y467D01*
X914Y469D01*
X916Y469D01*
X916Y471D01*
X918Y471D01*
X918Y473D01*
X920Y473D01*
X920Y475D01*
X922Y475D01*
X922Y477D01*
X924Y477D01*
X924Y479D01*
X928Y479D01*
X928Y481D01*
X930Y481D01*
X930Y483D01*
X932Y483D01*
X932Y485D01*
X934Y485D01*
X934Y487D01*
X936Y487D01*
X936Y489D01*
X938Y489D01*
X938Y491D01*
X940Y491D01*
X940Y493D01*
X942Y493D01*
X942Y495D01*
X944Y495D01*
X944Y497D01*
X946Y497D01*
X946Y499D01*
X948Y499D01*
X948Y501D01*
X950Y501D01*
X950Y503D01*
X952Y503D01*
X952Y505D01*
X954Y505D01*
X954Y507D01*
X956Y507D01*
X956Y509D01*
X958Y509D01*
X958Y511D01*
X960Y511D01*
X960Y513D01*
X962Y513D01*
X962Y515D01*
X964Y515D01*
X964Y517D01*
X966Y517D01*
X966Y519D01*
X968Y519D01*
X968Y521D01*
X970Y521D01*
X970Y523D01*
X972Y523D01*
X972Y525D01*
X974Y525D01*
X974Y527D01*
X976Y527D01*
X976Y529D01*
X978Y529D01*
X978Y531D01*
X980Y531D01*
X980Y533D01*
X982Y533D01*
X982Y535D01*
X984Y535D01*
X984Y537D01*
X986Y537D01*
X986Y539D01*
X988Y539D01*
X988Y541D01*
X990Y541D01*
X990Y543D01*
X992Y543D01*
X992Y545D01*
X994Y545D01*
X994Y547D01*
X996Y547D01*
X996Y549D01*
X998Y549D01*
X998Y551D01*
X1000Y551D01*
X1000Y553D01*
X1002Y553D01*
X1002Y555D01*
X1004Y555D01*
X1004Y557D01*
X1006Y557D01*
X1006Y559D01*
X1008Y559D01*
X1008Y561D01*
X1010Y561D01*
X1010Y563D01*
X1012Y563D01*
X1012Y2347D01*
X1008Y2347D01*
X1008Y2349D01*
X1006Y2349D01*
X1006Y2351D01*
X1004Y2351D01*
X1004Y2353D01*
X1000Y2353D01*
X1000Y2355D01*
X998Y2355D01*
X998Y2357D01*
X996Y2357D01*
X996Y2359D01*
X992Y2359D01*
X992Y2361D01*
X990Y2361D01*
X990Y2363D01*
X986Y2363D01*
X986Y2365D01*
X984Y2365D01*
X984Y2367D01*
X982Y2367D01*
X982Y2369D01*
X978Y2369D01*
X978Y2371D01*
X976Y2371D01*
X976Y2373D01*
X974Y2373D01*
X974Y2375D01*
X970Y2375D01*
X970Y2377D01*
X968Y2377D01*
X968Y2379D01*
X966Y2379D01*
X966Y2381D01*
X962Y2381D01*
X962Y2383D01*
X960Y2383D01*
X960Y2385D01*
X958Y2385D01*
X958Y2387D01*
X954Y2387D01*
X954Y2389D01*
X952Y2389D01*
X952Y2391D01*
X948Y2391D01*
X948Y2393D01*
X946Y2393D01*
X946Y2395D01*
X944Y2395D01*
X944Y2397D01*
X940Y2397D01*
X940Y2399D01*
X938Y2399D01*
X938Y2401D01*
X936Y2401D01*
X936Y2403D01*
X932Y2403D01*
X932Y2405D01*
X930Y2405D01*
X930Y2407D01*
X928Y2407D01*
X928Y2409D01*
X924Y2409D01*
X924Y2411D01*
X922Y2411D01*
X922Y2413D01*
X920Y2413D01*
X920Y2415D01*
X916Y2415D01*
X916Y2417D01*
X914Y2417D01*
X914Y2419D01*
X910Y2419D01*
X910Y2421D01*
X908Y2421D01*
X908Y2423D01*
X906Y2423D01*
X906Y2425D01*
X902Y2425D01*
X902Y2427D01*
X900Y2427D01*
X900Y2429D01*
X898Y2429D01*
X898Y2431D01*
X894Y2431D01*
X894Y2433D01*
X892Y2433D01*
X892Y2435D01*
X890Y2435D01*
X890Y2437D01*
X886Y2437D01*
X886Y2439D01*
X884Y2439D01*
X884Y2441D01*
X882Y2441D01*
X882Y2443D01*
X878Y2443D01*
X878Y2445D01*
X876Y2445D01*
X876Y2447D01*
X872Y2447D01*
X872Y2449D01*
X870Y2449D01*
X870Y2451D01*
X868Y2451D01*
X868Y2453D01*
X864Y2453D01*
X864Y2455D01*
X862Y2455D01*
X862Y2457D01*
X860Y2457D01*
X860Y2459D01*
X856Y2459D01*
X856Y2461D01*
X470Y2461D01*
G37*
D02*
G36*
X1822Y2239D02*
X1822Y2213D01*
X1878Y2213D01*
X1878Y2215D01*
X1866Y2215D01*
X1866Y2217D01*
X1862Y2217D01*
X1862Y2219D01*
X1858Y2219D01*
X1858Y2221D01*
X1854Y2221D01*
X1854Y2223D01*
X1852Y2223D01*
X1852Y2225D01*
X1850Y2225D01*
X1850Y2227D01*
X1848Y2227D01*
X1848Y2229D01*
X1846Y2229D01*
X1846Y2233D01*
X1844Y2233D01*
X1844Y2235D01*
X1842Y2235D01*
X1842Y2239D01*
X1822Y2239D01*
G37*
D02*
G36*
X1516Y2213D02*
X1516Y2211D01*
X2324Y2211D01*
X2324Y2213D01*
X1516Y2213D01*
G37*
D02*
G36*
X1516Y2213D02*
X1516Y2211D01*
X2324Y2211D01*
X2324Y2213D01*
X1516Y2213D01*
G37*
D02*
G36*
X1516Y2213D02*
X1516Y2211D01*
X2324Y2211D01*
X2324Y2213D01*
X1516Y2213D01*
G37*
D02*
G36*
X1518Y2211D02*
X1518Y2205D01*
X1520Y2205D01*
X1520Y2201D01*
X1522Y2201D01*
X1522Y2197D01*
X1524Y2197D01*
X1524Y2193D01*
X1526Y2193D01*
X1526Y2189D01*
X1528Y2189D01*
X1528Y2185D01*
X1530Y2185D01*
X1530Y2181D01*
X1532Y2181D01*
X1532Y2177D01*
X1534Y2177D01*
X1534Y2173D01*
X1536Y2173D01*
X1536Y2169D01*
X1538Y2169D01*
X1538Y2165D01*
X1540Y2165D01*
X1540Y2161D01*
X1542Y2161D01*
X1542Y2157D01*
X1544Y2157D01*
X1544Y2153D01*
X1546Y2153D01*
X1546Y2149D01*
X1548Y2149D01*
X1548Y2143D01*
X1550Y2143D01*
X1550Y2139D01*
X1552Y2139D01*
X1552Y2135D01*
X1554Y2135D01*
X1554Y2131D01*
X1556Y2131D01*
X1556Y2127D01*
X1558Y2127D01*
X1558Y2123D01*
X1560Y2123D01*
X1560Y2119D01*
X1562Y2119D01*
X1562Y2115D01*
X1564Y2115D01*
X1564Y2111D01*
X1566Y2111D01*
X1566Y2107D01*
X1568Y2107D01*
X1568Y2103D01*
X1570Y2103D01*
X1570Y2099D01*
X1572Y2099D01*
X1572Y2095D01*
X1574Y2095D01*
X1574Y2091D01*
X1576Y2091D01*
X1576Y2087D01*
X1578Y2087D01*
X1578Y2081D01*
X1580Y2081D01*
X1580Y2077D01*
X1582Y2077D01*
X1582Y2073D01*
X1584Y2073D01*
X1584Y2069D01*
X1586Y2069D01*
X1586Y2065D01*
X1588Y2065D01*
X1588Y2061D01*
X1590Y2061D01*
X1590Y2057D01*
X1592Y2057D01*
X1592Y2053D01*
X1594Y2053D01*
X1594Y2049D01*
X1596Y2049D01*
X1596Y2045D01*
X1598Y2045D01*
X1598Y2041D01*
X1600Y2041D01*
X1600Y2037D01*
X1602Y2037D01*
X1602Y2033D01*
X1604Y2033D01*
X1604Y2029D01*
X1606Y2029D01*
X1606Y2025D01*
X1608Y2025D01*
X1608Y2019D01*
X1610Y2019D01*
X1610Y2015D01*
X1612Y2015D01*
X1612Y2011D01*
X1614Y2011D01*
X1614Y2007D01*
X1616Y2007D01*
X1616Y2003D01*
X1618Y2003D01*
X1618Y1999D01*
X1620Y1999D01*
X1620Y1995D01*
X1622Y1995D01*
X1622Y1991D01*
X1624Y1991D01*
X1624Y1987D01*
X1626Y1987D01*
X1626Y1983D01*
X1628Y1983D01*
X1628Y1979D01*
X1630Y1979D01*
X1630Y1975D01*
X1632Y1975D01*
X1632Y1971D01*
X1634Y1971D01*
X1634Y1967D01*
X1636Y1967D01*
X1636Y1963D01*
X1638Y1963D01*
X1638Y1957D01*
X1640Y1957D01*
X1640Y1953D01*
X1642Y1953D01*
X1642Y1949D01*
X1644Y1949D01*
X1644Y1945D01*
X1646Y1945D01*
X1646Y1941D01*
X1648Y1941D01*
X1648Y1937D01*
X1650Y1937D01*
X1650Y1933D01*
X1652Y1933D01*
X1652Y1929D01*
X1654Y1929D01*
X1654Y1925D01*
X1656Y1925D01*
X1656Y1921D01*
X1658Y1921D01*
X1658Y1917D01*
X1660Y1917D01*
X1660Y1913D01*
X1662Y1913D01*
X1662Y1909D01*
X1664Y1909D01*
X1664Y1905D01*
X1666Y1905D01*
X1666Y1901D01*
X1668Y1901D01*
X1668Y1895D01*
X1670Y1895D01*
X1670Y1891D01*
X1672Y1891D01*
X1672Y1887D01*
X1674Y1887D01*
X1674Y1883D01*
X1676Y1883D01*
X1676Y1879D01*
X1678Y1879D01*
X1678Y1875D01*
X1680Y1875D01*
X1680Y1871D01*
X1682Y1871D01*
X1682Y1867D01*
X1684Y1867D01*
X1684Y1863D01*
X1686Y1863D01*
X1686Y1859D01*
X1688Y1859D01*
X1688Y1855D01*
X1690Y1855D01*
X1690Y1851D01*
X1692Y1851D01*
X1692Y1847D01*
X1694Y1847D01*
X1694Y1843D01*
X1696Y1843D01*
X1696Y1839D01*
X1698Y1839D01*
X1698Y1833D01*
X1700Y1833D01*
X1700Y1829D01*
X1702Y1829D01*
X1702Y1825D01*
X1704Y1825D01*
X1704Y1821D01*
X1706Y1821D01*
X1706Y1817D01*
X1708Y1817D01*
X1708Y1813D01*
X1710Y1813D01*
X1710Y1809D01*
X1712Y1809D01*
X1712Y1805D01*
X1714Y1805D01*
X1714Y1801D01*
X1716Y1801D01*
X1716Y1797D01*
X1718Y1797D01*
X1718Y1793D01*
X1720Y1793D01*
X1720Y1789D01*
X1722Y1789D01*
X1722Y1785D01*
X1724Y1785D01*
X1724Y1781D01*
X1726Y1781D01*
X1726Y1775D01*
X1728Y1775D01*
X1728Y1771D01*
X1730Y1771D01*
X1730Y1767D01*
X1732Y1767D01*
X1732Y1763D01*
X1734Y1763D01*
X1734Y1759D01*
X1736Y1759D01*
X1736Y1755D01*
X1738Y1755D01*
X1738Y1751D01*
X1740Y1751D01*
X1740Y1747D01*
X1742Y1747D01*
X1742Y1743D01*
X1744Y1743D01*
X1744Y1739D01*
X1746Y1739D01*
X1746Y1735D01*
X1748Y1735D01*
X1748Y1731D01*
X1750Y1731D01*
X1750Y1727D01*
X1752Y1727D01*
X1752Y1723D01*
X1754Y1723D01*
X1754Y1719D01*
X1756Y1719D01*
X1756Y1713D01*
X1758Y1713D01*
X1758Y1709D01*
X1760Y1709D01*
X1760Y1705D01*
X1762Y1705D01*
X1762Y1701D01*
X1764Y1701D01*
X1764Y1697D01*
X1766Y1697D01*
X1766Y1693D01*
X1768Y1693D01*
X1768Y1689D01*
X1770Y1689D01*
X1770Y1685D01*
X1772Y1685D01*
X1772Y1681D01*
X1774Y1681D01*
X1774Y1677D01*
X1776Y1677D01*
X1776Y1673D01*
X1778Y1673D01*
X1778Y1669D01*
X1780Y1669D01*
X1780Y1665D01*
X1782Y1665D01*
X1782Y1661D01*
X1784Y1661D01*
X1784Y1657D01*
X1786Y1657D01*
X1786Y1651D01*
X1788Y1651D01*
X1788Y1647D01*
X1790Y1647D01*
X1790Y1643D01*
X1792Y1643D01*
X1792Y1639D01*
X1794Y1639D01*
X1794Y1635D01*
X1796Y1635D01*
X1796Y1631D01*
X1798Y1631D01*
X1798Y1627D01*
X1800Y1627D01*
X1800Y1623D01*
X1802Y1623D01*
X1802Y1619D01*
X1804Y1619D01*
X1804Y1615D01*
X1806Y1615D01*
X1806Y1611D01*
X1808Y1611D01*
X1808Y1607D01*
X1810Y1607D01*
X1810Y1603D01*
X1812Y1603D01*
X1812Y1599D01*
X1814Y1599D01*
X1814Y1595D01*
X1816Y1595D01*
X1816Y1589D01*
X1818Y1589D01*
X1818Y1585D01*
X1820Y1585D01*
X1820Y1581D01*
X1822Y1581D01*
X1822Y1577D01*
X1824Y1577D01*
X1824Y1573D01*
X1826Y1573D01*
X1826Y1569D01*
X1828Y1569D01*
X1828Y1565D01*
X1830Y1565D01*
X1830Y1561D01*
X1832Y1561D01*
X1832Y1557D01*
X1834Y1557D01*
X1834Y1553D01*
X1836Y1553D01*
X1836Y1549D01*
X1838Y1549D01*
X1838Y1547D01*
X2292Y1547D01*
X2292Y1545D01*
X2298Y1545D01*
X2298Y1543D01*
X2302Y1543D01*
X2302Y1541D01*
X2306Y1541D01*
X2306Y1539D01*
X2308Y1539D01*
X2308Y1537D01*
X2312Y1537D01*
X2312Y1535D01*
X2314Y1535D01*
X2314Y1533D01*
X2316Y1533D01*
X2316Y1529D01*
X2318Y1529D01*
X2318Y1527D01*
X2320Y1527D01*
X2320Y1523D01*
X2322Y1523D01*
X2322Y1517D01*
X2324Y1517D01*
X2324Y1507D01*
X2326Y1507D01*
X2326Y1503D01*
X2324Y1503D01*
X2324Y1493D01*
X2322Y1493D01*
X2322Y1487D01*
X2320Y1487D01*
X2320Y1485D01*
X2318Y1485D01*
X2318Y1481D01*
X2316Y1481D01*
X2316Y1479D01*
X2314Y1479D01*
X2314Y1477D01*
X2312Y1477D01*
X2312Y1475D01*
X2310Y1475D01*
X2310Y1473D01*
X2308Y1473D01*
X2308Y1471D01*
X2304Y1471D01*
X2304Y1469D01*
X2302Y1469D01*
X2302Y1467D01*
X2296Y1467D01*
X2296Y1465D01*
X2288Y1465D01*
X2288Y1463D01*
X2286Y1463D01*
X2286Y1459D01*
X2284Y1459D01*
X2284Y1455D01*
X2282Y1455D01*
X2282Y1451D01*
X2280Y1451D01*
X2280Y1447D01*
X2278Y1447D01*
X2278Y1443D01*
X2276Y1443D01*
X2276Y1439D01*
X2274Y1439D01*
X2274Y1435D01*
X2272Y1435D01*
X2272Y1431D01*
X2270Y1431D01*
X2270Y1427D01*
X2268Y1427D01*
X2268Y1423D01*
X2266Y1423D01*
X2266Y1419D01*
X2264Y1419D01*
X2264Y1413D01*
X2262Y1413D01*
X2262Y1393D01*
X2264Y1393D01*
X2264Y1389D01*
X2266Y1389D01*
X2266Y1385D01*
X2268Y1385D01*
X2268Y1381D01*
X2270Y1381D01*
X2270Y1377D01*
X2272Y1377D01*
X2272Y1373D01*
X2274Y1373D01*
X2274Y1367D01*
X2276Y1367D01*
X2276Y1363D01*
X2278Y1363D01*
X2278Y1359D01*
X2280Y1359D01*
X2280Y1355D01*
X2282Y1355D01*
X2282Y1351D01*
X2284Y1351D01*
X2284Y1345D01*
X2286Y1345D01*
X2286Y1341D01*
X2288Y1341D01*
X2288Y1337D01*
X2290Y1337D01*
X2290Y1333D01*
X2292Y1333D01*
X2292Y1329D01*
X2294Y1329D01*
X2294Y1325D01*
X2296Y1325D01*
X2296Y1319D01*
X2298Y1319D01*
X2298Y1315D01*
X2300Y1315D01*
X2300Y1311D01*
X2302Y1311D01*
X2302Y1307D01*
X2304Y1307D01*
X2304Y1303D01*
X2306Y1303D01*
X2306Y1299D01*
X2308Y1299D01*
X2308Y1293D01*
X2310Y1293D01*
X2310Y1289D01*
X2312Y1289D01*
X2312Y1285D01*
X2314Y1285D01*
X2314Y1281D01*
X2316Y1281D01*
X2316Y1277D01*
X2318Y1277D01*
X2318Y1273D01*
X2320Y1273D01*
X2320Y1267D01*
X2322Y1267D01*
X2322Y1263D01*
X2490Y1263D01*
X2490Y1261D01*
X2498Y1261D01*
X2498Y1259D01*
X2504Y1259D01*
X2504Y1257D01*
X2508Y1257D01*
X2508Y1255D01*
X2510Y1255D01*
X2510Y1253D01*
X2514Y1253D01*
X2514Y1251D01*
X2516Y1251D01*
X2516Y1249D01*
X2518Y1249D01*
X2518Y1247D01*
X2520Y1247D01*
X2520Y1245D01*
X2522Y1245D01*
X2522Y1241D01*
X2524Y1241D01*
X2524Y1239D01*
X2526Y1239D01*
X2526Y1235D01*
X2528Y1235D01*
X2528Y1229D01*
X2530Y1229D01*
X2530Y1201D01*
X2528Y1201D01*
X2528Y1197D01*
X2526Y1197D01*
X2526Y1193D01*
X2524Y1193D01*
X2524Y1189D01*
X2522Y1189D01*
X2522Y1185D01*
X2520Y1185D01*
X2520Y1183D01*
X2518Y1183D01*
X2518Y1181D01*
X2516Y1181D01*
X2516Y1179D01*
X2512Y1179D01*
X2512Y1177D01*
X2510Y1177D01*
X2510Y1175D01*
X2508Y1175D01*
X2508Y1173D01*
X2504Y1173D01*
X2504Y1171D01*
X2498Y1171D01*
X2498Y1169D01*
X2486Y1169D01*
X2486Y1167D01*
X2802Y1167D01*
X2802Y1169D01*
X2800Y1169D01*
X2800Y1175D01*
X2798Y1175D01*
X2798Y1179D01*
X2796Y1179D01*
X2796Y1185D01*
X2794Y1185D01*
X2794Y1189D01*
X2792Y1189D01*
X2792Y1193D01*
X2790Y1193D01*
X2790Y1199D01*
X2788Y1199D01*
X2788Y1203D01*
X2786Y1203D01*
X2786Y1209D01*
X2784Y1209D01*
X2784Y1213D01*
X2782Y1213D01*
X2782Y1217D01*
X2780Y1217D01*
X2780Y1223D01*
X2778Y1223D01*
X2778Y1227D01*
X2776Y1227D01*
X2776Y1233D01*
X2774Y1233D01*
X2774Y1237D01*
X2772Y1237D01*
X2772Y1241D01*
X2770Y1241D01*
X2770Y1247D01*
X2768Y1247D01*
X2768Y1251D01*
X2766Y1251D01*
X2766Y1257D01*
X2764Y1257D01*
X2764Y1261D01*
X2762Y1261D01*
X2762Y1265D01*
X2760Y1265D01*
X2760Y1271D01*
X2758Y1271D01*
X2758Y1275D01*
X2756Y1275D01*
X2756Y1279D01*
X2754Y1279D01*
X2754Y1285D01*
X2752Y1285D01*
X2752Y1289D01*
X2750Y1289D01*
X2750Y1295D01*
X2748Y1295D01*
X2748Y1299D01*
X2746Y1299D01*
X2746Y1303D01*
X2744Y1303D01*
X2744Y1309D01*
X2742Y1309D01*
X2742Y1313D01*
X2740Y1313D01*
X2740Y1317D01*
X2738Y1317D01*
X2738Y1323D01*
X2736Y1323D01*
X2736Y1327D01*
X2734Y1327D01*
X2734Y1333D01*
X2732Y1333D01*
X2732Y1337D01*
X2730Y1337D01*
X2730Y1341D01*
X2728Y1341D01*
X2728Y1347D01*
X2726Y1347D01*
X2726Y1351D01*
X2724Y1351D01*
X2724Y1355D01*
X2722Y1355D01*
X2722Y1361D01*
X2720Y1361D01*
X2720Y1365D01*
X2718Y1365D01*
X2718Y1369D01*
X2716Y1369D01*
X2716Y1375D01*
X2714Y1375D01*
X2714Y1379D01*
X2712Y1379D01*
X2712Y1383D01*
X2710Y1383D01*
X2710Y1389D01*
X2708Y1389D01*
X2708Y1393D01*
X2706Y1393D01*
X2706Y1397D01*
X2704Y1397D01*
X2704Y1403D01*
X2702Y1403D01*
X2702Y1407D01*
X2700Y1407D01*
X2700Y1411D01*
X2698Y1411D01*
X2698Y1417D01*
X2696Y1417D01*
X2696Y1421D01*
X2694Y1421D01*
X2694Y1425D01*
X2692Y1425D01*
X2692Y1431D01*
X2690Y1431D01*
X2690Y1435D01*
X2688Y1435D01*
X2688Y1439D01*
X2686Y1439D01*
X2686Y1443D01*
X2684Y1443D01*
X2684Y1449D01*
X2682Y1449D01*
X2682Y1453D01*
X2680Y1453D01*
X2680Y1457D01*
X2678Y1457D01*
X2678Y1463D01*
X2676Y1463D01*
X2676Y1467D01*
X2674Y1467D01*
X2674Y1471D01*
X2672Y1471D01*
X2672Y1477D01*
X2670Y1477D01*
X2670Y1481D01*
X2668Y1481D01*
X2668Y1485D01*
X2666Y1485D01*
X2666Y1489D01*
X2664Y1489D01*
X2664Y1495D01*
X2662Y1495D01*
X2662Y1499D01*
X2660Y1499D01*
X2660Y1503D01*
X2658Y1503D01*
X2658Y1509D01*
X2656Y1509D01*
X2656Y1513D01*
X2654Y1513D01*
X2654Y1517D01*
X2652Y1517D01*
X2652Y1521D01*
X2650Y1521D01*
X2650Y1527D01*
X2648Y1527D01*
X2648Y1531D01*
X2646Y1531D01*
X2646Y1535D01*
X2644Y1535D01*
X2644Y1541D01*
X2642Y1541D01*
X2642Y1545D01*
X2640Y1545D01*
X2640Y1549D01*
X2638Y1549D01*
X2638Y1553D01*
X2636Y1553D01*
X2636Y1559D01*
X2634Y1559D01*
X2634Y1563D01*
X2632Y1563D01*
X2632Y1567D01*
X2630Y1567D01*
X2630Y1571D01*
X2628Y1571D01*
X2628Y1577D01*
X2626Y1577D01*
X2626Y1581D01*
X2624Y1581D01*
X2624Y1585D01*
X2622Y1585D01*
X2622Y1589D01*
X2620Y1589D01*
X2620Y1595D01*
X2618Y1595D01*
X2618Y1599D01*
X2616Y1599D01*
X2616Y1603D01*
X2614Y1603D01*
X2614Y1607D01*
X2612Y1607D01*
X2612Y1613D01*
X2610Y1613D01*
X2610Y1617D01*
X2608Y1617D01*
X2608Y1621D01*
X2606Y1621D01*
X2606Y1625D01*
X2604Y1625D01*
X2604Y1631D01*
X2602Y1631D01*
X2602Y1635D01*
X2600Y1635D01*
X2600Y1639D01*
X2598Y1639D01*
X2598Y1643D01*
X2596Y1643D01*
X2596Y1647D01*
X2594Y1647D01*
X2594Y1653D01*
X2592Y1653D01*
X2592Y1657D01*
X2590Y1657D01*
X2590Y1661D01*
X2588Y1661D01*
X2588Y1665D01*
X2586Y1665D01*
X2586Y1669D01*
X2584Y1669D01*
X2584Y1675D01*
X2582Y1675D01*
X2582Y1679D01*
X2580Y1679D01*
X2580Y1683D01*
X2578Y1683D01*
X2578Y1687D01*
X2576Y1687D01*
X2576Y1691D01*
X2574Y1691D01*
X2574Y1697D01*
X2572Y1697D01*
X2572Y1701D01*
X2570Y1701D01*
X2570Y1705D01*
X2568Y1705D01*
X2568Y1709D01*
X2566Y1709D01*
X2566Y1715D01*
X2564Y1715D01*
X2564Y1719D01*
X2562Y1719D01*
X2562Y1723D01*
X2560Y1723D01*
X2560Y1727D01*
X2558Y1727D01*
X2558Y1731D01*
X2556Y1731D01*
X2556Y1737D01*
X2554Y1737D01*
X2554Y1741D01*
X2552Y1741D01*
X2552Y1745D01*
X2550Y1745D01*
X2550Y1749D01*
X2548Y1749D01*
X2548Y1753D01*
X2546Y1753D01*
X2546Y1757D01*
X2544Y1757D01*
X2544Y1761D01*
X2542Y1761D01*
X2542Y1767D01*
X2540Y1767D01*
X2540Y1771D01*
X2538Y1771D01*
X2538Y1775D01*
X2536Y1775D01*
X2536Y1779D01*
X2534Y1779D01*
X2534Y1783D01*
X2532Y1783D01*
X2532Y1787D01*
X2530Y1787D01*
X2530Y1793D01*
X2528Y1793D01*
X2528Y1797D01*
X2526Y1797D01*
X2526Y1801D01*
X2524Y1801D01*
X2524Y1805D01*
X2522Y1805D01*
X2522Y1809D01*
X2520Y1809D01*
X2520Y1813D01*
X2518Y1813D01*
X2518Y1819D01*
X2516Y1819D01*
X2516Y1823D01*
X2514Y1823D01*
X2514Y1827D01*
X2512Y1827D01*
X2512Y1831D01*
X2510Y1831D01*
X2510Y1835D01*
X2508Y1835D01*
X2508Y1839D01*
X2506Y1839D01*
X2506Y1843D01*
X2504Y1843D01*
X2504Y1849D01*
X2502Y1849D01*
X2502Y1853D01*
X2500Y1853D01*
X2500Y1857D01*
X2498Y1857D01*
X2498Y1861D01*
X2496Y1861D01*
X2496Y1865D01*
X2494Y1865D01*
X2494Y1869D01*
X2492Y1869D01*
X2492Y1873D01*
X2490Y1873D01*
X2490Y1877D01*
X2488Y1877D01*
X2488Y1881D01*
X2486Y1881D01*
X2486Y1887D01*
X2484Y1887D01*
X2484Y1891D01*
X2482Y1891D01*
X2482Y1895D01*
X2480Y1895D01*
X2480Y1899D01*
X2478Y1899D01*
X2478Y1903D01*
X2476Y1903D01*
X2476Y1907D01*
X2474Y1907D01*
X2474Y1911D01*
X2472Y1911D01*
X2472Y1915D01*
X2470Y1915D01*
X2470Y1919D01*
X2468Y1919D01*
X2468Y1925D01*
X2466Y1925D01*
X2466Y1929D01*
X2464Y1929D01*
X2464Y1933D01*
X2462Y1933D01*
X2462Y1937D01*
X2460Y1937D01*
X2460Y1941D01*
X2458Y1941D01*
X2458Y1945D01*
X2456Y1945D01*
X2456Y1949D01*
X2454Y1949D01*
X2454Y1953D01*
X2452Y1953D01*
X2452Y1957D01*
X2450Y1957D01*
X2450Y1961D01*
X2448Y1961D01*
X2448Y1965D01*
X2446Y1965D01*
X2446Y1969D01*
X2444Y1969D01*
X2444Y1973D01*
X2442Y1973D01*
X2442Y1979D01*
X2440Y1979D01*
X2440Y1983D01*
X2438Y1983D01*
X2438Y1987D01*
X2436Y1987D01*
X2436Y1991D01*
X2434Y1991D01*
X2434Y1995D01*
X2432Y1995D01*
X2432Y1999D01*
X2430Y1999D01*
X2430Y2003D01*
X2428Y2003D01*
X2428Y2007D01*
X2426Y2007D01*
X2426Y2011D01*
X2424Y2011D01*
X2424Y2015D01*
X2422Y2015D01*
X2422Y2019D01*
X2420Y2019D01*
X2420Y2023D01*
X2418Y2023D01*
X2418Y2027D01*
X2416Y2027D01*
X2416Y2031D01*
X2414Y2031D01*
X2414Y2035D01*
X2412Y2035D01*
X2412Y2039D01*
X2410Y2039D01*
X2410Y2043D01*
X2408Y2043D01*
X2408Y2047D01*
X2406Y2047D01*
X2406Y2051D01*
X2404Y2051D01*
X2404Y2057D01*
X2402Y2057D01*
X2402Y2061D01*
X2400Y2061D01*
X2400Y2065D01*
X2398Y2065D01*
X2398Y2069D01*
X2396Y2069D01*
X2396Y2073D01*
X2394Y2073D01*
X2394Y2077D01*
X2392Y2077D01*
X2392Y2081D01*
X2390Y2081D01*
X2390Y2085D01*
X2388Y2085D01*
X2388Y2089D01*
X2386Y2089D01*
X2386Y2093D01*
X2384Y2093D01*
X2384Y2097D01*
X2382Y2097D01*
X2382Y2101D01*
X2380Y2101D01*
X2380Y2105D01*
X2378Y2105D01*
X2378Y2109D01*
X2376Y2109D01*
X2376Y2113D01*
X2374Y2113D01*
X2374Y2117D01*
X2372Y2117D01*
X2372Y2121D01*
X2370Y2121D01*
X2370Y2125D01*
X2368Y2125D01*
X2368Y2129D01*
X2366Y2129D01*
X2366Y2133D01*
X2364Y2133D01*
X2364Y2137D01*
X2362Y2137D01*
X2362Y2141D01*
X2360Y2141D01*
X2360Y2145D01*
X2358Y2145D01*
X2358Y2149D01*
X2356Y2149D01*
X2356Y2153D01*
X2354Y2153D01*
X2354Y2157D01*
X2352Y2157D01*
X2352Y2161D01*
X2350Y2161D01*
X2350Y2165D01*
X2348Y2165D01*
X2348Y2169D01*
X2346Y2169D01*
X2346Y2173D01*
X2344Y2173D01*
X2344Y2177D01*
X2342Y2177D01*
X2342Y2181D01*
X2340Y2181D01*
X2340Y2183D01*
X2338Y2183D01*
X2338Y2187D01*
X2336Y2187D01*
X2336Y2191D01*
X2334Y2191D01*
X2334Y2195D01*
X2332Y2195D01*
X2332Y2199D01*
X2330Y2199D01*
X2330Y2203D01*
X2328Y2203D01*
X2328Y2207D01*
X2326Y2207D01*
X2326Y2211D01*
X1518Y2211D01*
G37*
D02*
G36*
X1838Y1547D02*
X1838Y1545D01*
X1840Y1545D01*
X1840Y1541D01*
X1842Y1541D01*
X1842Y1537D01*
X1844Y1537D01*
X1844Y1533D01*
X1846Y1533D01*
X1846Y1529D01*
X2050Y1529D01*
X2050Y1527D01*
X2144Y1527D01*
X2144Y1547D01*
X1838Y1547D01*
G37*
D02*
G36*
X2226Y1547D02*
X2226Y1521D01*
X2246Y1521D01*
X2246Y1525D01*
X2248Y1525D01*
X2248Y1527D01*
X2250Y1527D01*
X2250Y1531D01*
X2252Y1531D01*
X2252Y1533D01*
X2254Y1533D01*
X2254Y1535D01*
X2256Y1535D01*
X2256Y1537D01*
X2258Y1537D01*
X2258Y1539D01*
X2262Y1539D01*
X2262Y1541D01*
X2264Y1541D01*
X2264Y1543D01*
X2268Y1543D01*
X2268Y1545D01*
X2276Y1545D01*
X2276Y1547D01*
X2226Y1547D01*
G37*
D02*
G36*
X2958Y1547D02*
X2958Y985D01*
X3140Y985D01*
X3140Y989D01*
X3138Y989D01*
X3138Y997D01*
X3136Y997D01*
X3136Y1013D01*
X3138Y1013D01*
X3138Y1021D01*
X3140Y1021D01*
X3140Y1025D01*
X3142Y1025D01*
X3142Y1029D01*
X3144Y1029D01*
X3144Y1033D01*
X3146Y1033D01*
X3146Y1035D01*
X3148Y1035D01*
X3148Y1037D01*
X3150Y1037D01*
X3150Y1039D01*
X3152Y1039D01*
X3152Y1041D01*
X3154Y1041D01*
X3154Y1043D01*
X3156Y1043D01*
X3156Y1045D01*
X3160Y1045D01*
X3160Y1047D01*
X3162Y1047D01*
X3162Y1321D01*
X3164Y1321D01*
X3164Y1413D01*
X3166Y1413D01*
X3166Y1417D01*
X3168Y1417D01*
X3168Y1421D01*
X3170Y1421D01*
X3170Y1425D01*
X3172Y1425D01*
X3172Y1429D01*
X3174Y1429D01*
X3174Y1433D01*
X3176Y1433D01*
X3176Y1439D01*
X3178Y1439D01*
X3178Y1443D01*
X3180Y1443D01*
X3180Y1447D01*
X3182Y1447D01*
X3182Y1451D01*
X3184Y1451D01*
X3184Y1455D01*
X3186Y1455D01*
X3186Y1459D01*
X3188Y1459D01*
X3188Y1463D01*
X3190Y1463D01*
X3190Y1467D01*
X3192Y1467D01*
X3192Y1471D01*
X3194Y1471D01*
X3194Y1497D01*
X3192Y1497D01*
X3192Y1513D01*
X3194Y1513D01*
X3194Y1521D01*
X3196Y1521D01*
X3196Y1525D01*
X3198Y1525D01*
X3198Y1527D01*
X3200Y1527D01*
X3200Y1531D01*
X3202Y1531D01*
X3202Y1533D01*
X3204Y1533D01*
X3204Y1535D01*
X3206Y1535D01*
X3206Y1537D01*
X3208Y1537D01*
X3208Y1539D01*
X3212Y1539D01*
X3212Y1541D01*
X3214Y1541D01*
X3214Y1543D01*
X3218Y1543D01*
X3218Y1545D01*
X3226Y1545D01*
X3226Y1547D01*
X2958Y1547D01*
G37*
D02*
G36*
X3242Y1547D02*
X3242Y1545D01*
X3248Y1545D01*
X3248Y1543D01*
X3252Y1543D01*
X3252Y1541D01*
X3256Y1541D01*
X3256Y1539D01*
X3258Y1539D01*
X3258Y1537D01*
X3262Y1537D01*
X3262Y1535D01*
X3264Y1535D01*
X3264Y1533D01*
X3266Y1533D01*
X3266Y1529D01*
X3268Y1529D01*
X3268Y1527D01*
X3270Y1527D01*
X3270Y1523D01*
X3290Y1523D01*
X3290Y1547D01*
X3242Y1547D01*
G37*
D02*
G36*
X470Y1497D02*
X470Y1461D01*
X468Y1461D01*
X468Y1095D01*
X466Y1095D01*
X466Y1007D01*
X682Y1007D01*
X682Y1009D01*
X670Y1009D01*
X670Y1011D01*
X664Y1011D01*
X664Y1013D01*
X660Y1013D01*
X660Y1015D01*
X658Y1015D01*
X658Y1017D01*
X654Y1017D01*
X654Y1019D01*
X652Y1019D01*
X652Y1021D01*
X650Y1021D01*
X650Y1023D01*
X648Y1023D01*
X648Y1025D01*
X646Y1025D01*
X646Y1029D01*
X644Y1029D01*
X644Y1031D01*
X642Y1031D01*
X642Y1035D01*
X640Y1035D01*
X640Y1039D01*
X638Y1039D01*
X638Y1047D01*
X636Y1047D01*
X636Y1063D01*
X638Y1063D01*
X638Y1071D01*
X640Y1071D01*
X640Y1075D01*
X642Y1075D01*
X642Y1079D01*
X644Y1079D01*
X644Y1083D01*
X646Y1083D01*
X646Y1085D01*
X648Y1085D01*
X648Y1087D01*
X650Y1087D01*
X650Y1089D01*
X652Y1089D01*
X652Y1091D01*
X654Y1091D01*
X654Y1093D01*
X656Y1093D01*
X656Y1095D01*
X660Y1095D01*
X660Y1097D01*
X662Y1097D01*
X662Y1355D01*
X664Y1355D01*
X664Y1363D01*
X666Y1363D01*
X666Y1367D01*
X668Y1367D01*
X668Y1371D01*
X670Y1371D01*
X670Y1375D01*
X672Y1375D01*
X672Y1379D01*
X674Y1379D01*
X674Y1383D01*
X676Y1383D01*
X676Y1387D01*
X678Y1387D01*
X678Y1393D01*
X680Y1393D01*
X680Y1397D01*
X682Y1397D01*
X682Y1401D01*
X684Y1401D01*
X684Y1405D01*
X686Y1405D01*
X686Y1409D01*
X688Y1409D01*
X688Y1413D01*
X690Y1413D01*
X690Y1417D01*
X692Y1417D01*
X692Y1421D01*
X694Y1421D01*
X694Y1447D01*
X692Y1447D01*
X692Y1463D01*
X694Y1463D01*
X694Y1471D01*
X696Y1471D01*
X696Y1475D01*
X698Y1475D01*
X698Y1477D01*
X700Y1477D01*
X700Y1481D01*
X702Y1481D01*
X702Y1483D01*
X704Y1483D01*
X704Y1485D01*
X706Y1485D01*
X706Y1487D01*
X708Y1487D01*
X708Y1489D01*
X712Y1489D01*
X712Y1491D01*
X714Y1491D01*
X714Y1493D01*
X718Y1493D01*
X718Y1495D01*
X726Y1495D01*
X726Y1497D01*
X470Y1497D01*
G37*
D02*
G36*
X742Y1497D02*
X742Y1495D01*
X748Y1495D01*
X748Y1493D01*
X752Y1493D01*
X752Y1491D01*
X756Y1491D01*
X756Y1489D01*
X758Y1489D01*
X758Y1487D01*
X762Y1487D01*
X762Y1485D01*
X764Y1485D01*
X764Y1483D01*
X766Y1483D01*
X766Y1479D01*
X768Y1479D01*
X768Y1477D01*
X770Y1477D01*
X770Y1473D01*
X790Y1473D01*
X790Y1497D01*
X742Y1497D01*
G37*
D02*
G36*
X3270Y1487D02*
X3270Y1485D01*
X3268Y1485D01*
X3268Y1481D01*
X3266Y1481D01*
X3266Y1479D01*
X3264Y1479D01*
X3264Y1477D01*
X3262Y1477D01*
X3262Y1475D01*
X3260Y1475D01*
X3260Y1473D01*
X3258Y1473D01*
X3258Y1471D01*
X3254Y1471D01*
X3254Y1469D01*
X3252Y1469D01*
X3252Y1467D01*
X3246Y1467D01*
X3246Y1465D01*
X3238Y1465D01*
X3238Y1461D01*
X3236Y1461D01*
X3236Y1457D01*
X3234Y1457D01*
X3234Y1453D01*
X3232Y1453D01*
X3232Y1449D01*
X3230Y1449D01*
X3230Y1445D01*
X3228Y1445D01*
X3228Y1441D01*
X3226Y1441D01*
X3226Y1437D01*
X3224Y1437D01*
X3224Y1433D01*
X3222Y1433D01*
X3222Y1429D01*
X3220Y1429D01*
X3220Y1423D01*
X3218Y1423D01*
X3218Y1419D01*
X3216Y1419D01*
X3216Y1415D01*
X3214Y1415D01*
X3214Y1411D01*
X3212Y1411D01*
X3212Y1407D01*
X3210Y1407D01*
X3210Y1403D01*
X3208Y1403D01*
X3208Y1317D01*
X3206Y1317D01*
X3206Y1047D01*
X3208Y1047D01*
X3208Y1045D01*
X3212Y1045D01*
X3212Y1043D01*
X3214Y1043D01*
X3214Y1041D01*
X3216Y1041D01*
X3216Y1039D01*
X3218Y1039D01*
X3218Y1037D01*
X3220Y1037D01*
X3220Y1035D01*
X3222Y1035D01*
X3222Y1031D01*
X3224Y1031D01*
X3224Y1029D01*
X3226Y1029D01*
X3226Y1025D01*
X3228Y1025D01*
X3228Y1019D01*
X3230Y1019D01*
X3230Y1009D01*
X3232Y1009D01*
X3232Y1003D01*
X3230Y1003D01*
X3230Y993D01*
X3228Y993D01*
X3228Y987D01*
X3226Y987D01*
X3226Y983D01*
X3224Y983D01*
X3224Y979D01*
X3222Y979D01*
X3222Y977D01*
X3220Y977D01*
X3220Y973D01*
X3218Y973D01*
X3218Y971D01*
X3216Y971D01*
X3216Y969D01*
X3212Y969D01*
X3212Y967D01*
X3210Y967D01*
X3210Y965D01*
X3206Y965D01*
X3206Y963D01*
X3202Y963D01*
X3202Y961D01*
X3196Y961D01*
X3196Y959D01*
X3186Y959D01*
X3186Y957D01*
X3262Y957D01*
X3262Y1413D01*
X3264Y1413D01*
X3264Y1417D01*
X3266Y1417D01*
X3266Y1421D01*
X3268Y1421D01*
X3268Y1425D01*
X3270Y1425D01*
X3270Y1429D01*
X3272Y1429D01*
X3272Y1433D01*
X3274Y1433D01*
X3274Y1437D01*
X3276Y1437D01*
X3276Y1441D01*
X3278Y1441D01*
X3278Y1445D01*
X3280Y1445D01*
X3280Y1451D01*
X3282Y1451D01*
X3282Y1455D01*
X3284Y1455D01*
X3284Y1459D01*
X3286Y1459D01*
X3286Y1463D01*
X3288Y1463D01*
X3288Y1467D01*
X3290Y1467D01*
X3290Y1487D01*
X3270Y1487D01*
G37*
D02*
G36*
X1882Y1485D02*
X1882Y1465D01*
X1884Y1465D01*
X1884Y1461D01*
X1886Y1461D01*
X1886Y1459D01*
X1888Y1459D01*
X1888Y1455D01*
X1890Y1455D01*
X1890Y1451D01*
X1892Y1451D01*
X1892Y1449D01*
X1894Y1449D01*
X1894Y1445D01*
X1896Y1445D01*
X1896Y1441D01*
X1898Y1441D01*
X1898Y1439D01*
X1900Y1439D01*
X1900Y1435D01*
X1902Y1435D01*
X1902Y1431D01*
X1904Y1431D01*
X1904Y1429D01*
X1906Y1429D01*
X1906Y1425D01*
X1908Y1425D01*
X1908Y1421D01*
X1910Y1421D01*
X1910Y1419D01*
X1912Y1419D01*
X1912Y1415D01*
X1914Y1415D01*
X1914Y1411D01*
X1916Y1411D01*
X1916Y1407D01*
X1918Y1407D01*
X1918Y1405D01*
X1920Y1405D01*
X1920Y1401D01*
X1922Y1401D01*
X1922Y1397D01*
X1924Y1397D01*
X1924Y1395D01*
X1926Y1395D01*
X1926Y1391D01*
X1928Y1391D01*
X1928Y1387D01*
X1930Y1387D01*
X1930Y1385D01*
X1932Y1385D01*
X1932Y1381D01*
X1934Y1381D01*
X1934Y1377D01*
X1936Y1377D01*
X1936Y1375D01*
X1938Y1375D01*
X1938Y1371D01*
X1940Y1371D01*
X1940Y1367D01*
X1942Y1367D01*
X1942Y1365D01*
X1944Y1365D01*
X1944Y1361D01*
X1946Y1361D01*
X1946Y1357D01*
X1948Y1357D01*
X1948Y1355D01*
X1950Y1355D01*
X1950Y1351D01*
X1952Y1351D01*
X1952Y1347D01*
X1954Y1347D01*
X1954Y1343D01*
X1956Y1343D01*
X1956Y1341D01*
X1958Y1341D01*
X1958Y1337D01*
X1960Y1337D01*
X1960Y1333D01*
X1962Y1333D01*
X1962Y1331D01*
X1964Y1331D01*
X1964Y1327D01*
X1966Y1327D01*
X1966Y1323D01*
X1968Y1323D01*
X1968Y1321D01*
X1970Y1321D01*
X1970Y1317D01*
X1972Y1317D01*
X1972Y1313D01*
X1974Y1313D01*
X1974Y1311D01*
X1976Y1311D01*
X1976Y1307D01*
X1978Y1307D01*
X1978Y1303D01*
X1980Y1303D01*
X1980Y1301D01*
X1982Y1301D01*
X1982Y1297D01*
X1984Y1297D01*
X1984Y1293D01*
X1986Y1293D01*
X1986Y1289D01*
X1988Y1289D01*
X1988Y1287D01*
X1990Y1287D01*
X1990Y1283D01*
X1992Y1283D01*
X1992Y1279D01*
X1994Y1279D01*
X1994Y1277D01*
X1996Y1277D01*
X1996Y1273D01*
X1998Y1273D01*
X1998Y1269D01*
X2000Y1269D01*
X2000Y1267D01*
X2002Y1267D01*
X2002Y1263D01*
X2004Y1263D01*
X2004Y1259D01*
X2006Y1259D01*
X2006Y1257D01*
X2008Y1257D01*
X2008Y1253D01*
X2010Y1253D01*
X2010Y1249D01*
X2012Y1249D01*
X2012Y1247D01*
X2014Y1247D01*
X2014Y1243D01*
X2016Y1243D01*
X2016Y1239D01*
X2018Y1239D01*
X2018Y1235D01*
X2020Y1235D01*
X2020Y1233D01*
X2022Y1233D01*
X2022Y1229D01*
X2024Y1229D01*
X2024Y1225D01*
X2026Y1225D01*
X2026Y1223D01*
X2028Y1223D01*
X2028Y1219D01*
X2030Y1219D01*
X2030Y1215D01*
X2032Y1215D01*
X2032Y1213D01*
X2034Y1213D01*
X2034Y1209D01*
X2036Y1209D01*
X2036Y1205D01*
X2038Y1205D01*
X2038Y1203D01*
X2040Y1203D01*
X2040Y1199D01*
X2042Y1199D01*
X2042Y1195D01*
X2044Y1195D01*
X2044Y1193D01*
X2046Y1193D01*
X2046Y1189D01*
X2048Y1189D01*
X2048Y1185D01*
X2050Y1185D01*
X2050Y1183D01*
X2052Y1183D01*
X2052Y1179D01*
X2054Y1179D01*
X2054Y1175D01*
X2056Y1175D01*
X2056Y1171D01*
X2058Y1171D01*
X2058Y1169D01*
X2060Y1169D01*
X2060Y1165D01*
X2062Y1165D01*
X2062Y1161D01*
X2064Y1161D01*
X2064Y1159D01*
X2066Y1159D01*
X2066Y1155D01*
X2068Y1155D01*
X2068Y1151D01*
X2070Y1151D01*
X2070Y1149D01*
X2072Y1149D01*
X2072Y1145D01*
X2074Y1145D01*
X2074Y1141D01*
X2076Y1141D01*
X2076Y1139D01*
X2078Y1139D01*
X2078Y1135D01*
X2080Y1135D01*
X2080Y1131D01*
X2082Y1131D01*
X2082Y1129D01*
X2084Y1129D01*
X2084Y1125D01*
X2086Y1125D01*
X2086Y1121D01*
X2088Y1121D01*
X2088Y1117D01*
X2090Y1117D01*
X2090Y1115D01*
X2092Y1115D01*
X2092Y1111D01*
X2094Y1111D01*
X2094Y1107D01*
X2096Y1107D01*
X2096Y1105D01*
X2098Y1105D01*
X2098Y1101D01*
X2100Y1101D01*
X2100Y1097D01*
X2102Y1097D01*
X2102Y1095D01*
X2104Y1095D01*
X2104Y1091D01*
X2106Y1091D01*
X2106Y1087D01*
X2108Y1087D01*
X2108Y1085D01*
X2110Y1085D01*
X2110Y1081D01*
X2112Y1081D01*
X2112Y1077D01*
X2114Y1077D01*
X2114Y1075D01*
X2116Y1075D01*
X2116Y1071D01*
X2118Y1071D01*
X2118Y1067D01*
X2120Y1067D01*
X2120Y1063D01*
X2122Y1063D01*
X2122Y1061D01*
X2124Y1061D01*
X2124Y1057D01*
X2126Y1057D01*
X2126Y1053D01*
X2128Y1053D01*
X2128Y1051D01*
X2130Y1051D01*
X2130Y1047D01*
X2132Y1047D01*
X2132Y1043D01*
X2134Y1043D01*
X2134Y1041D01*
X2136Y1041D01*
X2136Y1037D01*
X2138Y1037D01*
X2138Y1033D01*
X2140Y1033D01*
X2140Y1031D01*
X2142Y1031D01*
X2142Y1027D01*
X2144Y1027D01*
X2144Y1023D01*
X2146Y1023D01*
X2146Y1021D01*
X2148Y1021D01*
X2148Y1017D01*
X2150Y1017D01*
X2150Y1013D01*
X2152Y1013D01*
X2152Y1011D01*
X2154Y1011D01*
X2154Y1007D01*
X2156Y1007D01*
X2156Y1003D01*
X2158Y1003D01*
X2158Y999D01*
X2160Y999D01*
X2160Y997D01*
X2162Y997D01*
X2162Y993D01*
X2164Y993D01*
X2164Y989D01*
X2166Y989D01*
X2166Y987D01*
X2168Y987D01*
X2168Y983D01*
X2170Y983D01*
X2170Y979D01*
X2172Y979D01*
X2172Y977D01*
X2174Y977D01*
X2174Y973D01*
X2176Y973D01*
X2176Y969D01*
X2178Y969D01*
X2178Y967D01*
X2180Y967D01*
X2180Y963D01*
X2182Y963D01*
X2182Y959D01*
X2184Y959D01*
X2184Y957D01*
X2186Y957D01*
X2186Y953D01*
X2188Y953D01*
X2188Y949D01*
X2190Y949D01*
X2190Y945D01*
X2192Y945D01*
X2192Y943D01*
X2194Y943D01*
X2194Y939D01*
X2196Y939D01*
X2196Y935D01*
X2198Y935D01*
X2198Y933D01*
X2200Y933D01*
X2200Y929D01*
X2202Y929D01*
X2202Y925D01*
X2204Y925D01*
X2204Y923D01*
X2206Y923D01*
X2206Y919D01*
X2208Y919D01*
X2208Y915D01*
X2210Y915D01*
X2210Y913D01*
X2212Y913D01*
X2212Y909D01*
X2214Y909D01*
X2214Y905D01*
X2216Y905D01*
X2216Y903D01*
X2218Y903D01*
X2218Y899D01*
X2220Y899D01*
X2220Y895D01*
X2222Y895D01*
X2222Y891D01*
X2224Y891D01*
X2224Y889D01*
X2226Y889D01*
X2226Y885D01*
X2228Y885D01*
X2228Y881D01*
X2230Y881D01*
X2230Y879D01*
X2232Y879D01*
X2232Y875D01*
X2234Y875D01*
X2234Y871D01*
X2236Y871D01*
X2236Y869D01*
X2238Y869D01*
X2238Y865D01*
X2240Y865D01*
X2240Y861D01*
X2242Y861D01*
X2242Y859D01*
X2244Y859D01*
X2244Y855D01*
X2246Y855D01*
X2246Y851D01*
X2248Y851D01*
X2248Y849D01*
X2250Y849D01*
X2250Y845D01*
X2252Y845D01*
X2252Y841D01*
X2254Y841D01*
X2254Y839D01*
X2256Y839D01*
X2256Y835D01*
X2258Y835D01*
X2258Y831D01*
X2260Y831D01*
X2260Y827D01*
X2262Y827D01*
X2262Y825D01*
X2264Y825D01*
X2264Y821D01*
X2266Y821D01*
X2266Y817D01*
X2268Y817D01*
X2268Y815D01*
X2270Y815D01*
X2270Y811D01*
X2272Y811D01*
X2272Y807D01*
X2274Y807D01*
X2274Y805D01*
X2276Y805D01*
X2276Y801D01*
X2278Y801D01*
X2278Y797D01*
X2280Y797D01*
X2280Y795D01*
X2282Y795D01*
X2282Y791D01*
X2284Y791D01*
X2284Y787D01*
X2286Y787D01*
X2286Y785D01*
X2288Y785D01*
X2288Y781D01*
X2290Y781D01*
X2290Y777D01*
X2292Y777D01*
X2292Y773D01*
X2294Y773D01*
X2294Y771D01*
X2296Y771D01*
X2296Y767D01*
X2298Y767D01*
X2298Y763D01*
X2300Y763D01*
X2300Y761D01*
X2302Y761D01*
X2302Y757D01*
X2304Y757D01*
X2304Y753D01*
X2306Y753D01*
X2306Y751D01*
X2308Y751D01*
X2308Y747D01*
X2310Y747D01*
X2310Y743D01*
X2312Y743D01*
X2312Y741D01*
X2314Y741D01*
X2314Y737D01*
X2316Y737D01*
X2316Y733D01*
X2318Y733D01*
X2318Y731D01*
X2320Y731D01*
X2320Y727D01*
X2322Y727D01*
X2322Y723D01*
X2324Y723D01*
X2324Y721D01*
X2326Y721D01*
X2326Y717D01*
X2328Y717D01*
X2328Y713D01*
X2330Y713D01*
X2330Y709D01*
X2332Y709D01*
X2332Y707D01*
X2334Y707D01*
X2334Y703D01*
X2336Y703D01*
X2336Y699D01*
X2338Y699D01*
X2338Y697D01*
X2340Y697D01*
X2340Y693D01*
X2342Y693D01*
X2342Y689D01*
X2344Y689D01*
X2344Y687D01*
X2346Y687D01*
X2346Y683D01*
X2348Y683D01*
X2348Y679D01*
X2350Y679D01*
X2350Y677D01*
X2352Y677D01*
X2352Y673D01*
X2354Y673D01*
X2354Y669D01*
X2356Y669D01*
X2356Y667D01*
X2358Y667D01*
X2358Y663D01*
X2594Y663D01*
X2594Y701D01*
X2592Y701D01*
X2592Y703D01*
X2588Y703D01*
X2588Y705D01*
X2584Y705D01*
X2584Y707D01*
X2580Y707D01*
X2580Y709D01*
X2576Y709D01*
X2576Y711D01*
X2572Y711D01*
X2572Y713D01*
X2568Y713D01*
X2568Y715D01*
X2564Y715D01*
X2564Y717D01*
X2560Y717D01*
X2560Y719D01*
X2556Y719D01*
X2556Y721D01*
X2552Y721D01*
X2552Y723D01*
X2548Y723D01*
X2548Y725D01*
X2544Y725D01*
X2544Y727D01*
X2540Y727D01*
X2540Y729D01*
X2536Y729D01*
X2536Y731D01*
X2532Y731D01*
X2532Y733D01*
X2528Y733D01*
X2528Y735D01*
X2524Y735D01*
X2524Y737D01*
X2520Y737D01*
X2520Y739D01*
X2518Y739D01*
X2518Y741D01*
X2516Y741D01*
X2516Y743D01*
X2514Y743D01*
X2514Y745D01*
X2512Y745D01*
X2512Y751D01*
X2510Y751D01*
X2510Y755D01*
X2508Y755D01*
X2508Y759D01*
X2506Y759D01*
X2506Y763D01*
X2504Y763D01*
X2504Y767D01*
X2502Y767D01*
X2502Y771D01*
X2500Y771D01*
X2500Y777D01*
X2498Y777D01*
X2498Y781D01*
X2496Y781D01*
X2496Y785D01*
X2494Y785D01*
X2494Y789D01*
X2492Y789D01*
X2492Y793D01*
X2490Y793D01*
X2490Y797D01*
X2488Y797D01*
X2488Y803D01*
X2486Y803D01*
X2486Y807D01*
X2484Y807D01*
X2484Y811D01*
X2482Y811D01*
X2482Y815D01*
X2480Y815D01*
X2480Y819D01*
X2478Y819D01*
X2478Y823D01*
X2476Y823D01*
X2476Y829D01*
X2474Y829D01*
X2474Y833D01*
X2472Y833D01*
X2472Y837D01*
X2470Y837D01*
X2470Y841D01*
X2468Y841D01*
X2468Y845D01*
X2466Y845D01*
X2466Y849D01*
X2464Y849D01*
X2464Y855D01*
X2462Y855D01*
X2462Y859D01*
X2460Y859D01*
X2460Y863D01*
X2458Y863D01*
X2458Y867D01*
X2456Y867D01*
X2456Y871D01*
X2454Y871D01*
X2454Y877D01*
X2452Y877D01*
X2452Y881D01*
X2450Y881D01*
X2450Y885D01*
X2448Y885D01*
X2448Y889D01*
X2446Y889D01*
X2446Y893D01*
X2444Y893D01*
X2444Y897D01*
X2442Y897D01*
X2442Y903D01*
X2440Y903D01*
X2440Y907D01*
X2438Y907D01*
X2438Y911D01*
X2436Y911D01*
X2436Y915D01*
X2434Y915D01*
X2434Y919D01*
X2432Y919D01*
X2432Y923D01*
X2430Y923D01*
X2430Y929D01*
X2428Y929D01*
X2428Y933D01*
X2426Y933D01*
X2426Y937D01*
X2424Y937D01*
X2424Y941D01*
X2422Y941D01*
X2422Y945D01*
X2420Y945D01*
X2420Y949D01*
X2418Y949D01*
X2418Y955D01*
X2416Y955D01*
X2416Y959D01*
X2414Y959D01*
X2414Y963D01*
X2412Y963D01*
X2412Y967D01*
X2410Y967D01*
X2410Y971D01*
X2408Y971D01*
X2408Y975D01*
X2406Y975D01*
X2406Y981D01*
X2404Y981D01*
X2404Y985D01*
X2402Y985D01*
X2402Y989D01*
X2400Y989D01*
X2400Y993D01*
X2398Y993D01*
X2398Y997D01*
X2396Y997D01*
X2396Y1001D01*
X2394Y1001D01*
X2394Y1007D01*
X2392Y1007D01*
X2392Y1011D01*
X2390Y1011D01*
X2390Y1015D01*
X2388Y1015D01*
X2388Y1019D01*
X2386Y1019D01*
X2386Y1023D01*
X2384Y1023D01*
X2384Y1029D01*
X2382Y1029D01*
X2382Y1033D01*
X2380Y1033D01*
X2380Y1037D01*
X2378Y1037D01*
X2378Y1041D01*
X2376Y1041D01*
X2376Y1045D01*
X2374Y1045D01*
X2374Y1049D01*
X2372Y1049D01*
X2372Y1055D01*
X2370Y1055D01*
X2370Y1059D01*
X2368Y1059D01*
X2368Y1063D01*
X2366Y1063D01*
X2366Y1067D01*
X2364Y1067D01*
X2364Y1071D01*
X2362Y1071D01*
X2362Y1075D01*
X2360Y1075D01*
X2360Y1081D01*
X2358Y1081D01*
X2358Y1085D01*
X2356Y1085D01*
X2356Y1089D01*
X2354Y1089D01*
X2354Y1093D01*
X2352Y1093D01*
X2352Y1097D01*
X2350Y1097D01*
X2350Y1101D01*
X2348Y1101D01*
X2348Y1107D01*
X2346Y1107D01*
X2346Y1111D01*
X2344Y1111D01*
X2344Y1115D01*
X2342Y1115D01*
X2342Y1119D01*
X2340Y1119D01*
X2340Y1123D01*
X2338Y1123D01*
X2338Y1127D01*
X2336Y1127D01*
X2336Y1133D01*
X2334Y1133D01*
X2334Y1137D01*
X2332Y1137D01*
X2332Y1141D01*
X2330Y1141D01*
X2330Y1145D01*
X2328Y1145D01*
X2328Y1149D01*
X2326Y1149D01*
X2326Y1153D01*
X2324Y1153D01*
X2324Y1159D01*
X2322Y1159D01*
X2322Y1163D01*
X2320Y1163D01*
X2320Y1167D01*
X2318Y1167D01*
X2318Y1171D01*
X2316Y1171D01*
X2316Y1175D01*
X2314Y1175D01*
X2314Y1179D01*
X2312Y1179D01*
X2312Y1185D01*
X2310Y1185D01*
X2310Y1189D01*
X2308Y1189D01*
X2308Y1193D01*
X2306Y1193D01*
X2306Y1197D01*
X2304Y1197D01*
X2304Y1201D01*
X2302Y1201D01*
X2302Y1207D01*
X2300Y1207D01*
X2300Y1211D01*
X2298Y1211D01*
X2298Y1215D01*
X2296Y1215D01*
X2296Y1219D01*
X2294Y1219D01*
X2294Y1223D01*
X2292Y1223D01*
X2292Y1227D01*
X2290Y1227D01*
X2290Y1233D01*
X2288Y1233D01*
X2288Y1237D01*
X2286Y1237D01*
X2286Y1241D01*
X2284Y1241D01*
X2284Y1245D01*
X2282Y1245D01*
X2282Y1249D01*
X2280Y1249D01*
X2280Y1253D01*
X2278Y1253D01*
X2278Y1259D01*
X2276Y1259D01*
X2276Y1263D01*
X2274Y1263D01*
X2274Y1267D01*
X2272Y1267D01*
X2272Y1271D01*
X2270Y1271D01*
X2270Y1275D01*
X2268Y1275D01*
X2268Y1279D01*
X2266Y1279D01*
X2266Y1285D01*
X2264Y1285D01*
X2264Y1289D01*
X2262Y1289D01*
X2262Y1293D01*
X2260Y1293D01*
X2260Y1297D01*
X2258Y1297D01*
X2258Y1301D01*
X2256Y1301D01*
X2256Y1305D01*
X2254Y1305D01*
X2254Y1311D01*
X2252Y1311D01*
X2252Y1315D01*
X2250Y1315D01*
X2250Y1319D01*
X2248Y1319D01*
X2248Y1323D01*
X2246Y1323D01*
X2246Y1327D01*
X2244Y1327D01*
X2244Y1331D01*
X2242Y1331D01*
X2242Y1337D01*
X2240Y1337D01*
X2240Y1341D01*
X2238Y1341D01*
X2238Y1345D01*
X2236Y1345D01*
X2236Y1349D01*
X2234Y1349D01*
X2234Y1353D01*
X2232Y1353D01*
X2232Y1359D01*
X2230Y1359D01*
X2230Y1363D01*
X2228Y1363D01*
X2228Y1367D01*
X2226Y1367D01*
X2226Y1371D01*
X2224Y1371D01*
X2224Y1375D01*
X2222Y1375D01*
X2222Y1379D01*
X2220Y1379D01*
X2220Y1385D01*
X2218Y1385D01*
X2218Y1389D01*
X2216Y1389D01*
X2216Y1393D01*
X2214Y1393D01*
X2214Y1397D01*
X2212Y1397D01*
X2212Y1411D01*
X2214Y1411D01*
X2214Y1417D01*
X2216Y1417D01*
X2216Y1421D01*
X2218Y1421D01*
X2218Y1425D01*
X2220Y1425D01*
X2220Y1429D01*
X2222Y1429D01*
X2222Y1433D01*
X2224Y1433D01*
X2224Y1437D01*
X2226Y1437D01*
X2226Y1441D01*
X2228Y1441D01*
X2228Y1445D01*
X2230Y1445D01*
X2230Y1449D01*
X2232Y1449D01*
X2232Y1453D01*
X2234Y1453D01*
X2234Y1457D01*
X2236Y1457D01*
X2236Y1461D01*
X2238Y1461D01*
X2238Y1463D01*
X2144Y1463D01*
X2144Y1483D01*
X2046Y1483D01*
X2046Y1485D01*
X1882Y1485D01*
G37*
D02*
G36*
X770Y1437D02*
X770Y1435D01*
X768Y1435D01*
X768Y1431D01*
X766Y1431D01*
X766Y1429D01*
X764Y1429D01*
X764Y1427D01*
X762Y1427D01*
X762Y1425D01*
X760Y1425D01*
X760Y1423D01*
X758Y1423D01*
X758Y1421D01*
X754Y1421D01*
X754Y1419D01*
X752Y1419D01*
X752Y1417D01*
X746Y1417D01*
X746Y1415D01*
X738Y1415D01*
X738Y1411D01*
X736Y1411D01*
X736Y1407D01*
X734Y1407D01*
X734Y1403D01*
X732Y1403D01*
X732Y1399D01*
X730Y1399D01*
X730Y1395D01*
X728Y1395D01*
X728Y1391D01*
X726Y1391D01*
X726Y1387D01*
X724Y1387D01*
X724Y1383D01*
X722Y1383D01*
X722Y1377D01*
X720Y1377D01*
X720Y1373D01*
X718Y1373D01*
X718Y1369D01*
X716Y1369D01*
X716Y1365D01*
X714Y1365D01*
X714Y1361D01*
X712Y1361D01*
X712Y1357D01*
X710Y1357D01*
X710Y1353D01*
X708Y1353D01*
X708Y1349D01*
X706Y1349D01*
X706Y1097D01*
X708Y1097D01*
X708Y1095D01*
X712Y1095D01*
X712Y1093D01*
X714Y1093D01*
X714Y1091D01*
X716Y1091D01*
X716Y1089D01*
X718Y1089D01*
X718Y1087D01*
X720Y1087D01*
X720Y1085D01*
X722Y1085D01*
X722Y1081D01*
X724Y1081D01*
X724Y1079D01*
X726Y1079D01*
X726Y1075D01*
X728Y1075D01*
X728Y1069D01*
X730Y1069D01*
X730Y1059D01*
X732Y1059D01*
X732Y1053D01*
X730Y1053D01*
X730Y1043D01*
X728Y1043D01*
X728Y1037D01*
X726Y1037D01*
X726Y1033D01*
X724Y1033D01*
X724Y1029D01*
X722Y1029D01*
X722Y1027D01*
X720Y1027D01*
X720Y1023D01*
X718Y1023D01*
X718Y1021D01*
X716Y1021D01*
X716Y1019D01*
X712Y1019D01*
X712Y1017D01*
X710Y1017D01*
X710Y1015D01*
X706Y1015D01*
X706Y1013D01*
X702Y1013D01*
X702Y1011D01*
X696Y1011D01*
X696Y1009D01*
X686Y1009D01*
X686Y1007D01*
X760Y1007D01*
X760Y1353D01*
X762Y1353D01*
X762Y1363D01*
X764Y1363D01*
X764Y1367D01*
X766Y1367D01*
X766Y1371D01*
X768Y1371D01*
X768Y1375D01*
X770Y1375D01*
X770Y1379D01*
X772Y1379D01*
X772Y1383D01*
X774Y1383D01*
X774Y1387D01*
X776Y1387D01*
X776Y1391D01*
X778Y1391D01*
X778Y1395D01*
X780Y1395D01*
X780Y1399D01*
X782Y1399D01*
X782Y1405D01*
X784Y1405D01*
X784Y1409D01*
X786Y1409D01*
X786Y1413D01*
X788Y1413D01*
X788Y1417D01*
X790Y1417D01*
X790Y1437D01*
X770Y1437D01*
G37*
D02*
G36*
X2324Y1263D02*
X2324Y1259D01*
X2326Y1259D01*
X2326Y1255D01*
X2328Y1255D01*
X2328Y1251D01*
X2330Y1251D01*
X2330Y1247D01*
X2332Y1247D01*
X2332Y1241D01*
X2334Y1241D01*
X2334Y1237D01*
X2336Y1237D01*
X2336Y1233D01*
X2338Y1233D01*
X2338Y1229D01*
X2340Y1229D01*
X2340Y1225D01*
X2342Y1225D01*
X2342Y1221D01*
X2344Y1221D01*
X2344Y1215D01*
X2346Y1215D01*
X2346Y1211D01*
X2348Y1211D01*
X2348Y1207D01*
X2350Y1207D01*
X2350Y1203D01*
X2352Y1203D01*
X2352Y1199D01*
X2354Y1199D01*
X2354Y1195D01*
X2356Y1195D01*
X2356Y1189D01*
X2358Y1189D01*
X2358Y1185D01*
X2360Y1185D01*
X2360Y1181D01*
X2362Y1181D01*
X2362Y1177D01*
X2364Y1177D01*
X2364Y1173D01*
X2366Y1173D01*
X2366Y1167D01*
X2480Y1167D01*
X2480Y1169D01*
X2470Y1169D01*
X2470Y1171D01*
X2464Y1171D01*
X2464Y1173D01*
X2460Y1173D01*
X2460Y1175D01*
X2458Y1175D01*
X2458Y1177D01*
X2454Y1177D01*
X2454Y1179D01*
X2452Y1179D01*
X2452Y1181D01*
X2450Y1181D01*
X2450Y1183D01*
X2448Y1183D01*
X2448Y1185D01*
X2446Y1185D01*
X2446Y1187D01*
X2444Y1187D01*
X2444Y1191D01*
X2442Y1191D01*
X2442Y1195D01*
X2440Y1195D01*
X2440Y1199D01*
X2438Y1199D01*
X2438Y1207D01*
X2436Y1207D01*
X2436Y1223D01*
X2438Y1223D01*
X2438Y1231D01*
X2440Y1231D01*
X2440Y1235D01*
X2442Y1235D01*
X2442Y1239D01*
X2444Y1239D01*
X2444Y1243D01*
X2446Y1243D01*
X2446Y1245D01*
X2448Y1245D01*
X2448Y1247D01*
X2450Y1247D01*
X2450Y1249D01*
X2452Y1249D01*
X2452Y1251D01*
X2454Y1251D01*
X2454Y1253D01*
X2456Y1253D01*
X2456Y1255D01*
X2460Y1255D01*
X2460Y1257D01*
X2464Y1257D01*
X2464Y1259D01*
X2468Y1259D01*
X2468Y1261D01*
X2476Y1261D01*
X2476Y1263D01*
X2324Y1263D01*
G37*
D02*
G36*
X2368Y1167D02*
X2368Y1165D01*
X2802Y1165D01*
X2802Y1167D01*
X2368Y1167D01*
G37*
D02*
G36*
X2368Y1167D02*
X2368Y1165D01*
X2802Y1165D01*
X2802Y1167D01*
X2368Y1167D01*
G37*
D02*
G36*
X2368Y1165D02*
X2368Y1163D01*
X2370Y1163D01*
X2370Y1159D01*
X2372Y1159D01*
X2372Y1155D01*
X2374Y1155D01*
X2374Y1151D01*
X2376Y1151D01*
X2376Y1147D01*
X2378Y1147D01*
X2378Y1141D01*
X2380Y1141D01*
X2380Y1137D01*
X2382Y1137D01*
X2382Y1133D01*
X2384Y1133D01*
X2384Y1129D01*
X2386Y1129D01*
X2386Y1125D01*
X2388Y1125D01*
X2388Y1121D01*
X2390Y1121D01*
X2390Y1115D01*
X2392Y1115D01*
X2392Y1111D01*
X2394Y1111D01*
X2394Y1107D01*
X2396Y1107D01*
X2396Y1103D01*
X2398Y1103D01*
X2398Y1099D01*
X2400Y1099D01*
X2400Y1095D01*
X2402Y1095D01*
X2402Y1089D01*
X2404Y1089D01*
X2404Y1085D01*
X2406Y1085D01*
X2406Y1081D01*
X2408Y1081D01*
X2408Y1077D01*
X2410Y1077D01*
X2410Y1073D01*
X2412Y1073D01*
X2412Y1069D01*
X2414Y1069D01*
X2414Y1063D01*
X2416Y1063D01*
X2416Y1059D01*
X2418Y1059D01*
X2418Y1055D01*
X2420Y1055D01*
X2420Y1051D01*
X2422Y1051D01*
X2422Y1047D01*
X2424Y1047D01*
X2424Y1043D01*
X2426Y1043D01*
X2426Y1037D01*
X2428Y1037D01*
X2428Y1033D01*
X2430Y1033D01*
X2430Y1029D01*
X2432Y1029D01*
X2432Y1025D01*
X2434Y1025D01*
X2434Y1021D01*
X2436Y1021D01*
X2436Y1015D01*
X2438Y1015D01*
X2438Y1011D01*
X2440Y1011D01*
X2440Y1007D01*
X2442Y1007D01*
X2442Y1003D01*
X2642Y1003D01*
X2642Y1001D01*
X2650Y1001D01*
X2650Y999D01*
X2654Y999D01*
X2654Y997D01*
X2658Y997D01*
X2658Y995D01*
X2662Y995D01*
X2662Y993D01*
X2664Y993D01*
X2664Y991D01*
X2666Y991D01*
X2666Y989D01*
X2668Y989D01*
X2668Y987D01*
X2670Y987D01*
X2670Y985D01*
X2876Y985D01*
X2876Y989D01*
X2874Y989D01*
X2874Y993D01*
X2872Y993D01*
X2872Y999D01*
X2870Y999D01*
X2870Y1003D01*
X2868Y1003D01*
X2868Y1007D01*
X2866Y1007D01*
X2866Y1013D01*
X2864Y1013D01*
X2864Y1017D01*
X2862Y1017D01*
X2862Y1023D01*
X2860Y1023D01*
X2860Y1027D01*
X2858Y1027D01*
X2858Y1033D01*
X2856Y1033D01*
X2856Y1037D01*
X2854Y1037D01*
X2854Y1043D01*
X2852Y1043D01*
X2852Y1047D01*
X2850Y1047D01*
X2850Y1053D01*
X2848Y1053D01*
X2848Y1057D01*
X2846Y1057D01*
X2846Y1063D01*
X2844Y1063D01*
X2844Y1067D01*
X2842Y1067D01*
X2842Y1073D01*
X2840Y1073D01*
X2840Y1077D01*
X2838Y1077D01*
X2838Y1081D01*
X2836Y1081D01*
X2836Y1087D01*
X2834Y1087D01*
X2834Y1091D01*
X2832Y1091D01*
X2832Y1097D01*
X2830Y1097D01*
X2830Y1101D01*
X2828Y1101D01*
X2828Y1107D01*
X2826Y1107D01*
X2826Y1111D01*
X2824Y1111D01*
X2824Y1117D01*
X2822Y1117D01*
X2822Y1121D01*
X2820Y1121D01*
X2820Y1125D01*
X2818Y1125D01*
X2818Y1131D01*
X2816Y1131D01*
X2816Y1135D01*
X2814Y1135D01*
X2814Y1141D01*
X2812Y1141D01*
X2812Y1145D01*
X2810Y1145D01*
X2810Y1151D01*
X2808Y1151D01*
X2808Y1155D01*
X2806Y1155D01*
X2806Y1159D01*
X2804Y1159D01*
X2804Y1165D01*
X2368Y1165D01*
G37*
D02*
G36*
X466Y1007D02*
X466Y1005D01*
X760Y1005D01*
X760Y1007D01*
X466Y1007D01*
G37*
D02*
G36*
X466Y1007D02*
X466Y1005D01*
X760Y1005D01*
X760Y1007D01*
X466Y1007D01*
G37*
D02*
G36*
X466Y1005D02*
X466Y881D01*
X464Y881D01*
X464Y803D01*
X692Y803D01*
X692Y801D01*
X700Y801D01*
X700Y799D01*
X704Y799D01*
X704Y797D01*
X708Y797D01*
X708Y795D01*
X712Y795D01*
X712Y793D01*
X714Y793D01*
X714Y791D01*
X716Y791D01*
X716Y789D01*
X718Y789D01*
X718Y787D01*
X720Y787D01*
X720Y785D01*
X722Y785D01*
X722Y781D01*
X724Y781D01*
X724Y779D01*
X726Y779D01*
X726Y775D01*
X728Y775D01*
X728Y769D01*
X730Y769D01*
X730Y759D01*
X732Y759D01*
X732Y753D01*
X730Y753D01*
X730Y743D01*
X728Y743D01*
X728Y737D01*
X726Y737D01*
X726Y733D01*
X724Y733D01*
X724Y729D01*
X722Y729D01*
X722Y727D01*
X720Y727D01*
X720Y723D01*
X718Y723D01*
X718Y721D01*
X716Y721D01*
X716Y719D01*
X712Y719D01*
X712Y717D01*
X710Y717D01*
X710Y715D01*
X706Y715D01*
X706Y713D01*
X702Y713D01*
X702Y711D01*
X696Y711D01*
X696Y709D01*
X686Y709D01*
X686Y707D01*
X760Y707D01*
X760Y1005D01*
X466Y1005D01*
G37*
D02*
G36*
X2444Y1003D02*
X2444Y999D01*
X2446Y999D01*
X2446Y995D01*
X2448Y995D01*
X2448Y989D01*
X2450Y989D01*
X2450Y985D01*
X2452Y985D01*
X2452Y981D01*
X2454Y981D01*
X2454Y977D01*
X2456Y977D01*
X2456Y973D01*
X2458Y973D01*
X2458Y969D01*
X2460Y969D01*
X2460Y963D01*
X2462Y963D01*
X2462Y959D01*
X2464Y959D01*
X2464Y955D01*
X2466Y955D01*
X2466Y951D01*
X2468Y951D01*
X2468Y947D01*
X2470Y947D01*
X2470Y943D01*
X2472Y943D01*
X2472Y937D01*
X2474Y937D01*
X2474Y933D01*
X2476Y933D01*
X2476Y929D01*
X2478Y929D01*
X2478Y925D01*
X2480Y925D01*
X2480Y921D01*
X2482Y921D01*
X2482Y917D01*
X2484Y917D01*
X2484Y911D01*
X2486Y911D01*
X2486Y907D01*
X2488Y907D01*
X2488Y903D01*
X2490Y903D01*
X2490Y899D01*
X2492Y899D01*
X2492Y895D01*
X2494Y895D01*
X2494Y891D01*
X2496Y891D01*
X2496Y885D01*
X2498Y885D01*
X2498Y881D01*
X2500Y881D01*
X2500Y877D01*
X2502Y877D01*
X2502Y873D01*
X2504Y873D01*
X2504Y869D01*
X2506Y869D01*
X2506Y863D01*
X2508Y863D01*
X2508Y859D01*
X2510Y859D01*
X2510Y855D01*
X2512Y855D01*
X2512Y851D01*
X2514Y851D01*
X2514Y847D01*
X2516Y847D01*
X2516Y843D01*
X2518Y843D01*
X2518Y837D01*
X2520Y837D01*
X2520Y833D01*
X2522Y833D01*
X2522Y829D01*
X2524Y829D01*
X2524Y825D01*
X2526Y825D01*
X2526Y821D01*
X2528Y821D01*
X2528Y817D01*
X2530Y817D01*
X2530Y811D01*
X2532Y811D01*
X2532Y807D01*
X2534Y807D01*
X2534Y803D01*
X2536Y803D01*
X2536Y799D01*
X2538Y799D01*
X2538Y795D01*
X2540Y795D01*
X2540Y791D01*
X2542Y791D01*
X2542Y785D01*
X2544Y785D01*
X2544Y781D01*
X2546Y781D01*
X2546Y777D01*
X2548Y777D01*
X2548Y773D01*
X2550Y773D01*
X2550Y771D01*
X2554Y771D01*
X2554Y769D01*
X2558Y769D01*
X2558Y767D01*
X2562Y767D01*
X2562Y765D01*
X2566Y765D01*
X2566Y763D01*
X2570Y763D01*
X2570Y761D01*
X2574Y761D01*
X2574Y759D01*
X2578Y759D01*
X2578Y757D01*
X2582Y757D01*
X2582Y755D01*
X2586Y755D01*
X2586Y753D01*
X2590Y753D01*
X2590Y751D01*
X2594Y751D01*
X2594Y749D01*
X2598Y749D01*
X2598Y747D01*
X2692Y747D01*
X2692Y753D01*
X2690Y753D01*
X2690Y757D01*
X2688Y757D01*
X2688Y763D01*
X2686Y763D01*
X2686Y767D01*
X2684Y767D01*
X2684Y773D01*
X2682Y773D01*
X2682Y777D01*
X2680Y777D01*
X2680Y783D01*
X2678Y783D01*
X2678Y787D01*
X2676Y787D01*
X2676Y793D01*
X2674Y793D01*
X2674Y797D01*
X2672Y797D01*
X2672Y803D01*
X2670Y803D01*
X2670Y807D01*
X2668Y807D01*
X2668Y813D01*
X2666Y813D01*
X2666Y817D01*
X2664Y817D01*
X2664Y823D01*
X2662Y823D01*
X2662Y827D01*
X2660Y827D01*
X2660Y833D01*
X2658Y833D01*
X2658Y837D01*
X2656Y837D01*
X2656Y843D01*
X2654Y843D01*
X2654Y847D01*
X2652Y847D01*
X2652Y853D01*
X2650Y853D01*
X2650Y857D01*
X2648Y857D01*
X2648Y863D01*
X2646Y863D01*
X2646Y867D01*
X2644Y867D01*
X2644Y873D01*
X2642Y873D01*
X2642Y877D01*
X2640Y877D01*
X2640Y883D01*
X2638Y883D01*
X2638Y887D01*
X2636Y887D01*
X2636Y893D01*
X2634Y893D01*
X2634Y897D01*
X2632Y897D01*
X2632Y903D01*
X2630Y903D01*
X2630Y907D01*
X2628Y907D01*
X2628Y909D01*
X2620Y909D01*
X2620Y911D01*
X2614Y911D01*
X2614Y913D01*
X2610Y913D01*
X2610Y915D01*
X2608Y915D01*
X2608Y917D01*
X2604Y917D01*
X2604Y919D01*
X2602Y919D01*
X2602Y921D01*
X2600Y921D01*
X2600Y923D01*
X2598Y923D01*
X2598Y925D01*
X2596Y925D01*
X2596Y927D01*
X2594Y927D01*
X2594Y931D01*
X2592Y931D01*
X2592Y935D01*
X2590Y935D01*
X2590Y939D01*
X2588Y939D01*
X2588Y947D01*
X2586Y947D01*
X2586Y963D01*
X2588Y963D01*
X2588Y971D01*
X2590Y971D01*
X2590Y975D01*
X2592Y975D01*
X2592Y979D01*
X2594Y979D01*
X2594Y983D01*
X2596Y983D01*
X2596Y985D01*
X2598Y985D01*
X2598Y987D01*
X2600Y987D01*
X2600Y989D01*
X2602Y989D01*
X2602Y991D01*
X2604Y991D01*
X2604Y993D01*
X2606Y993D01*
X2606Y995D01*
X2610Y995D01*
X2610Y997D01*
X2612Y997D01*
X2612Y999D01*
X2618Y999D01*
X2618Y1001D01*
X2626Y1001D01*
X2626Y1003D01*
X2444Y1003D01*
G37*
D02*
G36*
X2672Y985D02*
X2672Y983D01*
X3142Y983D01*
X3142Y985D01*
X2672Y985D01*
G37*
D02*
G36*
X2672Y985D02*
X2672Y983D01*
X3142Y983D01*
X3142Y985D01*
X2672Y985D01*
G37*
D02*
G36*
X2672Y983D02*
X2672Y981D01*
X2674Y981D01*
X2674Y979D01*
X2676Y979D01*
X2676Y975D01*
X2678Y975D01*
X2678Y969D01*
X2680Y969D01*
X2680Y957D01*
X3182Y957D01*
X3182Y959D01*
X3170Y959D01*
X3170Y961D01*
X3164Y961D01*
X3164Y963D01*
X3160Y963D01*
X3160Y965D01*
X3158Y965D01*
X3158Y967D01*
X3154Y967D01*
X3154Y969D01*
X3152Y969D01*
X3152Y971D01*
X3150Y971D01*
X3150Y973D01*
X3148Y973D01*
X3148Y975D01*
X3146Y975D01*
X3146Y979D01*
X3144Y979D01*
X3144Y981D01*
X3142Y981D01*
X3142Y983D01*
X2672Y983D01*
G37*
D02*
G36*
X2680Y957D02*
X2680Y955D01*
X3262Y955D01*
X3262Y957D01*
X2680Y957D01*
G37*
D02*
G36*
X2680Y957D02*
X2680Y955D01*
X3262Y955D01*
X3262Y957D01*
X2680Y957D01*
G37*
D02*
G36*
X2680Y955D02*
X2680Y941D01*
X2678Y941D01*
X2678Y937D01*
X2676Y937D01*
X2676Y933D01*
X2674Y933D01*
X2674Y911D01*
X2676Y911D01*
X2676Y907D01*
X2678Y907D01*
X2678Y901D01*
X2680Y901D01*
X2680Y897D01*
X2682Y897D01*
X2682Y891D01*
X2684Y891D01*
X2684Y887D01*
X2686Y887D01*
X2686Y881D01*
X2688Y881D01*
X2688Y877D01*
X2690Y877D01*
X2690Y871D01*
X2692Y871D01*
X2692Y867D01*
X2694Y867D01*
X2694Y861D01*
X2696Y861D01*
X2696Y857D01*
X2698Y857D01*
X2698Y851D01*
X2700Y851D01*
X2700Y847D01*
X2702Y847D01*
X2702Y841D01*
X2704Y841D01*
X2704Y837D01*
X2706Y837D01*
X2706Y831D01*
X2708Y831D01*
X2708Y827D01*
X2710Y827D01*
X2710Y821D01*
X2712Y821D01*
X2712Y817D01*
X2714Y817D01*
X2714Y811D01*
X2716Y811D01*
X2716Y807D01*
X2718Y807D01*
X2718Y801D01*
X2720Y801D01*
X2720Y797D01*
X2722Y797D01*
X2722Y791D01*
X2724Y791D01*
X2724Y787D01*
X2726Y787D01*
X2726Y781D01*
X2728Y781D01*
X2728Y777D01*
X2730Y777D01*
X2730Y771D01*
X2732Y771D01*
X2732Y767D01*
X2734Y767D01*
X2734Y761D01*
X2736Y761D01*
X2736Y757D01*
X2738Y757D01*
X2738Y753D01*
X3192Y753D01*
X3192Y751D01*
X3200Y751D01*
X3200Y749D01*
X3204Y749D01*
X3204Y747D01*
X3208Y747D01*
X3208Y745D01*
X3212Y745D01*
X3212Y743D01*
X3214Y743D01*
X3214Y741D01*
X3216Y741D01*
X3216Y739D01*
X3218Y739D01*
X3218Y737D01*
X3220Y737D01*
X3220Y735D01*
X3222Y735D01*
X3222Y731D01*
X3224Y731D01*
X3224Y729D01*
X3226Y729D01*
X3226Y725D01*
X3228Y725D01*
X3228Y719D01*
X3230Y719D01*
X3230Y709D01*
X3232Y709D01*
X3232Y703D01*
X3230Y703D01*
X3230Y693D01*
X3228Y693D01*
X3228Y687D01*
X3226Y687D01*
X3226Y683D01*
X3224Y683D01*
X3224Y679D01*
X3222Y679D01*
X3222Y677D01*
X3220Y677D01*
X3220Y673D01*
X3218Y673D01*
X3218Y671D01*
X3216Y671D01*
X3216Y669D01*
X3212Y669D01*
X3212Y667D01*
X3210Y667D01*
X3210Y665D01*
X3206Y665D01*
X3206Y663D01*
X3202Y663D01*
X3202Y661D01*
X3196Y661D01*
X3196Y659D01*
X3186Y659D01*
X3186Y657D01*
X3262Y657D01*
X3262Y955D01*
X2680Y955D01*
G37*
D02*
G36*
X464Y803D02*
X464Y733D01*
X462Y733D01*
X462Y707D01*
X682Y707D01*
X682Y709D01*
X670Y709D01*
X670Y711D01*
X664Y711D01*
X664Y713D01*
X660Y713D01*
X660Y715D01*
X658Y715D01*
X658Y717D01*
X654Y717D01*
X654Y719D01*
X652Y719D01*
X652Y721D01*
X650Y721D01*
X650Y723D01*
X648Y723D01*
X648Y725D01*
X646Y725D01*
X646Y729D01*
X644Y729D01*
X644Y731D01*
X642Y731D01*
X642Y735D01*
X640Y735D01*
X640Y739D01*
X638Y739D01*
X638Y747D01*
X636Y747D01*
X636Y763D01*
X638Y763D01*
X638Y771D01*
X640Y771D01*
X640Y775D01*
X642Y775D01*
X642Y779D01*
X644Y779D01*
X644Y783D01*
X646Y783D01*
X646Y785D01*
X648Y785D01*
X648Y787D01*
X650Y787D01*
X650Y789D01*
X652Y789D01*
X652Y791D01*
X654Y791D01*
X654Y793D01*
X656Y793D01*
X656Y795D01*
X660Y795D01*
X660Y797D01*
X664Y797D01*
X664Y799D01*
X668Y799D01*
X668Y801D01*
X676Y801D01*
X676Y803D01*
X464Y803D01*
G37*
D02*
G36*
X2738Y753D02*
X2738Y751D01*
X2740Y751D01*
X2740Y747D01*
X2742Y747D01*
X2742Y745D01*
X2748Y745D01*
X2748Y743D01*
X2752Y743D01*
X2752Y741D01*
X2756Y741D01*
X2756Y739D01*
X2758Y739D01*
X2758Y737D01*
X2762Y737D01*
X2762Y735D01*
X2764Y735D01*
X2764Y733D01*
X2766Y733D01*
X2766Y729D01*
X2768Y729D01*
X2768Y727D01*
X2770Y727D01*
X2770Y723D01*
X2772Y723D01*
X2772Y717D01*
X2774Y717D01*
X2774Y707D01*
X2776Y707D01*
X2776Y703D01*
X2774Y703D01*
X2774Y693D01*
X2772Y693D01*
X2772Y687D01*
X2770Y687D01*
X2770Y685D01*
X2768Y685D01*
X2768Y681D01*
X2766Y681D01*
X2766Y679D01*
X2764Y679D01*
X2764Y677D01*
X2762Y677D01*
X2762Y675D01*
X2760Y675D01*
X2760Y673D01*
X2758Y673D01*
X2758Y671D01*
X2754Y671D01*
X2754Y669D01*
X2752Y669D01*
X2752Y667D01*
X2746Y667D01*
X2746Y665D01*
X2734Y665D01*
X2734Y663D01*
X3160Y663D01*
X3160Y665D01*
X3158Y665D01*
X3158Y667D01*
X3154Y667D01*
X3154Y669D01*
X3152Y669D01*
X3152Y671D01*
X3150Y671D01*
X3150Y673D01*
X3148Y673D01*
X3148Y675D01*
X3146Y675D01*
X3146Y679D01*
X3144Y679D01*
X3144Y681D01*
X3142Y681D01*
X3142Y685D01*
X3140Y685D01*
X3140Y689D01*
X3138Y689D01*
X3138Y697D01*
X3136Y697D01*
X3136Y713D01*
X3138Y713D01*
X3138Y721D01*
X3140Y721D01*
X3140Y725D01*
X3142Y725D01*
X3142Y729D01*
X3144Y729D01*
X3144Y733D01*
X3146Y733D01*
X3146Y735D01*
X3148Y735D01*
X3148Y737D01*
X3150Y737D01*
X3150Y739D01*
X3152Y739D01*
X3152Y741D01*
X3154Y741D01*
X3154Y743D01*
X3156Y743D01*
X3156Y745D01*
X3160Y745D01*
X3160Y747D01*
X3164Y747D01*
X3164Y749D01*
X3168Y749D01*
X3168Y751D01*
X3176Y751D01*
X3176Y753D01*
X2738Y753D01*
G37*
D02*
G36*
X462Y707D02*
X462Y705D01*
X760Y705D01*
X760Y707D01*
X462Y707D01*
G37*
D02*
G36*
X462Y707D02*
X462Y705D01*
X760Y705D01*
X760Y707D01*
X462Y707D01*
G37*
D02*
G36*
X462Y705D02*
X462Y617D01*
X460Y617D01*
X460Y533D01*
X458Y533D01*
X458Y463D01*
X456Y463D01*
X456Y411D01*
X454Y411D01*
X454Y385D01*
X182Y385D01*
X182Y383D01*
X168Y383D01*
X168Y381D01*
X156Y381D01*
X156Y379D01*
X148Y379D01*
X148Y377D01*
X142Y377D01*
X142Y375D01*
X136Y375D01*
X136Y373D01*
X130Y373D01*
X130Y371D01*
X124Y371D01*
X124Y369D01*
X120Y369D01*
X120Y367D01*
X116Y367D01*
X116Y365D01*
X112Y365D01*
X112Y363D01*
X108Y363D01*
X108Y361D01*
X106Y361D01*
X106Y359D01*
X102Y359D01*
X102Y357D01*
X100Y357D01*
X100Y355D01*
X96Y355D01*
X96Y353D01*
X94Y353D01*
X94Y351D01*
X92Y351D01*
X92Y349D01*
X88Y349D01*
X88Y347D01*
X86Y347D01*
X86Y345D01*
X84Y345D01*
X84Y343D01*
X82Y343D01*
X82Y341D01*
X80Y341D01*
X80Y337D01*
X78Y337D01*
X78Y335D01*
X76Y335D01*
X76Y333D01*
X74Y333D01*
X74Y331D01*
X72Y331D01*
X72Y327D01*
X70Y327D01*
X70Y325D01*
X68Y325D01*
X68Y321D01*
X66Y321D01*
X66Y317D01*
X64Y317D01*
X64Y313D01*
X732Y313D01*
X732Y315D01*
X722Y315D01*
X722Y317D01*
X716Y317D01*
X716Y319D01*
X712Y319D01*
X712Y321D01*
X710Y321D01*
X710Y323D01*
X706Y323D01*
X706Y325D01*
X704Y325D01*
X704Y327D01*
X702Y327D01*
X702Y331D01*
X700Y331D01*
X700Y333D01*
X698Y333D01*
X698Y337D01*
X696Y337D01*
X696Y341D01*
X694Y341D01*
X694Y347D01*
X692Y347D01*
X692Y363D01*
X694Y363D01*
X694Y371D01*
X696Y371D01*
X696Y375D01*
X698Y375D01*
X698Y377D01*
X700Y377D01*
X700Y381D01*
X702Y381D01*
X702Y383D01*
X704Y383D01*
X704Y385D01*
X706Y385D01*
X706Y387D01*
X708Y387D01*
X708Y389D01*
X712Y389D01*
X712Y391D01*
X714Y391D01*
X714Y393D01*
X718Y393D01*
X718Y395D01*
X726Y395D01*
X726Y397D01*
X730Y397D01*
X730Y401D01*
X732Y401D01*
X732Y405D01*
X734Y405D01*
X734Y409D01*
X736Y409D01*
X736Y413D01*
X738Y413D01*
X738Y417D01*
X740Y417D01*
X740Y421D01*
X742Y421D01*
X742Y425D01*
X744Y425D01*
X744Y429D01*
X746Y429D01*
X746Y433D01*
X748Y433D01*
X748Y437D01*
X750Y437D01*
X750Y441D01*
X752Y441D01*
X752Y445D01*
X754Y445D01*
X754Y449D01*
X756Y449D01*
X756Y455D01*
X758Y455D01*
X758Y459D01*
X760Y459D01*
X760Y705D01*
X462Y705D01*
G37*
D02*
G36*
X2676Y691D02*
X2676Y663D01*
X2732Y663D01*
X2732Y665D01*
X2722Y665D01*
X2722Y667D01*
X2716Y667D01*
X2716Y669D01*
X2712Y669D01*
X2712Y671D01*
X2710Y671D01*
X2710Y673D01*
X2706Y673D01*
X2706Y675D01*
X2704Y675D01*
X2704Y677D01*
X2702Y677D01*
X2702Y681D01*
X2700Y681D01*
X2700Y683D01*
X2698Y683D01*
X2698Y687D01*
X2696Y687D01*
X2696Y691D01*
X2676Y691D01*
G37*
D02*
G36*
X2360Y663D02*
X2360Y661D01*
X3164Y661D01*
X3164Y663D01*
X2360Y663D01*
G37*
D02*
G36*
X2360Y663D02*
X2360Y661D01*
X3164Y661D01*
X3164Y663D01*
X2360Y663D01*
G37*
D02*
G36*
X2360Y663D02*
X2360Y661D01*
X3164Y661D01*
X3164Y663D01*
X2360Y663D01*
G37*
D02*
G36*
X2360Y661D02*
X2360Y659D01*
X2362Y659D01*
X2362Y657D01*
X3182Y657D01*
X3182Y659D01*
X3170Y659D01*
X3170Y661D01*
X2360Y661D01*
G37*
D02*
G36*
X2362Y657D02*
X2362Y655D01*
X3262Y655D01*
X3262Y657D01*
X2362Y657D01*
G37*
D02*
G36*
X2362Y657D02*
X2362Y655D01*
X3262Y655D01*
X3262Y657D01*
X2362Y657D01*
G37*
D02*
G36*
X2364Y655D02*
X2364Y653D01*
X2366Y653D01*
X2366Y649D01*
X2368Y649D01*
X2368Y645D01*
X2370Y645D01*
X2370Y643D01*
X2372Y643D01*
X2372Y639D01*
X2374Y639D01*
X2374Y635D01*
X2376Y635D01*
X2376Y633D01*
X2378Y633D01*
X2378Y629D01*
X2380Y629D01*
X2380Y625D01*
X2382Y625D01*
X2382Y623D01*
X2384Y623D01*
X2384Y619D01*
X2386Y619D01*
X2386Y615D01*
X2388Y615D01*
X2388Y613D01*
X2390Y613D01*
X2390Y609D01*
X2392Y609D01*
X2392Y605D01*
X2394Y605D01*
X2394Y601D01*
X2396Y601D01*
X2396Y599D01*
X2398Y599D01*
X2398Y595D01*
X2400Y595D01*
X2400Y591D01*
X2402Y591D01*
X2402Y589D01*
X2404Y589D01*
X2404Y585D01*
X2406Y585D01*
X2406Y581D01*
X2408Y581D01*
X2408Y579D01*
X2410Y579D01*
X2410Y575D01*
X2412Y575D01*
X2412Y571D01*
X2414Y571D01*
X2414Y569D01*
X2416Y569D01*
X2416Y565D01*
X2418Y565D01*
X2418Y561D01*
X2420Y561D01*
X2420Y559D01*
X2422Y559D01*
X2422Y555D01*
X2424Y555D01*
X2424Y551D01*
X2426Y551D01*
X2426Y549D01*
X2428Y549D01*
X2428Y545D01*
X2430Y545D01*
X2430Y541D01*
X2432Y541D01*
X2432Y537D01*
X2434Y537D01*
X2434Y535D01*
X2436Y535D01*
X2436Y531D01*
X2438Y531D01*
X2438Y527D01*
X2440Y527D01*
X2440Y525D01*
X2442Y525D01*
X2442Y521D01*
X2444Y521D01*
X2444Y517D01*
X2446Y517D01*
X2446Y515D01*
X2448Y515D01*
X2448Y511D01*
X2450Y511D01*
X2450Y507D01*
X2452Y507D01*
X2452Y505D01*
X2454Y505D01*
X2454Y501D01*
X2456Y501D01*
X2456Y497D01*
X2458Y497D01*
X2458Y495D01*
X2460Y495D01*
X2460Y491D01*
X2462Y491D01*
X2462Y487D01*
X2464Y487D01*
X2464Y483D01*
X2466Y483D01*
X2466Y481D01*
X2468Y481D01*
X2468Y477D01*
X2470Y477D01*
X2470Y473D01*
X2472Y473D01*
X2472Y471D01*
X2474Y471D01*
X2474Y467D01*
X2476Y467D01*
X2476Y463D01*
X2478Y463D01*
X2478Y461D01*
X2480Y461D01*
X2480Y457D01*
X2482Y457D01*
X2482Y453D01*
X2484Y453D01*
X2484Y451D01*
X2486Y451D01*
X2486Y447D01*
X2488Y447D01*
X2488Y443D01*
X2490Y443D01*
X2490Y441D01*
X2492Y441D01*
X2492Y437D01*
X2494Y437D01*
X2494Y433D01*
X2496Y433D01*
X2496Y429D01*
X2498Y429D01*
X2498Y427D01*
X2500Y427D01*
X2500Y423D01*
X2502Y423D01*
X2502Y419D01*
X2504Y419D01*
X2504Y417D01*
X2506Y417D01*
X2506Y413D01*
X2508Y413D01*
X2508Y409D01*
X2510Y409D01*
X2510Y407D01*
X2512Y407D01*
X2512Y403D01*
X2514Y403D01*
X2514Y399D01*
X2516Y399D01*
X2516Y397D01*
X2518Y397D01*
X2518Y393D01*
X2520Y393D01*
X2520Y389D01*
X2522Y389D01*
X2522Y387D01*
X2524Y387D01*
X2524Y383D01*
X2526Y383D01*
X2526Y379D01*
X2528Y379D01*
X2528Y377D01*
X2530Y377D01*
X2530Y373D01*
X2532Y373D01*
X2532Y369D01*
X2534Y369D01*
X2534Y365D01*
X2536Y365D01*
X2536Y363D01*
X3232Y363D01*
X3232Y365D01*
X3222Y365D01*
X3222Y367D01*
X3216Y367D01*
X3216Y369D01*
X3212Y369D01*
X3212Y371D01*
X3210Y371D01*
X3210Y373D01*
X3206Y373D01*
X3206Y375D01*
X3204Y375D01*
X3204Y377D01*
X3202Y377D01*
X3202Y381D01*
X3200Y381D01*
X3200Y383D01*
X3198Y383D01*
X3198Y387D01*
X3196Y387D01*
X3196Y391D01*
X3194Y391D01*
X3194Y397D01*
X3192Y397D01*
X3192Y413D01*
X3194Y413D01*
X3194Y421D01*
X3196Y421D01*
X3196Y425D01*
X3198Y425D01*
X3198Y427D01*
X3200Y427D01*
X3200Y431D01*
X3202Y431D01*
X3202Y433D01*
X3204Y433D01*
X3204Y435D01*
X3206Y435D01*
X3206Y437D01*
X3208Y437D01*
X3208Y439D01*
X3212Y439D01*
X3212Y441D01*
X3214Y441D01*
X3214Y443D01*
X3218Y443D01*
X3218Y445D01*
X3224Y445D01*
X3224Y449D01*
X3226Y449D01*
X3226Y455D01*
X3228Y455D01*
X3228Y461D01*
X3230Y461D01*
X3230Y467D01*
X3232Y467D01*
X3232Y473D01*
X3234Y473D01*
X3234Y479D01*
X3236Y479D01*
X3236Y485D01*
X3238Y485D01*
X3238Y491D01*
X3240Y491D01*
X3240Y497D01*
X3242Y497D01*
X3242Y503D01*
X3244Y503D01*
X3244Y509D01*
X3246Y509D01*
X3246Y515D01*
X3248Y515D01*
X3248Y521D01*
X3250Y521D01*
X3250Y527D01*
X3252Y527D01*
X3252Y533D01*
X3254Y533D01*
X3254Y539D01*
X3256Y539D01*
X3256Y545D01*
X3258Y545D01*
X3258Y551D01*
X3260Y551D01*
X3260Y557D01*
X3262Y557D01*
X3262Y655D01*
X2364Y655D01*
G37*
D02*
G36*
X3270Y387D02*
X3270Y385D01*
X3268Y385D01*
X3268Y381D01*
X3266Y381D01*
X3266Y379D01*
X3264Y379D01*
X3264Y377D01*
X3262Y377D01*
X3262Y375D01*
X3260Y375D01*
X3260Y373D01*
X3258Y373D01*
X3258Y371D01*
X3254Y371D01*
X3254Y369D01*
X3252Y369D01*
X3252Y367D01*
X3246Y367D01*
X3246Y365D01*
X3234Y365D01*
X3234Y363D01*
X3292Y363D01*
X3292Y365D01*
X3290Y365D01*
X3290Y387D01*
X3270Y387D01*
G37*
D02*
G36*
X2538Y363D02*
X2538Y361D01*
X3310Y361D01*
X3310Y363D01*
X2538Y363D01*
G37*
D02*
G36*
X2538Y363D02*
X2538Y361D01*
X3310Y361D01*
X3310Y363D01*
X2538Y363D01*
G37*
D02*
G36*
X2538Y361D02*
X2538Y359D01*
X2540Y359D01*
X2540Y355D01*
X2542Y355D01*
X2542Y353D01*
X2544Y353D01*
X2544Y349D01*
X2546Y349D01*
X2546Y345D01*
X2548Y345D01*
X2548Y343D01*
X2550Y343D01*
X2550Y339D01*
X2552Y339D01*
X2552Y335D01*
X2554Y335D01*
X2554Y333D01*
X2556Y333D01*
X2556Y329D01*
X2558Y329D01*
X2558Y325D01*
X2560Y325D01*
X2560Y323D01*
X2562Y323D01*
X2562Y319D01*
X2564Y319D01*
X2564Y315D01*
X2566Y315D01*
X2566Y311D01*
X2568Y311D01*
X2568Y309D01*
X2570Y309D01*
X2570Y305D01*
X2572Y305D01*
X2572Y301D01*
X2574Y301D01*
X2574Y299D01*
X2576Y299D01*
X2576Y295D01*
X2578Y295D01*
X2578Y291D01*
X2580Y291D01*
X2580Y289D01*
X2582Y289D01*
X2582Y285D01*
X2584Y285D01*
X2584Y281D01*
X2586Y281D01*
X2586Y279D01*
X2588Y279D01*
X2588Y275D01*
X2590Y275D01*
X2590Y271D01*
X2592Y271D01*
X2592Y269D01*
X2594Y269D01*
X2594Y265D01*
X2596Y265D01*
X2596Y261D01*
X2598Y261D01*
X2598Y259D01*
X2600Y259D01*
X2600Y255D01*
X2602Y255D01*
X2602Y251D01*
X2604Y251D01*
X2604Y247D01*
X2606Y247D01*
X2606Y245D01*
X2608Y245D01*
X2608Y241D01*
X2610Y241D01*
X2610Y237D01*
X2612Y237D01*
X2612Y235D01*
X2614Y235D01*
X2614Y231D01*
X2616Y231D01*
X2616Y227D01*
X2618Y227D01*
X2618Y225D01*
X2620Y225D01*
X2620Y221D01*
X2622Y221D01*
X2622Y217D01*
X2624Y217D01*
X2624Y215D01*
X2626Y215D01*
X2626Y211D01*
X2628Y211D01*
X2628Y207D01*
X2630Y207D01*
X2630Y205D01*
X2632Y205D01*
X2632Y201D01*
X2634Y201D01*
X2634Y197D01*
X2636Y197D01*
X2636Y193D01*
X2638Y193D01*
X2638Y191D01*
X2640Y191D01*
X2640Y187D01*
X2642Y187D01*
X2642Y183D01*
X2644Y183D01*
X2644Y181D01*
X2646Y181D01*
X2646Y177D01*
X3312Y177D01*
X3312Y317D01*
X3310Y317D01*
X3310Y361D01*
X2538Y361D01*
G37*
D02*
G36*
X770Y337D02*
X770Y335D01*
X768Y335D01*
X768Y331D01*
X766Y331D01*
X766Y329D01*
X764Y329D01*
X764Y327D01*
X762Y327D01*
X762Y325D01*
X760Y325D01*
X760Y323D01*
X758Y323D01*
X758Y321D01*
X754Y321D01*
X754Y319D01*
X752Y319D01*
X752Y317D01*
X746Y317D01*
X746Y315D01*
X734Y315D01*
X734Y313D01*
X786Y313D01*
X786Y315D01*
X788Y315D01*
X788Y319D01*
X790Y319D01*
X790Y337D01*
X770Y337D01*
G37*
D02*
G36*
X62Y313D02*
X62Y311D01*
X786Y311D01*
X786Y313D01*
X62Y313D01*
G37*
D02*
G36*
X62Y313D02*
X62Y311D01*
X786Y311D01*
X786Y313D01*
X62Y313D01*
G37*
D02*
G36*
X62Y311D02*
X62Y309D01*
X60Y309D01*
X60Y305D01*
X140Y305D01*
X140Y303D01*
X148Y303D01*
X148Y301D01*
X154Y301D01*
X154Y299D01*
X158Y299D01*
X158Y297D01*
X160Y297D01*
X160Y295D01*
X164Y295D01*
X164Y293D01*
X166Y293D01*
X166Y291D01*
X168Y291D01*
X168Y289D01*
X170Y289D01*
X170Y287D01*
X172Y287D01*
X172Y285D01*
X174Y285D01*
X174Y281D01*
X176Y281D01*
X176Y277D01*
X178Y277D01*
X178Y273D01*
X180Y273D01*
X180Y267D01*
X182Y267D01*
X182Y243D01*
X180Y243D01*
X180Y237D01*
X178Y237D01*
X178Y233D01*
X176Y233D01*
X176Y229D01*
X174Y229D01*
X174Y227D01*
X172Y227D01*
X172Y225D01*
X170Y225D01*
X170Y221D01*
X168Y221D01*
X168Y219D01*
X164Y219D01*
X164Y217D01*
X162Y217D01*
X162Y215D01*
X160Y215D01*
X160Y195D01*
X164Y195D01*
X164Y193D01*
X166Y193D01*
X166Y191D01*
X168Y191D01*
X168Y189D01*
X170Y189D01*
X170Y187D01*
X172Y187D01*
X172Y185D01*
X174Y185D01*
X174Y181D01*
X176Y181D01*
X176Y177D01*
X720Y177D01*
X720Y181D01*
X722Y181D01*
X722Y187D01*
X724Y187D01*
X724Y191D01*
X726Y191D01*
X726Y195D01*
X728Y195D01*
X728Y199D01*
X730Y199D01*
X730Y203D01*
X732Y203D01*
X732Y207D01*
X734Y207D01*
X734Y211D01*
X736Y211D01*
X736Y215D01*
X738Y215D01*
X738Y219D01*
X740Y219D01*
X740Y223D01*
X742Y223D01*
X742Y227D01*
X744Y227D01*
X744Y231D01*
X746Y231D01*
X746Y235D01*
X748Y235D01*
X748Y239D01*
X750Y239D01*
X750Y243D01*
X752Y243D01*
X752Y247D01*
X754Y247D01*
X754Y251D01*
X756Y251D01*
X756Y255D01*
X758Y255D01*
X758Y259D01*
X760Y259D01*
X760Y263D01*
X762Y263D01*
X762Y267D01*
X764Y267D01*
X764Y271D01*
X766Y271D01*
X766Y275D01*
X768Y275D01*
X768Y279D01*
X770Y279D01*
X770Y283D01*
X772Y283D01*
X772Y287D01*
X774Y287D01*
X774Y291D01*
X776Y291D01*
X776Y295D01*
X778Y295D01*
X778Y299D01*
X780Y299D01*
X780Y303D01*
X782Y303D01*
X782Y307D01*
X784Y307D01*
X784Y311D01*
X62Y311D01*
G37*
D02*
G36*
X58Y305D02*
X58Y299D01*
X56Y299D01*
X56Y293D01*
X54Y293D01*
X54Y285D01*
X52Y285D01*
X52Y277D01*
X50Y277D01*
X50Y255D01*
X52Y255D01*
X52Y241D01*
X54Y241D01*
X54Y225D01*
X56Y225D01*
X56Y215D01*
X58Y215D01*
X58Y203D01*
X60Y203D01*
X60Y195D01*
X62Y195D01*
X62Y185D01*
X64Y185D01*
X64Y177D01*
X66Y177D01*
X66Y169D01*
X88Y169D01*
X88Y175D01*
X90Y175D01*
X90Y179D01*
X92Y179D01*
X92Y183D01*
X94Y183D01*
X94Y185D01*
X96Y185D01*
X96Y187D01*
X98Y187D01*
X98Y189D01*
X100Y189D01*
X100Y191D01*
X102Y191D01*
X102Y193D01*
X104Y193D01*
X104Y195D01*
X106Y195D01*
X106Y215D01*
X104Y215D01*
X104Y217D01*
X102Y217D01*
X102Y219D01*
X100Y219D01*
X100Y221D01*
X98Y221D01*
X98Y223D01*
X96Y223D01*
X96Y225D01*
X94Y225D01*
X94Y229D01*
X92Y229D01*
X92Y231D01*
X90Y231D01*
X90Y235D01*
X88Y235D01*
X88Y241D01*
X86Y241D01*
X86Y251D01*
X84Y251D01*
X84Y261D01*
X86Y261D01*
X86Y269D01*
X88Y269D01*
X88Y275D01*
X90Y275D01*
X90Y279D01*
X92Y279D01*
X92Y283D01*
X94Y283D01*
X94Y285D01*
X96Y285D01*
X96Y287D01*
X98Y287D01*
X98Y289D01*
X100Y289D01*
X100Y291D01*
X102Y291D01*
X102Y293D01*
X104Y293D01*
X104Y295D01*
X106Y295D01*
X106Y297D01*
X110Y297D01*
X110Y299D01*
X114Y299D01*
X114Y301D01*
X120Y301D01*
X120Y303D01*
X128Y303D01*
X128Y305D01*
X58Y305D01*
G37*
D02*
G36*
X3356Y305D02*
X3356Y177D01*
X3440Y177D01*
X3440Y179D01*
X3442Y179D01*
X3442Y183D01*
X3444Y183D01*
X3444Y185D01*
X3446Y185D01*
X3446Y187D01*
X3448Y187D01*
X3448Y189D01*
X3450Y189D01*
X3450Y191D01*
X3452Y191D01*
X3452Y193D01*
X3454Y193D01*
X3454Y195D01*
X3456Y195D01*
X3456Y215D01*
X3454Y215D01*
X3454Y217D01*
X3452Y217D01*
X3452Y219D01*
X3450Y219D01*
X3450Y221D01*
X3448Y221D01*
X3448Y223D01*
X3446Y223D01*
X3446Y225D01*
X3444Y225D01*
X3444Y229D01*
X3442Y229D01*
X3442Y231D01*
X3440Y231D01*
X3440Y235D01*
X3438Y235D01*
X3438Y241D01*
X3436Y241D01*
X3436Y251D01*
X3434Y251D01*
X3434Y261D01*
X3436Y261D01*
X3436Y269D01*
X3438Y269D01*
X3438Y275D01*
X3440Y275D01*
X3440Y279D01*
X3442Y279D01*
X3442Y283D01*
X3444Y283D01*
X3444Y285D01*
X3446Y285D01*
X3446Y287D01*
X3448Y287D01*
X3448Y289D01*
X3450Y289D01*
X3450Y291D01*
X3452Y291D01*
X3452Y293D01*
X3454Y293D01*
X3454Y295D01*
X3456Y295D01*
X3456Y297D01*
X3460Y297D01*
X3460Y299D01*
X3464Y299D01*
X3464Y301D01*
X3470Y301D01*
X3470Y303D01*
X3478Y303D01*
X3478Y305D01*
X3356Y305D01*
G37*
D02*
G36*
X2628Y133D02*
X2628Y113D01*
X2630Y113D01*
X2630Y111D01*
X2632Y111D01*
X2632Y109D01*
X2634Y109D01*
X2634Y107D01*
X2636Y107D01*
X2636Y105D01*
X2638Y105D01*
X2638Y103D01*
X2640Y103D01*
X2640Y101D01*
X2642Y101D01*
X2642Y99D01*
X2644Y99D01*
X2644Y97D01*
X2646Y97D01*
X2646Y95D01*
X2648Y95D01*
X2648Y93D01*
X2650Y93D01*
X2650Y91D01*
X2652Y91D01*
X2652Y89D01*
X2656Y89D01*
X2656Y87D01*
X2660Y87D01*
X2660Y85D01*
X2664Y85D01*
X2664Y83D01*
X2670Y83D01*
X2670Y81D01*
X2676Y81D01*
X2676Y79D01*
X2682Y79D01*
X2682Y77D01*
X2692Y77D01*
X2692Y75D01*
X2700Y75D01*
X2700Y73D01*
X2710Y73D01*
X2710Y71D01*
X2722Y71D01*
X2722Y69D01*
X2736Y69D01*
X2736Y67D01*
X2750Y67D01*
X2750Y65D01*
X2768Y65D01*
X2768Y63D01*
X2788Y63D01*
X2788Y61D01*
X2810Y61D01*
X2810Y59D01*
X2838Y59D01*
X2838Y57D01*
X2870Y57D01*
X2870Y55D01*
X2908Y55D01*
X2908Y53D01*
X2956Y53D01*
X2956Y51D01*
X3024Y51D01*
X3024Y49D01*
X3158Y49D01*
X3158Y47D01*
X3222Y47D01*
X3222Y49D01*
X3274Y49D01*
X3274Y51D01*
X3302Y51D01*
X3302Y53D01*
X3322Y53D01*
X3322Y55D01*
X3340Y55D01*
X3340Y57D01*
X3356Y57D01*
X3356Y59D01*
X3368Y59D01*
X3368Y61D01*
X3380Y61D01*
X3380Y63D01*
X3390Y63D01*
X3390Y65D01*
X3400Y65D01*
X3400Y67D01*
X3408Y67D01*
X3408Y69D01*
X3416Y69D01*
X3416Y71D01*
X3424Y71D01*
X3424Y73D01*
X3430Y73D01*
X3430Y75D01*
X3436Y75D01*
X3436Y77D01*
X3442Y77D01*
X3442Y79D01*
X3448Y79D01*
X3448Y81D01*
X3454Y81D01*
X3454Y83D01*
X3458Y83D01*
X3458Y85D01*
X3462Y85D01*
X3462Y87D01*
X3468Y87D01*
X3468Y89D01*
X3472Y89D01*
X3472Y109D01*
X3466Y109D01*
X3466Y111D01*
X3462Y111D01*
X3462Y113D01*
X3458Y113D01*
X3458Y115D01*
X3454Y115D01*
X3454Y117D01*
X3452Y117D01*
X3452Y119D01*
X3450Y119D01*
X3450Y121D01*
X3448Y121D01*
X3448Y123D01*
X3446Y123D01*
X3446Y125D01*
X3444Y125D01*
X3444Y129D01*
X3442Y129D01*
X3442Y131D01*
X3440Y131D01*
X3440Y133D01*
X2628Y133D01*
G37*
D02*
G36*
X1056Y2931D02*
X1056Y2791D01*
X1166Y2791D01*
X1166Y2789D01*
X1168Y2789D01*
X1168Y2783D01*
X1170Y2783D01*
X1170Y2779D01*
X1172Y2779D01*
X1172Y2775D01*
X1174Y2775D01*
X1174Y2769D01*
X1176Y2769D01*
X1176Y2765D01*
X1178Y2765D01*
X1178Y2759D01*
X1180Y2759D01*
X1180Y2755D01*
X1182Y2755D01*
X1182Y2751D01*
X1184Y2751D01*
X1184Y2745D01*
X1186Y2745D01*
X1186Y2741D01*
X1188Y2741D01*
X1188Y2735D01*
X1190Y2735D01*
X1190Y2731D01*
X1192Y2731D01*
X1192Y2727D01*
X1194Y2727D01*
X1194Y2721D01*
X1196Y2721D01*
X1196Y2717D01*
X1198Y2717D01*
X1198Y2713D01*
X1200Y2713D01*
X1200Y2707D01*
X1202Y2707D01*
X1202Y2703D01*
X1204Y2703D01*
X1204Y2697D01*
X1206Y2697D01*
X1206Y2693D01*
X1208Y2693D01*
X1208Y2689D01*
X1210Y2689D01*
X1210Y2683D01*
X1212Y2683D01*
X1212Y2679D01*
X1214Y2679D01*
X1214Y2673D01*
X1216Y2673D01*
X1216Y2669D01*
X1218Y2669D01*
X1218Y2665D01*
X1220Y2665D01*
X1220Y2659D01*
X1222Y2659D01*
X1222Y2655D01*
X1224Y2655D01*
X1224Y2651D01*
X1226Y2651D01*
X1226Y2645D01*
X1228Y2645D01*
X1228Y2641D01*
X1230Y2641D01*
X1230Y2637D01*
X1232Y2637D01*
X1232Y2631D01*
X1234Y2631D01*
X1234Y2627D01*
X1236Y2627D01*
X1236Y2623D01*
X1238Y2623D01*
X1238Y2617D01*
X1240Y2617D01*
X1240Y2613D01*
X1242Y2613D01*
X1242Y2609D01*
X1244Y2609D01*
X1244Y2603D01*
X1246Y2603D01*
X1246Y2599D01*
X1248Y2599D01*
X1248Y2595D01*
X1250Y2595D01*
X1250Y2589D01*
X1252Y2589D01*
X1252Y2585D01*
X1254Y2585D01*
X1254Y2581D01*
X1256Y2581D01*
X1256Y2575D01*
X1258Y2575D01*
X1258Y2571D01*
X1260Y2571D01*
X1260Y2567D01*
X1262Y2567D01*
X1262Y2561D01*
X1264Y2561D01*
X1264Y2557D01*
X1266Y2557D01*
X1266Y2553D01*
X1268Y2553D01*
X1268Y2547D01*
X1270Y2547D01*
X1270Y2543D01*
X1272Y2543D01*
X1272Y2539D01*
X1274Y2539D01*
X1274Y2533D01*
X1276Y2533D01*
X1276Y2529D01*
X1278Y2529D01*
X1278Y2525D01*
X1280Y2525D01*
X1280Y2521D01*
X1282Y2521D01*
X1282Y2515D01*
X1284Y2515D01*
X1284Y2511D01*
X1286Y2511D01*
X1286Y2507D01*
X1288Y2507D01*
X1288Y2503D01*
X1290Y2503D01*
X1290Y2497D01*
X1292Y2497D01*
X1292Y2493D01*
X1294Y2493D01*
X1294Y2489D01*
X1296Y2489D01*
X1296Y2483D01*
X1298Y2483D01*
X1298Y2479D01*
X1300Y2479D01*
X1300Y2475D01*
X1302Y2475D01*
X1302Y2471D01*
X1304Y2471D01*
X1304Y2465D01*
X1306Y2465D01*
X1306Y2461D01*
X1308Y2461D01*
X1308Y2457D01*
X1310Y2457D01*
X1310Y2451D01*
X1312Y2451D01*
X1312Y2447D01*
X1314Y2447D01*
X1314Y2443D01*
X1316Y2443D01*
X1316Y2439D01*
X1318Y2439D01*
X1318Y2433D01*
X1320Y2433D01*
X1320Y2429D01*
X1322Y2429D01*
X1322Y2425D01*
X1324Y2425D01*
X1324Y2421D01*
X1326Y2421D01*
X1326Y2415D01*
X1328Y2415D01*
X1328Y2411D01*
X1330Y2411D01*
X1330Y2407D01*
X1332Y2407D01*
X1332Y2403D01*
X1334Y2403D01*
X1334Y2397D01*
X1336Y2397D01*
X1336Y2393D01*
X1338Y2393D01*
X1338Y2389D01*
X1340Y2389D01*
X1340Y2385D01*
X1342Y2385D01*
X1342Y2379D01*
X1344Y2379D01*
X1344Y2375D01*
X1346Y2375D01*
X1346Y2371D01*
X1348Y2371D01*
X1348Y2367D01*
X1350Y2367D01*
X1350Y2363D01*
X1352Y2363D01*
X1352Y2357D01*
X1354Y2357D01*
X1354Y2353D01*
X1356Y2353D01*
X1356Y2349D01*
X1358Y2349D01*
X1358Y2345D01*
X1360Y2345D01*
X1360Y2339D01*
X1362Y2339D01*
X1362Y2335D01*
X1364Y2335D01*
X1364Y2331D01*
X1366Y2331D01*
X1366Y2327D01*
X1368Y2327D01*
X1368Y2323D01*
X1370Y2323D01*
X1370Y2317D01*
X1372Y2317D01*
X1372Y2313D01*
X1374Y2313D01*
X1374Y2309D01*
X1376Y2309D01*
X1376Y2305D01*
X1378Y2305D01*
X1378Y2299D01*
X1380Y2299D01*
X1380Y2295D01*
X1382Y2295D01*
X1382Y2291D01*
X1384Y2291D01*
X1384Y2287D01*
X1386Y2287D01*
X1386Y2283D01*
X1388Y2283D01*
X1388Y2279D01*
X1390Y2279D01*
X1390Y2273D01*
X1392Y2273D01*
X1392Y2269D01*
X1394Y2269D01*
X1394Y2265D01*
X1396Y2265D01*
X1396Y2261D01*
X1398Y2261D01*
X1398Y2257D01*
X1400Y2257D01*
X1400Y2251D01*
X1402Y2251D01*
X1402Y2247D01*
X1404Y2247D01*
X1404Y2243D01*
X1406Y2243D01*
X1406Y2239D01*
X1408Y2239D01*
X1408Y2235D01*
X1410Y2235D01*
X1410Y2231D01*
X1412Y2231D01*
X1412Y2225D01*
X1414Y2225D01*
X1414Y2221D01*
X1416Y2221D01*
X1416Y2217D01*
X1418Y2217D01*
X1418Y2213D01*
X1420Y2213D01*
X1420Y2209D01*
X1422Y2209D01*
X1422Y2205D01*
X1424Y2205D01*
X1424Y2199D01*
X1426Y2199D01*
X1426Y2195D01*
X1428Y2195D01*
X1428Y2191D01*
X1430Y2191D01*
X1430Y2187D01*
X1432Y2187D01*
X1432Y2183D01*
X1434Y2183D01*
X1434Y2179D01*
X1436Y2179D01*
X1436Y2173D01*
X1438Y2173D01*
X1438Y2169D01*
X1440Y2169D01*
X1440Y2165D01*
X1442Y2165D01*
X1442Y2161D01*
X1444Y2161D01*
X1444Y2157D01*
X1446Y2157D01*
X1446Y2153D01*
X1448Y2153D01*
X1448Y2149D01*
X1450Y2149D01*
X1450Y2145D01*
X1452Y2145D01*
X1452Y2139D01*
X1454Y2139D01*
X1454Y2135D01*
X1456Y2135D01*
X1456Y2131D01*
X1458Y2131D01*
X1458Y2127D01*
X1460Y2127D01*
X1460Y2123D01*
X1462Y2123D01*
X1462Y2119D01*
X1464Y2119D01*
X1464Y2115D01*
X1466Y2115D01*
X1466Y2111D01*
X1468Y2111D01*
X1468Y2105D01*
X1470Y2105D01*
X1470Y2101D01*
X1472Y2101D01*
X1472Y2097D01*
X1474Y2097D01*
X1474Y2093D01*
X1476Y2093D01*
X1476Y2089D01*
X1478Y2089D01*
X1478Y2085D01*
X1480Y2085D01*
X1480Y2081D01*
X1482Y2081D01*
X1482Y2077D01*
X1484Y2077D01*
X1484Y2071D01*
X1486Y2071D01*
X1486Y2067D01*
X1488Y2067D01*
X1488Y2063D01*
X1490Y2063D01*
X1490Y2059D01*
X1492Y2059D01*
X1492Y2055D01*
X1494Y2055D01*
X1494Y2051D01*
X1496Y2051D01*
X1496Y2047D01*
X1498Y2047D01*
X1498Y2043D01*
X1500Y2043D01*
X1500Y2039D01*
X1502Y2039D01*
X1502Y2035D01*
X1504Y2035D01*
X1504Y2031D01*
X1506Y2031D01*
X1506Y2025D01*
X1508Y2025D01*
X1508Y2021D01*
X1510Y2021D01*
X1510Y2017D01*
X1512Y2017D01*
X1512Y2013D01*
X1514Y2013D01*
X1514Y2009D01*
X1516Y2009D01*
X1516Y2005D01*
X1518Y2005D01*
X1518Y2001D01*
X1520Y2001D01*
X1520Y1997D01*
X1522Y1997D01*
X1522Y1993D01*
X1524Y1993D01*
X1524Y1989D01*
X1526Y1989D01*
X1526Y1985D01*
X1528Y1985D01*
X1528Y1981D01*
X1530Y1981D01*
X1530Y1977D01*
X1532Y1977D01*
X1532Y1973D01*
X1534Y1973D01*
X1534Y1967D01*
X1536Y1967D01*
X1536Y1963D01*
X1538Y1963D01*
X1538Y1959D01*
X1540Y1959D01*
X1540Y1955D01*
X1542Y1955D01*
X1542Y1951D01*
X1544Y1951D01*
X1544Y1947D01*
X1546Y1947D01*
X1546Y1943D01*
X1548Y1943D01*
X1548Y1939D01*
X1550Y1939D01*
X1550Y1935D01*
X1552Y1935D01*
X1552Y1931D01*
X1554Y1931D01*
X1554Y1927D01*
X1556Y1927D01*
X1556Y1923D01*
X1558Y1923D01*
X1558Y1919D01*
X1560Y1919D01*
X1560Y1915D01*
X1562Y1915D01*
X1562Y1911D01*
X1564Y1911D01*
X1564Y1907D01*
X1566Y1907D01*
X1566Y1903D01*
X1568Y1903D01*
X1568Y1899D01*
X1570Y1899D01*
X1570Y1895D01*
X1572Y1895D01*
X1572Y1891D01*
X1574Y1891D01*
X1574Y1887D01*
X1576Y1887D01*
X1576Y1883D01*
X1578Y1883D01*
X1578Y1879D01*
X1580Y1879D01*
X1580Y1875D01*
X1582Y1875D01*
X1582Y1871D01*
X1584Y1871D01*
X1584Y1867D01*
X1586Y1867D01*
X1586Y1863D01*
X1588Y1863D01*
X1588Y1859D01*
X1590Y1859D01*
X1590Y1853D01*
X1592Y1853D01*
X1592Y1849D01*
X1594Y1849D01*
X1594Y1845D01*
X1596Y1845D01*
X1596Y1841D01*
X1598Y1841D01*
X1598Y1837D01*
X1600Y1837D01*
X1600Y1833D01*
X1602Y1833D01*
X1602Y1829D01*
X1604Y1829D01*
X1604Y1825D01*
X1606Y1825D01*
X1606Y1821D01*
X1608Y1821D01*
X1608Y1817D01*
X1610Y1817D01*
X1610Y1813D01*
X1612Y1813D01*
X1612Y1809D01*
X1614Y1809D01*
X1614Y1805D01*
X1616Y1805D01*
X1616Y1801D01*
X1618Y1801D01*
X1618Y1797D01*
X1620Y1797D01*
X1620Y1793D01*
X1622Y1793D01*
X1622Y1791D01*
X1624Y1791D01*
X1624Y1787D01*
X1626Y1787D01*
X1626Y1783D01*
X1628Y1783D01*
X1628Y1779D01*
X1630Y1779D01*
X1630Y1775D01*
X1632Y1775D01*
X1632Y1771D01*
X1634Y1771D01*
X1634Y1767D01*
X1636Y1767D01*
X1636Y1763D01*
X1638Y1763D01*
X1638Y1759D01*
X1640Y1759D01*
X1640Y1755D01*
X1642Y1755D01*
X1642Y1751D01*
X1644Y1751D01*
X1644Y1747D01*
X1646Y1747D01*
X1646Y1743D01*
X1648Y1743D01*
X1648Y1739D01*
X1650Y1739D01*
X1650Y1735D01*
X1652Y1735D01*
X1652Y1731D01*
X1654Y1731D01*
X1654Y1727D01*
X1656Y1727D01*
X1656Y1723D01*
X1658Y1723D01*
X1658Y1719D01*
X1660Y1719D01*
X1660Y1715D01*
X1662Y1715D01*
X1662Y1711D01*
X1664Y1711D01*
X1664Y1707D01*
X1666Y1707D01*
X1666Y1703D01*
X1668Y1703D01*
X1668Y1699D01*
X1670Y1699D01*
X1670Y1695D01*
X1672Y1695D01*
X1672Y1691D01*
X1674Y1691D01*
X1674Y1687D01*
X1676Y1687D01*
X1676Y1683D01*
X1678Y1683D01*
X1678Y1681D01*
X1680Y1681D01*
X1680Y1677D01*
X1682Y1677D01*
X1682Y1673D01*
X1684Y1673D01*
X1684Y1669D01*
X1686Y1669D01*
X1686Y1665D01*
X1688Y1665D01*
X1688Y1661D01*
X1690Y1661D01*
X1690Y1657D01*
X1692Y1657D01*
X1692Y1653D01*
X1694Y1653D01*
X1694Y1649D01*
X1696Y1649D01*
X1696Y1645D01*
X1698Y1645D01*
X1698Y1641D01*
X1700Y1641D01*
X1700Y1637D01*
X1702Y1637D01*
X1702Y1633D01*
X1704Y1633D01*
X1704Y1629D01*
X1706Y1629D01*
X1706Y1627D01*
X1708Y1627D01*
X1708Y1623D01*
X1710Y1623D01*
X1710Y1619D01*
X1712Y1619D01*
X1712Y1615D01*
X1714Y1615D01*
X1714Y1611D01*
X1716Y1611D01*
X1716Y1607D01*
X1718Y1607D01*
X1718Y1603D01*
X1720Y1603D01*
X1720Y1599D01*
X1722Y1599D01*
X1722Y1595D01*
X1724Y1595D01*
X1724Y1591D01*
X1726Y1591D01*
X1726Y1587D01*
X1728Y1587D01*
X1728Y1583D01*
X1730Y1583D01*
X1730Y1581D01*
X1732Y1581D01*
X1732Y1577D01*
X1734Y1577D01*
X1734Y1573D01*
X1736Y1573D01*
X1736Y1569D01*
X1738Y1569D01*
X1738Y1565D01*
X1740Y1565D01*
X1740Y1561D01*
X1742Y1561D01*
X1742Y1557D01*
X1744Y1557D01*
X1744Y1553D01*
X1746Y1553D01*
X1746Y1551D01*
X1748Y1551D01*
X1748Y1547D01*
X1750Y1547D01*
X1750Y1543D01*
X1752Y1543D01*
X1752Y1539D01*
X1754Y1539D01*
X1754Y1535D01*
X1756Y1535D01*
X1756Y1531D01*
X1758Y1531D01*
X1758Y1527D01*
X1760Y1527D01*
X1760Y1523D01*
X1762Y1523D01*
X1762Y1519D01*
X1764Y1519D01*
X1764Y1517D01*
X1766Y1517D01*
X1766Y1513D01*
X1768Y1513D01*
X1768Y1509D01*
X1770Y1509D01*
X1770Y1505D01*
X1772Y1505D01*
X1772Y1501D01*
X1774Y1501D01*
X1774Y1497D01*
X1776Y1497D01*
X1776Y1493D01*
X1778Y1493D01*
X1778Y1489D01*
X1780Y1489D01*
X1780Y1485D01*
X1782Y1485D01*
X1782Y1483D01*
X1784Y1483D01*
X1784Y1479D01*
X1786Y1479D01*
X1786Y1475D01*
X1788Y1475D01*
X1788Y1471D01*
X1790Y1471D01*
X1790Y1467D01*
X1792Y1467D01*
X1792Y1463D01*
X1794Y1463D01*
X1794Y1461D01*
X1796Y1461D01*
X1796Y1457D01*
X1798Y1457D01*
X1798Y1453D01*
X1800Y1453D01*
X1800Y1449D01*
X1802Y1449D01*
X1802Y1445D01*
X1804Y1445D01*
X1804Y1441D01*
X1806Y1441D01*
X1806Y1439D01*
X1808Y1439D01*
X1808Y1435D01*
X1810Y1435D01*
X1810Y1431D01*
X1812Y1431D01*
X1812Y1427D01*
X1814Y1427D01*
X1814Y1423D01*
X1816Y1423D01*
X1816Y1419D01*
X1818Y1419D01*
X1818Y1417D01*
X1820Y1417D01*
X1820Y1413D01*
X1822Y1413D01*
X1822Y1409D01*
X1824Y1409D01*
X1824Y1405D01*
X1826Y1405D01*
X1826Y1401D01*
X1828Y1401D01*
X1828Y1397D01*
X1830Y1397D01*
X1830Y1393D01*
X1832Y1393D01*
X1832Y1391D01*
X1834Y1391D01*
X1834Y1387D01*
X1836Y1387D01*
X1836Y1383D01*
X1838Y1383D01*
X1838Y1379D01*
X1840Y1379D01*
X1840Y1375D01*
X1842Y1375D01*
X1842Y1373D01*
X1844Y1373D01*
X1844Y1369D01*
X1846Y1369D01*
X1846Y1365D01*
X1848Y1365D01*
X1848Y1361D01*
X1850Y1361D01*
X1850Y1357D01*
X1852Y1357D01*
X1852Y1355D01*
X1854Y1355D01*
X1854Y1351D01*
X1856Y1351D01*
X1856Y1347D01*
X1858Y1347D01*
X1858Y1343D01*
X1860Y1343D01*
X1860Y1339D01*
X1862Y1339D01*
X1862Y1337D01*
X1864Y1337D01*
X1864Y1333D01*
X1866Y1333D01*
X1866Y1329D01*
X1868Y1329D01*
X1868Y1325D01*
X1870Y1325D01*
X1870Y1321D01*
X1872Y1321D01*
X1872Y1319D01*
X1874Y1319D01*
X1874Y1315D01*
X1876Y1315D01*
X1876Y1311D01*
X1878Y1311D01*
X1878Y1307D01*
X1880Y1307D01*
X1880Y1303D01*
X1882Y1303D01*
X1882Y1301D01*
X1884Y1301D01*
X1884Y1297D01*
X1886Y1297D01*
X1886Y1293D01*
X1888Y1293D01*
X1888Y1289D01*
X1890Y1289D01*
X1890Y1285D01*
X1892Y1285D01*
X1892Y1283D01*
X1894Y1283D01*
X1894Y1279D01*
X1896Y1279D01*
X1896Y1275D01*
X1898Y1275D01*
X1898Y1271D01*
X1900Y1271D01*
X1900Y1267D01*
X1902Y1267D01*
X1902Y1265D01*
X1904Y1265D01*
X1904Y1261D01*
X1906Y1261D01*
X1906Y1257D01*
X1908Y1257D01*
X1908Y1253D01*
X1910Y1253D01*
X1910Y1251D01*
X1912Y1251D01*
X1912Y1247D01*
X1914Y1247D01*
X1914Y1243D01*
X1916Y1243D01*
X1916Y1239D01*
X1918Y1239D01*
X1918Y1237D01*
X1920Y1237D01*
X1920Y1233D01*
X1922Y1233D01*
X1922Y1229D01*
X1924Y1229D01*
X1924Y1225D01*
X1926Y1225D01*
X1926Y1223D01*
X1928Y1223D01*
X1928Y1219D01*
X1930Y1219D01*
X1930Y1215D01*
X1932Y1215D01*
X1932Y1211D01*
X1934Y1211D01*
X1934Y1209D01*
X1936Y1209D01*
X1936Y1205D01*
X1938Y1205D01*
X1938Y1201D01*
X1940Y1201D01*
X1940Y1197D01*
X1942Y1197D01*
X1942Y1195D01*
X1944Y1195D01*
X1944Y1191D01*
X1946Y1191D01*
X1946Y1187D01*
X1948Y1187D01*
X1948Y1183D01*
X1950Y1183D01*
X1950Y1181D01*
X1952Y1181D01*
X1952Y1177D01*
X1954Y1177D01*
X1954Y1173D01*
X1956Y1173D01*
X1956Y1169D01*
X1958Y1169D01*
X1958Y1167D01*
X1960Y1167D01*
X1960Y1163D01*
X1962Y1163D01*
X1962Y1159D01*
X1964Y1159D01*
X1964Y1155D01*
X1966Y1155D01*
X1966Y1153D01*
X1968Y1153D01*
X1968Y1149D01*
X1970Y1149D01*
X1970Y1145D01*
X1972Y1145D01*
X1972Y1143D01*
X1974Y1143D01*
X1974Y1139D01*
X1976Y1139D01*
X1976Y1135D01*
X1978Y1135D01*
X1978Y1131D01*
X1980Y1131D01*
X1980Y1129D01*
X1982Y1129D01*
X1982Y1125D01*
X1984Y1125D01*
X1984Y1121D01*
X1986Y1121D01*
X1986Y1119D01*
X1988Y1119D01*
X1988Y1115D01*
X1990Y1115D01*
X1990Y1111D01*
X1992Y1111D01*
X1992Y1107D01*
X1994Y1107D01*
X1994Y1105D01*
X1996Y1105D01*
X1996Y1101D01*
X1998Y1101D01*
X1998Y1097D01*
X2000Y1097D01*
X2000Y1095D01*
X2002Y1095D01*
X2002Y1091D01*
X2004Y1091D01*
X2004Y1087D01*
X2006Y1087D01*
X2006Y1083D01*
X2008Y1083D01*
X2008Y1081D01*
X2010Y1081D01*
X2010Y1077D01*
X2012Y1077D01*
X2012Y1073D01*
X2014Y1073D01*
X2014Y1071D01*
X2016Y1071D01*
X2016Y1067D01*
X2018Y1067D01*
X2018Y1063D01*
X2020Y1063D01*
X2020Y1061D01*
X2022Y1061D01*
X2022Y1057D01*
X2024Y1057D01*
X2024Y1053D01*
X2026Y1053D01*
X2026Y1049D01*
X2028Y1049D01*
X2028Y1047D01*
X2030Y1047D01*
X2030Y1043D01*
X2032Y1043D01*
X2032Y1039D01*
X2034Y1039D01*
X2034Y1037D01*
X2036Y1037D01*
X2036Y1033D01*
X2038Y1033D01*
X2038Y1029D01*
X2040Y1029D01*
X2040Y1027D01*
X2042Y1027D01*
X2042Y1023D01*
X2044Y1023D01*
X2044Y1019D01*
X2046Y1019D01*
X2046Y1017D01*
X2048Y1017D01*
X2048Y1013D01*
X2050Y1013D01*
X2050Y1009D01*
X2052Y1009D01*
X2052Y1007D01*
X2054Y1007D01*
X2054Y1003D01*
X2056Y1003D01*
X2056Y999D01*
X2058Y999D01*
X2058Y997D01*
X2060Y997D01*
X2060Y993D01*
X2062Y993D01*
X2062Y989D01*
X2064Y989D01*
X2064Y987D01*
X2066Y987D01*
X2066Y983D01*
X2068Y983D01*
X2068Y979D01*
X2070Y979D01*
X2070Y977D01*
X2072Y977D01*
X2072Y973D01*
X2074Y973D01*
X2074Y969D01*
X2076Y969D01*
X2076Y967D01*
X2078Y967D01*
X2078Y963D01*
X2080Y963D01*
X2080Y959D01*
X2082Y959D01*
X2082Y957D01*
X2084Y957D01*
X2084Y953D01*
X2086Y953D01*
X2086Y949D01*
X2088Y949D01*
X2088Y947D01*
X2090Y947D01*
X2090Y943D01*
X2092Y943D01*
X2092Y939D01*
X2094Y939D01*
X2094Y937D01*
X2096Y937D01*
X2096Y933D01*
X2098Y933D01*
X2098Y931D01*
X2100Y931D01*
X2100Y927D01*
X2102Y927D01*
X2102Y923D01*
X2104Y923D01*
X2104Y921D01*
X2106Y921D01*
X2106Y917D01*
X2108Y917D01*
X2108Y913D01*
X2110Y913D01*
X2110Y911D01*
X2112Y911D01*
X2112Y907D01*
X2114Y907D01*
X2114Y903D01*
X2116Y903D01*
X2116Y901D01*
X2118Y901D01*
X2118Y897D01*
X2120Y897D01*
X2120Y895D01*
X2122Y895D01*
X2122Y891D01*
X2124Y891D01*
X2124Y887D01*
X2126Y887D01*
X2126Y885D01*
X2128Y885D01*
X2128Y881D01*
X2130Y881D01*
X2130Y877D01*
X2132Y877D01*
X2132Y875D01*
X2134Y875D01*
X2134Y871D01*
X2136Y871D01*
X2136Y867D01*
X2138Y867D01*
X2138Y865D01*
X2140Y865D01*
X2140Y861D01*
X2142Y861D01*
X2142Y859D01*
X2144Y859D01*
X2144Y855D01*
X2146Y855D01*
X2146Y851D01*
X2148Y851D01*
X2148Y849D01*
X2150Y849D01*
X2150Y845D01*
X2152Y845D01*
X2152Y841D01*
X2154Y841D01*
X2154Y839D01*
X2156Y839D01*
X2156Y835D01*
X2158Y835D01*
X2158Y831D01*
X2160Y831D01*
X2160Y829D01*
X2162Y829D01*
X2162Y825D01*
X2164Y825D01*
X2164Y821D01*
X2166Y821D01*
X2166Y819D01*
X2168Y819D01*
X2168Y815D01*
X2170Y815D01*
X2170Y813D01*
X2172Y813D01*
X2172Y809D01*
X2174Y809D01*
X2174Y805D01*
X2176Y805D01*
X2176Y803D01*
X2178Y803D01*
X2178Y799D01*
X2180Y799D01*
X2180Y795D01*
X2182Y795D01*
X2182Y793D01*
X2184Y793D01*
X2184Y789D01*
X2186Y789D01*
X2186Y785D01*
X2188Y785D01*
X2188Y783D01*
X2190Y783D01*
X2190Y779D01*
X2192Y779D01*
X2192Y777D01*
X2194Y777D01*
X2194Y773D01*
X2196Y773D01*
X2196Y769D01*
X2198Y769D01*
X2198Y767D01*
X2200Y767D01*
X2200Y763D01*
X2202Y763D01*
X2202Y759D01*
X2204Y759D01*
X2204Y757D01*
X2206Y757D01*
X2206Y753D01*
X2208Y753D01*
X2208Y749D01*
X2210Y749D01*
X2210Y747D01*
X2212Y747D01*
X2212Y743D01*
X2214Y743D01*
X2214Y741D01*
X2216Y741D01*
X2216Y737D01*
X2218Y737D01*
X2218Y733D01*
X2220Y733D01*
X2220Y731D01*
X2222Y731D01*
X2222Y727D01*
X2224Y727D01*
X2224Y725D01*
X2226Y725D01*
X2226Y721D01*
X2228Y721D01*
X2228Y717D01*
X2230Y717D01*
X2230Y715D01*
X2232Y715D01*
X2232Y711D01*
X2234Y711D01*
X2234Y707D01*
X2236Y707D01*
X2236Y705D01*
X2238Y705D01*
X2238Y701D01*
X2240Y701D01*
X2240Y699D01*
X2242Y699D01*
X2242Y695D01*
X2244Y695D01*
X2244Y691D01*
X2246Y691D01*
X2246Y689D01*
X2248Y689D01*
X2248Y685D01*
X2250Y685D01*
X2250Y683D01*
X2252Y683D01*
X2252Y679D01*
X2254Y679D01*
X2254Y675D01*
X2256Y675D01*
X2256Y673D01*
X2258Y673D01*
X2258Y669D01*
X2260Y669D01*
X2260Y665D01*
X2262Y665D01*
X2262Y663D01*
X2264Y663D01*
X2264Y659D01*
X2266Y659D01*
X2266Y657D01*
X2268Y657D01*
X2268Y653D01*
X2270Y653D01*
X2270Y649D01*
X2272Y649D01*
X2272Y647D01*
X2274Y647D01*
X2274Y643D01*
X2276Y643D01*
X2276Y641D01*
X2278Y641D01*
X2278Y637D01*
X2280Y637D01*
X2280Y633D01*
X2282Y633D01*
X2282Y631D01*
X2284Y631D01*
X2284Y627D01*
X2286Y627D01*
X2286Y623D01*
X2288Y623D01*
X2288Y621D01*
X2290Y621D01*
X2290Y617D01*
X2292Y617D01*
X2292Y615D01*
X2294Y615D01*
X2294Y611D01*
X2296Y611D01*
X2296Y607D01*
X2298Y607D01*
X2298Y605D01*
X2300Y605D01*
X2300Y601D01*
X2302Y601D01*
X2302Y599D01*
X2304Y599D01*
X2304Y595D01*
X2306Y595D01*
X2306Y591D01*
X2308Y591D01*
X2308Y589D01*
X2310Y589D01*
X2310Y585D01*
X2312Y585D01*
X2312Y583D01*
X2314Y583D01*
X2314Y579D01*
X2316Y579D01*
X2316Y575D01*
X2318Y575D01*
X2318Y573D01*
X2320Y573D01*
X2320Y569D01*
X2322Y569D01*
X2322Y567D01*
X2324Y567D01*
X2324Y563D01*
X2326Y563D01*
X2326Y559D01*
X2328Y559D01*
X2328Y557D01*
X2330Y557D01*
X2330Y553D01*
X2332Y553D01*
X2332Y551D01*
X2334Y551D01*
X2334Y547D01*
X2336Y547D01*
X2336Y543D01*
X2338Y543D01*
X2338Y541D01*
X2340Y541D01*
X2340Y537D01*
X2342Y537D01*
X2342Y535D01*
X2344Y535D01*
X2344Y531D01*
X2346Y531D01*
X2346Y529D01*
X2348Y529D01*
X2348Y525D01*
X2350Y525D01*
X2350Y521D01*
X2352Y521D01*
X2352Y519D01*
X2354Y519D01*
X2354Y515D01*
X2356Y515D01*
X2356Y513D01*
X2358Y513D01*
X2358Y509D01*
X2360Y509D01*
X2360Y505D01*
X2362Y505D01*
X2362Y503D01*
X2364Y503D01*
X2364Y499D01*
X2366Y499D01*
X2366Y497D01*
X2368Y497D01*
X2368Y493D01*
X2370Y493D01*
X2370Y491D01*
X2372Y491D01*
X2372Y487D01*
X2374Y487D01*
X2374Y483D01*
X2376Y483D01*
X2376Y481D01*
X2378Y481D01*
X2378Y477D01*
X2380Y477D01*
X2380Y475D01*
X2382Y475D01*
X2382Y471D01*
X2384Y471D01*
X2384Y467D01*
X2386Y467D01*
X2386Y465D01*
X2388Y465D01*
X2388Y461D01*
X2390Y461D01*
X2390Y459D01*
X2392Y459D01*
X2392Y455D01*
X2394Y455D01*
X2394Y451D01*
X2396Y451D01*
X2396Y449D01*
X2398Y449D01*
X2398Y445D01*
X2400Y445D01*
X2400Y443D01*
X2402Y443D01*
X2402Y439D01*
X2404Y439D01*
X2404Y437D01*
X2406Y437D01*
X2406Y433D01*
X2408Y433D01*
X2408Y431D01*
X2410Y431D01*
X2410Y427D01*
X2412Y427D01*
X2412Y423D01*
X2414Y423D01*
X2414Y421D01*
X2416Y421D01*
X2416Y417D01*
X2418Y417D01*
X2418Y415D01*
X2420Y415D01*
X2420Y411D01*
X2422Y411D01*
X2422Y409D01*
X2424Y409D01*
X2424Y405D01*
X2426Y405D01*
X2426Y403D01*
X2428Y403D01*
X2428Y399D01*
X2430Y399D01*
X2430Y397D01*
X2432Y397D01*
X2432Y393D01*
X2434Y393D01*
X2434Y389D01*
X2436Y389D01*
X2436Y387D01*
X2438Y387D01*
X2438Y383D01*
X2440Y383D01*
X2440Y381D01*
X2442Y381D01*
X2442Y377D01*
X2444Y377D01*
X2444Y375D01*
X2446Y375D01*
X2446Y371D01*
X2448Y371D01*
X2448Y369D01*
X2450Y369D01*
X2450Y365D01*
X2452Y365D01*
X2452Y363D01*
X2454Y363D01*
X2454Y359D01*
X2456Y359D01*
X2456Y355D01*
X2458Y355D01*
X2458Y353D01*
X2460Y353D01*
X2460Y349D01*
X2462Y349D01*
X2462Y347D01*
X2464Y347D01*
X2464Y343D01*
X2466Y343D01*
X2466Y341D01*
X2468Y341D01*
X2468Y337D01*
X2470Y337D01*
X2470Y335D01*
X2472Y335D01*
X2472Y331D01*
X2474Y331D01*
X2474Y329D01*
X2476Y329D01*
X2476Y325D01*
X2478Y325D01*
X2478Y323D01*
X2480Y323D01*
X2480Y319D01*
X2482Y319D01*
X2482Y317D01*
X2484Y317D01*
X2484Y313D01*
X2486Y313D01*
X2486Y311D01*
X2488Y311D01*
X2488Y307D01*
X2490Y307D01*
X2490Y305D01*
X2492Y305D01*
X2492Y301D01*
X2494Y301D01*
X2494Y299D01*
X2496Y299D01*
X2496Y295D01*
X2498Y295D01*
X2498Y291D01*
X2500Y291D01*
X2500Y289D01*
X2502Y289D01*
X2502Y285D01*
X2504Y285D01*
X2504Y283D01*
X2506Y283D01*
X2506Y279D01*
X2508Y279D01*
X2508Y277D01*
X2510Y277D01*
X2510Y273D01*
X2512Y273D01*
X2512Y271D01*
X2514Y271D01*
X2514Y269D01*
X2516Y269D01*
X2516Y265D01*
X2518Y265D01*
X2518Y263D01*
X2520Y263D01*
X2520Y259D01*
X2522Y259D01*
X2522Y257D01*
X2524Y257D01*
X2524Y253D01*
X2526Y253D01*
X2526Y251D01*
X2528Y251D01*
X2528Y247D01*
X2530Y247D01*
X2530Y245D01*
X2532Y245D01*
X2532Y241D01*
X2534Y241D01*
X2534Y239D01*
X2536Y239D01*
X2536Y235D01*
X2538Y235D01*
X2538Y233D01*
X2540Y233D01*
X2540Y231D01*
X2542Y231D01*
X2542Y227D01*
X2544Y227D01*
X2544Y225D01*
X2546Y225D01*
X2546Y221D01*
X2548Y221D01*
X2548Y219D01*
X2550Y219D01*
X2550Y215D01*
X2552Y215D01*
X2552Y213D01*
X2554Y213D01*
X2554Y211D01*
X2556Y211D01*
X2556Y207D01*
X2558Y207D01*
X2558Y205D01*
X2560Y205D01*
X2560Y201D01*
X2562Y201D01*
X2562Y199D01*
X2564Y199D01*
X2564Y195D01*
X2566Y195D01*
X2566Y193D01*
X2586Y193D01*
X2586Y195D01*
X2584Y195D01*
X2584Y199D01*
X2582Y199D01*
X2582Y203D01*
X2580Y203D01*
X2580Y205D01*
X2578Y205D01*
X2578Y209D01*
X2576Y209D01*
X2576Y213D01*
X2574Y213D01*
X2574Y215D01*
X2572Y215D01*
X2572Y219D01*
X2570Y219D01*
X2570Y223D01*
X2568Y223D01*
X2568Y225D01*
X2566Y225D01*
X2566Y229D01*
X2564Y229D01*
X2564Y233D01*
X2562Y233D01*
X2562Y235D01*
X2560Y235D01*
X2560Y239D01*
X2558Y239D01*
X2558Y243D01*
X2556Y243D01*
X2556Y245D01*
X2554Y245D01*
X2554Y249D01*
X2552Y249D01*
X2552Y253D01*
X2550Y253D01*
X2550Y257D01*
X2548Y257D01*
X2548Y259D01*
X2546Y259D01*
X2546Y263D01*
X2544Y263D01*
X2544Y267D01*
X2542Y267D01*
X2542Y269D01*
X2540Y269D01*
X2540Y273D01*
X2538Y273D01*
X2538Y277D01*
X2536Y277D01*
X2536Y279D01*
X2534Y279D01*
X2534Y283D01*
X2532Y283D01*
X2532Y287D01*
X2530Y287D01*
X2530Y289D01*
X2528Y289D01*
X2528Y293D01*
X2526Y293D01*
X2526Y297D01*
X2524Y297D01*
X2524Y299D01*
X2522Y299D01*
X2522Y303D01*
X2520Y303D01*
X2520Y307D01*
X2518Y307D01*
X2518Y309D01*
X2516Y309D01*
X2516Y313D01*
X2514Y313D01*
X2514Y317D01*
X2512Y317D01*
X2512Y321D01*
X2510Y321D01*
X2510Y323D01*
X2508Y323D01*
X2508Y327D01*
X2506Y327D01*
X2506Y331D01*
X2504Y331D01*
X2504Y333D01*
X2502Y333D01*
X2502Y337D01*
X2500Y337D01*
X2500Y341D01*
X2498Y341D01*
X2498Y343D01*
X2496Y343D01*
X2496Y347D01*
X2494Y347D01*
X2494Y351D01*
X2492Y351D01*
X2492Y353D01*
X2490Y353D01*
X2490Y357D01*
X2488Y357D01*
X2488Y361D01*
X2486Y361D01*
X2486Y363D01*
X2484Y363D01*
X2484Y367D01*
X2482Y367D01*
X2482Y371D01*
X2480Y371D01*
X2480Y375D01*
X2478Y375D01*
X2478Y377D01*
X2476Y377D01*
X2476Y381D01*
X2474Y381D01*
X2474Y385D01*
X2472Y385D01*
X2472Y387D01*
X2470Y387D01*
X2470Y391D01*
X2468Y391D01*
X2468Y395D01*
X2466Y395D01*
X2466Y397D01*
X2464Y397D01*
X2464Y401D01*
X2462Y401D01*
X2462Y405D01*
X2460Y405D01*
X2460Y407D01*
X2458Y407D01*
X2458Y411D01*
X2456Y411D01*
X2456Y415D01*
X2454Y415D01*
X2454Y417D01*
X2452Y417D01*
X2452Y421D01*
X2450Y421D01*
X2450Y425D01*
X2448Y425D01*
X2448Y429D01*
X2446Y429D01*
X2446Y431D01*
X2444Y431D01*
X2444Y435D01*
X2442Y435D01*
X2442Y439D01*
X2440Y439D01*
X2440Y441D01*
X2438Y441D01*
X2438Y445D01*
X2436Y445D01*
X2436Y449D01*
X2434Y449D01*
X2434Y451D01*
X2432Y451D01*
X2432Y455D01*
X2430Y455D01*
X2430Y459D01*
X2428Y459D01*
X2428Y461D01*
X2426Y461D01*
X2426Y465D01*
X2424Y465D01*
X2424Y469D01*
X2422Y469D01*
X2422Y471D01*
X2420Y471D01*
X2420Y475D01*
X2418Y475D01*
X2418Y479D01*
X2416Y479D01*
X2416Y481D01*
X2414Y481D01*
X2414Y485D01*
X2412Y485D01*
X2412Y489D01*
X2410Y489D01*
X2410Y493D01*
X2408Y493D01*
X2408Y495D01*
X2406Y495D01*
X2406Y499D01*
X2404Y499D01*
X2404Y503D01*
X2402Y503D01*
X2402Y505D01*
X2400Y505D01*
X2400Y509D01*
X2398Y509D01*
X2398Y513D01*
X2396Y513D01*
X2396Y515D01*
X2394Y515D01*
X2394Y519D01*
X2392Y519D01*
X2392Y523D01*
X2390Y523D01*
X2390Y525D01*
X2388Y525D01*
X2388Y529D01*
X2386Y529D01*
X2386Y533D01*
X2384Y533D01*
X2384Y535D01*
X2382Y535D01*
X2382Y539D01*
X2380Y539D01*
X2380Y543D01*
X2378Y543D01*
X2378Y547D01*
X2376Y547D01*
X2376Y549D01*
X2374Y549D01*
X2374Y553D01*
X2372Y553D01*
X2372Y557D01*
X2370Y557D01*
X2370Y559D01*
X2368Y559D01*
X2368Y563D01*
X2366Y563D01*
X2366Y567D01*
X2364Y567D01*
X2364Y569D01*
X2362Y569D01*
X2362Y573D01*
X2360Y573D01*
X2360Y577D01*
X2358Y577D01*
X2358Y579D01*
X2356Y579D01*
X2356Y583D01*
X2354Y583D01*
X2354Y587D01*
X2352Y587D01*
X2352Y589D01*
X2350Y589D01*
X2350Y593D01*
X2348Y593D01*
X2348Y597D01*
X2346Y597D01*
X2346Y601D01*
X2344Y601D01*
X2344Y603D01*
X2342Y603D01*
X2342Y607D01*
X2340Y607D01*
X2340Y611D01*
X2338Y611D01*
X2338Y613D01*
X2336Y613D01*
X2336Y617D01*
X2334Y617D01*
X2334Y621D01*
X2332Y621D01*
X2332Y623D01*
X2330Y623D01*
X2330Y627D01*
X2328Y627D01*
X2328Y631D01*
X2326Y631D01*
X2326Y633D01*
X2324Y633D01*
X2324Y637D01*
X2322Y637D01*
X2322Y641D01*
X2320Y641D01*
X2320Y643D01*
X2318Y643D01*
X2318Y647D01*
X2316Y647D01*
X2316Y651D01*
X2314Y651D01*
X2314Y653D01*
X2312Y653D01*
X2312Y657D01*
X2310Y657D01*
X2310Y661D01*
X2308Y661D01*
X2308Y665D01*
X2306Y665D01*
X2306Y667D01*
X2304Y667D01*
X2304Y671D01*
X2302Y671D01*
X2302Y675D01*
X2300Y675D01*
X2300Y677D01*
X2298Y677D01*
X2298Y681D01*
X2296Y681D01*
X2296Y685D01*
X2294Y685D01*
X2294Y687D01*
X2292Y687D01*
X2292Y691D01*
X2290Y691D01*
X2290Y695D01*
X2288Y695D01*
X2288Y697D01*
X2286Y697D01*
X2286Y701D01*
X2284Y701D01*
X2284Y705D01*
X2282Y705D01*
X2282Y707D01*
X2280Y707D01*
X2280Y711D01*
X2278Y711D01*
X2278Y715D01*
X2276Y715D01*
X2276Y719D01*
X2274Y719D01*
X2274Y721D01*
X2272Y721D01*
X2272Y725D01*
X2270Y725D01*
X2270Y729D01*
X2268Y729D01*
X2268Y731D01*
X2266Y731D01*
X2266Y735D01*
X2264Y735D01*
X2264Y739D01*
X2262Y739D01*
X2262Y741D01*
X2260Y741D01*
X2260Y745D01*
X2258Y745D01*
X2258Y749D01*
X2256Y749D01*
X2256Y751D01*
X2254Y751D01*
X2254Y755D01*
X2252Y755D01*
X2252Y759D01*
X2250Y759D01*
X2250Y761D01*
X2248Y761D01*
X2248Y765D01*
X2246Y765D01*
X2246Y769D01*
X2244Y769D01*
X2244Y771D01*
X2242Y771D01*
X2242Y775D01*
X2240Y775D01*
X2240Y779D01*
X2238Y779D01*
X2238Y783D01*
X2236Y783D01*
X2236Y785D01*
X2234Y785D01*
X2234Y789D01*
X2232Y789D01*
X2232Y793D01*
X2230Y793D01*
X2230Y795D01*
X2228Y795D01*
X2228Y799D01*
X2226Y799D01*
X2226Y803D01*
X2224Y803D01*
X2224Y805D01*
X2222Y805D01*
X2222Y809D01*
X2220Y809D01*
X2220Y813D01*
X2218Y813D01*
X2218Y815D01*
X2216Y815D01*
X2216Y819D01*
X2214Y819D01*
X2214Y823D01*
X2212Y823D01*
X2212Y825D01*
X2210Y825D01*
X2210Y829D01*
X2208Y829D01*
X2208Y833D01*
X2206Y833D01*
X2206Y837D01*
X2204Y837D01*
X2204Y839D01*
X2202Y839D01*
X2202Y843D01*
X2200Y843D01*
X2200Y847D01*
X2198Y847D01*
X2198Y849D01*
X2196Y849D01*
X2196Y853D01*
X2194Y853D01*
X2194Y857D01*
X2192Y857D01*
X2192Y859D01*
X2190Y859D01*
X2190Y863D01*
X2188Y863D01*
X2188Y867D01*
X2186Y867D01*
X2186Y869D01*
X2184Y869D01*
X2184Y873D01*
X2182Y873D01*
X2182Y877D01*
X2180Y877D01*
X2180Y879D01*
X2178Y879D01*
X2178Y883D01*
X2176Y883D01*
X2176Y887D01*
X2174Y887D01*
X2174Y891D01*
X2172Y891D01*
X2172Y893D01*
X2170Y893D01*
X2170Y897D01*
X2168Y897D01*
X2168Y901D01*
X2166Y901D01*
X2166Y903D01*
X2164Y903D01*
X2164Y907D01*
X2162Y907D01*
X2162Y911D01*
X2160Y911D01*
X2160Y913D01*
X2158Y913D01*
X2158Y917D01*
X2156Y917D01*
X2156Y921D01*
X2154Y921D01*
X2154Y923D01*
X2152Y923D01*
X2152Y927D01*
X2150Y927D01*
X2150Y931D01*
X2148Y931D01*
X2148Y933D01*
X2146Y933D01*
X2146Y937D01*
X2144Y937D01*
X2144Y941D01*
X2142Y941D01*
X2142Y943D01*
X2140Y943D01*
X2140Y947D01*
X2138Y947D01*
X2138Y951D01*
X2136Y951D01*
X2136Y955D01*
X2134Y955D01*
X2134Y957D01*
X2132Y957D01*
X2132Y961D01*
X2130Y961D01*
X2130Y965D01*
X2128Y965D01*
X2128Y967D01*
X2126Y967D01*
X2126Y971D01*
X2124Y971D01*
X2124Y975D01*
X2122Y975D01*
X2122Y977D01*
X2120Y977D01*
X2120Y981D01*
X2118Y981D01*
X2118Y985D01*
X2116Y985D01*
X2116Y987D01*
X2114Y987D01*
X2114Y991D01*
X2112Y991D01*
X2112Y995D01*
X2110Y995D01*
X2110Y997D01*
X2108Y997D01*
X2108Y1001D01*
X2106Y1001D01*
X2106Y1005D01*
X2104Y1005D01*
X2104Y1009D01*
X2102Y1009D01*
X2102Y1011D01*
X2100Y1011D01*
X2100Y1015D01*
X2098Y1015D01*
X2098Y1019D01*
X2096Y1019D01*
X2096Y1021D01*
X2094Y1021D01*
X2094Y1025D01*
X2092Y1025D01*
X2092Y1029D01*
X2090Y1029D01*
X2090Y1031D01*
X2088Y1031D01*
X2088Y1035D01*
X2086Y1035D01*
X2086Y1039D01*
X2084Y1039D01*
X2084Y1041D01*
X2082Y1041D01*
X2082Y1045D01*
X2080Y1045D01*
X2080Y1049D01*
X2078Y1049D01*
X2078Y1051D01*
X2076Y1051D01*
X2076Y1055D01*
X2074Y1055D01*
X2074Y1059D01*
X2072Y1059D01*
X2072Y1063D01*
X2070Y1063D01*
X2070Y1065D01*
X2068Y1065D01*
X2068Y1069D01*
X2066Y1069D01*
X2066Y1073D01*
X2064Y1073D01*
X2064Y1075D01*
X2062Y1075D01*
X2062Y1079D01*
X2060Y1079D01*
X2060Y1083D01*
X2058Y1083D01*
X2058Y1085D01*
X2056Y1085D01*
X2056Y1089D01*
X2054Y1089D01*
X2054Y1093D01*
X2052Y1093D01*
X2052Y1095D01*
X2050Y1095D01*
X2050Y1099D01*
X2048Y1099D01*
X2048Y1103D01*
X2046Y1103D01*
X2046Y1105D01*
X2044Y1105D01*
X2044Y1109D01*
X2042Y1109D01*
X2042Y1113D01*
X2040Y1113D01*
X2040Y1115D01*
X2038Y1115D01*
X2038Y1119D01*
X2036Y1119D01*
X2036Y1123D01*
X2034Y1123D01*
X2034Y1127D01*
X2032Y1127D01*
X2032Y1129D01*
X2030Y1129D01*
X2030Y1133D01*
X2028Y1133D01*
X2028Y1137D01*
X2026Y1137D01*
X2026Y1139D01*
X2024Y1139D01*
X2024Y1143D01*
X2022Y1143D01*
X2022Y1147D01*
X2020Y1147D01*
X2020Y1149D01*
X2018Y1149D01*
X2018Y1153D01*
X2016Y1153D01*
X2016Y1157D01*
X2014Y1157D01*
X2014Y1159D01*
X2012Y1159D01*
X2012Y1163D01*
X2010Y1163D01*
X2010Y1167D01*
X2008Y1167D01*
X2008Y1169D01*
X2006Y1169D01*
X2006Y1173D01*
X2004Y1173D01*
X2004Y1177D01*
X2002Y1177D01*
X2002Y1181D01*
X2000Y1181D01*
X2000Y1183D01*
X1998Y1183D01*
X1998Y1187D01*
X1996Y1187D01*
X1996Y1191D01*
X1994Y1191D01*
X1994Y1193D01*
X1992Y1193D01*
X1992Y1197D01*
X1990Y1197D01*
X1990Y1201D01*
X1988Y1201D01*
X1988Y1203D01*
X1986Y1203D01*
X1986Y1207D01*
X1984Y1207D01*
X1984Y1211D01*
X1982Y1211D01*
X1982Y1213D01*
X1980Y1213D01*
X1980Y1217D01*
X1978Y1217D01*
X1978Y1221D01*
X1976Y1221D01*
X1976Y1223D01*
X1974Y1223D01*
X1974Y1227D01*
X1972Y1227D01*
X1972Y1231D01*
X1970Y1231D01*
X1970Y1235D01*
X1968Y1235D01*
X1968Y1237D01*
X1966Y1237D01*
X1966Y1241D01*
X1964Y1241D01*
X1964Y1245D01*
X1962Y1245D01*
X1962Y1247D01*
X1960Y1247D01*
X1960Y1251D01*
X1958Y1251D01*
X1958Y1255D01*
X1956Y1255D01*
X1956Y1257D01*
X1954Y1257D01*
X1954Y1261D01*
X1952Y1261D01*
X1952Y1265D01*
X1950Y1265D01*
X1950Y1267D01*
X1948Y1267D01*
X1948Y1271D01*
X1946Y1271D01*
X1946Y1275D01*
X1944Y1275D01*
X1944Y1277D01*
X1942Y1277D01*
X1942Y1281D01*
X1940Y1281D01*
X1940Y1285D01*
X1938Y1285D01*
X1938Y1287D01*
X1936Y1287D01*
X1936Y1291D01*
X1934Y1291D01*
X1934Y1295D01*
X1932Y1295D01*
X1932Y1299D01*
X1930Y1299D01*
X1930Y1301D01*
X1928Y1301D01*
X1928Y1305D01*
X1926Y1305D01*
X1926Y1309D01*
X1924Y1309D01*
X1924Y1311D01*
X1922Y1311D01*
X1922Y1315D01*
X1920Y1315D01*
X1920Y1319D01*
X1918Y1319D01*
X1918Y1321D01*
X1916Y1321D01*
X1916Y1325D01*
X1914Y1325D01*
X1914Y1329D01*
X1912Y1329D01*
X1912Y1331D01*
X1910Y1331D01*
X1910Y1335D01*
X1908Y1335D01*
X1908Y1339D01*
X1906Y1339D01*
X1906Y1341D01*
X1904Y1341D01*
X1904Y1345D01*
X1902Y1345D01*
X1902Y1349D01*
X1900Y1349D01*
X1900Y1353D01*
X1898Y1353D01*
X1898Y1355D01*
X1896Y1355D01*
X1896Y1359D01*
X1894Y1359D01*
X1894Y1363D01*
X1892Y1363D01*
X1892Y1365D01*
X1890Y1365D01*
X1890Y1369D01*
X1888Y1369D01*
X1888Y1373D01*
X1886Y1373D01*
X1886Y1375D01*
X1884Y1375D01*
X1884Y1379D01*
X1882Y1379D01*
X1882Y1383D01*
X1880Y1383D01*
X1880Y1385D01*
X1878Y1385D01*
X1878Y1389D01*
X1876Y1389D01*
X1876Y1393D01*
X1874Y1393D01*
X1874Y1395D01*
X1872Y1395D01*
X1872Y1399D01*
X1870Y1399D01*
X1870Y1403D01*
X1868Y1403D01*
X1868Y1405D01*
X1866Y1405D01*
X1866Y1409D01*
X1864Y1409D01*
X1864Y1413D01*
X1862Y1413D01*
X1862Y1417D01*
X1860Y1417D01*
X1860Y1419D01*
X1858Y1419D01*
X1858Y1423D01*
X1856Y1423D01*
X1856Y1427D01*
X1854Y1427D01*
X1854Y1429D01*
X1852Y1429D01*
X1852Y1433D01*
X1850Y1433D01*
X1850Y1437D01*
X1848Y1437D01*
X1848Y1439D01*
X1846Y1439D01*
X1846Y1443D01*
X1844Y1443D01*
X1844Y1447D01*
X1842Y1447D01*
X1842Y1449D01*
X1840Y1449D01*
X1840Y1453D01*
X1838Y1453D01*
X1838Y1457D01*
X1836Y1457D01*
X1836Y1459D01*
X1834Y1459D01*
X1834Y1463D01*
X1832Y1463D01*
X1832Y1467D01*
X1830Y1467D01*
X1830Y1471D01*
X1828Y1471D01*
X1828Y1473D01*
X1826Y1473D01*
X1826Y1477D01*
X1824Y1477D01*
X1824Y1481D01*
X1822Y1481D01*
X1822Y1483D01*
X1820Y1483D01*
X1820Y1487D01*
X1818Y1487D01*
X1818Y1491D01*
X1816Y1491D01*
X1816Y1493D01*
X1814Y1493D01*
X1814Y1497D01*
X1812Y1497D01*
X1812Y1501D01*
X1810Y1501D01*
X1810Y1505D01*
X1808Y1505D01*
X1808Y1509D01*
X1806Y1509D01*
X1806Y1513D01*
X1804Y1513D01*
X1804Y1517D01*
X1802Y1517D01*
X1802Y1521D01*
X1800Y1521D01*
X1800Y1527D01*
X1798Y1527D01*
X1798Y1531D01*
X1796Y1531D01*
X1796Y1535D01*
X1794Y1535D01*
X1794Y1539D01*
X1792Y1539D01*
X1792Y1543D01*
X1790Y1543D01*
X1790Y1547D01*
X1788Y1547D01*
X1788Y1551D01*
X1786Y1551D01*
X1786Y1555D01*
X1784Y1555D01*
X1784Y1559D01*
X1782Y1559D01*
X1782Y1563D01*
X1780Y1563D01*
X1780Y1567D01*
X1778Y1567D01*
X1778Y1571D01*
X1776Y1571D01*
X1776Y1575D01*
X1774Y1575D01*
X1774Y1579D01*
X1772Y1579D01*
X1772Y1585D01*
X1770Y1585D01*
X1770Y1589D01*
X1768Y1589D01*
X1768Y1593D01*
X1766Y1593D01*
X1766Y1597D01*
X1764Y1597D01*
X1764Y1601D01*
X1762Y1601D01*
X1762Y1605D01*
X1760Y1605D01*
X1760Y1609D01*
X1758Y1609D01*
X1758Y1613D01*
X1756Y1613D01*
X1756Y1617D01*
X1754Y1617D01*
X1754Y1621D01*
X1752Y1621D01*
X1752Y1625D01*
X1750Y1625D01*
X1750Y1629D01*
X1748Y1629D01*
X1748Y1633D01*
X1746Y1633D01*
X1746Y1637D01*
X1744Y1637D01*
X1744Y1641D01*
X1742Y1641D01*
X1742Y1647D01*
X1740Y1647D01*
X1740Y1651D01*
X1738Y1651D01*
X1738Y1655D01*
X1736Y1655D01*
X1736Y1659D01*
X1734Y1659D01*
X1734Y1663D01*
X1732Y1663D01*
X1732Y1667D01*
X1730Y1667D01*
X1730Y1671D01*
X1728Y1671D01*
X1728Y1675D01*
X1726Y1675D01*
X1726Y1679D01*
X1724Y1679D01*
X1724Y1683D01*
X1722Y1683D01*
X1722Y1687D01*
X1720Y1687D01*
X1720Y1691D01*
X1718Y1691D01*
X1718Y1695D01*
X1716Y1695D01*
X1716Y1699D01*
X1714Y1699D01*
X1714Y1703D01*
X1712Y1703D01*
X1712Y1709D01*
X1710Y1709D01*
X1710Y1713D01*
X1708Y1713D01*
X1708Y1717D01*
X1706Y1717D01*
X1706Y1721D01*
X1704Y1721D01*
X1704Y1725D01*
X1702Y1725D01*
X1702Y1729D01*
X1700Y1729D01*
X1700Y1733D01*
X1698Y1733D01*
X1698Y1737D01*
X1696Y1737D01*
X1696Y1741D01*
X1694Y1741D01*
X1694Y1745D01*
X1692Y1745D01*
X1692Y1749D01*
X1690Y1749D01*
X1690Y1753D01*
X1688Y1753D01*
X1688Y1757D01*
X1686Y1757D01*
X1686Y1761D01*
X1684Y1761D01*
X1684Y1765D01*
X1682Y1765D01*
X1682Y1771D01*
X1680Y1771D01*
X1680Y1775D01*
X1678Y1775D01*
X1678Y1779D01*
X1676Y1779D01*
X1676Y1783D01*
X1674Y1783D01*
X1674Y1787D01*
X1672Y1787D01*
X1672Y1791D01*
X1670Y1791D01*
X1670Y1795D01*
X1668Y1795D01*
X1668Y1799D01*
X1666Y1799D01*
X1666Y1803D01*
X1664Y1803D01*
X1664Y1807D01*
X1662Y1807D01*
X1662Y1811D01*
X1660Y1811D01*
X1660Y1815D01*
X1658Y1815D01*
X1658Y1819D01*
X1656Y1819D01*
X1656Y1823D01*
X1654Y1823D01*
X1654Y1827D01*
X1652Y1827D01*
X1652Y1833D01*
X1650Y1833D01*
X1650Y1837D01*
X1648Y1837D01*
X1648Y1841D01*
X1646Y1841D01*
X1646Y1845D01*
X1644Y1845D01*
X1644Y1849D01*
X1642Y1849D01*
X1642Y1853D01*
X1640Y1853D01*
X1640Y1857D01*
X1638Y1857D01*
X1638Y1861D01*
X1636Y1861D01*
X1636Y1865D01*
X1634Y1865D01*
X1634Y1869D01*
X1632Y1869D01*
X1632Y1873D01*
X1630Y1873D01*
X1630Y1877D01*
X1628Y1877D01*
X1628Y1881D01*
X1626Y1881D01*
X1626Y1885D01*
X1624Y1885D01*
X1624Y1889D01*
X1622Y1889D01*
X1622Y1895D01*
X1620Y1895D01*
X1620Y1899D01*
X1618Y1899D01*
X1618Y1903D01*
X1616Y1903D01*
X1616Y1907D01*
X1614Y1907D01*
X1614Y1911D01*
X1612Y1911D01*
X1612Y1915D01*
X1610Y1915D01*
X1610Y1919D01*
X1608Y1919D01*
X1608Y1923D01*
X1606Y1923D01*
X1606Y1927D01*
X1604Y1927D01*
X1604Y1931D01*
X1602Y1931D01*
X1602Y1935D01*
X1600Y1935D01*
X1600Y1939D01*
X1598Y1939D01*
X1598Y1943D01*
X1596Y1943D01*
X1596Y1947D01*
X1594Y1947D01*
X1594Y1951D01*
X1592Y1951D01*
X1592Y1957D01*
X1590Y1957D01*
X1590Y1961D01*
X1588Y1961D01*
X1588Y1965D01*
X1586Y1965D01*
X1586Y1969D01*
X1584Y1969D01*
X1584Y1973D01*
X1582Y1973D01*
X1582Y1977D01*
X1580Y1977D01*
X1580Y1981D01*
X1578Y1981D01*
X1578Y1985D01*
X1576Y1985D01*
X1576Y1989D01*
X1574Y1989D01*
X1574Y1993D01*
X1572Y1993D01*
X1572Y1997D01*
X1570Y1997D01*
X1570Y2001D01*
X1568Y2001D01*
X1568Y2005D01*
X1566Y2005D01*
X1566Y2009D01*
X1564Y2009D01*
X1564Y2013D01*
X1562Y2013D01*
X1562Y2019D01*
X1560Y2019D01*
X1560Y2023D01*
X1558Y2023D01*
X1558Y2027D01*
X1556Y2027D01*
X1556Y2031D01*
X1554Y2031D01*
X1554Y2035D01*
X1552Y2035D01*
X1552Y2039D01*
X1550Y2039D01*
X1550Y2043D01*
X1548Y2043D01*
X1548Y2047D01*
X1546Y2047D01*
X1546Y2051D01*
X1544Y2051D01*
X1544Y2055D01*
X1542Y2055D01*
X1542Y2059D01*
X1540Y2059D01*
X1540Y2063D01*
X1538Y2063D01*
X1538Y2067D01*
X1536Y2067D01*
X1536Y2071D01*
X1534Y2071D01*
X1534Y2075D01*
X1532Y2075D01*
X1532Y2081D01*
X1530Y2081D01*
X1530Y2085D01*
X1528Y2085D01*
X1528Y2089D01*
X1526Y2089D01*
X1526Y2093D01*
X1524Y2093D01*
X1524Y2097D01*
X1522Y2097D01*
X1522Y2101D01*
X1520Y2101D01*
X1520Y2105D01*
X1518Y2105D01*
X1518Y2109D01*
X1516Y2109D01*
X1516Y2113D01*
X1514Y2113D01*
X1514Y2117D01*
X1512Y2117D01*
X1512Y2121D01*
X1510Y2121D01*
X1510Y2125D01*
X1508Y2125D01*
X1508Y2129D01*
X1506Y2129D01*
X1506Y2133D01*
X1504Y2133D01*
X1504Y2137D01*
X1502Y2137D01*
X1502Y2143D01*
X1500Y2143D01*
X1500Y2147D01*
X1498Y2147D01*
X1498Y2151D01*
X1496Y2151D01*
X1496Y2155D01*
X1494Y2155D01*
X1494Y2159D01*
X1492Y2159D01*
X1492Y2163D01*
X1490Y2163D01*
X1490Y2167D01*
X1488Y2167D01*
X1488Y2171D01*
X1486Y2171D01*
X1486Y2175D01*
X1484Y2175D01*
X1484Y2179D01*
X1482Y2179D01*
X1482Y2183D01*
X1480Y2183D01*
X1480Y2187D01*
X1478Y2187D01*
X1478Y2191D01*
X1476Y2191D01*
X1476Y2195D01*
X1474Y2195D01*
X1474Y2199D01*
X1472Y2199D01*
X1472Y2205D01*
X1470Y2205D01*
X1470Y2209D01*
X1468Y2209D01*
X1468Y2213D01*
X1466Y2213D01*
X1466Y2217D01*
X1464Y2217D01*
X1464Y2221D01*
X1462Y2221D01*
X1462Y2225D01*
X1460Y2225D01*
X1460Y2229D01*
X1458Y2229D01*
X1458Y2233D01*
X1456Y2233D01*
X1456Y2237D01*
X1454Y2237D01*
X1454Y2241D01*
X1452Y2241D01*
X1452Y2245D01*
X1450Y2245D01*
X1450Y2249D01*
X1448Y2249D01*
X1448Y2253D01*
X1446Y2253D01*
X1446Y2257D01*
X1444Y2257D01*
X1444Y2263D01*
X1442Y2263D01*
X1442Y2267D01*
X1440Y2267D01*
X1440Y2271D01*
X1438Y2271D01*
X1438Y2275D01*
X1436Y2275D01*
X1436Y2279D01*
X1434Y2279D01*
X1434Y2283D01*
X1432Y2283D01*
X1432Y2287D01*
X1430Y2287D01*
X1430Y2291D01*
X1428Y2291D01*
X1428Y2295D01*
X1426Y2295D01*
X1426Y2299D01*
X1424Y2299D01*
X1424Y2303D01*
X1422Y2303D01*
X1422Y2307D01*
X1420Y2307D01*
X1420Y2311D01*
X1418Y2311D01*
X1418Y2315D01*
X1416Y2315D01*
X1416Y2319D01*
X1414Y2319D01*
X1414Y2325D01*
X1412Y2325D01*
X1412Y2329D01*
X1410Y2329D01*
X1410Y2333D01*
X1408Y2333D01*
X1408Y2337D01*
X1406Y2337D01*
X1406Y2341D01*
X1404Y2341D01*
X1404Y2345D01*
X1402Y2345D01*
X1402Y2349D01*
X1400Y2349D01*
X1400Y2353D01*
X1398Y2353D01*
X1398Y2357D01*
X1396Y2357D01*
X1396Y2361D01*
X1394Y2361D01*
X1394Y2365D01*
X1392Y2365D01*
X1392Y2369D01*
X1390Y2369D01*
X1390Y2373D01*
X1388Y2373D01*
X1388Y2377D01*
X1386Y2377D01*
X1386Y2381D01*
X1384Y2381D01*
X1384Y2387D01*
X1382Y2387D01*
X1382Y2391D01*
X1380Y2391D01*
X1380Y2395D01*
X1378Y2395D01*
X1378Y2399D01*
X1376Y2399D01*
X1376Y2403D01*
X1374Y2403D01*
X1374Y2407D01*
X1372Y2407D01*
X1372Y2411D01*
X1370Y2411D01*
X1370Y2415D01*
X1368Y2415D01*
X1368Y2419D01*
X1366Y2419D01*
X1366Y2423D01*
X1364Y2423D01*
X1364Y2427D01*
X1362Y2427D01*
X1362Y2431D01*
X1360Y2431D01*
X1360Y2435D01*
X1358Y2435D01*
X1358Y2439D01*
X1356Y2439D01*
X1356Y2443D01*
X1354Y2443D01*
X1354Y2449D01*
X1352Y2449D01*
X1352Y2453D01*
X1350Y2453D01*
X1350Y2457D01*
X1348Y2457D01*
X1348Y2461D01*
X1346Y2461D01*
X1346Y2465D01*
X1344Y2465D01*
X1344Y2469D01*
X1342Y2469D01*
X1342Y2473D01*
X1340Y2473D01*
X1340Y2477D01*
X1338Y2477D01*
X1338Y2481D01*
X1336Y2481D01*
X1336Y2485D01*
X1334Y2485D01*
X1334Y2489D01*
X1332Y2489D01*
X1332Y2493D01*
X1330Y2493D01*
X1330Y2497D01*
X1328Y2497D01*
X1328Y2501D01*
X1326Y2501D01*
X1326Y2505D01*
X1324Y2505D01*
X1324Y2511D01*
X1322Y2511D01*
X1322Y2515D01*
X1320Y2515D01*
X1320Y2519D01*
X1318Y2519D01*
X1318Y2523D01*
X1316Y2523D01*
X1316Y2527D01*
X1314Y2527D01*
X1314Y2531D01*
X1312Y2531D01*
X1312Y2535D01*
X1310Y2535D01*
X1310Y2539D01*
X1308Y2539D01*
X1308Y2543D01*
X1306Y2543D01*
X1306Y2547D01*
X1304Y2547D01*
X1304Y2551D01*
X1302Y2551D01*
X1302Y2555D01*
X1300Y2555D01*
X1300Y2559D01*
X1298Y2559D01*
X1298Y2563D01*
X1296Y2563D01*
X1296Y2567D01*
X1294Y2567D01*
X1294Y2573D01*
X1292Y2573D01*
X1292Y2577D01*
X1290Y2577D01*
X1290Y2581D01*
X1288Y2581D01*
X1288Y2585D01*
X1286Y2585D01*
X1286Y2589D01*
X1284Y2589D01*
X1284Y2593D01*
X1282Y2593D01*
X1282Y2597D01*
X1280Y2597D01*
X1280Y2601D01*
X1278Y2601D01*
X1278Y2605D01*
X1276Y2605D01*
X1276Y2609D01*
X1274Y2609D01*
X1274Y2613D01*
X1272Y2613D01*
X1272Y2617D01*
X1270Y2617D01*
X1270Y2621D01*
X1268Y2621D01*
X1268Y2625D01*
X1266Y2625D01*
X1266Y2629D01*
X1264Y2629D01*
X1264Y2635D01*
X1262Y2635D01*
X1262Y2639D01*
X1260Y2639D01*
X1260Y2643D01*
X1258Y2643D01*
X1258Y2647D01*
X1256Y2647D01*
X1256Y2651D01*
X1254Y2651D01*
X1254Y2655D01*
X1252Y2655D01*
X1252Y2659D01*
X1250Y2659D01*
X1250Y2663D01*
X1248Y2663D01*
X1248Y2667D01*
X1246Y2667D01*
X1246Y2671D01*
X1244Y2671D01*
X1244Y2675D01*
X1242Y2675D01*
X1242Y2679D01*
X1240Y2679D01*
X1240Y2683D01*
X1238Y2683D01*
X1238Y2687D01*
X1236Y2687D01*
X1236Y2691D01*
X1234Y2691D01*
X1234Y2697D01*
X1232Y2697D01*
X1232Y2701D01*
X1230Y2701D01*
X1230Y2705D01*
X1228Y2705D01*
X1228Y2709D01*
X1226Y2709D01*
X1226Y2713D01*
X1224Y2713D01*
X1224Y2717D01*
X1222Y2717D01*
X1222Y2721D01*
X1220Y2721D01*
X1220Y2725D01*
X1218Y2725D01*
X1218Y2729D01*
X1216Y2729D01*
X1216Y2733D01*
X1214Y2733D01*
X1214Y2737D01*
X1212Y2737D01*
X1212Y2741D01*
X1210Y2741D01*
X1210Y2745D01*
X1208Y2745D01*
X1208Y2749D01*
X1206Y2749D01*
X1206Y2753D01*
X1204Y2753D01*
X1204Y2759D01*
X1202Y2759D01*
X1202Y2763D01*
X1200Y2763D01*
X1200Y2767D01*
X1198Y2767D01*
X1198Y2771D01*
X1196Y2771D01*
X1196Y2775D01*
X1194Y2775D01*
X1194Y2779D01*
X1192Y2779D01*
X1192Y2783D01*
X1190Y2783D01*
X1190Y2787D01*
X1188Y2787D01*
X1188Y2791D01*
X1186Y2791D01*
X1186Y2795D01*
X1184Y2795D01*
X1184Y2799D01*
X1182Y2799D01*
X1182Y2803D01*
X1180Y2803D01*
X1180Y2807D01*
X1178Y2807D01*
X1178Y2811D01*
X1176Y2811D01*
X1176Y2815D01*
X1174Y2815D01*
X1174Y2821D01*
X1172Y2821D01*
X1172Y2825D01*
X1170Y2825D01*
X1170Y2829D01*
X1168Y2829D01*
X1168Y2833D01*
X1166Y2833D01*
X1166Y2837D01*
X1164Y2837D01*
X1164Y2841D01*
X1162Y2841D01*
X1162Y2845D01*
X1160Y2845D01*
X1160Y2849D01*
X1158Y2849D01*
X1158Y2853D01*
X1156Y2853D01*
X1156Y2857D01*
X1154Y2857D01*
X1154Y2861D01*
X1152Y2861D01*
X1152Y2865D01*
X1150Y2865D01*
X1150Y2869D01*
X1148Y2869D01*
X1148Y2873D01*
X1146Y2873D01*
X1146Y2877D01*
X1144Y2877D01*
X1144Y2883D01*
X1142Y2883D01*
X1142Y2887D01*
X1140Y2887D01*
X1140Y2891D01*
X1138Y2891D01*
X1138Y2895D01*
X1136Y2895D01*
X1136Y2899D01*
X1134Y2899D01*
X1134Y2903D01*
X1132Y2903D01*
X1132Y2907D01*
X1130Y2907D01*
X1130Y2911D01*
X1128Y2911D01*
X1128Y2915D01*
X1126Y2915D01*
X1126Y2919D01*
X1124Y2919D01*
X1124Y2923D01*
X1122Y2923D01*
X1122Y2927D01*
X1120Y2927D01*
X1120Y2931D01*
X1056Y2931D01*
G37*
D02*
G36*
X1056Y2791D02*
X1056Y547D01*
X1054Y547D01*
X1054Y543D01*
X1052Y543D01*
X1052Y541D01*
X1050Y541D01*
X1050Y539D01*
X1048Y539D01*
X1048Y537D01*
X1046Y537D01*
X1046Y535D01*
X1044Y535D01*
X1044Y533D01*
X1042Y533D01*
X1042Y531D01*
X1040Y531D01*
X1040Y529D01*
X1038Y529D01*
X1038Y527D01*
X1036Y527D01*
X1036Y525D01*
X1034Y525D01*
X1034Y523D01*
X1032Y523D01*
X1032Y521D01*
X1030Y521D01*
X1030Y519D01*
X1028Y519D01*
X1028Y517D01*
X1026Y517D01*
X1026Y515D01*
X1024Y515D01*
X1024Y513D01*
X1022Y513D01*
X1022Y511D01*
X1020Y511D01*
X1020Y509D01*
X1018Y509D01*
X1018Y507D01*
X1016Y507D01*
X1016Y505D01*
X1014Y505D01*
X1014Y503D01*
X1012Y503D01*
X1012Y501D01*
X1010Y501D01*
X1010Y499D01*
X1008Y499D01*
X1008Y497D01*
X1006Y497D01*
X1006Y495D01*
X1004Y495D01*
X1004Y493D01*
X1002Y493D01*
X1002Y491D01*
X1000Y491D01*
X1000Y489D01*
X998Y489D01*
X998Y487D01*
X996Y487D01*
X996Y485D01*
X994Y485D01*
X994Y483D01*
X992Y483D01*
X992Y481D01*
X990Y481D01*
X990Y479D01*
X988Y479D01*
X988Y477D01*
X986Y477D01*
X986Y475D01*
X984Y475D01*
X984Y473D01*
X982Y473D01*
X982Y471D01*
X980Y471D01*
X980Y469D01*
X978Y469D01*
X978Y467D01*
X976Y467D01*
X976Y465D01*
X974Y465D01*
X974Y463D01*
X972Y463D01*
X972Y461D01*
X970Y461D01*
X970Y459D01*
X968Y459D01*
X968Y457D01*
X966Y457D01*
X966Y455D01*
X964Y455D01*
X964Y453D01*
X962Y453D01*
X962Y451D01*
X960Y451D01*
X960Y449D01*
X958Y449D01*
X958Y447D01*
X956Y447D01*
X956Y445D01*
X954Y445D01*
X954Y443D01*
X952Y443D01*
X952Y441D01*
X950Y441D01*
X950Y439D01*
X948Y439D01*
X948Y437D01*
X946Y437D01*
X946Y435D01*
X944Y435D01*
X944Y433D01*
X942Y433D01*
X942Y431D01*
X940Y431D01*
X940Y429D01*
X936Y429D01*
X936Y427D01*
X934Y427D01*
X934Y425D01*
X932Y425D01*
X932Y423D01*
X930Y423D01*
X930Y421D01*
X928Y421D01*
X928Y419D01*
X926Y419D01*
X926Y417D01*
X924Y417D01*
X924Y415D01*
X922Y415D01*
X922Y413D01*
X920Y413D01*
X920Y411D01*
X918Y411D01*
X918Y409D01*
X916Y409D01*
X916Y407D01*
X914Y407D01*
X914Y405D01*
X912Y405D01*
X912Y403D01*
X910Y403D01*
X910Y401D01*
X908Y401D01*
X908Y399D01*
X906Y399D01*
X906Y397D01*
X904Y397D01*
X904Y395D01*
X902Y395D01*
X902Y393D01*
X900Y393D01*
X900Y391D01*
X898Y391D01*
X898Y389D01*
X896Y389D01*
X896Y387D01*
X894Y387D01*
X894Y385D01*
X892Y385D01*
X892Y383D01*
X890Y383D01*
X890Y381D01*
X888Y381D01*
X888Y379D01*
X886Y379D01*
X886Y377D01*
X884Y377D01*
X884Y375D01*
X882Y375D01*
X882Y373D01*
X880Y373D01*
X880Y371D01*
X878Y371D01*
X878Y369D01*
X876Y369D01*
X876Y367D01*
X874Y367D01*
X874Y315D01*
X872Y315D01*
X872Y313D01*
X836Y313D01*
X836Y311D01*
X834Y311D01*
X834Y307D01*
X832Y307D01*
X832Y303D01*
X830Y303D01*
X830Y299D01*
X828Y299D01*
X828Y295D01*
X826Y295D01*
X826Y291D01*
X824Y291D01*
X824Y287D01*
X822Y287D01*
X822Y283D01*
X820Y283D01*
X820Y279D01*
X818Y279D01*
X818Y275D01*
X816Y275D01*
X816Y271D01*
X814Y271D01*
X814Y267D01*
X812Y267D01*
X812Y263D01*
X810Y263D01*
X810Y259D01*
X808Y259D01*
X808Y255D01*
X806Y255D01*
X806Y251D01*
X804Y251D01*
X804Y247D01*
X802Y247D01*
X802Y243D01*
X800Y243D01*
X800Y239D01*
X798Y239D01*
X798Y235D01*
X796Y235D01*
X796Y231D01*
X794Y231D01*
X794Y227D01*
X792Y227D01*
X792Y223D01*
X790Y223D01*
X790Y219D01*
X788Y219D01*
X788Y215D01*
X786Y215D01*
X786Y211D01*
X784Y211D01*
X784Y207D01*
X782Y207D01*
X782Y203D01*
X780Y203D01*
X780Y199D01*
X778Y199D01*
X778Y195D01*
X776Y195D01*
X776Y191D01*
X774Y191D01*
X774Y187D01*
X772Y187D01*
X772Y183D01*
X770Y183D01*
X770Y179D01*
X768Y179D01*
X768Y175D01*
X766Y175D01*
X766Y171D01*
X764Y171D01*
X764Y167D01*
X762Y167D01*
X762Y163D01*
X760Y163D01*
X760Y159D01*
X758Y159D01*
X758Y155D01*
X756Y155D01*
X756Y151D01*
X754Y151D01*
X754Y147D01*
X752Y147D01*
X752Y143D01*
X750Y143D01*
X750Y141D01*
X748Y141D01*
X748Y139D01*
X746Y139D01*
X746Y137D01*
X744Y137D01*
X744Y135D01*
X740Y135D01*
X740Y133D01*
X176Y133D01*
X176Y129D01*
X174Y129D01*
X174Y127D01*
X172Y127D01*
X172Y125D01*
X170Y125D01*
X170Y121D01*
X168Y121D01*
X168Y119D01*
X164Y119D01*
X164Y117D01*
X162Y117D01*
X162Y115D01*
X160Y115D01*
X160Y113D01*
X156Y113D01*
X156Y111D01*
X152Y111D01*
X152Y109D01*
X146Y109D01*
X146Y107D01*
X1400Y107D01*
X1400Y109D01*
X1402Y109D01*
X1402Y111D01*
X1404Y111D01*
X1404Y113D01*
X1406Y113D01*
X1406Y115D01*
X1408Y115D01*
X1408Y117D01*
X1410Y117D01*
X1410Y119D01*
X1412Y119D01*
X1412Y121D01*
X1414Y121D01*
X1414Y125D01*
X1416Y125D01*
X1416Y127D01*
X1418Y127D01*
X1418Y131D01*
X1420Y131D01*
X1420Y133D01*
X1422Y133D01*
X1422Y137D01*
X1424Y137D01*
X1424Y141D01*
X1426Y141D01*
X1426Y145D01*
X1428Y145D01*
X1428Y151D01*
X1430Y151D01*
X1430Y155D01*
X1432Y155D01*
X1432Y161D01*
X1434Y161D01*
X1434Y169D01*
X1436Y169D01*
X1436Y177D01*
X1438Y177D01*
X1438Y185D01*
X1440Y185D01*
X1440Y197D01*
X1442Y197D01*
X1442Y235D01*
X1440Y235D01*
X1440Y251D01*
X1438Y251D01*
X1438Y261D01*
X1436Y261D01*
X1436Y273D01*
X1434Y273D01*
X1434Y283D01*
X1432Y283D01*
X1432Y289D01*
X1430Y289D01*
X1430Y297D01*
X1428Y297D01*
X1428Y305D01*
X1426Y305D01*
X1426Y313D01*
X1424Y313D01*
X1424Y319D01*
X1422Y319D01*
X1422Y325D01*
X1420Y325D01*
X1420Y331D01*
X1418Y331D01*
X1418Y337D01*
X1416Y337D01*
X1416Y343D01*
X1414Y343D01*
X1414Y347D01*
X1412Y347D01*
X1412Y353D01*
X1410Y353D01*
X1410Y359D01*
X1408Y359D01*
X1408Y363D01*
X1406Y363D01*
X1406Y367D01*
X1404Y367D01*
X1404Y373D01*
X1402Y373D01*
X1402Y377D01*
X1400Y377D01*
X1400Y381D01*
X1398Y381D01*
X1398Y385D01*
X1100Y385D01*
X1100Y409D01*
X1098Y409D01*
X1098Y473D01*
X1096Y473D01*
X1096Y567D01*
X1094Y567D01*
X1094Y677D01*
X1092Y677D01*
X1092Y843D01*
X1090Y843D01*
X1090Y1077D01*
X1088Y1077D01*
X1088Y1437D01*
X1086Y1437D01*
X1086Y2405D01*
X1084Y2405D01*
X1084Y2791D01*
X1056Y2791D01*
G37*
D02*
G36*
X82Y119D02*
X82Y115D01*
X84Y115D01*
X84Y111D01*
X86Y111D01*
X86Y107D01*
X122Y107D01*
X122Y109D01*
X116Y109D01*
X116Y111D01*
X112Y111D01*
X112Y113D01*
X108Y113D01*
X108Y115D01*
X104Y115D01*
X104Y117D01*
X102Y117D01*
X102Y119D01*
X82Y119D01*
G37*
D02*
G36*
X86Y107D02*
X86Y105D01*
X1398Y105D01*
X1398Y107D01*
X86Y107D01*
G37*
D02*
G36*
X86Y107D02*
X86Y105D01*
X1398Y105D01*
X1398Y107D01*
X86Y107D01*
G37*
D02*
G36*
X88Y105D02*
X88Y99D01*
X90Y99D01*
X90Y93D01*
X92Y93D01*
X92Y89D01*
X94Y89D01*
X94Y83D01*
X96Y83D01*
X96Y79D01*
X98Y79D01*
X98Y75D01*
X1318Y75D01*
X1318Y77D01*
X1334Y77D01*
X1334Y79D01*
X1344Y79D01*
X1344Y81D01*
X1352Y81D01*
X1352Y83D01*
X1358Y83D01*
X1358Y85D01*
X1364Y85D01*
X1364Y87D01*
X1368Y87D01*
X1368Y89D01*
X1374Y89D01*
X1374Y91D01*
X1378Y91D01*
X1378Y93D01*
X1380Y93D01*
X1380Y95D01*
X1384Y95D01*
X1384Y97D01*
X1388Y97D01*
X1388Y99D01*
X1390Y99D01*
X1390Y101D01*
X1392Y101D01*
X1392Y103D01*
X1396Y103D01*
X1396Y105D01*
X88Y105D01*
G37*
D02*
G36*
X3457Y309D02*
X3502Y309D01*
X3502Y277D01*
X3457Y277D01*
X3457Y309D01*
G37*
D02*
G36*
X3430Y280D02*
X3460Y280D01*
X3460Y235D01*
X3430Y235D01*
X3430Y280D01*
G37*
D02*
G36*
X3498Y280D02*
X3532Y280D01*
X3532Y235D01*
X3498Y235D01*
X3498Y280D01*
G37*
D02*
G36*
X660Y807D02*
X703Y807D01*
X703Y775D01*
X660Y775D01*
X660Y807D01*
G37*
D02*
G36*
X660Y741D02*
X703Y741D01*
X703Y707D01*
X660Y707D01*
X660Y741D01*
G37*
D02*
G36*
X632Y779D02*
X664Y779D01*
X664Y736D01*
X632Y736D01*
X632Y779D01*
G37*
D02*
G36*
X2452Y1277D02*
X2511Y1277D01*
X2511Y1235D01*
X2452Y1235D01*
X2452Y1277D01*
G37*
D02*
G36*
X2452Y1201D02*
X2511Y1201D01*
X2511Y1159D01*
X2452Y1159D01*
X2452Y1201D01*
G37*
D02*
G36*
X2498Y1247D02*
X2540Y1247D01*
X2540Y1188D01*
X2498Y1188D01*
X2498Y1247D01*
G37*
D02*
G36*
X810Y3007D02*
X853Y3007D01*
X853Y2975D01*
X810Y2975D01*
X810Y3007D01*
G37*
D02*
G36*
X810Y2941D02*
X853Y2941D01*
X853Y2907D01*
X810Y2907D01*
X810Y2941D01*
G37*
D02*
G36*
X848Y2979D02*
X882Y2979D01*
X882Y2936D01*
X848Y2936D01*
X848Y2979D01*
G37*
D02*
G36*
X3160Y757D02*
X3203Y757D01*
X3203Y725D01*
X3160Y725D01*
X3160Y757D01*
G37*
D02*
G36*
X3160Y691D02*
X3203Y691D01*
X3203Y657D01*
X3160Y657D01*
X3160Y691D01*
G37*
D02*
G36*
X3132Y729D02*
X3164Y729D01*
X3164Y686D01*
X3132Y686D01*
X3132Y729D01*
G37*
D02*
G36*
X3310Y2907D02*
X3353Y2907D01*
X3353Y2875D01*
X3310Y2875D01*
X3310Y2907D01*
G37*
D02*
G36*
X3310Y2841D02*
X3353Y2841D01*
X3353Y2807D01*
X3310Y2807D01*
X3310Y2841D01*
G37*
D02*
G36*
X3348Y2879D02*
X3382Y2879D01*
X3382Y2836D01*
X3348Y2836D01*
X3348Y2879D01*
G37*
D02*
G36*
X109Y309D02*
X154Y309D01*
X154Y277D01*
X109Y277D01*
X109Y309D01*
G37*
D02*
G36*
X80Y280D02*
X112Y280D01*
X112Y235D01*
X80Y235D01*
X80Y280D01*
G37*
D02*
G36*
X150Y280D02*
X182Y280D01*
X182Y235D01*
X150Y235D01*
X150Y280D01*
G37*
D02*
G36*
X1552Y2877D02*
X1611Y2877D01*
X1611Y2835D01*
X1552Y2835D01*
X1552Y2877D01*
G37*
D02*
G36*
X1598Y2847D02*
X1640Y2847D01*
X1640Y2788D01*
X1598Y2788D01*
X1598Y2847D01*
G37*
D02*
G54D15*
X1359Y3082D02*
X1312Y3082D01*
X1312Y3129D01*
X1359Y3129D01*
X1359Y3082D01*
D02*
X3259Y3632D02*
X3212Y3632D01*
X3212Y3679D01*
X3259Y3679D01*
X3259Y3632D01*
D02*
X3308Y2579D02*
X3356Y2579D01*
X3356Y2532D01*
X3308Y2532D01*
X3308Y2579D01*
D02*
X3308Y1529D02*
X3356Y1529D01*
X3356Y1482D01*
X3308Y1482D01*
X3308Y1529D01*
D02*
X3308Y429D02*
X3356Y429D01*
X3356Y382D01*
X3308Y382D01*
X3308Y429D01*
D02*
X2659Y682D02*
X2612Y682D01*
X2612Y729D01*
X2659Y729D01*
X2659Y682D01*
D02*
X2209Y1482D02*
X2162Y1482D01*
X2162Y1529D01*
X2209Y1529D01*
X2209Y1482D01*
D02*
X1804Y2232D02*
X1757Y2232D01*
X1757Y2279D01*
X1804Y2279D01*
X1804Y2232D01*
D02*
X759Y3582D02*
X712Y3582D01*
X712Y3629D01*
X759Y3629D01*
X759Y3582D01*
D02*
X808Y1479D02*
X856Y1479D01*
X856Y1432D01*
X808Y1432D01*
X808Y1479D01*
D02*
G04 End of Copper0*
M02*