; NON-PLATED HOLES START AT T1
; THROUGH (PLATED) HOLES START AT T100
M48
INCH
T100C0.031497
T101C0.035000
T102C0.038000
%
T100
X013352Y031053
X008321Y025053
X027336Y007053
X007336Y025053
X018792Y022553
X008336Y036054
X033321Y015053
X032336Y015053
X021852Y015054
X008321Y014554
X007336Y014554
X014336Y031053
X007352Y036054
X022836Y015054
X032352Y036554
X033321Y004053
X032336Y004053
X017808Y022553
X008321Y003553
X033321Y025553
X007336Y003553
X032336Y025553
X033336Y036554
X026352Y007053
T101
X006836Y007553
X033336Y031553
X033336Y028553
X015836Y028152
X024836Y012151
X008336Y032553
X008336Y029553
X026336Y009553
X031836Y010053
X006836Y010553
X031836Y007053
X017336Y025553
T102
X034836Y002553
X001336Y001553
X034836Y001553
X001336Y002553
T00
M30
