; NON-PLATED HOLES START AT T1
; THROUGH (PLATED) HOLES START AT T100
M48
INCH
T100C0.031497
T101C0.035000
T102C0.038000
%
T100
X007680Y003072
X032680Y025073
X021211Y014573
X006696Y014073
X007680Y024573
X032680Y014572
X018151Y022073
X031696Y003572
X031711Y036073
X017167Y022073
X025711Y006572
X006711Y035573
X022196Y014573
X013696Y030573
X007680Y014073
X006696Y003072
X031696Y025073
X032696Y036073
X012711Y030573
X032680Y003572
X026696Y006572
X006696Y024573
X007696Y035573
X031696Y014572
T101
X015196Y027671
X031196Y009573
X016696Y025073
X024196Y011671
X032696Y031073
X006196Y010073
X032696Y028073
X006196Y007073
X007696Y032073
X031196Y006573
X025696Y009073
X007696Y029073
T102
X001196Y001073
X034196Y001073
X001196Y002073
X034196Y002073
T00
M30
