G04 MADE WITH FRITZING*
G04 WWW.FRITZING.ORG*
G04 DOUBLE SIDED*
G04 HOLES PLATED*
G04 CONTOUR ON CENTER OF CONTOUR VECTOR*
%ASAXBY*%
%FSLAX23Y23*%
%MOIN*%
%OFA0B0*%
%SFA1.0B1.0*%
%ADD10C,0.008*%
%LNCONTOUR*%
G90*
G70*
G54D10*
X2680Y3931D02*
X2681Y3931D01*
X2682Y3931D01*
X2683Y3931D01*
X2684Y3931D01*
X2685Y3931D01*
X2686Y3931D01*
X2687Y3931D01*
X2688Y3931D01*
X2689Y3931D01*
X2690Y3931D01*
X2691Y3931D01*
X2692Y3931D01*
X2693Y3931D01*
X2694Y3931D01*
X2695Y3931D01*
X2696Y3931D01*
X2697Y3931D01*
X2698Y3931D01*
X2699Y3931D01*
X2700Y3931D01*
X2701Y3931D01*
X2702Y3931D01*
X2703Y3931D01*
X2704Y3931D01*
X2705Y3931D01*
X2706Y3931D01*
X2707Y3931D01*
X2708Y3931D01*
X2709Y3931D01*
X2710Y3931D01*
X2711Y3931D01*
X2712Y3931D01*
X2713Y3931D01*
X2714Y3931D01*
X2715Y3931D01*
X2716Y3931D01*
X2717Y3931D01*
X2718Y3931D01*
X2719Y3931D01*
X2720Y3931D01*
X2721Y3931D01*
X2722Y3931D01*
X2723Y3931D01*
X2724Y3931D01*
X2725Y3931D01*
X2726Y3931D01*
X2727Y3931D01*
X2728Y3931D01*
X2729Y3931D01*
X2730Y3931D01*
X2731Y3931D01*
X2732Y3931D01*
X2733Y3931D01*
X2734Y3931D01*
X2735Y3931D01*
X2736Y3931D01*
X2737Y3931D01*
X2738Y3931D01*
X2739Y3931D01*
X2740Y3931D01*
X2741Y3931D01*
X2742Y3931D01*
X2743Y3931D01*
X2744Y3931D01*
X2745Y3931D01*
X2746Y3931D01*
X2747Y3931D01*
X2748Y3931D01*
X2749Y3931D01*
X2750Y3931D01*
X2751Y3931D01*
X2752Y3931D01*
X2753Y3931D01*
X2754Y3931D01*
X2755Y3931D01*
X2756Y3931D01*
X2757Y3931D01*
X2758Y3931D01*
X2759Y3931D01*
X2760Y3931D01*
X2761Y3931D01*
X2762Y3931D01*
X2763Y3931D01*
X2764Y3931D01*
X2765Y3931D01*
X2766Y3931D01*
X2767Y3931D01*
X2768Y3931D01*
X2769Y3931D01*
X2770Y3931D01*
X2771Y3931D01*
X2772Y3931D01*
X2773Y3931D01*
X2774Y3931D01*
X2775Y3931D01*
X2776Y3931D01*
X2777Y3931D01*
X2778Y3931D01*
X2779Y3931D01*
X2780Y3931D01*
X2781Y3931D01*
X2782Y3931D01*
X2783Y3931D01*
X2784Y3931D01*
X2785Y3931D01*
X2786Y3931D01*
X2787Y3931D01*
X2788Y3931D01*
X2789Y3931D01*
X2790Y3931D01*
X2791Y3931D01*
X2792Y3931D01*
X2793Y3931D01*
X2794Y3931D01*
X2795Y3931D01*
X2796Y3931D01*
X2797Y3931D01*
X2798Y3931D01*
X2799Y3931D01*
X2800Y3931D01*
X2801Y3931D01*
X2802Y3931D01*
X2803Y3931D01*
X2804Y3931D01*
X2805Y3931D01*
X2806Y3931D01*
X2807Y3931D01*
X2808Y3931D01*
X2809Y3931D01*
X2810Y3931D01*
X2811Y3931D01*
X2812Y3931D01*
X2813Y3931D01*
X2814Y3931D01*
X2815Y3931D01*
X2816Y3931D01*
X2817Y3931D01*
X2818Y3931D01*
X2819Y3931D01*
X2820Y3931D01*
X2821Y3931D01*
X2822Y3931D01*
X2823Y3931D01*
X2824Y3931D01*
X2825Y3931D01*
X2826Y3931D01*
X2827Y3931D01*
X2828Y3931D01*
X2829Y3931D01*
X2830Y3931D01*
X2831Y3931D01*
X2832Y3931D01*
X2833Y3931D01*
X2834Y3931D01*
X2835Y3931D01*
X2836Y3931D01*
X2837Y3931D01*
X2838Y3931D01*
X2839Y3931D01*
X2840Y3931D01*
X2841Y3931D01*
X2842Y3931D01*
X2843Y3931D01*
X2844Y3931D01*
X2845Y3931D01*
X2846Y3931D01*
X2847Y3931D01*
X2848Y3931D01*
X2849Y3931D01*
X2850Y3931D01*
X2851Y3931D01*
X2852Y3931D01*
X2853Y3931D01*
X2854Y3931D01*
X2855Y3931D01*
X2856Y3931D01*
X2857Y3931D01*
X2858Y3931D01*
X2859Y3931D01*
X2860Y3931D01*
X2861Y3931D01*
X2862Y3931D01*
X2863Y3931D01*
X2864Y3931D01*
X2865Y3931D01*
X2866Y3931D01*
X2867Y3931D01*
X2868Y3931D01*
X2869Y3931D01*
X2870Y3931D01*
X2871Y3931D01*
X2872Y3931D01*
X2873Y3931D01*
X2874Y3931D01*
X2875Y3931D01*
X2876Y3931D01*
X2877Y3931D01*
X2878Y3931D01*
X2879Y3931D01*
X2880Y3931D01*
X2881Y3931D01*
X2882Y3931D01*
X2883Y3931D01*
X2884Y3931D01*
X2885Y3931D01*
X2886Y3931D01*
X2887Y3931D01*
X2888Y3931D01*
X2889Y3931D01*
X2890Y3931D01*
X2891Y3931D01*
X2892Y3931D01*
X2893Y3931D01*
X2894Y3931D01*
X2895Y3931D01*
X2896Y3931D01*
X2897Y3931D01*
X2898Y3931D01*
X2899Y3931D01*
X2900Y3931D01*
X2901Y3931D01*
X2902Y3931D01*
X2903Y3931D01*
X2904Y3931D01*
X2905Y3931D01*
X2906Y3931D01*
X2907Y3931D01*
X2908Y3931D01*
X2909Y3931D01*
X2910Y3931D01*
X2911Y3931D01*
X2912Y3931D01*
X2913Y3931D01*
X2914Y3931D01*
X2915Y3931D01*
X2916Y3931D01*
X2917Y3931D01*
X2918Y3931D01*
X2919Y3931D01*
X2920Y3931D01*
X2921Y3931D01*
X2922Y3931D01*
X2923Y3931D01*
X2924Y3931D01*
X2925Y3931D01*
X2926Y3931D01*
X2927Y3931D01*
X2928Y3931D01*
X2929Y3931D01*
X2930Y3931D01*
X2931Y3931D01*
X2932Y3931D01*
X2933Y3931D01*
X2934Y3931D01*
X2935Y3931D01*
X2936Y3931D01*
X2937Y3931D01*
X2938Y3931D01*
X2939Y3931D01*
X2940Y3931D01*
X2941Y3931D01*
X2942Y3931D01*
X2943Y3931D01*
X2944Y3931D01*
X2945Y3931D01*
X2946Y3931D01*
X2947Y3931D01*
X2948Y3931D01*
X2949Y3931D01*
X2950Y3931D01*
X2951Y3931D01*
X2952Y3931D01*
X2953Y3931D01*
X2954Y3931D01*
X2955Y3931D01*
X2956Y3931D01*
X2957Y3931D01*
X2958Y3931D01*
X2959Y3931D01*
X2960Y3931D01*
X2961Y3931D01*
X2962Y3931D01*
X2963Y3931D01*
X2964Y3931D01*
X2965Y3931D01*
X2966Y3931D01*
X2967Y3931D01*
X2968Y3931D01*
X2969Y3931D01*
X2970Y3931D01*
X2971Y3931D01*
X2972Y3931D01*
X2973Y3931D01*
X2974Y3931D01*
X2975Y3931D01*
X2976Y3931D01*
X2977Y3931D01*
X2978Y3931D01*
X2979Y3931D01*
X2980Y3931D01*
X2981Y3931D01*
X2982Y3931D01*
X2983Y3931D01*
X2984Y3931D01*
X2985Y3931D01*
X2986Y3931D01*
X2987Y3931D01*
X2988Y3931D01*
X2989Y3931D01*
X2990Y3931D01*
X2991Y3931D01*
X2992Y3931D01*
X2993Y3931D01*
X2994Y3931D01*
X2995Y3931D01*
X2996Y3931D01*
X2997Y3931D01*
X2998Y3931D01*
X2999Y3931D01*
X3000Y3931D01*
X3001Y3931D01*
X3002Y3931D01*
X3003Y3931D01*
X3004Y3931D01*
X3005Y3931D01*
X3006Y3931D01*
X3007Y3931D01*
X3008Y3931D01*
X3009Y3931D01*
X3010Y3931D01*
X3011Y3931D01*
X3012Y3931D01*
X3013Y3931D01*
X3014Y3931D01*
X3015Y3931D01*
X3016Y3931D01*
X3017Y3931D01*
X3018Y3931D01*
X3019Y3931D01*
X3020Y3931D01*
X3021Y3931D01*
X3022Y3931D01*
X3023Y3931D01*
X3024Y3931D01*
X3025Y3931D01*
X3026Y3931D01*
X3027Y3931D01*
X3028Y3931D01*
X3029Y3931D01*
X3030Y3931D01*
X3031Y3931D01*
X3032Y3931D01*
X3033Y3931D01*
X3034Y3931D01*
X3035Y3931D01*
X3036Y3931D01*
X3037Y3931D01*
X3038Y3931D01*
X3039Y3931D01*
X3040Y3931D01*
X3041Y3931D01*
X3042Y3931D01*
X3043Y3931D01*
X3044Y3931D01*
X3045Y3931D01*
X3046Y3931D01*
X3047Y3931D01*
X3048Y3931D01*
X3049Y3931D01*
X3050Y3931D01*
X3051Y3931D01*
X3052Y3931D01*
X3053Y3931D01*
X3054Y3931D01*
X3055Y3931D01*
X3056Y3931D01*
X3057Y3931D01*
X3058Y3931D01*
X3059Y3931D01*
X3060Y3931D01*
X3061Y3931D01*
X3062Y3931D01*
X3063Y3931D01*
X3064Y3931D01*
X3065Y3931D01*
X3066Y3931D01*
X3067Y3931D01*
X3068Y3931D01*
X3069Y3931D01*
X3070Y3931D01*
X3071Y3931D01*
X3072Y3931D01*
X3073Y3931D01*
X3074Y3931D01*
X3075Y3931D01*
X3076Y3931D01*
X3077Y3931D01*
X3078Y3931D01*
X3079Y3931D01*
X3080Y3931D01*
X3081Y3931D01*
X3082Y3931D01*
X3083Y3931D01*
X3084Y3931D01*
X3085Y3931D01*
X3086Y3931D01*
X3087Y3931D01*
X3088Y3931D01*
X3089Y3931D01*
X3090Y3931D01*
X3091Y3931D01*
X3092Y3931D01*
X3093Y3931D01*
X3094Y3931D01*
X3095Y3931D01*
X3096Y3931D01*
X3097Y3931D01*
X3098Y3931D01*
X3099Y3931D01*
X3100Y3931D01*
X3101Y3931D01*
X3102Y3931D01*
X3103Y3931D01*
X3104Y3931D01*
X3105Y3931D01*
X3106Y3931D01*
X3107Y3931D01*
X3108Y3931D01*
X3109Y3931D01*
X3110Y3931D01*
X3111Y3931D01*
X3112Y3931D01*
X3113Y3931D01*
X3114Y3931D01*
X3115Y3931D01*
X3116Y3931D01*
X3117Y3931D01*
X3118Y3931D01*
X3119Y3931D01*
X3120Y3931D01*
X3121Y3931D01*
X3122Y3931D01*
X3123Y3931D01*
X3124Y3931D01*
X3125Y3931D01*
X3126Y3931D01*
X3127Y3931D01*
X3128Y3931D01*
X3129Y3931D01*
X3130Y3931D01*
X3131Y3931D01*
X3132Y3931D01*
X3133Y3931D01*
X3134Y3931D01*
X3135Y3931D01*
X3136Y3931D01*
X3137Y3931D01*
X3138Y3931D01*
X3139Y3931D01*
X3140Y3931D01*
X3141Y3931D01*
X3142Y3931D01*
X3143Y3931D01*
X3144Y3931D01*
X3145Y3931D01*
X3146Y3931D01*
X3147Y3931D01*
X3148Y3931D01*
X3149Y3931D01*
X3150Y3931D01*
X3151Y3931D01*
X3152Y3931D01*
X3153Y3931D01*
X3154Y3931D01*
X3155Y3931D01*
X3156Y3931D01*
X3157Y3931D01*
X3158Y3931D01*
X3159Y3931D01*
X3160Y3931D01*
X3161Y3931D01*
X3162Y3931D01*
X3163Y3931D01*
X3164Y3931D01*
X3165Y3931D01*
X3166Y3931D01*
X3167Y3931D01*
X3168Y3931D01*
X3169Y3931D01*
X3170Y3931D01*
X3171Y3931D01*
X3172Y3931D01*
X3173Y3931D01*
X3174Y3931D01*
X3175Y3931D01*
X3176Y3931D01*
X3177Y3931D01*
X3178Y3931D01*
X3179Y3931D01*
X3180Y3931D01*
X3181Y3931D01*
X3182Y3931D01*
X3183Y3931D01*
X3184Y3931D01*
X3185Y3931D01*
X3186Y3931D01*
X3187Y3931D01*
X3188Y3931D01*
X3189Y3931D01*
X3190Y3931D01*
X3191Y3931D01*
X3192Y3931D01*
X3193Y3931D01*
X3194Y3931D01*
X3195Y3931D01*
X3196Y3931D01*
X3197Y3931D01*
X3198Y3931D01*
X3199Y3931D01*
X3200Y3931D01*
X3201Y3931D01*
X3202Y3931D01*
X3203Y3931D01*
X3204Y3931D01*
X3205Y3931D01*
X3206Y3931D01*
X3207Y3931D01*
X3208Y3931D01*
X3209Y3931D01*
X3210Y3931D01*
X3211Y3931D01*
X3212Y3931D01*
X3213Y3931D01*
X3214Y3931D01*
X3215Y3931D01*
X3216Y3931D01*
X3217Y3931D01*
X3218Y3931D01*
X3219Y3931D01*
X3220Y3931D01*
X3221Y3931D01*
X3222Y3931D01*
X3223Y3931D01*
X3224Y3931D01*
X3225Y3931D01*
X3226Y3931D01*
X3227Y3931D01*
X3228Y3931D01*
X3229Y3931D01*
X3230Y3931D01*
X3231Y3931D01*
X3232Y3931D01*
X3233Y3931D01*
X3234Y3931D01*
X3235Y3931D01*
X3236Y3931D01*
X3237Y3931D01*
X3238Y3931D01*
X3239Y3931D01*
X3240Y3931D01*
X3241Y3931D01*
X3242Y3931D01*
X3243Y3931D01*
X3244Y3931D01*
X3245Y3931D01*
X3246Y3931D01*
X3247Y3931D01*
X3248Y3931D01*
X3249Y3931D01*
X3250Y3931D01*
X3251Y3931D01*
X3252Y3931D01*
X3253Y3931D01*
X3254Y3931D01*
X3255Y3931D01*
X3256Y3931D01*
X3257Y3931D01*
X3258Y3931D01*
X3259Y3931D01*
X3260Y3931D01*
X3261Y3931D01*
X3262Y3931D01*
X3263Y3931D01*
X3264Y3931D01*
X3265Y3931D01*
X3266Y3931D01*
X3267Y3931D01*
X3268Y3931D01*
X3269Y3931D01*
X3270Y3931D01*
X3271Y3931D01*
X3272Y3931D01*
X3273Y3931D01*
X3274Y3931D01*
X3275Y3931D01*
X3276Y3931D01*
X3277Y3931D01*
X3278Y3931D01*
X3279Y3931D01*
X3280Y3931D01*
X3281Y3931D01*
X3282Y3931D01*
X3283Y3931D01*
X3284Y3931D01*
X3285Y3931D01*
X3286Y3931D01*
X3287Y3931D01*
X3288Y3931D01*
X3289Y3931D01*
X3290Y3931D01*
X3291Y3931D01*
X3292Y3931D01*
X3293Y3931D01*
X3294Y3931D01*
X3295Y3931D01*
X3296Y3931D01*
X3297Y3931D01*
X3298Y3931D01*
X3299Y3931D01*
X3300Y3931D01*
X3301Y3931D01*
X3302Y3931D01*
X3303Y3931D01*
X3304Y3931D01*
X3305Y3931D01*
X3306Y3931D01*
X3307Y3931D01*
X3308Y3931D01*
X3309Y3931D01*
X3310Y3931D01*
X3311Y3931D01*
X3312Y3931D01*
X3313Y3931D01*
X3314Y3931D01*
X3315Y3931D01*
X3316Y3931D01*
X3317Y3931D01*
X3318Y3931D01*
X3319Y3931D01*
X3320Y3931D01*
X3321Y3931D01*
X3322Y3931D01*
X3323Y3931D01*
X3324Y3931D01*
X3325Y3931D01*
X3326Y3931D01*
X3327Y3931D01*
X3328Y3931D01*
X3329Y3931D01*
X3330Y3931D01*
X3331Y3931D01*
X3332Y3931D01*
X3333Y3931D01*
X3334Y3931D01*
X3335Y3931D01*
X3336Y3931D01*
X3337Y3931D01*
X3338Y3931D01*
X3339Y3931D01*
X3340Y3931D01*
X3341Y3931D01*
X3342Y3931D01*
X3343Y3931D01*
X3344Y3931D01*
X3345Y3931D01*
X3346Y3931D01*
X3347Y3931D01*
X3348Y3931D01*
X3349Y3931D01*
X3350Y3931D01*
X3351Y3931D01*
X3352Y3931D01*
X3353Y3931D01*
X3354Y3931D01*
X3355Y3931D01*
X3356Y3931D01*
X3357Y3931D01*
X3358Y3931D01*
X3359Y3931D01*
X3360Y3931D01*
X3361Y3931D01*
X3362Y3931D01*
X3363Y3931D01*
X3364Y3931D01*
X3365Y3931D01*
X3366Y3931D01*
X3367Y3931D01*
X3368Y3931D01*
X3369Y3931D01*
X3370Y3931D01*
X3371Y3931D01*
X3372Y3931D01*
X3373Y3931D01*
X3374Y3931D01*
X3375Y3931D01*
X3376Y3931D01*
X3377Y3931D01*
X3378Y3931D01*
X3379Y3931D01*
X3380Y3931D01*
X3381Y3931D01*
X3382Y3931D01*
X3383Y3931D01*
X3384Y3931D01*
X3385Y3931D01*
X3386Y3931D01*
X3387Y3931D01*
X3388Y3931D01*
X3389Y3931D01*
X3390Y3931D01*
X3391Y3931D01*
X3392Y3931D01*
X3393Y3931D01*
X3394Y3931D01*
X3395Y3931D01*
X3396Y3931D01*
X3397Y3931D01*
X3398Y3931D01*
X3399Y3931D01*
X3400Y3931D01*
X3401Y3931D01*
X3402Y3931D01*
X3403Y3931D01*
X3404Y3931D01*
X3405Y3931D01*
X3406Y3931D01*
X3407Y3931D01*
X3408Y3931D01*
X3409Y3931D01*
X3410Y3931D01*
X3411Y3931D01*
X3412Y3931D01*
X3413Y3931D01*
X3414Y3931D01*
X3415Y3931D01*
X3416Y3931D01*
X3417Y3931D01*
X3418Y3931D01*
X3419Y3931D01*
X3420Y3931D01*
X3421Y3931D01*
X3422Y3931D01*
X3423Y3931D01*
X3424Y3931D01*
X3425Y3931D01*
X3426Y3931D01*
X3427Y3931D01*
X3428Y3931D01*
X3429Y3931D01*
X3430Y3931D01*
X3431Y3931D01*
X3432Y3931D01*
X3433Y3931D01*
X3434Y3931D01*
X3435Y3931D01*
X3436Y3931D01*
X3437Y3931D01*
X3438Y3931D01*
X3439Y3931D01*
X3440Y3931D01*
X3441Y3931D01*
X3442Y3931D01*
X3443Y3931D01*
X3444Y3931D01*
X3445Y3931D01*
X3446Y3931D01*
X3447Y3931D01*
X3448Y3931D01*
X3449Y3931D01*
X3450Y3931D01*
X3451Y3931D01*
X3452Y3931D01*
X3453Y3931D01*
X3454Y3931D01*
X3455Y3931D01*
X3456Y3931D01*
X3457Y3931D01*
X3458Y3931D01*
X3459Y3931D01*
X3460Y3931D01*
X3461Y3931D01*
X3462Y3931D01*
X3463Y3931D01*
X3464Y3931D01*
X3465Y3931D01*
X3466Y3931D01*
X3467Y3931D01*
X3468Y3931D01*
X3469Y3931D01*
X3470Y3931D01*
X3471Y3931D01*
X3472Y3931D01*
X3473Y3931D01*
X3474Y3931D01*
X3475Y3931D01*
X3476Y3931D01*
X3477Y3931D01*
X3478Y3931D01*
X3479Y3931D01*
X3480Y3931D01*
X3481Y3931D01*
X3482Y3931D01*
X3483Y3931D01*
X3484Y3931D01*
X3485Y3931D01*
X3486Y3931D01*
X3487Y3931D01*
X3488Y3931D01*
X3489Y3931D01*
X3490Y3931D01*
X3491Y3931D01*
X3492Y3931D01*
X3493Y3931D01*
X3494Y3931D01*
X3495Y3931D01*
X3496Y3931D01*
X3497Y3931D01*
X3498Y3931D01*
X3499Y3931D01*
X3500Y3931D01*
X3501Y3931D01*
X3502Y3931D01*
X3503Y3931D01*
X3504Y3931D01*
X3505Y3931D01*
X3506Y3931D01*
X3507Y3931D01*
X3508Y3931D01*
X3509Y3931D01*
X3510Y3931D01*
X3511Y3931D01*
X3512Y3931D01*
X3513Y3931D01*
X3514Y3931D01*
X3515Y3931D01*
X3516Y3931D01*
X3517Y3931D01*
X3518Y3931D01*
X3519Y3931D01*
X3520Y3931D01*
X3521Y3931D01*
X3522Y3931D01*
X3523Y3931D01*
X3524Y3931D01*
X3525Y3931D01*
X3526Y3931D01*
X3527Y3931D01*
X3528Y3931D01*
X3529Y3931D01*
X3530Y3931D01*
X3531Y3931D01*
X3532Y3931D01*
X3533Y3931D01*
X3534Y3931D01*
X3535Y3931D01*
X3536Y3931D01*
X3537Y3931D01*
X3538Y3931D01*
X3539Y3931D01*
X3540Y3931D01*
X3541Y3931D01*
X3542Y3931D01*
X3543Y3931D01*
X3544Y3931D01*
X3545Y3931D01*
X3546Y3931D01*
X3547Y3931D01*
X3548Y3931D01*
X3549Y3931D01*
X3550Y3931D01*
X3551Y3931D01*
X3552Y3931D01*
X3553Y3931D01*
X3554Y3931D01*
X3555Y3931D01*
X3556Y3931D01*
X3557Y3931D01*
X3558Y3931D01*
X3559Y3931D01*
X3560Y3931D01*
X3561Y3931D01*
X3562Y3931D01*
X3563Y3931D01*
X3564Y3931D01*
X3565Y3931D01*
X3566Y3931D01*
X3567Y3931D01*
X3568Y3931D01*
X3569Y3931D01*
X3570Y3931D01*
X3571Y3931D01*
X3572Y3931D01*
X3573Y3931D01*
X3574Y3931D01*
X3575Y3931D01*
X3576Y3931D01*
X3577Y3931D01*
X3578Y3931D01*
X3579Y3931D01*
X3580Y3931D01*
X3581Y3931D01*
X3582Y3931D01*
X3583Y3931D01*
X3584Y3931D01*
X3585Y3931D01*
X3586Y3931D01*
X3587Y3931D01*
X3588Y3931D01*
X3589Y3931D01*
X3590Y3931D01*
X3591Y3931D01*
X3592Y3931D01*
X3593Y3931D01*
X3594Y3931D01*
X3595Y3931D01*
X3596Y3931D01*
X3597Y3931D01*
X3598Y3931D01*
X3599Y3931D01*
X3600Y3931D01*
X3601Y3931D01*
X3602Y3931D01*
X3603Y3931D01*
X3604Y3931D01*
X3605Y3931D01*
X3606Y3931D01*
X3607Y3931D01*
X3608Y3931D01*
X3609Y3931D01*
X3610Y3931D01*
X3611Y3931D01*
X3612Y3931D01*
X3613Y3931D01*
X3614Y3931D01*
X3615Y3931D01*
X3616Y3931D01*
X3617Y3931D01*
X3618Y3931D01*
X3619Y3931D01*
X3620Y3931D01*
X3621Y3931D01*
X3622Y3931D01*
X3623Y3931D01*
X3624Y3931D01*
X3625Y3931D01*
X3626Y3931D01*
X3627Y3931D01*
X3628Y3931D01*
X3629Y3931D01*
X3630Y3931D01*
X3631Y3931D01*
X3632Y3931D01*
X3633Y3931D01*
X3634Y3931D01*
X3635Y3931D01*
X3636Y3931D01*
X3637Y3931D01*
X3638Y3931D01*
X3639Y3931D01*
X3640Y3931D01*
X3641Y3931D01*
X3642Y3931D01*
X3643Y3931D01*
X3644Y3931D01*
X3645Y3931D01*
X3646Y3931D01*
X3647Y3931D01*
X3648Y3931D01*
X3649Y3931D01*
X3650Y3931D01*
X3651Y3931D01*
X3652Y3931D01*
X3653Y3931D01*
X3654Y3931D01*
X3655Y3931D01*
X3656Y3931D01*
X3657Y3931D01*
X3658Y3931D01*
X3659Y3931D01*
X3660Y3931D01*
X3661Y3931D01*
X3662Y3931D01*
X3663Y3931D01*
X3664Y3931D01*
X3665Y3931D01*
X3666Y3931D01*
X3667Y3931D01*
X3668Y3931D01*
X3669Y3931D01*
X3670Y3931D01*
X3671Y3931D01*
X3672Y3931D01*
X3673Y3931D01*
X3674Y3931D01*
X3675Y3931D01*
X3676Y3931D01*
X3677Y3931D01*
X3678Y3931D01*
X3679Y3931D01*
X3680Y3931D01*
X3681Y3931D01*
X3682Y3931D01*
X3683Y3931D01*
X3684Y3931D01*
X3685Y3931D01*
X3686Y3931D01*
X3687Y3931D01*
X3688Y3931D01*
X3689Y3931D01*
X3690Y3931D01*
X3691Y3931D01*
X3692Y3931D01*
X3693Y3931D01*
X3694Y3931D01*
X3695Y3931D01*
X3696Y3931D01*
X3697Y3931D01*
X3698Y3931D01*
X3699Y3931D01*
X3700Y3931D01*
X3701Y3931D01*
X3702Y3931D01*
X3703Y3931D01*
X3704Y3931D01*
X3705Y3931D01*
X3706Y3931D01*
X3707Y3931D01*
X3708Y3931D01*
X3709Y3931D01*
X3710Y3931D01*
X3711Y3931D01*
X3712Y3931D01*
X3713Y3931D01*
X3714Y3931D01*
X3715Y3931D01*
X3716Y3931D01*
X3717Y3931D01*
X3718Y3931D01*
X3719Y3931D01*
X3720Y3931D01*
X3721Y3931D01*
X3722Y3931D01*
X3723Y3931D01*
X3724Y3931D01*
X3725Y3931D01*
X3726Y3931D01*
X3727Y3931D01*
X3728Y3931D01*
X3729Y3931D01*
X3730Y3931D01*
X3731Y3931D01*
X3732Y3931D01*
X3733Y3931D01*
X3734Y3931D01*
X3735Y3931D01*
X3736Y3931D01*
X3737Y3931D01*
X3738Y3931D01*
X3739Y3931D01*
X3740Y3931D01*
X3741Y3931D01*
X3742Y3931D01*
X3743Y3931D01*
X3744Y3931D01*
X3745Y3931D01*
X3746Y3931D01*
X3747Y3931D01*
X3748Y3931D01*
X3749Y3931D01*
X3750Y3931D01*
X3751Y3931D01*
X3752Y3931D01*
X3753Y3931D01*
X3754Y3931D01*
X3755Y3931D01*
X3756Y3931D01*
X3757Y3931D01*
X3758Y3931D01*
X3759Y3931D01*
X3760Y3931D01*
X3761Y3931D01*
X3762Y3931D01*
X3763Y3931D01*
X3764Y3931D01*
X3765Y3931D01*
X3766Y3931D01*
X3767Y3931D01*
X3768Y3931D01*
X3769Y3931D01*
X3770Y3931D01*
X3771Y3931D01*
X3772Y3931D01*
X3773Y3931D01*
X3774Y3931D01*
X3775Y3931D01*
X3776Y3931D01*
X3777Y3931D01*
X3778Y3931D01*
X3779Y3931D01*
X3780Y3931D01*
X3781Y3931D01*
X3782Y3931D01*
X3783Y3931D01*
X3784Y3931D01*
X3785Y3931D01*
X3786Y3931D01*
X3787Y3931D01*
X3788Y3931D01*
X3789Y3931D01*
X3790Y3931D01*
X3791Y3931D01*
X3792Y3931D01*
X3793Y3931D01*
X3794Y3931D01*
X3795Y3931D01*
X3796Y3931D01*
X3797Y3931D01*
X3798Y3931D01*
X3799Y3931D01*
X3800Y3931D01*
X3801Y3931D01*
X3802Y3931D01*
X3803Y3931D01*
X3804Y3931D01*
X3805Y3931D01*
X3806Y3931D01*
X3807Y3931D01*
X3808Y3931D01*
X3809Y3931D01*
X3810Y3931D01*
X3811Y3931D01*
X3812Y3931D01*
X3813Y3931D01*
X3814Y3931D01*
X3815Y3931D01*
X3816Y3931D01*
X3817Y3931D01*
X3818Y3931D01*
X3819Y3931D01*
X3820Y3931D01*
X3821Y3931D01*
X3822Y3931D01*
X3823Y3931D01*
X3824Y3931D01*
X3825Y3931D01*
X3826Y3931D01*
X3827Y3931D01*
X3828Y3931D01*
X3829Y3931D01*
X3830Y3931D01*
X3831Y3931D01*
X3832Y3931D01*
X3833Y3931D01*
X3834Y3931D01*
X3835Y3931D01*
X3836Y3931D01*
X3837Y3931D01*
X3838Y3931D01*
X3839Y3931D01*
X3840Y3931D01*
X3841Y3931D01*
X3842Y3931D01*
X3843Y3931D01*
X3844Y3931D01*
X3845Y3931D01*
X3846Y3931D01*
X3847Y3931D01*
X3848Y3931D01*
X3849Y3931D01*
X3850Y3931D01*
X3851Y3931D01*
X3852Y3931D01*
X3853Y3931D01*
X3854Y3931D01*
X3855Y3931D01*
X3856Y3931D01*
X3857Y3931D01*
X3858Y3931D01*
X3859Y3931D01*
X3860Y3931D01*
X3861Y3931D01*
X3862Y3931D01*
X3863Y3931D01*
X3864Y3931D01*
X3865Y3931D01*
X3866Y3931D01*
X3867Y3931D01*
X3868Y3931D01*
X3869Y3931D01*
X3870Y3931D01*
X3871Y3931D01*
X3872Y3931D01*
X3873Y3931D01*
X3874Y3931D01*
X3875Y3931D01*
X3876Y3931D01*
X3877Y3931D01*
X3878Y3931D01*
X3879Y3931D01*
X3880Y3931D01*
X3881Y3931D01*
X3882Y3931D01*
X3883Y3931D01*
X3884Y3931D01*
X3885Y3931D01*
X3886Y3931D01*
X3887Y3931D01*
X3888Y3931D01*
X3889Y3931D01*
X3890Y3931D01*
X3891Y3931D01*
X3892Y3931D01*
X3893Y3931D01*
X3894Y3931D01*
X3895Y3931D01*
X3896Y3931D01*
X3897Y3931D01*
X3898Y3931D01*
X3899Y3931D01*
X3900Y3931D01*
X3901Y3931D01*
X3902Y3931D01*
X3903Y3931D01*
X3904Y3931D01*
X3905Y3931D01*
X3906Y3931D01*
X3907Y3931D01*
X3908Y3931D01*
X3909Y3931D01*
X3910Y3931D01*
X3911Y3931D01*
X3912Y3931D01*
X3913Y3931D01*
X3914Y3931D01*
X3915Y3931D01*
X3916Y3931D01*
X3917Y3931D01*
X3918Y3931D01*
X3919Y3931D01*
X3920Y3931D01*
X3921Y3931D01*
X3922Y3931D01*
X3923Y3931D01*
X3924Y3931D01*
X3925Y3931D01*
X3926Y3931D01*
X3927Y3931D01*
X3928Y3931D01*
X3929Y3931D01*
X3930Y3931D01*
X3931Y3931D01*
X3932Y3931D01*
X3933Y3931D01*
X3934Y3931D01*
X3935Y3931D01*
X3936Y3931D01*
X3937Y3931D01*
X3938Y3931D01*
X3939Y3931D01*
X3940Y3931D01*
X3941Y3931D01*
X3942Y3931D01*
X3943Y3931D01*
X3944Y3931D01*
X3945Y3931D01*
X3946Y3931D01*
X3947Y3931D01*
X3948Y3931D01*
X3949Y3931D01*
X3950Y3931D01*
X3951Y3931D01*
X3952Y3931D01*
X3953Y3931D01*
X3954Y3931D01*
X3955Y3931D01*
X3956Y3931D01*
X3957Y3931D01*
X3958Y3931D01*
X3959Y3931D01*
X3960Y3931D01*
X3961Y3931D01*
X3962Y3931D01*
X3963Y3931D01*
X3964Y3931D01*
X3965Y3931D01*
X3966Y3931D01*
X3967Y3931D01*
X3968Y3931D01*
X3969Y3931D01*
X3970Y3931D01*
X3971Y3931D01*
X3972Y3931D01*
X3973Y3931D01*
X3974Y3931D01*
X3975Y3931D01*
X3976Y3931D01*
X3977Y3931D01*
X3978Y3931D01*
X3979Y3931D01*
X3980Y3931D01*
X3981Y3931D01*
X3982Y3931D01*
X3982Y3930D01*
X3983Y3929D01*
X3983Y3928D01*
X3984Y3927D01*
X3984Y3925D01*
X3985Y3924D01*
X3985Y3923D01*
X3986Y3922D01*
X3986Y3921D01*
X3987Y3920D01*
X3987Y3919D01*
X3988Y3918D01*
X3988Y3916D01*
X3989Y3915D01*
X3989Y3914D01*
X3990Y3913D01*
X3990Y3912D01*
X3991Y3911D01*
X3991Y3909D01*
X3992Y3908D01*
X3992Y3907D01*
X3993Y3906D01*
X3993Y3904D01*
X3994Y3903D01*
X3994Y3902D01*
X3995Y3901D01*
X3995Y3899D01*
X3996Y3898D01*
X3996Y3897D01*
X3997Y3896D01*
X3997Y3894D01*
X3998Y3893D01*
X3998Y3892D01*
X3999Y3891D01*
X3999Y3889D01*
X4000Y3888D01*
X4000Y3886D01*
X4001Y3885D01*
X4001Y3883D01*
X4002Y3882D01*
X4002Y3880D01*
X4003Y3879D01*
X4003Y3877D01*
X4004Y3876D01*
X4004Y3874D01*
X4005Y3873D01*
X4005Y3871D01*
X4006Y3870D01*
X4006Y3868D01*
X4007Y3867D01*
X4007Y3865D01*
X4008Y3864D01*
X4008Y3862D01*
X4009Y3861D01*
X4009Y3858D01*
X4010Y3857D01*
X4010Y3855D01*
X4011Y3854D01*
X4011Y3852D01*
X4012Y3851D01*
X4012Y3848D01*
X4013Y3847D01*
X4013Y3844D01*
X4014Y3843D01*
X4014Y3840D01*
X4015Y3839D01*
X4015Y3836D01*
X4016Y3835D01*
X4016Y3832D01*
X4017Y3831D01*
X4017Y3828D01*
X4018Y3827D01*
X4018Y3823D01*
X4019Y3822D01*
X4019Y3819D01*
X4020Y3818D01*
X4020Y3814D01*
X4021Y3813D01*
X4021Y3808D01*
X4022Y3807D01*
X4022Y3803D01*
X4023Y3802D01*
X4023Y3797D01*
X4024Y3796D01*
X4024Y3790D01*
X4025Y3789D01*
X4025Y3783D01*
X4026Y3782D01*
X4026Y3775D01*
X4027Y3774D01*
X4027Y3764D01*
X4028Y3763D01*
X4028Y3751D01*
X4029Y3750D01*
X4029Y3688D01*
X4028Y3687D01*
X4028Y3676D01*
X4027Y3675D01*
X4027Y3667D01*
X4026Y3666D01*
X4026Y3660D01*
X4025Y3659D01*
X4025Y3653D01*
X4024Y3652D01*
X4024Y3648D01*
X4023Y3647D01*
X4023Y3643D01*
X4022Y3642D01*
X4022Y3639D01*
X4021Y3638D01*
X4021Y3635D01*
X4020Y3634D01*
X4020Y3631D01*
X4019Y3630D01*
X4019Y3627D01*
X4018Y3626D01*
X4018Y3624D01*
X4017Y3623D01*
X4017Y3621D01*
X4016Y3620D01*
X4016Y3618D01*
X4015Y3617D01*
X4015Y3616D01*
X4014Y3615D01*
X4014Y3613D01*
X4013Y3612D01*
X4013Y3611D01*
X4012Y3610D01*
X4012Y3609D01*
X4011Y3608D01*
X4011Y3607D01*
X4010Y3606D01*
X4010Y3604D01*
X4009Y3603D01*
X4009Y3602D01*
X4008Y3601D01*
X4007Y3600D01*
X4007Y3599D01*
X4006Y3598D01*
X4006Y3597D01*
X4005Y3596D01*
X4005Y3595D01*
X4004Y3594D01*
X4003Y3593D01*
X4003Y3592D01*
X4002Y3591D01*
X4001Y3590D01*
X4000Y3589D01*
X4000Y3588D01*
X3999Y3587D01*
X3998Y3586D01*
X3997Y3585D01*
X3997Y3584D01*
X3996Y3583D01*
X3995Y3582D01*
X3994Y3581D01*
X3993Y3580D01*
X3992Y3579D01*
X3991Y3578D01*
X3990Y3577D01*
X3989Y3576D01*
X3988Y3575D01*
X3987Y3574D01*
X3986Y3574D01*
X3985Y3573D01*
X3984Y3572D01*
X3983Y3571D01*
X3982Y3570D01*
X3981Y3570D01*
X3980Y3569D01*
X3979Y3568D01*
X3978Y3567D01*
X3977Y3567D01*
X3976Y3566D01*
X3975Y3565D01*
X3974Y3565D01*
X3973Y3564D01*
X3972Y3563D01*
X3971Y3563D01*
X3970Y3562D01*
X3969Y3562D01*
X3968Y3561D01*
X3967Y3561D01*
X3966Y3560D01*
X3965Y3559D01*
X3964Y3559D01*
X3963Y3558D01*
X3962Y3558D01*
X3961Y3557D01*
X3960Y3557D01*
X3959Y3556D01*
X3958Y3556D01*
X3957Y3556D01*
X3956Y3555D01*
X3955Y3555D01*
X3954Y3554D01*
X3953Y3554D01*
X3952Y3553D01*
X3951Y3553D01*
X3950Y3553D01*
X3949Y3552D01*
X3948Y3552D01*
X3947Y3552D01*
X3946Y3551D01*
X3945Y3551D01*
X3944Y3551D01*
X3943Y3550D01*
X3942Y3550D01*
X3941Y3550D01*
X3940Y3549D01*
X3939Y3549D01*
X3938Y3549D01*
X3937Y3548D01*
X3936Y3548D01*
X3935Y3548D01*
X3934Y3548D01*
X3933Y3547D01*
X3932Y3547D01*
X3931Y3547D01*
X3930Y3547D01*
X3929Y3546D01*
X3928Y3546D01*
X3927Y3546D01*
X3926Y3546D01*
X3925Y3546D01*
X3924Y3545D01*
X3923Y3545D01*
X3922Y3545D01*
X3921Y3545D01*
X3920Y3545D01*
X3919Y3544D01*
X3918Y3544D01*
X3917Y3544D01*
X3916Y3544D01*
X3915Y3544D01*
X3914Y3544D01*
X3913Y3543D01*
X3912Y3543D01*
X3911Y3543D01*
X3910Y3543D01*
X3909Y3543D01*
X3908Y3543D01*
X3907Y3543D01*
X3906Y3542D01*
X3905Y3542D01*
X3904Y3542D01*
X3903Y3542D01*
X3902Y3542D01*
X3901Y3542D01*
X3900Y3542D01*
X3899Y3542D01*
X3898Y3542D01*
X3897Y3542D01*
X3896Y3541D01*
X3895Y3541D01*
X3894Y3541D01*
X3893Y3541D01*
X3892Y3541D01*
X3891Y3541D01*
X3890Y3541D01*
X3889Y3541D01*
X3888Y3541D01*
X3887Y3541D01*
X3886Y3541D01*
X3885Y3541D01*
X3884Y3541D01*
X3883Y3541D01*
X3882Y3541D01*
X3881Y3541D01*
X3880Y3541D01*
X3879Y3541D01*
X3878Y3541D01*
X3877Y3541D01*
X3876Y3541D01*
X3875Y3541D01*
X3874Y3541D01*
X3873Y3541D01*
X3872Y3541D01*
X3871Y3541D01*
X3870Y3541D01*
X3869Y3541D01*
X3868Y3541D01*
X3867Y3541D01*
X3866Y3541D01*
X3865Y3541D01*
X3864Y3541D01*
X3863Y3541D01*
X3862Y3541D01*
X3861Y3541D01*
X3860Y3541D01*
X3859Y3541D01*
X3858Y3541D01*
X3857Y3541D01*
X3856Y3541D01*
X3855Y3541D01*
X3854Y3541D01*
X3853Y3541D01*
X3852Y3541D01*
X3851Y3541D01*
X3850Y3541D01*
X3849Y3541D01*
X3848Y3541D01*
X3847Y3541D01*
X3846Y3541D01*
X3845Y3541D01*
X3844Y3541D01*
X3843Y3541D01*
X3842Y3541D01*
X3841Y3541D01*
X3840Y3541D01*
X3839Y3541D01*
X3838Y3541D01*
X3837Y3541D01*
X3836Y3541D01*
X3835Y3541D01*
X3834Y3541D01*
X3833Y3541D01*
X3832Y3541D01*
X3831Y3541D01*
X3830Y3541D01*
X3829Y3541D01*
X3828Y3541D01*
X3827Y3541D01*
X3826Y3541D01*
X3825Y3541D01*
X3824Y3541D01*
X3823Y3541D01*
X3822Y3541D01*
X3821Y3541D01*
X3820Y3541D01*
X3819Y3541D01*
X3818Y3541D01*
X3817Y3541D01*
X3816Y3541D01*
X3815Y3541D01*
X3814Y3541D01*
X3813Y3541D01*
X3812Y3541D01*
X3811Y3541D01*
X3810Y3541D01*
X3809Y3541D01*
X3808Y3541D01*
X3807Y3541D01*
X3806Y3541D01*
X3805Y3541D01*
X3804Y3541D01*
X3803Y3541D01*
X3802Y3541D01*
X3801Y3541D01*
X3800Y3541D01*
X3799Y3541D01*
X3798Y3541D01*
X3797Y3541D01*
X3796Y3541D01*
X3795Y3541D01*
X3794Y3541D01*
X3793Y3541D01*
X3792Y3541D01*
X3791Y3541D01*
X3790Y3541D01*
X3789Y3541D01*
X3788Y3541D01*
X3787Y3541D01*
X3786Y3541D01*
X3785Y3541D01*
X3784Y3541D01*
X3783Y3541D01*
X3782Y3541D01*
X3781Y3541D01*
X3780Y3541D01*
X3779Y3541D01*
X3778Y3541D01*
X3777Y3541D01*
X3776Y3541D01*
X3775Y3541D01*
X3774Y3541D01*
X3773Y3541D01*
X3772Y3541D01*
X3771Y3541D01*
X3770Y3541D01*
X3769Y3541D01*
X3768Y3541D01*
X3767Y3541D01*
X3766Y3541D01*
X3765Y3541D01*
X3764Y3541D01*
X3763Y3541D01*
X3762Y3541D01*
X3761Y3541D01*
X3760Y3541D01*
X3759Y3541D01*
X3758Y3541D01*
X3757Y3541D01*
X3756Y3541D01*
X3755Y3541D01*
X3754Y3541D01*
X3753Y3541D01*
X3752Y3541D01*
X3751Y3541D01*
X3750Y3541D01*
X3749Y3541D01*
X3748Y3541D01*
X3747Y3541D01*
X3746Y3541D01*
X3745Y3541D01*
X3744Y3541D01*
X3743Y3541D01*
X3742Y3541D01*
X3741Y3541D01*
X3740Y3541D01*
X3739Y3541D01*
X3738Y3541D01*
X3737Y3541D01*
X3736Y3541D01*
X3735Y3541D01*
X3734Y3541D01*
X3733Y3541D01*
X3732Y3541D01*
X3731Y3541D01*
X3730Y3541D01*
X3729Y3541D01*
X3728Y3541D01*
X3727Y3541D01*
X3726Y3541D01*
X3725Y3541D01*
X3724Y3541D01*
X3723Y3541D01*
X3722Y3541D01*
X3721Y3541D01*
X3720Y3541D01*
X3719Y3541D01*
X3718Y3541D01*
X3717Y3541D01*
X3716Y3541D01*
X3715Y3541D01*
X3714Y3541D01*
X3713Y3541D01*
X3712Y3541D01*
X3711Y3541D01*
X3710Y3541D01*
X3709Y3541D01*
X3708Y3541D01*
X3707Y3541D01*
X3706Y3541D01*
X3705Y3541D01*
X3704Y3541D01*
X3703Y3541D01*
X3702Y3541D01*
X3701Y3541D01*
X3700Y3541D01*
X3699Y3541D01*
X3698Y3541D01*
X3697Y3541D01*
X3696Y3541D01*
X3695Y3541D01*
X3694Y3541D01*
X3693Y3541D01*
X3692Y3541D01*
X3691Y3541D01*
X3690Y3541D01*
X3689Y3541D01*
X3688Y3541D01*
X3687Y3541D01*
X3686Y3541D01*
X3685Y3541D01*
X3684Y3541D01*
X3683Y3541D01*
X3682Y3541D01*
X3681Y3541D01*
X3680Y3541D01*
X3679Y3541D01*
X3678Y3541D01*
X3677Y3541D01*
X3676Y3541D01*
X3675Y3541D01*
X3674Y3541D01*
X3673Y3541D01*
X3672Y3541D01*
X3671Y3541D01*
X3670Y3541D01*
X3669Y3541D01*
X3668Y3541D01*
X3667Y3541D01*
X3666Y3541D01*
X3665Y3541D01*
X3664Y3541D01*
X3663Y3541D01*
X3662Y3541D01*
X3661Y3541D01*
X3660Y3541D01*
X3659Y3541D01*
X3658Y3541D01*
X3657Y3541D01*
X3656Y3541D01*
X3655Y3541D01*
X3654Y3541D01*
X3653Y3541D01*
X3652Y3541D01*
X3651Y3541D01*
X3650Y3541D01*
X3649Y3541D01*
X3648Y3541D01*
X3647Y3541D01*
X3646Y3541D01*
X3645Y3541D01*
X3644Y3541D01*
X3643Y3541D01*
X3642Y3541D01*
X3641Y3541D01*
X3640Y3541D01*
X3639Y3541D01*
X3638Y3541D01*
X3637Y3541D01*
X3636Y3541D01*
X3635Y3541D01*
X3634Y3541D01*
X3633Y3541D01*
X3632Y3541D01*
X3631Y3541D01*
X3630Y3541D01*
X3629Y3541D01*
X3628Y3541D01*
X3627Y3541D01*
X3626Y3541D01*
X3625Y3540D01*
X3625Y3535D01*
X3624Y3534D01*
X3624Y3498D01*
X3623Y3497D01*
X3623Y3461D01*
X3622Y3460D01*
X3622Y3419D01*
X3621Y3418D01*
X3621Y3371D01*
X3620Y3370D01*
X3620Y3322D01*
X3619Y3321D01*
X3619Y3259D01*
X3618Y3258D01*
X3618Y3195D01*
X3617Y3194D01*
X3617Y3112D01*
X3616Y3111D01*
X3616Y3017D01*
X3615Y3016D01*
X3615Y2903D01*
X3614Y2902D01*
X3614Y2729D01*
X3613Y2728D01*
X3613Y402D01*
X3612Y401D01*
X3612Y354D01*
X3611Y353D01*
X3611Y330D01*
X3610Y329D01*
X3610Y313D01*
X3609Y312D01*
X3609Y297D01*
X3608Y296D01*
X3608Y285D01*
X3607Y284D01*
X3607Y273D01*
X3606Y272D01*
X3606Y263D01*
X3605Y262D01*
X3605Y254D01*
X3604Y253D01*
X3604Y245D01*
X3603Y244D01*
X3603Y238D01*
X3602Y237D01*
X3602Y230D01*
X3601Y229D01*
X3601Y223D01*
X3600Y222D01*
X3600Y217D01*
X3599Y216D01*
X3599Y211D01*
X3598Y210D01*
X3598Y205D01*
X3597Y204D01*
X3597Y199D01*
X3596Y198D01*
X3596Y194D01*
X3595Y193D01*
X3595Y189D01*
X3594Y188D01*
X3594Y185D01*
X3593Y184D01*
X3593Y180D01*
X3592Y179D01*
X3592Y176D01*
X3591Y175D01*
X3591Y172D01*
X3590Y171D01*
X3590Y168D01*
X3589Y167D01*
X3589Y163D01*
X3588Y162D01*
X3588Y160D01*
X3587Y159D01*
X3587Y156D01*
X3586Y155D01*
X3586Y153D01*
X3585Y152D01*
X3585Y150D01*
X3584Y149D01*
X3584Y146D01*
X3583Y145D01*
X3583Y143D01*
X3582Y142D01*
X3582Y140D01*
X3581Y139D01*
X3581Y137D01*
X3580Y136D01*
X3580Y134D01*
X3579Y133D01*
X3579Y132D01*
X3578Y131D01*
X3578Y129D01*
X3577Y128D01*
X3577Y126D01*
X3576Y125D01*
X3576Y124D01*
X3575Y123D01*
X3575Y122D01*
X3574Y121D01*
X3574Y119D01*
X3573Y118D01*
X3573Y117D01*
X3572Y116D01*
X3572Y115D01*
X3571Y114D01*
X3571Y113D01*
X3570Y112D01*
X3570Y111D01*
X3569Y110D01*
X3569Y109D01*
X3568Y108D01*
X3568Y107D01*
X3567Y106D01*
X3567Y105D01*
X3566Y104D01*
X3566Y103D01*
X3565Y102D01*
X3565Y101D01*
X3564Y100D01*
X3563Y99D01*
X3563Y98D01*
X3562Y97D01*
X3562Y96D01*
X3561Y95D01*
X3560Y94D01*
X3560Y93D01*
X3559Y92D01*
X3558Y91D01*
X3558Y90D01*
X3557Y89D01*
X3556Y88D01*
X3555Y87D01*
X3555Y86D01*
X3554Y85D01*
X3553Y84D01*
X3552Y83D01*
X3551Y82D01*
X3551Y81D01*
X3550Y80D01*
X3549Y79D01*
X3548Y78D01*
X3547Y77D01*
X3546Y76D01*
X3545Y75D01*
X3544Y74D01*
X3543Y73D01*
X3542Y72D01*
X3541Y71D01*
X3540Y71D01*
X3539Y70D01*
X3538Y69D01*
X3537Y68D01*
X3536Y67D01*
X3535Y66D01*
X3534Y66D01*
X3533Y65D01*
X3532Y64D01*
X3531Y63D01*
X3530Y63D01*
X3529Y62D01*
X3528Y61D01*
X3527Y61D01*
X3526Y60D01*
X3525Y59D01*
X3524Y59D01*
X3523Y58D01*
X3522Y58D01*
X3521Y57D01*
X3520Y56D01*
X3519Y56D01*
X3518Y55D01*
X3517Y55D01*
X3516Y54D01*
X3515Y54D01*
X3514Y53D01*
X3513Y52D01*
X3512Y52D01*
X3511Y51D01*
X3510Y51D01*
X3509Y50D01*
X3508Y50D01*
X3507Y49D01*
X3506Y49D01*
X3505Y49D01*
X3504Y48D01*
X3503Y48D01*
X3502Y47D01*
X3501Y47D01*
X3500Y46D01*
X3499Y46D01*
X3498Y45D01*
X3497Y45D01*
X3496Y45D01*
X3495Y44D01*
X3494Y44D01*
X3493Y43D01*
X3492Y43D01*
X3491Y43D01*
X3490Y42D01*
X3489Y42D01*
X3488Y41D01*
X3487Y41D01*
X3486Y41D01*
X3485Y40D01*
X3484Y40D01*
X3483Y40D01*
X3482Y39D01*
X3481Y39D01*
X3480Y39D01*
X3479Y38D01*
X3478Y38D01*
X3477Y38D01*
X3476Y37D01*
X3475Y37D01*
X3474Y37D01*
X3473Y36D01*
X3472Y36D01*
X3471Y36D01*
X3470Y35D01*
X3469Y35D01*
X3468Y35D01*
X3467Y34D01*
X3466Y34D01*
X3465Y34D01*
X3464Y33D01*
X3463Y33D01*
X3462Y33D01*
X3461Y33D01*
X3460Y32D01*
X3459Y32D01*
X3458Y32D01*
X3457Y32D01*
X3456Y31D01*
X3455Y31D01*
X3454Y31D01*
X3453Y31D01*
X3452Y30D01*
X3451Y30D01*
X3450Y30D01*
X3449Y29D01*
X3448Y29D01*
X3447Y29D01*
X3446Y29D01*
X3445Y29D01*
X3444Y28D01*
X3443Y28D01*
X3442Y28D01*
X3441Y28D01*
X3440Y27D01*
X3439Y27D01*
X3438Y27D01*
X3437Y27D01*
X3436Y26D01*
X3435Y26D01*
X3434Y26D01*
X3433Y26D01*
X3432Y26D01*
X3431Y25D01*
X3430Y25D01*
X3429Y25D01*
X3428Y25D01*
X3427Y25D01*
X3426Y24D01*
X3425Y24D01*
X3424Y24D01*
X3423Y24D01*
X3422Y24D01*
X3421Y24D01*
X3420Y23D01*
X3419Y23D01*
X3418Y23D01*
X3417Y23D01*
X3416Y23D01*
X3415Y22D01*
X3414Y22D01*
X3413Y22D01*
X3412Y22D01*
X3411Y22D01*
X3410Y22D01*
X3409Y21D01*
X3408Y21D01*
X3407Y21D01*
X3406Y21D01*
X3405Y21D01*
X3404Y21D01*
X3403Y20D01*
X3402Y20D01*
X3401Y20D01*
X3400Y20D01*
X3399Y20D01*
X3398Y20D01*
X3397Y19D01*
X3396Y19D01*
X3395Y19D01*
X3394Y19D01*
X3393Y19D01*
X3392Y19D01*
X3391Y19D01*
X3390Y18D01*
X3389Y18D01*
X3388Y18D01*
X3387Y18D01*
X3386Y18D01*
X3385Y18D01*
X3384Y18D01*
X3383Y18D01*
X3382Y17D01*
X3381Y17D01*
X3380Y17D01*
X3379Y17D01*
X3378Y17D01*
X3377Y17D01*
X3376Y17D01*
X3375Y17D01*
X3374Y16D01*
X3373Y16D01*
X3372Y16D01*
X3371Y16D01*
X3370Y16D01*
X3369Y16D01*
X3368Y16D01*
X3367Y16D01*
X3366Y15D01*
X3365Y15D01*
X3364Y15D01*
X3363Y15D01*
X3362Y15D01*
X3361Y15D01*
X3360Y15D01*
X3359Y15D01*
X3358Y15D01*
X3357Y15D01*
X3356Y14D01*
X3355Y14D01*
X3354Y14D01*
X3353Y14D01*
X3352Y14D01*
X3351Y14D01*
X3350Y14D01*
X3349Y14D01*
X3348Y14D01*
X3347Y14D01*
X3346Y14D01*
X3345Y13D01*
X3344Y13D01*
X3343Y13D01*
X3342Y13D01*
X3341Y13D01*
X3340Y13D01*
X3339Y13D01*
X3338Y13D01*
X3337Y13D01*
X3336Y13D01*
X3335Y13D01*
X3334Y13D01*
X3333Y12D01*
X3332Y12D01*
X3331Y12D01*
X3330Y12D01*
X3329Y12D01*
X3328Y12D01*
X3327Y12D01*
X3326Y12D01*
X3325Y12D01*
X3324Y12D01*
X3323Y12D01*
X3322Y12D01*
X3321Y12D01*
X3320Y12D01*
X3319Y11D01*
X3318Y11D01*
X3317Y11D01*
X3316Y11D01*
X3315Y11D01*
X3314Y11D01*
X3313Y11D01*
X3312Y11D01*
X3311Y11D01*
X3310Y11D01*
X3309Y11D01*
X3308Y11D01*
X3307Y11D01*
X3306Y11D01*
X3305Y11D01*
X3304Y11D01*
X3303Y11D01*
X3302Y11D01*
X3301Y10D01*
X3300Y10D01*
X3299Y10D01*
X3298Y10D01*
X3297Y10D01*
X3296Y10D01*
X3295Y10D01*
X3294Y10D01*
X3293Y10D01*
X3292Y10D01*
X3291Y10D01*
X3290Y10D01*
X3289Y10D01*
X3288Y10D01*
X3287Y10D01*
X3286Y10D01*
X3285Y10D01*
X3284Y10D01*
X3283Y10D01*
X3282Y10D01*
X3281Y10D01*
X3280Y10D01*
X3279Y10D01*
X3278Y9D01*
X3277Y9D01*
X3276Y9D01*
X3275Y9D01*
X3274Y9D01*
X3273Y9D01*
X3272Y9D01*
X3271Y9D01*
X3270Y9D01*
X3269Y9D01*
X3268Y9D01*
X3267Y9D01*
X3266Y9D01*
X3265Y9D01*
X3264Y9D01*
X3263Y9D01*
X3262Y9D01*
X3261Y9D01*
X3260Y9D01*
X3259Y9D01*
X3258Y9D01*
X3257Y9D01*
X3256Y9D01*
X3255Y9D01*
X3254Y9D01*
X3253Y9D01*
X3252Y9D01*
X3251Y9D01*
X3250Y9D01*
X3249Y9D01*
X3248Y9D01*
X3247Y9D01*
X3246Y9D01*
X3245Y9D01*
X3244Y9D01*
X3243Y9D01*
X3242Y9D01*
X3241Y9D01*
X3240Y9D01*
X3239Y9D01*
X3238Y9D01*
X3237Y9D01*
X3236Y9D01*
X3235Y9D01*
X3234Y9D01*
X3233Y9D01*
X3232Y9D01*
X3231Y9D01*
X3230Y9D01*
X3229Y9D01*
X3228Y9D01*
X3227Y9D01*
X3226Y9D01*
X3225Y9D01*
X3224Y9D01*
X3223Y9D01*
X3222Y9D01*
X3221Y9D01*
X3220Y9D01*
X3219Y8D01*
X3218Y9D01*
X3217Y9D01*
X3216Y9D01*
X3215Y9D01*
X3214Y9D01*
X3213Y9D01*
X3212Y9D01*
X3211Y9D01*
X3210Y9D01*
X3209Y9D01*
X3208Y9D01*
X3207Y9D01*
X3206Y9D01*
X3205Y9D01*
X3204Y9D01*
X3203Y9D01*
X3202Y9D01*
X3201Y9D01*
X3200Y9D01*
X3199Y9D01*
X3198Y9D01*
X3197Y9D01*
X3196Y9D01*
X3195Y9D01*
X3194Y9D01*
X3193Y9D01*
X3192Y9D01*
X3191Y9D01*
X3190Y9D01*
X3189Y9D01*
X3188Y9D01*
X3187Y9D01*
X3186Y9D01*
X3185Y9D01*
X3184Y9D01*
X3183Y9D01*
X3182Y9D01*
X3181Y9D01*
X3180Y9D01*
X3179Y9D01*
X3178Y9D01*
X3177Y9D01*
X3176Y9D01*
X3175Y9D01*
X3174Y9D01*
X3173Y9D01*
X3172Y9D01*
X3171Y9D01*
X3170Y9D01*
X3169Y9D01*
X3168Y9D01*
X3167Y9D01*
X3166Y9D01*
X3165Y9D01*
X3164Y9D01*
X3163Y9D01*
X3162Y9D01*
X3161Y9D01*
X3160Y9D01*
X3159Y9D01*
X3158Y9D01*
X3157Y9D01*
X3156Y9D01*
X3155Y9D01*
X3154Y9D01*
X3153Y9D01*
X3152Y9D01*
X3151Y9D01*
X3150Y9D01*
X3149Y9D01*
X3148Y9D01*
X3147Y9D01*
X3146Y9D01*
X3145Y9D01*
X3144Y9D01*
X3143Y9D01*
X3142Y9D01*
X3141Y9D01*
X3140Y9D01*
X3139Y9D01*
X3138Y9D01*
X3137Y9D01*
X3136Y9D01*
X3135Y9D01*
X3134Y9D01*
X3133Y9D01*
X3132Y9D01*
X3131Y9D01*
X3130Y9D01*
X3129Y9D01*
X3128Y9D01*
X3127Y9D01*
X3126Y9D01*
X3125Y9D01*
X3124Y9D01*
X3123Y9D01*
X3122Y9D01*
X3121Y9D01*
X3120Y9D01*
X3119Y9D01*
X3118Y9D01*
X3117Y9D01*
X3116Y9D01*
X3115Y9D01*
X3114Y9D01*
X3113Y9D01*
X3112Y9D01*
X3111Y9D01*
X3110Y9D01*
X3109Y9D01*
X3108Y9D01*
X3107Y9D01*
X3106Y9D01*
X3105Y9D01*
X3104Y9D01*
X3103Y9D01*
X3102Y9D01*
X3101Y9D01*
X3100Y9D01*
X3099Y9D01*
X3098Y9D01*
X3097Y9D01*
X3096Y9D01*
X3095Y9D01*
X3094Y9D01*
X3093Y9D01*
X3092Y9D01*
X3091Y9D01*
X3090Y9D01*
X3089Y9D01*
X3088Y9D01*
X3087Y9D01*
X3086Y9D01*
X3085Y9D01*
X3084Y9D01*
X3083Y9D01*
X3082Y9D01*
X3081Y9D01*
X3080Y9D01*
X3079Y9D01*
X3078Y9D01*
X3077Y9D01*
X3076Y9D01*
X3075Y9D01*
X3074Y9D01*
X3073Y9D01*
X3072Y9D01*
X3071Y9D01*
X3070Y9D01*
X3069Y9D01*
X3068Y9D01*
X3067Y9D01*
X3066Y10D01*
X3065Y10D01*
X3064Y10D01*
X3063Y10D01*
X3062Y10D01*
X3061Y10D01*
X3060Y10D01*
X3059Y10D01*
X3058Y10D01*
X3057Y10D01*
X3056Y10D01*
X3055Y10D01*
X3054Y10D01*
X3053Y10D01*
X3052Y10D01*
X3051Y10D01*
X3050Y10D01*
X3049Y10D01*
X3048Y10D01*
X3047Y10D01*
X3046Y10D01*
X3045Y10D01*
X3044Y10D01*
X3043Y10D01*
X3042Y10D01*
X3041Y10D01*
X3040Y10D01*
X3039Y10D01*
X3038Y10D01*
X3037Y10D01*
X3036Y10D01*
X3035Y10D01*
X3034Y10D01*
X3033Y10D01*
X3032Y10D01*
X3031Y10D01*
X3030Y10D01*
X3029Y10D01*
X3028Y10D01*
X3027Y10D01*
X3026Y10D01*
X3025Y10D01*
X3024Y10D01*
X3023Y10D01*
X3022Y10D01*
X3021Y10D01*
X3020Y10D01*
X3019Y10D01*
X3018Y10D01*
X3017Y10D01*
X3016Y10D01*
X3015Y10D01*
X3014Y10D01*
X3013Y10D01*
X3012Y10D01*
X3011Y10D01*
X3010Y10D01*
X3009Y10D01*
X3008Y10D01*
X3007Y10D01*
X3006Y11D01*
X3005Y11D01*
X3004Y11D01*
X3003Y11D01*
X3002Y11D01*
X3001Y11D01*
X3000Y11D01*
X2999Y11D01*
X2998Y11D01*
X2997Y11D01*
X2996Y11D01*
X2995Y11D01*
X2994Y11D01*
X2993Y11D01*
X2992Y11D01*
X2991Y11D01*
X2990Y11D01*
X2989Y11D01*
X2988Y11D01*
X2987Y11D01*
X2986Y11D01*
X2985Y11D01*
X2984Y11D01*
X2983Y11D01*
X2982Y11D01*
X2981Y11D01*
X2980Y11D01*
X2979Y11D01*
X2978Y11D01*
X2977Y11D01*
X2976Y11D01*
X2975Y11D01*
X2974Y11D01*
X2973Y11D01*
X2972Y11D01*
X2971Y11D01*
X2970Y11D01*
X2969Y11D01*
X2968Y11D01*
X2967Y11D01*
X2966Y11D01*
X2965Y11D01*
X2964Y12D01*
X2963Y12D01*
X2962Y12D01*
X2961Y12D01*
X2960Y12D01*
X2959Y12D01*
X2958Y12D01*
X2957Y12D01*
X2956Y12D01*
X2955Y12D01*
X2954Y12D01*
X2953Y12D01*
X2952Y12D01*
X2951Y12D01*
X2950Y12D01*
X2949Y12D01*
X2948Y12D01*
X2947Y12D01*
X2946Y12D01*
X2945Y12D01*
X2944Y12D01*
X2943Y12D01*
X2942Y12D01*
X2941Y12D01*
X2940Y12D01*
X2939Y12D01*
X2938Y12D01*
X2937Y12D01*
X2936Y12D01*
X2935Y12D01*
X2934Y12D01*
X2933Y12D01*
X2932Y12D01*
X2931Y12D01*
X2930Y12D01*
X2929Y13D01*
X2928Y13D01*
X2927Y13D01*
X2926Y13D01*
X2925Y13D01*
X2924Y13D01*
X2923Y13D01*
X2922Y13D01*
X2921Y13D01*
X2920Y13D01*
X2919Y13D01*
X2918Y13D01*
X2917Y13D01*
X2916Y13D01*
X2915Y13D01*
X2914Y13D01*
X2913Y13D01*
X2912Y13D01*
X2911Y13D01*
X2910Y13D01*
X2909Y13D01*
X2908Y13D01*
X2907Y13D01*
X2906Y13D01*
X2905Y13D01*
X2904Y13D01*
X2903Y13D01*
X2902Y14D01*
X2901Y14D01*
X2900Y14D01*
X2899Y14D01*
X2898Y14D01*
X2897Y14D01*
X2896Y14D01*
X2895Y14D01*
X2894Y14D01*
X2893Y14D01*
X2892Y14D01*
X2891Y14D01*
X2890Y14D01*
X2889Y14D01*
X2888Y14D01*
X2887Y14D01*
X2886Y14D01*
X2885Y14D01*
X2884Y14D01*
X2883Y14D01*
X2882Y14D01*
X2881Y14D01*
X2880Y14D01*
X2879Y14D01*
X2878Y14D01*
X2877Y15D01*
X2876Y15D01*
X2875Y15D01*
X2874Y15D01*
X2873Y15D01*
X2872Y15D01*
X2871Y15D01*
X2870Y15D01*
X2869Y15D01*
X2868Y15D01*
X2867Y15D01*
X2866Y15D01*
X2865Y15D01*
X2864Y15D01*
X2863Y15D01*
X2862Y15D01*
X2861Y15D01*
X2860Y15D01*
X2859Y15D01*
X2858Y15D01*
X2857Y15D01*
X2856Y16D01*
X2855Y16D01*
X2854Y16D01*
X2853Y16D01*
X2852Y16D01*
X2851Y16D01*
X2850Y16D01*
X2849Y16D01*
X2848Y16D01*
X2847Y16D01*
X2846Y16D01*
X2845Y16D01*
X2844Y16D01*
X2843Y16D01*
X2842Y16D01*
X2841Y16D01*
X2840Y16D01*
X2839Y16D01*
X2838Y16D01*
X2837Y16D01*
X2836Y17D01*
X2835Y17D01*
X2834Y17D01*
X2833Y17D01*
X2832Y17D01*
X2831Y17D01*
X2830Y17D01*
X2829Y17D01*
X2828Y17D01*
X2827Y17D01*
X2826Y17D01*
X2825Y17D01*
X2824Y17D01*
X2823Y17D01*
X2822Y17D01*
X2821Y17D01*
X2820Y18D01*
X2819Y18D01*
X2818Y18D01*
X2817Y18D01*
X2816Y18D01*
X2815Y18D01*
X2814Y18D01*
X2813Y18D01*
X2812Y18D01*
X2811Y18D01*
X2810Y18D01*
X2809Y18D01*
X2808Y18D01*
X2807Y18D01*
X2806Y18D01*
X2805Y18D01*
X2804Y18D01*
X2803Y19D01*
X2802Y19D01*
X2801Y19D01*
X2800Y19D01*
X2799Y19D01*
X2798Y19D01*
X2797Y19D01*
X2796Y19D01*
X2795Y19D01*
X2794Y19D01*
X2793Y19D01*
X2792Y19D01*
X2791Y19D01*
X2790Y19D01*
X2789Y20D01*
X2788Y20D01*
X2787Y20D01*
X2786Y20D01*
X2785Y20D01*
X2784Y20D01*
X2783Y20D01*
X2782Y20D01*
X2781Y20D01*
X2780Y20D01*
X2779Y20D01*
X2778Y20D01*
X2777Y20D01*
X2776Y21D01*
X2775Y21D01*
X2774Y21D01*
X2773Y21D01*
X2772Y21D01*
X2771Y21D01*
X2770Y21D01*
X2769Y21D01*
X2768Y21D01*
X2767Y21D01*
X2766Y21D01*
X2765Y21D01*
X2764Y21D01*
X2763Y22D01*
X2762Y22D01*
X2761Y22D01*
X2760Y22D01*
X2759Y22D01*
X2758Y22D01*
X2757Y22D01*
X2756Y22D01*
X2755Y22D01*
X2754Y22D01*
X2753Y22D01*
X2752Y23D01*
X2751Y23D01*
X2750Y23D01*
X2749Y23D01*
X2748Y23D01*
X2747Y23D01*
X2746Y23D01*
X2745Y23D01*
X2744Y23D01*
X2743Y23D01*
X2742Y23D01*
X2741Y24D01*
X2740Y24D01*
X2739Y24D01*
X2738Y24D01*
X2737Y24D01*
X2736Y24D01*
X2735Y24D01*
X2734Y24D01*
X2733Y24D01*
X2732Y24D01*
X2731Y25D01*
X2730Y25D01*
X2729Y25D01*
X2728Y25D01*
X2727Y25D01*
X2726Y25D01*
X2725Y25D01*
X2724Y25D01*
X2723Y25D01*
X2722Y26D01*
X2721Y26D01*
X2720Y26D01*
X2719Y26D01*
X2718Y26D01*
X2717Y26D01*
X2716Y26D01*
X2715Y26D01*
X2714Y27D01*
X2713Y27D01*
X2712Y27D01*
X2711Y27D01*
X2710Y27D01*
X2709Y27D01*
X2708Y27D01*
X2707Y27D01*
X2706Y27D01*
X2705Y28D01*
X2704Y28D01*
X2703Y28D01*
X2702Y28D01*
X2701Y28D01*
X2700Y28D01*
X2699Y28D01*
X2698Y29D01*
X2697Y29D01*
X2696Y29D01*
X2695Y29D01*
X2694Y29D01*
X2693Y29D01*
X2692Y29D01*
X2691Y30D01*
X2690Y30D01*
X2689Y30D01*
X2688Y30D01*
X2687Y30D01*
X2686Y30D01*
X2685Y30D01*
X2684Y31D01*
X2683Y31D01*
X2682Y31D01*
X2681Y31D01*
X2680Y31D01*
X2679Y31D01*
X2678Y31D01*
X2677Y32D01*
X2676Y32D01*
X2675Y32D01*
X2674Y32D01*
X2673Y32D01*
X2672Y33D01*
X2671Y33D01*
X2670Y33D01*
X2669Y33D01*
X2668Y33D01*
X2667Y33D01*
X2666Y34D01*
X2665Y34D01*
X2664Y34D01*
X2663Y34D01*
X2662Y34D01*
X2661Y35D01*
X2660Y35D01*
X2659Y35D01*
X2658Y35D01*
X2657Y35D01*
X2656Y36D01*
X2655Y36D01*
X2654Y36D01*
X2653Y36D01*
X2652Y36D01*
X2651Y37D01*
X2650Y37D01*
X2649Y37D01*
X2648Y37D01*
X2647Y38D01*
X2646Y38D01*
X2645Y38D01*
X2644Y38D01*
X2643Y39D01*
X2642Y39D01*
X2641Y39D01*
X2640Y39D01*
X2639Y40D01*
X2638Y40D01*
X2637Y40D01*
X2636Y41D01*
X2635Y41D01*
X2634Y41D01*
X2633Y41D01*
X2632Y42D01*
X2631Y42D01*
X2630Y42D01*
X2629Y43D01*
X2628Y43D01*
X2627Y44D01*
X2626Y44D01*
X2625Y44D01*
X2624Y45D01*
X2623Y45D01*
X2622Y45D01*
X2621Y46D01*
X2620Y46D01*
X2619Y47D01*
X2618Y47D01*
X2617Y48D01*
X2616Y48D01*
X2615Y49D01*
X2614Y49D01*
X2613Y50D01*
X2612Y51D01*
X2611Y51D01*
X2610Y52D01*
X2609Y53D01*
X2608Y54D01*
X2607Y54D01*
X2606Y55D01*
X2605Y56D01*
X2604Y57D01*
X2603Y58D01*
X2602Y59D01*
X2601Y60D01*
X2600Y61D01*
X2599Y62D01*
X2598Y63D01*
X2597Y64D01*
X2596Y65D01*
X2595Y66D01*
X2594Y67D01*
X2593Y68D01*
X2592Y69D01*
X2591Y70D01*
X2590Y71D01*
X2589Y72D01*
X2589Y73D01*
X2588Y74D01*
X2587Y75D01*
X2586Y76D01*
X2585Y77D01*
X2584Y78D01*
X2583Y79D01*
X2582Y80D01*
X2582Y81D01*
X2581Y82D01*
X2580Y83D01*
X2579Y84D01*
X2578Y85D01*
X2577Y86D01*
X2577Y87D01*
X2576Y88D01*
X2575Y89D01*
X2574Y90D01*
X2573Y91D01*
X2573Y92D01*
X2572Y93D01*
X2571Y94D01*
X2570Y95D01*
X2569Y96D01*
X2569Y97D01*
X2568Y98D01*
X2567Y99D01*
X2566Y100D01*
X2565Y101D01*
X2565Y102D01*
X2564Y103D01*
X2563Y104D01*
X2562Y105D01*
X2561Y106D01*
X2561Y107D01*
X2560Y108D01*
X2559Y109D01*
X2558Y110D01*
X2558Y111D01*
X2557Y112D01*
X2556Y113D01*
X2555Y114D01*
X2555Y115D01*
X2554Y116D01*
X2553Y117D01*
X2552Y118D01*
X2552Y119D01*
X2551Y120D01*
X2550Y121D01*
X2549Y122D01*
X2549Y123D01*
X2548Y124D01*
X2547Y125D01*
X2546Y126D01*
X2546Y127D01*
X2545Y128D01*
X2544Y129D01*
X2544Y130D01*
X2543Y131D01*
X2542Y132D01*
X2541Y133D01*
X2541Y134D01*
X2540Y135D01*
X2539Y136D01*
X2538Y137D01*
X2538Y138D01*
X2537Y139D01*
X2536Y140D01*
X2535Y141D01*
X2535Y142D01*
X2534Y143D01*
X2533Y144D01*
X2533Y145D01*
X2532Y146D01*
X2531Y147D01*
X2530Y148D01*
X2530Y149D01*
X2529Y150D01*
X2528Y151D01*
X2527Y152D01*
X2527Y153D01*
X2526Y154D01*
X2525Y155D01*
X2525Y156D01*
X2524Y157D01*
X2523Y158D01*
X2523Y159D01*
X2522Y160D01*
X2521Y161D01*
X2520Y162D01*
X2520Y163D01*
X2519Y164D01*
X2518Y165D01*
X2518Y166D01*
X2517Y167D01*
X2516Y168D01*
X2515Y169D01*
X2515Y170D01*
X2514Y171D01*
X2513Y172D01*
X2513Y173D01*
X2512Y174D01*
X2511Y175D01*
X2511Y176D01*
X2510Y177D01*
X2509Y178D01*
X2508Y179D01*
X2508Y180D01*
X2507Y181D01*
X2506Y182D01*
X2506Y183D01*
X2505Y184D01*
X2504Y185D01*
X2504Y186D01*
X2503Y187D01*
X2502Y188D01*
X2501Y189D01*
X2501Y190D01*
X2500Y191D01*
X2499Y192D01*
X2499Y193D01*
X2498Y194D01*
X2497Y195D01*
X2497Y196D01*
X2496Y197D01*
X2495Y198D01*
X2495Y199D01*
X2494Y200D01*
X2493Y201D01*
X2493Y202D01*
X2492Y203D01*
X2491Y204D01*
X2490Y205D01*
X2490Y206D01*
X2489Y207D01*
X2488Y208D01*
X2488Y209D01*
X2487Y210D01*
X2486Y211D01*
X2486Y212D01*
X2485Y213D01*
X2484Y214D01*
X2484Y215D01*
X2483Y216D01*
X2482Y217D01*
X2482Y218D01*
X2481Y219D01*
X2480Y220D01*
X2480Y221D01*
X2479Y222D01*
X2478Y223D01*
X2478Y224D01*
X2477Y225D01*
X2476Y226D01*
X2475Y227D01*
X2475Y228D01*
X2474Y229D01*
X2473Y230D01*
X2473Y231D01*
X2472Y232D01*
X2471Y233D01*
X2471Y234D01*
X2470Y235D01*
X2469Y236D01*
X2469Y237D01*
X2468Y238D01*
X2467Y239D01*
X2467Y240D01*
X2466Y241D01*
X2465Y242D01*
X2465Y243D01*
X2464Y244D01*
X2463Y245D01*
X2463Y246D01*
X2462Y247D01*
X2461Y248D01*
X2461Y249D01*
X2460Y250D01*
X2459Y251D01*
X2459Y252D01*
X2458Y253D01*
X2457Y254D01*
X2457Y255D01*
X2456Y256D01*
X2455Y257D01*
X2455Y258D01*
X2454Y259D01*
X2453Y260D01*
X2453Y261D01*
X2452Y262D01*
X2451Y263D01*
X2451Y264D01*
X2450Y265D01*
X2449Y266D01*
X2449Y267D01*
X2448Y268D01*
X2447Y269D01*
X2447Y270D01*
X2446Y271D01*
X2445Y272D01*
X2445Y273D01*
X2444Y274D01*
X2443Y275D01*
X2443Y276D01*
X2442Y277D01*
X2441Y278D01*
X2441Y279D01*
X2440Y280D01*
X2439Y281D01*
X2439Y282D01*
X2438Y283D01*
X2437Y284D01*
X2437Y285D01*
X2436Y286D01*
X2435Y287D01*
X2435Y288D01*
X2434Y289D01*
X2434Y290D01*
X2433Y291D01*
X2432Y292D01*
X2432Y293D01*
X2431Y294D01*
X2430Y295D01*
X2430Y296D01*
X2429Y297D01*
X2428Y298D01*
X2428Y299D01*
X2427Y300D01*
X2426Y301D01*
X2426Y302D01*
X2425Y303D01*
X2424Y304D01*
X2424Y305D01*
X2423Y306D01*
X2422Y307D01*
X2422Y308D01*
X2421Y309D01*
X2420Y310D01*
X2420Y311D01*
X2419Y312D01*
X2419Y313D01*
X2418Y314D01*
X2417Y315D01*
X2417Y316D01*
X2416Y317D01*
X2415Y318D01*
X2415Y319D01*
X2414Y320D01*
X2413Y321D01*
X2413Y322D01*
X2412Y323D01*
X2411Y324D01*
X2411Y325D01*
X2410Y326D01*
X2409Y327D01*
X2409Y328D01*
X2408Y329D01*
X2407Y330D01*
X2407Y331D01*
X2406Y332D01*
X2405Y333D01*
X2405Y334D01*
X2404Y335D01*
X2403Y336D01*
X2403Y337D01*
X2402Y338D01*
X2402Y339D01*
X2401Y340D01*
X2400Y341D01*
X2400Y342D01*
X2399Y343D01*
X2398Y344D01*
X2398Y345D01*
X2397Y346D01*
X2396Y347D01*
X2396Y348D01*
X2395Y349D01*
X2394Y350D01*
X2394Y351D01*
X2393Y352D01*
X2393Y353D01*
X2392Y354D01*
X2391Y355D01*
X2391Y356D01*
X2390Y357D01*
X2389Y358D01*
X2389Y359D01*
X2388Y360D01*
X2387Y361D01*
X2387Y362D01*
X2386Y363D01*
X2385Y364D01*
X2385Y365D01*
X2384Y366D01*
X2384Y367D01*
X2383Y368D01*
X2382Y369D01*
X2382Y370D01*
X2381Y371D01*
X2380Y372D01*
X2380Y373D01*
X2379Y374D01*
X2378Y375D01*
X2378Y376D01*
X2377Y377D01*
X2376Y378D01*
X2376Y379D01*
X2375Y380D01*
X2375Y381D01*
X2374Y382D01*
X2373Y383D01*
X2373Y384D01*
X2372Y385D01*
X2371Y386D01*
X2371Y387D01*
X2370Y388D01*
X2369Y389D01*
X2369Y390D01*
X2368Y391D01*
X2367Y392D01*
X2367Y393D01*
X2366Y394D01*
X2366Y395D01*
X2365Y396D01*
X2364Y397D01*
X2364Y398D01*
X2363Y399D01*
X2362Y400D01*
X2362Y401D01*
X2361Y402D01*
X2360Y403D01*
X2360Y404D01*
X2359Y405D01*
X2358Y406D01*
X2358Y407D01*
X2357Y408D01*
X2357Y409D01*
X2356Y410D01*
X2355Y411D01*
X2355Y412D01*
X2354Y413D01*
X2353Y414D01*
X2353Y415D01*
X2352Y416D01*
X2352Y417D01*
X2351Y418D01*
X2350Y419D01*
X2350Y420D01*
X2349Y421D01*
X2348Y422D01*
X2348Y423D01*
X2347Y424D01*
X2346Y425D01*
X2346Y426D01*
X2345Y427D01*
X2345Y428D01*
X2344Y429D01*
X2343Y430D01*
X2343Y431D01*
X2342Y432D01*
X2341Y433D01*
X2341Y434D01*
X2340Y435D01*
X2339Y436D01*
X2339Y437D01*
X2338Y438D01*
X2338Y439D01*
X2337Y440D01*
X2336Y441D01*
X2336Y442D01*
X2335Y443D01*
X2334Y444D01*
X2334Y445D01*
X2333Y446D01*
X2332Y447D01*
X2332Y448D01*
X2331Y449D01*
X2331Y450D01*
X2330Y451D01*
X2329Y452D01*
X2329Y453D01*
X2328Y454D01*
X2327Y455D01*
X2327Y456D01*
X2326Y457D01*
X2326Y458D01*
X2325Y459D01*
X2324Y460D01*
X2324Y461D01*
X2323Y462D01*
X2322Y463D01*
X2322Y464D01*
X2321Y465D01*
X2320Y466D01*
X2320Y467D01*
X2319Y468D01*
X2319Y469D01*
X2318Y470D01*
X2317Y471D01*
X2317Y472D01*
X2316Y473D01*
X2315Y474D01*
X2315Y475D01*
X2314Y476D01*
X2313Y477D01*
X2313Y478D01*
X2312Y479D01*
X2312Y480D01*
X2311Y481D01*
X2310Y482D01*
X2310Y483D01*
X2309Y484D01*
X2308Y485D01*
X2308Y486D01*
X2307Y487D01*
X2307Y488D01*
X2306Y489D01*
X2305Y490D01*
X2305Y491D01*
X2304Y492D01*
X2303Y493D01*
X2303Y494D01*
X2302Y495D01*
X2302Y496D01*
X2301Y497D01*
X2300Y498D01*
X2300Y499D01*
X2299Y500D01*
X2298Y501D01*
X2298Y502D01*
X2297Y503D01*
X2297Y504D01*
X2296Y505D01*
X2295Y506D01*
X2295Y507D01*
X2294Y508D01*
X2293Y509D01*
X2293Y510D01*
X2292Y511D01*
X2292Y512D01*
X2291Y513D01*
X2290Y514D01*
X2290Y515D01*
X2289Y516D01*
X2288Y517D01*
X2288Y518D01*
X2287Y519D01*
X2287Y520D01*
X2286Y521D01*
X2285Y522D01*
X2285Y523D01*
X2284Y524D01*
X2283Y525D01*
X2283Y526D01*
X2282Y527D01*
X2282Y528D01*
X2281Y529D01*
X2280Y530D01*
X2280Y531D01*
X2279Y532D01*
X2278Y533D01*
X2278Y534D01*
X2277Y535D01*
X2276Y536D01*
X2276Y537D01*
X2275Y538D01*
X2275Y539D01*
X2274Y540D01*
X2273Y541D01*
X2273Y542D01*
X2272Y543D01*
X2271Y544D01*
X2271Y545D01*
X2270Y546D01*
X2270Y547D01*
X2269Y548D01*
X2268Y549D01*
X2268Y550D01*
X2267Y551D01*
X2266Y552D01*
X2266Y553D01*
X2265Y554D01*
X2265Y555D01*
X2264Y556D01*
X2263Y557D01*
X2263Y558D01*
X2262Y559D01*
X2262Y560D01*
X2261Y561D01*
X2260Y562D01*
X2260Y563D01*
X2259Y564D01*
X2258Y565D01*
X2258Y566D01*
X2257Y567D01*
X2257Y568D01*
X2256Y569D01*
X2255Y570D01*
X2255Y571D01*
X2254Y572D01*
X2253Y573D01*
X2253Y574D01*
X2252Y575D01*
X2252Y576D01*
X2251Y577D01*
X2250Y578D01*
X2250Y579D01*
X2249Y580D01*
X2248Y581D01*
X2248Y582D01*
X2247Y583D01*
X2247Y584D01*
X2246Y585D01*
X2245Y586D01*
X2245Y587D01*
X2244Y588D01*
X2243Y589D01*
X2243Y590D01*
X2242Y591D01*
X2242Y592D01*
X2241Y593D01*
X2240Y594D01*
X2240Y595D01*
X2239Y596D01*
X2239Y597D01*
X2238Y598D01*
X2237Y599D01*
X2237Y600D01*
X2236Y601D01*
X2235Y602D01*
X2235Y603D01*
X2234Y604D01*
X2234Y605D01*
X2233Y606D01*
X2232Y607D01*
X2232Y608D01*
X2231Y609D01*
X2230Y610D01*
X2230Y611D01*
X2229Y612D01*
X2229Y613D01*
X2228Y614D01*
X2227Y615D01*
X2227Y616D01*
X2226Y617D01*
X2225Y618D01*
X2225Y619D01*
X2224Y620D01*
X2224Y621D01*
X2223Y622D01*
X2222Y623D01*
X2222Y624D01*
X2221Y625D01*
X2221Y626D01*
X2220Y627D01*
X2219Y628D01*
X2219Y629D01*
X2218Y630D01*
X2217Y631D01*
X2217Y632D01*
X2216Y633D01*
X2216Y634D01*
X2215Y635D01*
X2214Y636D01*
X2214Y637D01*
X2213Y638D01*
X2212Y639D01*
X2212Y640D01*
X2211Y641D01*
X2211Y642D01*
X2210Y643D01*
X2209Y644D01*
X2209Y645D01*
X2208Y646D01*
X2208Y647D01*
X2207Y648D01*
X2206Y649D01*
X2206Y650D01*
X2205Y651D01*
X2204Y652D01*
X2204Y653D01*
X2203Y654D01*
X2203Y655D01*
X2202Y656D01*
X2201Y657D01*
X2201Y658D01*
X2200Y659D01*
X2200Y660D01*
X2199Y661D01*
X2198Y662D01*
X2198Y663D01*
X2197Y664D01*
X2196Y665D01*
X2196Y666D01*
X2195Y667D01*
X2195Y668D01*
X2194Y669D01*
X2193Y670D01*
X2193Y671D01*
X2192Y672D01*
X2192Y673D01*
X2191Y674D01*
X2190Y675D01*
X2190Y676D01*
X2189Y677D01*
X2188Y678D01*
X2188Y679D01*
X2187Y680D01*
X2187Y681D01*
X2186Y682D01*
X2185Y683D01*
X2185Y684D01*
X2184Y685D01*
X2184Y686D01*
X2183Y687D01*
X2182Y688D01*
X2182Y689D01*
X2181Y690D01*
X2180Y691D01*
X2180Y692D01*
X2179Y693D01*
X2179Y694D01*
X2178Y695D01*
X2177Y696D01*
X2177Y697D01*
X2176Y698D01*
X2176Y699D01*
X2175Y700D01*
X2174Y701D01*
X2174Y702D01*
X2173Y703D01*
X2172Y704D01*
X2172Y705D01*
X2171Y706D01*
X2171Y707D01*
X2170Y708D01*
X2169Y709D01*
X2169Y710D01*
X2168Y711D01*
X2167Y712D01*
X2167Y713D01*
X2166Y714D01*
X2166Y715D01*
X2165Y716D01*
X2164Y717D01*
X2164Y718D01*
X2163Y719D01*
X2163Y720D01*
X2162Y721D01*
X2161Y722D01*
X2161Y723D01*
X2160Y724D01*
X2160Y725D01*
X2159Y726D01*
X2158Y727D01*
X2158Y728D01*
X2157Y729D01*
X2156Y730D01*
X2156Y731D01*
X2155Y732D01*
X2155Y733D01*
X2154Y734D01*
X2153Y735D01*
X2153Y736D01*
X2152Y737D01*
X2152Y738D01*
X2151Y739D01*
X2150Y740D01*
X2150Y741D01*
X2149Y742D01*
X2148Y743D01*
X2148Y744D01*
X2147Y745D01*
X2147Y746D01*
X2146Y747D01*
X2145Y748D01*
X2145Y749D01*
X2144Y750D01*
X2144Y751D01*
X2143Y752D01*
X2142Y753D01*
X2142Y754D01*
X2141Y755D01*
X2141Y756D01*
X2140Y757D01*
X2139Y758D01*
X2139Y759D01*
X2138Y760D01*
X2137Y761D01*
X2137Y762D01*
X2136Y763D01*
X2136Y764D01*
X2135Y765D01*
X2134Y766D01*
X2134Y767D01*
X2133Y768D01*
X2133Y769D01*
X2132Y770D01*
X2131Y771D01*
X2131Y772D01*
X2130Y773D01*
X2130Y774D01*
X2129Y775D01*
X2128Y776D01*
X2128Y777D01*
X2127Y778D01*
X2126Y779D01*
X2126Y780D01*
X2125Y781D01*
X2125Y782D01*
X2124Y783D01*
X2123Y784D01*
X2123Y785D01*
X2122Y786D01*
X2122Y787D01*
X2121Y788D01*
X2120Y789D01*
X2120Y790D01*
X2119Y791D01*
X2119Y792D01*
X2118Y793D01*
X2117Y794D01*
X2117Y795D01*
X2116Y796D01*
X2115Y797D01*
X2115Y798D01*
X2114Y799D01*
X2114Y800D01*
X2113Y801D01*
X2112Y802D01*
X2112Y803D01*
X2111Y804D01*
X2111Y805D01*
X2110Y806D01*
X2109Y807D01*
X2109Y808D01*
X2108Y809D01*
X2108Y810D01*
X2107Y811D01*
X2106Y812D01*
X2106Y813D01*
X2105Y814D01*
X2104Y815D01*
X2104Y816D01*
X2103Y817D01*
X2103Y818D01*
X2102Y819D01*
X2101Y820D01*
X2101Y821D01*
X2100Y822D01*
X2100Y823D01*
X2099Y824D01*
X2098Y825D01*
X2098Y826D01*
X2097Y827D01*
X2097Y828D01*
X2096Y829D01*
X2095Y830D01*
X2095Y831D01*
X2094Y832D01*
X2094Y833D01*
X2093Y834D01*
X2092Y835D01*
X2092Y836D01*
X2091Y837D01*
X2090Y838D01*
X2090Y839D01*
X2089Y840D01*
X2089Y841D01*
X2088Y842D01*
X2087Y843D01*
X2087Y844D01*
X2086Y845D01*
X2086Y846D01*
X2085Y847D01*
X2084Y848D01*
X2084Y849D01*
X2083Y850D01*
X2083Y851D01*
X2082Y852D01*
X2081Y853D01*
X2081Y854D01*
X2080Y855D01*
X2080Y856D01*
X2079Y857D01*
X2078Y858D01*
X2078Y859D01*
X2077Y860D01*
X2076Y861D01*
X2076Y862D01*
X2075Y863D01*
X2075Y864D01*
X2074Y865D01*
X2073Y866D01*
X2073Y867D01*
X2072Y868D01*
X2072Y869D01*
X2071Y870D01*
X2070Y871D01*
X2070Y872D01*
X2069Y873D01*
X2069Y874D01*
X2068Y875D01*
X2067Y876D01*
X2067Y877D01*
X2066Y878D01*
X2066Y879D01*
X2065Y880D01*
X2064Y881D01*
X2064Y882D01*
X2063Y883D01*
X2062Y884D01*
X2062Y885D01*
X2061Y886D01*
X2061Y887D01*
X2060Y888D01*
X2059Y889D01*
X2059Y890D01*
X2058Y891D01*
X2058Y892D01*
X2057Y893D01*
X2056Y894D01*
X2056Y895D01*
X2055Y896D01*
X2055Y897D01*
X2054Y898D01*
X2053Y899D01*
X2053Y900D01*
X2052Y901D01*
X2052Y902D01*
X2051Y903D01*
X2050Y904D01*
X2050Y905D01*
X2049Y906D01*
X2049Y907D01*
X2048Y908D01*
X2047Y909D01*
X2047Y910D01*
X2046Y911D01*
X2045Y912D01*
X2045Y913D01*
X2044Y914D01*
X2044Y915D01*
X2043Y916D01*
X2042Y917D01*
X2042Y918D01*
X2041Y919D01*
X2041Y920D01*
X2040Y921D01*
X2039Y922D01*
X2039Y923D01*
X2038Y924D01*
X2038Y925D01*
X2037Y926D01*
X2036Y927D01*
X2036Y928D01*
X2035Y929D01*
X2035Y930D01*
X2034Y931D01*
X2033Y932D01*
X2033Y933D01*
X2032Y934D01*
X2032Y935D01*
X2031Y936D01*
X2030Y937D01*
X2030Y938D01*
X2029Y939D01*
X2029Y940D01*
X2028Y941D01*
X2027Y942D01*
X2027Y943D01*
X2026Y944D01*
X2026Y945D01*
X2025Y946D01*
X2024Y947D01*
X2024Y948D01*
X2023Y949D01*
X2023Y950D01*
X2022Y951D01*
X2021Y952D01*
X2021Y953D01*
X2020Y954D01*
X2020Y955D01*
X2019Y956D01*
X2018Y957D01*
X2018Y958D01*
X2017Y959D01*
X2017Y960D01*
X2016Y961D01*
X2015Y962D01*
X2015Y963D01*
X2014Y964D01*
X2014Y965D01*
X2013Y966D01*
X2012Y967D01*
X2012Y968D01*
X2011Y969D01*
X2011Y970D01*
X2010Y971D01*
X2009Y972D01*
X2009Y973D01*
X2008Y974D01*
X2008Y975D01*
X2007Y976D01*
X2006Y977D01*
X2006Y978D01*
X2005Y979D01*
X2005Y980D01*
X2004Y981D01*
X2003Y982D01*
X2003Y983D01*
X2002Y984D01*
X2002Y985D01*
X2001Y986D01*
X2000Y987D01*
X2000Y988D01*
X1999Y989D01*
X1999Y990D01*
X1998Y991D01*
X1997Y992D01*
X1997Y993D01*
X1996Y994D01*
X1996Y995D01*
X1995Y996D01*
X1994Y997D01*
X1994Y998D01*
X1993Y999D01*
X1993Y1000D01*
X1992Y1001D01*
X1992Y1002D01*
X1991Y1003D01*
X1990Y1004D01*
X1990Y1005D01*
X1989Y1006D01*
X1989Y1007D01*
X1988Y1008D01*
X1987Y1009D01*
X1987Y1010D01*
X1986Y1011D01*
X1986Y1012D01*
X1985Y1013D01*
X1984Y1014D01*
X1984Y1015D01*
X1983Y1016D01*
X1983Y1017D01*
X1982Y1018D01*
X1981Y1019D01*
X1981Y1020D01*
X1980Y1021D01*
X1980Y1022D01*
X1979Y1023D01*
X1978Y1024D01*
X1978Y1025D01*
X1977Y1026D01*
X1977Y1027D01*
X1976Y1028D01*
X1976Y1029D01*
X1975Y1030D01*
X1974Y1031D01*
X1974Y1032D01*
X1973Y1033D01*
X1973Y1034D01*
X1972Y1035D01*
X1971Y1036D01*
X1971Y1037D01*
X1970Y1038D01*
X1970Y1039D01*
X1969Y1040D01*
X1968Y1041D01*
X1968Y1042D01*
X1967Y1043D01*
X1967Y1044D01*
X1966Y1045D01*
X1966Y1046D01*
X1965Y1047D01*
X1964Y1048D01*
X1964Y1049D01*
X1963Y1050D01*
X1963Y1051D01*
X1962Y1052D01*
X1961Y1053D01*
X1961Y1054D01*
X1960Y1055D01*
X1960Y1056D01*
X1959Y1057D01*
X1958Y1058D01*
X1958Y1059D01*
X1957Y1060D01*
X1957Y1061D01*
X1956Y1062D01*
X1956Y1063D01*
X1955Y1064D01*
X1954Y1065D01*
X1954Y1066D01*
X1953Y1067D01*
X1953Y1068D01*
X1952Y1069D01*
X1951Y1070D01*
X1951Y1071D01*
X1950Y1072D01*
X1950Y1073D01*
X1949Y1074D01*
X1949Y1075D01*
X1948Y1076D01*
X1947Y1077D01*
X1947Y1078D01*
X1946Y1079D01*
X1946Y1080D01*
X1945Y1081D01*
X1944Y1082D01*
X1944Y1083D01*
X1943Y1084D01*
X1943Y1085D01*
X1942Y1086D01*
X1942Y1087D01*
X1941Y1088D01*
X1940Y1089D01*
X1940Y1090D01*
X1939Y1091D01*
X1939Y1092D01*
X1938Y1093D01*
X1937Y1094D01*
X1937Y1095D01*
X1936Y1096D01*
X1936Y1097D01*
X1935Y1098D01*
X1935Y1099D01*
X1934Y1100D01*
X1933Y1101D01*
X1933Y1102D01*
X1932Y1103D01*
X1932Y1104D01*
X1931Y1105D01*
X1931Y1106D01*
X1930Y1107D01*
X1929Y1108D01*
X1929Y1109D01*
X1928Y1110D01*
X1928Y1111D01*
X1927Y1112D01*
X1926Y1113D01*
X1926Y1114D01*
X1925Y1115D01*
X1925Y1116D01*
X1924Y1117D01*
X1924Y1118D01*
X1923Y1119D01*
X1922Y1120D01*
X1922Y1121D01*
X1921Y1122D01*
X1921Y1123D01*
X1920Y1124D01*
X1919Y1125D01*
X1919Y1126D01*
X1918Y1127D01*
X1918Y1128D01*
X1917Y1129D01*
X1917Y1130D01*
X1916Y1131D01*
X1915Y1132D01*
X1915Y1133D01*
X1914Y1134D01*
X1914Y1135D01*
X1913Y1136D01*
X1913Y1137D01*
X1912Y1138D01*
X1911Y1139D01*
X1911Y1140D01*
X1910Y1141D01*
X1910Y1142D01*
X1909Y1143D01*
X1909Y1144D01*
X1908Y1145D01*
X1907Y1146D01*
X1907Y1147D01*
X1906Y1148D01*
X1906Y1149D01*
X1905Y1150D01*
X1905Y1151D01*
X1904Y1152D01*
X1903Y1153D01*
X1903Y1154D01*
X1902Y1155D01*
X1902Y1156D01*
X1901Y1157D01*
X1901Y1158D01*
X1900Y1159D01*
X1899Y1160D01*
X1899Y1161D01*
X1898Y1162D01*
X1898Y1163D01*
X1897Y1164D01*
X1897Y1165D01*
X1896Y1166D01*
X1895Y1167D01*
X1895Y1168D01*
X1894Y1169D01*
X1894Y1170D01*
X1893Y1171D01*
X1893Y1172D01*
X1892Y1173D01*
X1891Y1174D01*
X1891Y1175D01*
X1890Y1176D01*
X1890Y1177D01*
X1889Y1178D01*
X1889Y1179D01*
X1888Y1180D01*
X1887Y1181D01*
X1887Y1182D01*
X1886Y1183D01*
X1886Y1184D01*
X1885Y1185D01*
X1885Y1186D01*
X1884Y1187D01*
X1883Y1188D01*
X1883Y1189D01*
X1882Y1190D01*
X1882Y1191D01*
X1881Y1192D01*
X1881Y1193D01*
X1880Y1194D01*
X1879Y1195D01*
X1879Y1196D01*
X1878Y1197D01*
X1878Y1198D01*
X1877Y1199D01*
X1877Y1200D01*
X1876Y1201D01*
X1875Y1202D01*
X1875Y1203D01*
X1874Y1204D01*
X1874Y1205D01*
X1873Y1206D01*
X1873Y1207D01*
X1872Y1208D01*
X1872Y1209D01*
X1871Y1210D01*
X1870Y1211D01*
X1870Y1212D01*
X1869Y1213D01*
X1869Y1214D01*
X1868Y1215D01*
X1868Y1216D01*
X1867Y1217D01*
X1866Y1218D01*
X1866Y1219D01*
X1865Y1220D01*
X1865Y1221D01*
X1864Y1222D01*
X1864Y1223D01*
X1863Y1224D01*
X1862Y1225D01*
X1862Y1226D01*
X1861Y1227D01*
X1861Y1228D01*
X1860Y1229D01*
X1860Y1230D01*
X1859Y1231D01*
X1859Y1232D01*
X1858Y1233D01*
X1857Y1234D01*
X1857Y1235D01*
X1856Y1236D01*
X1856Y1237D01*
X1855Y1238D01*
X1855Y1239D01*
X1854Y1240D01*
X1853Y1241D01*
X1853Y1242D01*
X1852Y1243D01*
X1852Y1244D01*
X1851Y1245D01*
X1851Y1246D01*
X1850Y1247D01*
X1850Y1248D01*
X1849Y1249D01*
X1848Y1250D01*
X1848Y1251D01*
X1847Y1252D01*
X1847Y1253D01*
X1846Y1254D01*
X1846Y1255D01*
X1845Y1256D01*
X1845Y1257D01*
X1844Y1258D01*
X1843Y1259D01*
X1843Y1260D01*
X1842Y1261D01*
X1842Y1262D01*
X1841Y1263D01*
X1841Y1264D01*
X1840Y1265D01*
X1839Y1266D01*
X1839Y1267D01*
X1838Y1268D01*
X1838Y1269D01*
X1837Y1270D01*
X1837Y1271D01*
X1836Y1272D01*
X1836Y1273D01*
X1835Y1274D01*
X1834Y1275D01*
X1834Y1276D01*
X1833Y1277D01*
X1833Y1278D01*
X1832Y1279D01*
X1832Y1280D01*
X1831Y1281D01*
X1830Y1282D01*
X1830Y1283D01*
X1829Y1284D01*
X1829Y1285D01*
X1828Y1286D01*
X1828Y1287D01*
X1827Y1288D01*
X1827Y1289D01*
X1826Y1290D01*
X1826Y1291D01*
X1825Y1292D01*
X1824Y1293D01*
X1824Y1294D01*
X1823Y1295D01*
X1823Y1296D01*
X1822Y1297D01*
X1822Y1298D01*
X1821Y1299D01*
X1821Y1300D01*
X1820Y1301D01*
X1819Y1302D01*
X1819Y1303D01*
X1818Y1304D01*
X1818Y1305D01*
X1817Y1306D01*
X1817Y1307D01*
X1816Y1308D01*
X1816Y1309D01*
X1815Y1310D01*
X1814Y1311D01*
X1814Y1312D01*
X1813Y1313D01*
X1813Y1314D01*
X1812Y1315D01*
X1812Y1316D01*
X1811Y1317D01*
X1811Y1318D01*
X1810Y1319D01*
X1809Y1320D01*
X1809Y1321D01*
X1808Y1322D01*
X1808Y1323D01*
X1807Y1324D01*
X1807Y1325D01*
X1806Y1326D01*
X1806Y1327D01*
X1805Y1328D01*
X1804Y1329D01*
X1804Y1330D01*
X1803Y1331D01*
X1803Y1332D01*
X1802Y1333D01*
X1802Y1334D01*
X1801Y1335D01*
X1801Y1336D01*
X1800Y1337D01*
X1800Y1338D01*
X1799Y1339D01*
X1798Y1340D01*
X1798Y1341D01*
X1797Y1342D01*
X1797Y1343D01*
X1796Y1344D01*
X1796Y1345D01*
X1795Y1346D01*
X1795Y1347D01*
X1794Y1348D01*
X1793Y1349D01*
X1793Y1350D01*
X1792Y1351D01*
X1792Y1352D01*
X1791Y1353D01*
X1791Y1354D01*
X1790Y1355D01*
X1790Y1356D01*
X1789Y1357D01*
X1789Y1358D01*
X1788Y1359D01*
X1787Y1360D01*
X1787Y1361D01*
X1786Y1362D01*
X1786Y1363D01*
X1785Y1364D01*
X1785Y1365D01*
X1784Y1366D01*
X1784Y1367D01*
X1783Y1368D01*
X1783Y1369D01*
X1782Y1370D01*
X1781Y1371D01*
X1781Y1372D01*
X1780Y1373D01*
X1780Y1374D01*
X1779Y1375D01*
X1779Y1376D01*
X1778Y1377D01*
X1778Y1378D01*
X1777Y1379D01*
X1777Y1380D01*
X1776Y1381D01*
X1775Y1382D01*
X1775Y1383D01*
X1774Y1384D01*
X1774Y1385D01*
X1773Y1386D01*
X1773Y1387D01*
X1772Y1388D01*
X1772Y1389D01*
X1771Y1390D01*
X1771Y1391D01*
X1770Y1392D01*
X1769Y1393D01*
X1769Y1394D01*
X1768Y1395D01*
X1768Y1396D01*
X1767Y1397D01*
X1767Y1398D01*
X1766Y1399D01*
X1766Y1400D01*
X1765Y1401D01*
X1765Y1402D01*
X1764Y1403D01*
X1764Y1404D01*
X1763Y1405D01*
X1762Y1406D01*
X1762Y1407D01*
X1761Y1408D01*
X1761Y1409D01*
X1760Y1410D01*
X1760Y1411D01*
X1759Y1412D01*
X1759Y1413D01*
X1758Y1414D01*
X1758Y1415D01*
X1757Y1416D01*
X1756Y1417D01*
X1756Y1418D01*
X1755Y1419D01*
X1755Y1420D01*
X1754Y1421D01*
X1754Y1422D01*
X1753Y1423D01*
X1753Y1424D01*
X1752Y1425D01*
X1752Y1426D01*
X1751Y1427D01*
X1751Y1428D01*
X1750Y1429D01*
X1749Y1430D01*
X1749Y1431D01*
X1748Y1432D01*
X1748Y1433D01*
X1747Y1434D01*
X1747Y1435D01*
X1746Y1436D01*
X1746Y1437D01*
X1745Y1438D01*
X1745Y1439D01*
X1744Y1440D01*
X1744Y1441D01*
X1743Y1442D01*
X1742Y1443D01*
X1742Y1444D01*
X1741Y1445D01*
X1741Y1446D01*
X1740Y1447D01*
X1740Y1448D01*
X1739Y1449D01*
X1739Y1450D01*
X1738Y1451D01*
X1738Y1452D01*
X1737Y1453D01*
X1737Y1454D01*
X1736Y1455D01*
X1735Y1456D01*
X1735Y1457D01*
X1734Y1458D01*
X1734Y1459D01*
X1733Y1460D01*
X1733Y1461D01*
X1732Y1462D01*
X1732Y1463D01*
X1731Y1464D01*
X1731Y1465D01*
X1730Y1466D01*
X1730Y1467D01*
X1729Y1468D01*
X1729Y1469D01*
X1728Y1470D01*
X1727Y1471D01*
X1727Y1472D01*
X1726Y1473D01*
X1726Y1474D01*
X1725Y1475D01*
X1725Y1476D01*
X1724Y1477D01*
X1724Y1478D01*
X1723Y1479D01*
X1723Y1480D01*
X1722Y1481D01*
X1722Y1482D01*
X1721Y1483D01*
X1721Y1484D01*
X1720Y1485D01*
X1719Y1486D01*
X1719Y1487D01*
X1718Y1488D01*
X1718Y1489D01*
X1717Y1490D01*
X1717Y1491D01*
X1716Y1492D01*
X1716Y1493D01*
X1715Y1494D01*
X1715Y1495D01*
X1714Y1496D01*
X1714Y1497D01*
X1713Y1498D01*
X1713Y1499D01*
X1712Y1500D01*
X1711Y1501D01*
X1711Y1502D01*
X1710Y1503D01*
X1710Y1504D01*
X1709Y1505D01*
X1709Y1506D01*
X1708Y1507D01*
X1708Y1508D01*
X1707Y1509D01*
X1707Y1510D01*
X1706Y1511D01*
X1706Y1512D01*
X1705Y1513D01*
X1705Y1514D01*
X1704Y1515D01*
X1704Y1516D01*
X1703Y1517D01*
X1702Y1518D01*
X1702Y1519D01*
X1701Y1520D01*
X1701Y1521D01*
X1700Y1522D01*
X1700Y1523D01*
X1699Y1524D01*
X1699Y1525D01*
X1698Y1526D01*
X1698Y1527D01*
X1697Y1528D01*
X1697Y1529D01*
X1696Y1530D01*
X1696Y1531D01*
X1695Y1532D01*
X1695Y1533D01*
X1694Y1534D01*
X1694Y1535D01*
X1693Y1536D01*
X1692Y1537D01*
X1692Y1538D01*
X1691Y1539D01*
X1691Y1540D01*
X1690Y1541D01*
X1690Y1542D01*
X1689Y1543D01*
X1689Y1544D01*
X1688Y1545D01*
X1688Y1546D01*
X1687Y1547D01*
X1687Y1548D01*
X1686Y1549D01*
X1686Y1550D01*
X1685Y1551D01*
X1685Y1552D01*
X1684Y1553D01*
X1683Y1554D01*
X1683Y1555D01*
X1682Y1556D01*
X1682Y1557D01*
X1681Y1558D01*
X1681Y1559D01*
X1680Y1560D01*
X1680Y1561D01*
X1679Y1562D01*
X1679Y1563D01*
X1678Y1564D01*
X1678Y1565D01*
X1677Y1566D01*
X1677Y1567D01*
X1676Y1568D01*
X1676Y1569D01*
X1675Y1570D01*
X1675Y1571D01*
X1674Y1572D01*
X1674Y1573D01*
X1673Y1574D01*
X1673Y1575D01*
X1672Y1576D01*
X1671Y1577D01*
X1671Y1578D01*
X1670Y1579D01*
X1670Y1580D01*
X1669Y1581D01*
X1669Y1582D01*
X1668Y1583D01*
X1668Y1584D01*
X1667Y1585D01*
X1667Y1586D01*
X1666Y1587D01*
X1666Y1588D01*
X1665Y1589D01*
X1665Y1590D01*
X1664Y1591D01*
X1664Y1592D01*
X1663Y1593D01*
X1663Y1594D01*
X1662Y1595D01*
X1662Y1596D01*
X1661Y1597D01*
X1661Y1598D01*
X1660Y1599D01*
X1659Y1600D01*
X1659Y1601D01*
X1658Y1602D01*
X1658Y1603D01*
X1657Y1604D01*
X1657Y1605D01*
X1656Y1606D01*
X1656Y1607D01*
X1655Y1608D01*
X1655Y1609D01*
X1654Y1610D01*
X1654Y1611D01*
X1653Y1612D01*
X1653Y1613D01*
X1652Y1614D01*
X1652Y1615D01*
X1651Y1616D01*
X1651Y1617D01*
X1650Y1618D01*
X1650Y1619D01*
X1649Y1620D01*
X1649Y1621D01*
X1648Y1622D01*
X1648Y1623D01*
X1647Y1624D01*
X1647Y1625D01*
X1646Y1626D01*
X1646Y1627D01*
X1645Y1628D01*
X1644Y1629D01*
X1644Y1630D01*
X1643Y1631D01*
X1643Y1632D01*
X1642Y1633D01*
X1642Y1634D01*
X1641Y1635D01*
X1641Y1636D01*
X1640Y1637D01*
X1640Y1638D01*
X1639Y1639D01*
X1639Y1640D01*
X1638Y1641D01*
X1638Y1642D01*
X1637Y1643D01*
X1637Y1644D01*
X1636Y1645D01*
X1636Y1646D01*
X1635Y1647D01*
X1635Y1648D01*
X1634Y1649D01*
X1634Y1650D01*
X1633Y1651D01*
X1633Y1652D01*
X1632Y1653D01*
X1632Y1654D01*
X1631Y1655D01*
X1631Y1656D01*
X1630Y1657D01*
X1630Y1658D01*
X1629Y1659D01*
X1629Y1660D01*
X1628Y1661D01*
X1627Y1662D01*
X1627Y1663D01*
X1626Y1664D01*
X1626Y1665D01*
X1625Y1666D01*
X1625Y1667D01*
X1624Y1668D01*
X1624Y1669D01*
X1623Y1670D01*
X1623Y1671D01*
X1622Y1672D01*
X1622Y1673D01*
X1621Y1674D01*
X1621Y1675D01*
X1620Y1676D01*
X1620Y1677D01*
X1619Y1678D01*
X1619Y1679D01*
X1618Y1680D01*
X1618Y1681D01*
X1617Y1682D01*
X1617Y1683D01*
X1616Y1684D01*
X1616Y1685D01*
X1615Y1686D01*
X1615Y1687D01*
X1614Y1688D01*
X1614Y1689D01*
X1613Y1690D01*
X1613Y1691D01*
X1612Y1692D01*
X1612Y1693D01*
X1611Y1694D01*
X1611Y1695D01*
X1610Y1696D01*
X1610Y1697D01*
X1609Y1698D01*
X1609Y1699D01*
X1608Y1700D01*
X1608Y1701D01*
X1607Y1702D01*
X1607Y1703D01*
X1606Y1704D01*
X1606Y1705D01*
X1605Y1706D01*
X1605Y1707D01*
X1604Y1708D01*
X1604Y1709D01*
X1603Y1710D01*
X1602Y1711D01*
X1602Y1712D01*
X1601Y1713D01*
X1601Y1714D01*
X1600Y1715D01*
X1600Y1716D01*
X1599Y1717D01*
X1599Y1718D01*
X1598Y1719D01*
X1598Y1720D01*
X1597Y1721D01*
X1597Y1722D01*
X1596Y1723D01*
X1596Y1724D01*
X1595Y1725D01*
X1595Y1726D01*
X1594Y1727D01*
X1594Y1728D01*
X1593Y1729D01*
X1593Y1730D01*
X1592Y1731D01*
X1592Y1732D01*
X1591Y1733D01*
X1591Y1734D01*
X1590Y1735D01*
X1590Y1736D01*
X1589Y1737D01*
X1589Y1738D01*
X1588Y1739D01*
X1588Y1740D01*
X1587Y1741D01*
X1587Y1742D01*
X1586Y1743D01*
X1586Y1744D01*
X1585Y1745D01*
X1585Y1746D01*
X1584Y1747D01*
X1584Y1748D01*
X1583Y1749D01*
X1583Y1750D01*
X1582Y1751D01*
X1582Y1752D01*
X1581Y1753D01*
X1581Y1754D01*
X1580Y1755D01*
X1580Y1756D01*
X1579Y1757D01*
X1579Y1758D01*
X1578Y1759D01*
X1578Y1760D01*
X1577Y1761D01*
X1577Y1762D01*
X1576Y1763D01*
X1576Y1764D01*
X1575Y1765D01*
X1575Y1766D01*
X1574Y1767D01*
X1574Y1768D01*
X1573Y1769D01*
X1573Y1770D01*
X1572Y1771D01*
X1572Y1772D01*
X1571Y1773D01*
X1571Y1774D01*
X1570Y1775D01*
X1570Y1776D01*
X1569Y1777D01*
X1569Y1778D01*
X1568Y1779D01*
X1568Y1780D01*
X1567Y1781D01*
X1567Y1782D01*
X1566Y1783D01*
X1566Y1784D01*
X1565Y1785D01*
X1565Y1786D01*
X1564Y1787D01*
X1564Y1788D01*
X1563Y1789D01*
X1563Y1790D01*
X1562Y1791D01*
X1562Y1792D01*
X1561Y1793D01*
X1561Y1794D01*
X1560Y1795D01*
X1560Y1796D01*
X1559Y1797D01*
X1559Y1798D01*
X1558Y1799D01*
X1558Y1800D01*
X1557Y1801D01*
X1557Y1802D01*
X1556Y1803D01*
X1556Y1804D01*
X1555Y1805D01*
X1555Y1806D01*
X1554Y1807D01*
X1554Y1808D01*
X1553Y1809D01*
X1553Y1810D01*
X1552Y1811D01*
X1552Y1812D01*
X1551Y1813D01*
X1551Y1814D01*
X1550Y1815D01*
X1550Y1816D01*
X1549Y1817D01*
X1549Y1818D01*
X1548Y1819D01*
X1548Y1820D01*
X1547Y1821D01*
X1547Y1822D01*
X1546Y1823D01*
X1546Y1824D01*
X1545Y1825D01*
X1545Y1826D01*
X1544Y1827D01*
X1544Y1828D01*
X1543Y1829D01*
X1543Y1830D01*
X1542Y1831D01*
X1542Y1832D01*
X1541Y1833D01*
X1541Y1834D01*
X1540Y1835D01*
X1540Y1836D01*
X1539Y1837D01*
X1539Y1838D01*
X1538Y1839D01*
X1538Y1840D01*
X1537Y1841D01*
X1537Y1842D01*
X1536Y1843D01*
X1536Y1844D01*
X1535Y1845D01*
X1535Y1846D01*
X1534Y1847D01*
X1534Y1848D01*
X1533Y1849D01*
X1533Y1850D01*
X1532Y1851D01*
X1532Y1852D01*
X1531Y1853D01*
X1531Y1854D01*
X1530Y1855D01*
X1530Y1856D01*
X1529Y1857D01*
X1529Y1859D01*
X1528Y1860D01*
X1528Y1861D01*
X1527Y1862D01*
X1527Y1863D01*
X1526Y1864D01*
X1526Y1865D01*
X1525Y1866D01*
X1525Y1867D01*
X1524Y1868D01*
X1524Y1869D01*
X1523Y1870D01*
X1523Y1871D01*
X1522Y1872D01*
X1522Y1873D01*
X1521Y1874D01*
X1521Y1875D01*
X1520Y1876D01*
X1520Y1877D01*
X1519Y1878D01*
X1519Y1879D01*
X1518Y1880D01*
X1518Y1881D01*
X1517Y1882D01*
X1517Y1883D01*
X1516Y1884D01*
X1516Y1885D01*
X1515Y1886D01*
X1515Y1887D01*
X1514Y1888D01*
X1514Y1889D01*
X1513Y1890D01*
X1513Y1891D01*
X1512Y1892D01*
X1512Y1893D01*
X1511Y1894D01*
X1511Y1895D01*
X1510Y1896D01*
X1510Y1897D01*
X1509Y1898D01*
X1509Y1899D01*
X1508Y1900D01*
X1508Y1901D01*
X1507Y1902D01*
X1507Y1903D01*
X1506Y1904D01*
X1506Y1905D01*
X1505Y1906D01*
X1505Y1907D01*
X1504Y1908D01*
X1504Y1910D01*
X1503Y1911D01*
X1503Y1912D01*
X1502Y1913D01*
X1502Y1914D01*
X1501Y1915D01*
X1501Y1916D01*
X1500Y1917D01*
X1500Y1918D01*
X1499Y1919D01*
X1499Y1920D01*
X1498Y1921D01*
X1498Y1922D01*
X1497Y1923D01*
X1497Y1924D01*
X1496Y1925D01*
X1496Y1926D01*
X1495Y1927D01*
X1495Y1928D01*
X1494Y1929D01*
X1494Y1930D01*
X1493Y1931D01*
X1493Y1932D01*
X1492Y1933D01*
X1492Y1934D01*
X1491Y1935D01*
X1491Y1936D01*
X1490Y1937D01*
X1490Y1938D01*
X1489Y1939D01*
X1489Y1940D01*
X1488Y1941D01*
X1488Y1943D01*
X1487Y1944D01*
X1487Y1945D01*
X1486Y1946D01*
X1486Y1947D01*
X1485Y1948D01*
X1485Y1949D01*
X1484Y1950D01*
X1484Y1951D01*
X1483Y1952D01*
X1483Y1953D01*
X1482Y1954D01*
X1482Y1955D01*
X1481Y1956D01*
X1481Y1957D01*
X1480Y1958D01*
X1480Y1959D01*
X1479Y1960D01*
X1479Y1961D01*
X1478Y1962D01*
X1478Y1963D01*
X1477Y1964D01*
X1477Y1965D01*
X1476Y1966D01*
X1476Y1967D01*
X1475Y1968D01*
X1475Y1969D01*
X1474Y1970D01*
X1474Y1972D01*
X1473Y1973D01*
X1473Y1974D01*
X1472Y1975D01*
X1472Y1976D01*
X1471Y1977D01*
X1471Y1978D01*
X1470Y1979D01*
X1470Y1980D01*
X1469Y1981D01*
X1469Y1982D01*
X1468Y1983D01*
X1468Y1984D01*
X1467Y1985D01*
X1467Y1986D01*
X1466Y1987D01*
X1466Y1988D01*
X1465Y1989D01*
X1465Y1990D01*
X1464Y1991D01*
X1464Y1992D01*
X1463Y1993D01*
X1463Y1994D01*
X1462Y1995D01*
X1462Y1997D01*
X1461Y1998D01*
X1461Y1999D01*
X1460Y2000D01*
X1460Y2001D01*
X1459Y2002D01*
X1459Y2003D01*
X1458Y2004D01*
X1458Y2005D01*
X1457Y2006D01*
X1457Y2007D01*
X1456Y2008D01*
X1456Y2009D01*
X1455Y2010D01*
X1455Y2011D01*
X1454Y2012D01*
X1454Y2013D01*
X1453Y2014D01*
X1453Y2015D01*
X1452Y2016D01*
X1452Y2017D01*
X1451Y2018D01*
X1451Y2019D01*
X1450Y2020D01*
X1450Y2022D01*
X1449Y2023D01*
X1449Y2024D01*
X1448Y2025D01*
X1448Y2026D01*
X1447Y2027D01*
X1447Y2028D01*
X1446Y2029D01*
X1446Y2030D01*
X1445Y2031D01*
X1445Y2032D01*
X1444Y2033D01*
X1444Y2034D01*
X1443Y2035D01*
X1443Y2036D01*
X1442Y2037D01*
X1442Y2038D01*
X1441Y2039D01*
X1441Y2041D01*
X1440Y2042D01*
X1440Y2043D01*
X1439Y2044D01*
X1439Y2045D01*
X1438Y2046D01*
X1438Y2047D01*
X1437Y2048D01*
X1437Y2049D01*
X1436Y2050D01*
X1436Y2051D01*
X1435Y2052D01*
X1435Y2053D01*
X1434Y2054D01*
X1434Y2055D01*
X1433Y2056D01*
X1433Y2057D01*
X1432Y2058D01*
X1432Y2060D01*
X1431Y2061D01*
X1431Y2062D01*
X1430Y2063D01*
X1430Y2064D01*
X1429Y2065D01*
X1429Y2066D01*
X1428Y2067D01*
X1428Y2068D01*
X1427Y2069D01*
X1427Y2070D01*
X1426Y2071D01*
X1426Y2072D01*
X1425Y2073D01*
X1425Y2074D01*
X1424Y2075D01*
X1424Y2076D01*
X1423Y2077D01*
X1423Y2079D01*
X1422Y2080D01*
X1422Y2081D01*
X1421Y2082D01*
X1421Y2083D01*
X1420Y2084D01*
X1420Y2085D01*
X1419Y2086D01*
X1419Y2087D01*
X1418Y2088D01*
X1418Y2089D01*
X1417Y2090D01*
X1417Y2091D01*
X1416Y2092D01*
X1416Y2094D01*
X1415Y2095D01*
X1415Y2096D01*
X1414Y2097D01*
X1414Y2098D01*
X1413Y2099D01*
X1413Y2100D01*
X1412Y2101D01*
X1412Y2102D01*
X1411Y2103D01*
X1411Y2104D01*
X1410Y2105D01*
X1410Y2106D01*
X1409Y2107D01*
X1409Y2108D01*
X1408Y2109D01*
X1408Y2111D01*
X1407Y2112D01*
X1407Y2113D01*
X1406Y2114D01*
X1406Y2115D01*
X1405Y2116D01*
X1405Y2117D01*
X1404Y2118D01*
X1404Y2119D01*
X1403Y2120D01*
X1403Y2121D01*
X1402Y2122D01*
X1402Y2123D01*
X1401Y2124D01*
X1401Y2126D01*
X1400Y2127D01*
X1400Y2128D01*
X1399Y2129D01*
X1399Y2130D01*
X1398Y2131D01*
X1398Y2132D01*
X1397Y2133D01*
X1397Y2134D01*
X1396Y2135D01*
X1396Y2136D01*
X1395Y2137D01*
X1395Y2138D01*
X1394Y2139D01*
X1394Y2141D01*
X1393Y2142D01*
X1393Y2143D01*
X1392Y2144D01*
X1392Y2145D01*
X1391Y2146D01*
X1391Y2147D01*
X1390Y2148D01*
X1390Y2149D01*
X1389Y2150D01*
X1389Y2151D01*
X1388Y2152D01*
X1388Y2154D01*
X1387Y2155D01*
X1387Y2156D01*
X1386Y2157D01*
X1386Y2158D01*
X1385Y2159D01*
X1385Y2160D01*
X1384Y2161D01*
X1384Y2162D01*
X1383Y2163D01*
X1383Y2164D01*
X1382Y2165D01*
X1382Y2166D01*
X1381Y2167D01*
X1381Y2169D01*
X1380Y2170D01*
X1380Y2171D01*
X1379Y2172D01*
X1379Y2173D01*
X1378Y2174D01*
X1378Y2175D01*
X1377Y2176D01*
X1377Y2177D01*
X1376Y2178D01*
X1376Y2179D01*
X1375Y2180D01*
X1375Y2182D01*
X1374Y2183D01*
X1374Y2184D01*
X1373Y2185D01*
X1373Y2186D01*
X1372Y2187D01*
X1372Y2188D01*
X1371Y2189D01*
X1371Y2190D01*
X1370Y2191D01*
X1370Y2192D01*
X1369Y2193D01*
X1369Y2195D01*
X1368Y2196D01*
X1368Y2197D01*
X1367Y2198D01*
X1367Y2199D01*
X1366Y2200D01*
X1366Y2201D01*
X1365Y2202D01*
X1365Y2203D01*
X1364Y2204D01*
X1364Y2205D01*
X1363Y2206D01*
X1363Y2208D01*
X1362Y2209D01*
X1362Y2210D01*
X1361Y2211D01*
X1361Y2212D01*
X1360Y2213D01*
X1360Y2214D01*
X1359Y2215D01*
X1359Y2216D01*
X1358Y2217D01*
X1358Y2219D01*
X1357Y2220D01*
X1357Y2221D01*
X1356Y2222D01*
X1356Y2223D01*
X1355Y2224D01*
X1355Y2225D01*
X1354Y2226D01*
X1354Y2227D01*
X1353Y2228D01*
X1353Y2230D01*
X1352Y2231D01*
X1352Y2232D01*
X1351Y2233D01*
X1351Y2234D01*
X1350Y2235D01*
X1350Y2236D01*
X1349Y2237D01*
X1349Y2238D01*
X1348Y2239D01*
X1348Y2240D01*
X1347Y2241D01*
X1347Y2243D01*
X1346Y2244D01*
X1346Y2245D01*
X1345Y2246D01*
X1345Y2247D01*
X1344Y2248D01*
X1344Y2249D01*
X1343Y2250D01*
X1343Y2251D01*
X1342Y2252D01*
X1342Y2254D01*
X1341Y2255D01*
X1341Y2256D01*
X1340Y2257D01*
X1340Y2258D01*
X1339Y2259D01*
X1339Y2260D01*
X1338Y2261D01*
X1338Y2262D01*
X1337Y2263D01*
X1337Y2265D01*
X1336Y2266D01*
X1336Y2267D01*
X1335Y2268D01*
X1335Y2269D01*
X1334Y2270D01*
X1334Y2271D01*
X1333Y2272D01*
X1333Y2273D01*
X1332Y2274D01*
X1332Y2276D01*
X1331Y2277D01*
X1331Y2278D01*
X1330Y2279D01*
X1330Y2280D01*
X1329Y2281D01*
X1329Y2282D01*
X1328Y2283D01*
X1328Y2285D01*
X1327Y2286D01*
X1327Y2287D01*
X1326Y2288D01*
X1326Y2289D01*
X1325Y2290D01*
X1325Y2291D01*
X1324Y2292D01*
X1324Y2293D01*
X1323Y2294D01*
X1323Y2296D01*
X1322Y2297D01*
X1322Y2298D01*
X1321Y2299D01*
X1321Y2300D01*
X1320Y2301D01*
X1320Y2302D01*
X1319Y2303D01*
X1319Y2304D01*
X1318Y2305D01*
X1318Y2307D01*
X1317Y2308D01*
X1317Y2309D01*
X1316Y2310D01*
X1316Y2311D01*
X1315Y2312D01*
X1315Y2313D01*
X1314Y2314D01*
X1314Y2316D01*
X1313Y2317D01*
X1313Y2318D01*
X1312Y2319D01*
X1312Y2320D01*
X1311Y2321D01*
X1311Y2322D01*
X1310Y2323D01*
X1310Y2324D01*
X1309Y2325D01*
X1309Y2327D01*
X1308Y2328D01*
X1308Y2329D01*
X1307Y2330D01*
X1307Y2331D01*
X1306Y2332D01*
X1306Y2333D01*
X1305Y2334D01*
X1305Y2336D01*
X1304Y2337D01*
X1304Y2338D01*
X1303Y2339D01*
X1303Y2340D01*
X1302Y2341D01*
X1302Y2342D01*
X1301Y2343D01*
X1301Y2345D01*
X1300Y2346D01*
X1300Y2347D01*
X1299Y2348D01*
X1299Y2349D01*
X1298Y2350D01*
X1298Y2351D01*
X1297Y2352D01*
X1297Y2354D01*
X1296Y2355D01*
X1296Y2356D01*
X1295Y2357D01*
X1295Y2358D01*
X1294Y2359D01*
X1294Y2360D01*
X1293Y2361D01*
X1293Y2363D01*
X1292Y2364D01*
X1292Y2365D01*
X1291Y2366D01*
X1291Y2367D01*
X1290Y2368D01*
X1290Y2369D01*
X1289Y2370D01*
X1289Y2371D01*
X1288Y2372D01*
X1288Y2374D01*
X1287Y2375D01*
X1287Y2376D01*
X1286Y2377D01*
X1286Y2378D01*
X1285Y2379D01*
X1285Y2380D01*
X1284Y2381D01*
X1284Y2383D01*
X1283Y2384D01*
X1283Y2385D01*
X1282Y2386D01*
X1282Y2387D01*
X1281Y2388D01*
X1281Y2389D01*
X1280Y2390D01*
X1280Y2392D01*
X1279Y2393D01*
X1279Y2394D01*
X1278Y2395D01*
X1278Y2396D01*
X1277Y2397D01*
X1277Y2399D01*
X1276Y2400D01*
X1276Y2401D01*
X1275Y2402D01*
X1275Y2403D01*
X1274Y2404D01*
X1274Y2405D01*
X1273Y2406D01*
X1273Y2408D01*
X1272Y2409D01*
X1272Y2410D01*
X1271Y2411D01*
X1271Y2412D01*
X1270Y2413D01*
X1270Y2414D01*
X1269Y2415D01*
X1269Y2417D01*
X1268Y2418D01*
X1268Y2419D01*
X1267Y2420D01*
X1267Y2421D01*
X1266Y2422D01*
X1266Y2423D01*
X1265Y2424D01*
X1265Y2426D01*
X1264Y2427D01*
X1264Y2428D01*
X1263Y2429D01*
X1263Y2430D01*
X1262Y2431D01*
X1262Y2433D01*
X1261Y2434D01*
X1261Y2435D01*
X1260Y2436D01*
X1260Y2437D01*
X1259Y2438D01*
X1259Y2439D01*
X1258Y2440D01*
X1258Y2442D01*
X1257Y2443D01*
X1257Y2444D01*
X1256Y2445D01*
X1256Y2446D01*
X1255Y2447D01*
X1255Y2448D01*
X1254Y2449D01*
X1254Y2451D01*
X1253Y2452D01*
X1253Y2453D01*
X1252Y2454D01*
X1252Y2455D01*
X1251Y2456D01*
X1251Y2458D01*
X1250Y2459D01*
X1250Y2460D01*
X1249Y2461D01*
X1249Y2462D01*
X1248Y2463D01*
X1248Y2465D01*
X1247Y2466D01*
X1247Y2467D01*
X1246Y2468D01*
X1246Y2469D01*
X1245Y2470D01*
X1245Y2471D01*
X1244Y2472D01*
X1244Y2474D01*
X1243Y2475D01*
X1243Y2476D01*
X1242Y2477D01*
X1242Y2478D01*
X1241Y2479D01*
X1241Y2481D01*
X1240Y2482D01*
X1240Y2483D01*
X1239Y2484D01*
X1239Y2485D01*
X1238Y2486D01*
X1238Y2487D01*
X1237Y2488D01*
X1237Y2490D01*
X1236Y2491D01*
X1236Y2492D01*
X1235Y2493D01*
X1235Y2494D01*
X1234Y2495D01*
X1234Y2497D01*
X1233Y2498D01*
X1233Y2499D01*
X1232Y2500D01*
X1232Y2501D01*
X1231Y2502D01*
X1231Y2504D01*
X1230Y2505D01*
X1230Y2506D01*
X1229Y2507D01*
X1229Y2508D01*
X1228Y2509D01*
X1228Y2510D01*
X1227Y2511D01*
X1227Y2513D01*
X1226Y2514D01*
X1226Y2515D01*
X1225Y2516D01*
X1225Y2517D01*
X1224Y2518D01*
X1224Y2520D01*
X1223Y2521D01*
X1223Y2522D01*
X1222Y2523D01*
X1222Y2524D01*
X1221Y2525D01*
X1221Y2527D01*
X1220Y2528D01*
X1220Y2529D01*
X1219Y2530D01*
X1219Y2531D01*
X1218Y2532D01*
X1218Y2534D01*
X1217Y2535D01*
X1217Y2536D01*
X1216Y2537D01*
X1216Y2538D01*
X1215Y2539D01*
X1215Y2541D01*
X1214Y2542D01*
X1214Y2543D01*
X1213Y2544D01*
X1213Y2545D01*
X1212Y2546D01*
X1212Y2548D01*
X1211Y2549D01*
X1211Y2550D01*
X1210Y2551D01*
X1210Y2552D01*
X1209Y2553D01*
X1209Y2555D01*
X1208Y2556D01*
X1208Y2557D01*
X1207Y2558D01*
X1207Y2559D01*
X1206Y2560D01*
X1206Y2562D01*
X1205Y2563D01*
X1205Y2564D01*
X1204Y2565D01*
X1204Y2566D01*
X1203Y2567D01*
X1203Y2569D01*
X1202Y2570D01*
X1202Y2571D01*
X1201Y2572D01*
X1201Y2573D01*
X1200Y2574D01*
X1200Y2576D01*
X1199Y2577D01*
X1199Y2578D01*
X1198Y2579D01*
X1198Y2580D01*
X1197Y2581D01*
X1197Y2583D01*
X1196Y2584D01*
X1196Y2585D01*
X1195Y2586D01*
X1195Y2587D01*
X1194Y2588D01*
X1194Y2590D01*
X1193Y2591D01*
X1193Y2592D01*
X1192Y2593D01*
X1192Y2594D01*
X1191Y2595D01*
X1191Y2597D01*
X1190Y2598D01*
X1190Y2599D01*
X1189Y2600D01*
X1189Y2601D01*
X1188Y2602D01*
X1188Y2604D01*
X1187Y2605D01*
X1187Y2606D01*
X1186Y2607D01*
X1186Y2608D01*
X1185Y2609D01*
X1185Y2611D01*
X1184Y2612D01*
X1184Y2613D01*
X1183Y2614D01*
X1183Y2615D01*
X1182Y2616D01*
X1182Y2618D01*
X1181Y2619D01*
X1181Y2620D01*
X1180Y2621D01*
X1180Y2623D01*
X1179Y2624D01*
X1179Y2625D01*
X1178Y2626D01*
X1178Y2627D01*
X1177Y2628D01*
X1177Y2630D01*
X1176Y2631D01*
X1176Y2632D01*
X1175Y2633D01*
X1175Y2634D01*
X1174Y2635D01*
X1174Y2637D01*
X1173Y2638D01*
X1173Y2639D01*
X1172Y2640D01*
X1172Y2641D01*
X1171Y2642D01*
X1171Y2644D01*
X1170Y2645D01*
X1170Y2646D01*
X1169Y2647D01*
X1169Y2649D01*
X1168Y2650D01*
X1168Y2651D01*
X1167Y2652D01*
X1167Y2653D01*
X1166Y2654D01*
X1166Y2656D01*
X1165Y2657D01*
X1165Y2658D01*
X1164Y2659D01*
X1164Y2660D01*
X1163Y2661D01*
X1163Y2663D01*
X1162Y2664D01*
X1162Y2665D01*
X1161Y2666D01*
X1161Y2668D01*
X1160Y2669D01*
X1160Y2670D01*
X1159Y2671D01*
X1159Y2672D01*
X1158Y2673D01*
X1158Y2675D01*
X1157Y2676D01*
X1157Y2677D01*
X1156Y2678D01*
X1156Y2679D01*
X1155Y2680D01*
X1155Y2682D01*
X1154Y2683D01*
X1154Y2684D01*
X1153Y2685D01*
X1153Y2687D01*
X1152Y2688D01*
X1152Y2689D01*
X1151Y2690D01*
X1151Y2691D01*
X1150Y2692D01*
X1150Y2694D01*
X1149Y2695D01*
X1149Y2696D01*
X1148Y2697D01*
X1148Y2699D01*
X1147Y2700D01*
X1147Y2701D01*
X1146Y2702D01*
X1146Y2703D01*
X1145Y2704D01*
X1145Y2706D01*
X1144Y2707D01*
X1144Y2708D01*
X1143Y2709D01*
X1143Y2711D01*
X1142Y2712D01*
X1142Y2713D01*
X1141Y2714D01*
X1141Y2715D01*
X1140Y2716D01*
X1140Y2718D01*
X1139Y2719D01*
X1139Y2720D01*
X1138Y2721D01*
X1138Y2723D01*
X1137Y2724D01*
X1137Y2725D01*
X1136Y2726D01*
X1136Y2727D01*
X1135Y2728D01*
X1135Y2730D01*
X1134Y2731D01*
X1134Y2732D01*
X1133Y2733D01*
X1133Y2735D01*
X1132Y2736D01*
X1132Y2737D01*
X1131Y2738D01*
X1131Y2739D01*
X1130Y2740D01*
X1130Y2742D01*
X1129Y2743D01*
X1129Y2744D01*
X1128Y2745D01*
X1128Y2747D01*
X1127Y2748D01*
X1127Y2749D01*
X1126Y2750D01*
X1126Y2751D01*
X1125Y2752D01*
X1124Y2751D01*
X1124Y1858D01*
X1125Y1857D01*
X1125Y1529D01*
X1126Y1528D01*
X1126Y1320D01*
X1127Y1319D01*
X1127Y1141D01*
X1128Y1140D01*
X1128Y1009D01*
X1129Y1008D01*
X1129Y899D01*
X1130Y898D01*
X1130Y808D01*
X1131Y807D01*
X1131Y733D01*
X1132Y732D01*
X1132Y668D01*
X1133Y667D01*
X1133Y610D01*
X1134Y609D01*
X1134Y563D01*
X1135Y562D01*
X1135Y522D01*
X1136Y521D01*
X1136Y485D01*
X1137Y484D01*
X1137Y456D01*
X1138Y455D01*
X1138Y429D01*
X1139Y428D01*
X1139Y427D01*
X1140Y426D01*
X1141Y426D01*
X1142Y426D01*
X1143Y426D01*
X1144Y426D01*
X1145Y426D01*
X1146Y426D01*
X1147Y426D01*
X1148Y426D01*
X1149Y426D01*
X1150Y426D01*
X1151Y426D01*
X1152Y426D01*
X1153Y426D01*
X1154Y426D01*
X1155Y426D01*
X1156Y426D01*
X1157Y426D01*
X1158Y426D01*
X1159Y426D01*
X1160Y426D01*
X1161Y426D01*
X1162Y426D01*
X1163Y426D01*
X1164Y426D01*
X1165Y426D01*
X1166Y426D01*
X1167Y426D01*
X1168Y426D01*
X1169Y426D01*
X1170Y426D01*
X1171Y426D01*
X1172Y426D01*
X1173Y426D01*
X1174Y426D01*
X1175Y426D01*
X1176Y426D01*
X1177Y426D01*
X1178Y426D01*
X1179Y426D01*
X1180Y426D01*
X1181Y426D01*
X1182Y426D01*
X1183Y426D01*
X1184Y426D01*
X1185Y426D01*
X1186Y426D01*
X1187Y426D01*
X1188Y426D01*
X1189Y426D01*
X1190Y426D01*
X1191Y426D01*
X1192Y426D01*
X1193Y426D01*
X1194Y426D01*
X1195Y426D01*
X1196Y426D01*
X1197Y426D01*
X1198Y426D01*
X1199Y426D01*
X1200Y426D01*
X1201Y426D01*
X1202Y426D01*
X1203Y426D01*
X1204Y426D01*
X1205Y426D01*
X1206Y426D01*
X1207Y426D01*
X1208Y426D01*
X1209Y426D01*
X1210Y426D01*
X1211Y426D01*
X1212Y426D01*
X1213Y426D01*
X1214Y426D01*
X1215Y426D01*
X1216Y426D01*
X1217Y426D01*
X1218Y426D01*
X1219Y426D01*
X1220Y426D01*
X1221Y426D01*
X1222Y426D01*
X1223Y426D01*
X1224Y426D01*
X1225Y426D01*
X1226Y426D01*
X1227Y426D01*
X1228Y426D01*
X1229Y426D01*
X1230Y426D01*
X1231Y426D01*
X1232Y426D01*
X1233Y426D01*
X1234Y426D01*
X1235Y426D01*
X1236Y426D01*
X1237Y426D01*
X1238Y426D01*
X1239Y426D01*
X1240Y426D01*
X1241Y426D01*
X1242Y426D01*
X1243Y426D01*
X1244Y426D01*
X1245Y426D01*
X1246Y426D01*
X1247Y426D01*
X1248Y426D01*
X1249Y426D01*
X1250Y426D01*
X1251Y426D01*
X1252Y426D01*
X1253Y426D01*
X1254Y426D01*
X1255Y426D01*
X1256Y426D01*
X1257Y426D01*
X1258Y426D01*
X1259Y426D01*
X1260Y426D01*
X1261Y426D01*
X1262Y426D01*
X1263Y426D01*
X1264Y426D01*
X1265Y426D01*
X1266Y426D01*
X1267Y426D01*
X1268Y426D01*
X1269Y426D01*
X1270Y426D01*
X1271Y426D01*
X1272Y426D01*
X1273Y426D01*
X1274Y426D01*
X1275Y426D01*
X1276Y426D01*
X1277Y426D01*
X1278Y426D01*
X1279Y426D01*
X1280Y426D01*
X1281Y426D01*
X1282Y426D01*
X1283Y426D01*
X1284Y426D01*
X1285Y426D01*
X1286Y426D01*
X1287Y426D01*
X1288Y426D01*
X1289Y426D01*
X1290Y426D01*
X1291Y426D01*
X1292Y426D01*
X1293Y426D01*
X1294Y426D01*
X1295Y426D01*
X1296Y426D01*
X1297Y426D01*
X1298Y426D01*
X1299Y426D01*
X1300Y426D01*
X1301Y426D01*
X1302Y426D01*
X1303Y426D01*
X1304Y426D01*
X1305Y426D01*
X1306Y426D01*
X1307Y426D01*
X1308Y426D01*
X1309Y426D01*
X1310Y426D01*
X1311Y426D01*
X1312Y426D01*
X1313Y426D01*
X1314Y426D01*
X1315Y426D01*
X1316Y426D01*
X1317Y426D01*
X1318Y426D01*
X1319Y426D01*
X1320Y426D01*
X1321Y426D01*
X1322Y426D01*
X1323Y426D01*
X1324Y426D01*
X1325Y426D01*
X1326Y426D01*
X1327Y426D01*
X1328Y426D01*
X1329Y426D01*
X1330Y426D01*
X1331Y426D01*
X1332Y426D01*
X1333Y426D01*
X1334Y426D01*
X1335Y426D01*
X1336Y426D01*
X1337Y426D01*
X1338Y426D01*
X1339Y426D01*
X1340Y426D01*
X1341Y426D01*
X1342Y426D01*
X1343Y426D01*
X1344Y426D01*
X1345Y426D01*
X1346Y426D01*
X1347Y426D01*
X1348Y426D01*
X1349Y426D01*
X1350Y426D01*
X1351Y426D01*
X1352Y426D01*
X1353Y426D01*
X1354Y426D01*
X1355Y426D01*
X1356Y426D01*
X1357Y426D01*
X1358Y426D01*
X1359Y426D01*
X1360Y426D01*
X1361Y426D01*
X1362Y426D01*
X1363Y426D01*
X1364Y426D01*
X1365Y426D01*
X1366Y426D01*
X1367Y426D01*
X1368Y426D01*
X1369Y426D01*
X1370Y426D01*
X1371Y426D01*
X1372Y426D01*
X1373Y426D01*
X1374Y426D01*
X1375Y426D01*
X1376Y426D01*
X1377Y426D01*
X1378Y426D01*
X1379Y426D01*
X1380Y426D01*
X1381Y426D01*
X1382Y426D01*
X1383Y426D01*
X1384Y426D01*
X1385Y426D01*
X1386Y426D01*
X1387Y426D01*
X1388Y426D01*
X1389Y426D01*
X1390Y426D01*
X1391Y426D01*
X1392Y426D01*
X1393Y426D01*
X1394Y426D01*
X1395Y426D01*
X1396Y426D01*
X1397Y426D01*
X1398Y426D01*
X1399Y426D01*
X1400Y426D01*
X1401Y426D01*
X1402Y426D01*
X1403Y426D01*
X1404Y426D01*
X1405Y426D01*
X1406Y426D01*
X1407Y426D01*
X1408Y426D01*
X1409Y426D01*
X1410Y426D01*
X1411Y426D01*
X1412Y426D01*
X1413Y426D01*
X1414Y426D01*
X1415Y426D01*
X1416Y426D01*
X1417Y426D01*
X1418Y426D01*
X1419Y426D01*
X1420Y426D01*
X1421Y426D01*
X1422Y426D01*
X1423Y426D01*
X1424Y426D01*
X1425Y426D01*
X1426Y426D01*
X1427Y426D01*
X1428Y426D01*
X1429Y426D01*
X1430Y426D01*
X1431Y426D01*
X1432Y426D01*
X1433Y426D01*
X1434Y426D01*
X1435Y426D01*
X1436Y426D01*
X1436Y425D01*
X1437Y424D01*
X1437Y423D01*
X1438Y422D01*
X1438Y420D01*
X1439Y419D01*
X1439Y418D01*
X1440Y417D01*
X1440Y416D01*
X1441Y415D01*
X1441Y414D01*
X1442Y413D01*
X1442Y412D01*
X1443Y411D01*
X1443Y409D01*
X1444Y408D01*
X1444Y407D01*
X1445Y406D01*
X1445Y405D01*
X1446Y404D01*
X1446Y402D01*
X1447Y401D01*
X1447Y400D01*
X1448Y399D01*
X1448Y397D01*
X1449Y396D01*
X1449Y395D01*
X1450Y394D01*
X1450Y392D01*
X1451Y391D01*
X1451Y390D01*
X1452Y389D01*
X1452Y387D01*
X1453Y386D01*
X1453Y384D01*
X1454Y383D01*
X1454Y381D01*
X1455Y380D01*
X1455Y379D01*
X1456Y378D01*
X1456Y376D01*
X1457Y375D01*
X1457Y373D01*
X1458Y372D01*
X1458Y370D01*
X1459Y369D01*
X1459Y367D01*
X1460Y366D01*
X1460Y364D01*
X1461Y363D01*
X1461Y361D01*
X1462Y360D01*
X1462Y358D01*
X1463Y357D01*
X1463Y354D01*
X1464Y353D01*
X1464Y351D01*
X1465Y350D01*
X1465Y347D01*
X1466Y346D01*
X1466Y344D01*
X1467Y343D01*
X1467Y340D01*
X1468Y339D01*
X1468Y336D01*
X1469Y335D01*
X1469Y332D01*
X1470Y331D01*
X1470Y328D01*
X1471Y327D01*
X1471Y324D01*
X1472Y323D01*
X1472Y319D01*
X1473Y318D01*
X1473Y314D01*
X1474Y313D01*
X1474Y310D01*
X1475Y309D01*
X1475Y304D01*
X1476Y303D01*
X1476Y298D01*
X1477Y297D01*
X1477Y292D01*
X1478Y291D01*
X1478Y286D01*
X1479Y285D01*
X1479Y278D01*
X1480Y277D01*
X1480Y270D01*
X1481Y269D01*
X1481Y259D01*
X1482Y258D01*
X1482Y246D01*
X1483Y245D01*
X1483Y186D01*
X1482Y185D01*
X1482Y173D01*
X1481Y172D01*
X1481Y164D01*
X1480Y163D01*
X1480Y157D01*
X1479Y156D01*
X1479Y151D01*
X1478Y150D01*
X1478Y145D01*
X1477Y144D01*
X1477Y140D01*
X1476Y139D01*
X1476Y136D01*
X1475Y135D01*
X1475Y132D01*
X1474Y131D01*
X1474Y128D01*
X1473Y127D01*
X1473Y125D01*
X1472Y124D01*
X1472Y122D01*
X1471Y121D01*
X1471Y119D01*
X1470Y118D01*
X1470Y116D01*
X1469Y115D01*
X1469Y113D01*
X1468Y112D01*
X1468Y111D01*
X1467Y110D01*
X1467Y108D01*
X1466Y107D01*
X1466Y106D01*
X1465Y105D01*
X1465Y104D01*
X1464Y103D01*
X1464Y102D01*
X1463Y101D01*
X1463Y100D01*
X1462Y99D01*
X1462Y98D01*
X1461Y97D01*
X1461Y96D01*
X1460Y95D01*
X1460Y94D01*
X1459Y93D01*
X1458Y92D01*
X1458Y91D01*
X1457Y90D01*
X1456Y89D01*
X1456Y88D01*
X1455Y87D01*
X1454Y86D01*
X1454Y85D01*
X1453Y84D01*
X1452Y83D01*
X1451Y82D01*
X1451Y81D01*
X1450Y80D01*
X1449Y79D01*
X1448Y78D01*
X1447Y77D01*
X1446Y76D01*
X1445Y75D01*
X1445Y74D01*
X1444Y73D01*
X1443Y72D01*
X1442Y71D01*
X1441Y70D01*
X1440Y69D01*
X1439Y69D01*
X1438Y68D01*
X1437Y67D01*
X1436Y66D01*
X1435Y65D01*
X1434Y64D01*
X1433Y64D01*
X1432Y63D01*
X1431Y62D01*
X1430Y61D01*
X1429Y61D01*
X1428Y60D01*
X1427Y59D01*
X1426Y59D01*
X1425Y58D01*
X1424Y57D01*
X1423Y57D01*
X1422Y56D01*
X1421Y55D01*
X1420Y55D01*
X1419Y54D01*
X1418Y54D01*
X1417Y53D01*
X1416Y53D01*
X1415Y52D01*
X1414Y52D01*
X1413Y51D01*
X1412Y51D01*
X1411Y50D01*
X1410Y50D01*
X1409Y49D01*
X1408Y49D01*
X1407Y49D01*
X1406Y48D01*
X1405Y48D01*
X1404Y47D01*
X1403Y47D01*
X1402Y47D01*
X1401Y46D01*
X1400Y46D01*
X1399Y46D01*
X1398Y45D01*
X1397Y45D01*
X1396Y45D01*
X1395Y44D01*
X1394Y44D01*
X1393Y44D01*
X1392Y43D01*
X1391Y43D01*
X1390Y43D01*
X1389Y43D01*
X1388Y42D01*
X1387Y42D01*
X1386Y42D01*
X1385Y41D01*
X1384Y41D01*
X1383Y41D01*
X1382Y41D01*
X1381Y41D01*
X1380Y40D01*
X1379Y40D01*
X1378Y40D01*
X1377Y40D01*
X1376Y40D01*
X1375Y39D01*
X1374Y39D01*
X1373Y39D01*
X1372Y39D01*
X1371Y39D01*
X1370Y39D01*
X1369Y38D01*
X1368Y38D01*
X1367Y38D01*
X1366Y38D01*
X1365Y38D01*
X1364Y38D01*
X1363Y38D01*
X1362Y37D01*
X1361Y37D01*
X1360Y37D01*
X1359Y37D01*
X1358Y37D01*
X1357Y37D01*
X1356Y37D01*
X1355Y37D01*
X1354Y37D01*
X1353Y36D01*
X1352Y36D01*
X1351Y36D01*
X1350Y36D01*
X1349Y36D01*
X1348Y36D01*
X1347Y36D01*
X1346Y36D01*
X1345Y36D01*
X1344Y36D01*
X1343Y36D01*
X1342Y36D01*
X1341Y36D01*
X1340Y36D01*
X1339Y36D01*
X1338Y36D01*
X1337Y36D01*
X1336Y36D01*
X1335Y36D01*
X1334Y36D01*
X1333Y36D01*
X1332Y36D01*
X1331Y36D01*
X1330Y36D01*
X1329Y35D01*
X1328Y35D01*
X1327Y35D01*
X1326Y35D01*
X1325Y35D01*
X1324Y35D01*
X1323Y35D01*
X1322Y35D01*
X1321Y35D01*
X1320Y35D01*
X1319Y35D01*
X1318Y35D01*
X1317Y35D01*
X1316Y35D01*
X1315Y35D01*
X1314Y35D01*
X1313Y35D01*
X1312Y35D01*
X1311Y35D01*
X1310Y35D01*
X1309Y35D01*
X1308Y35D01*
X1307Y35D01*
X1306Y35D01*
X1305Y35D01*
X1304Y35D01*
X1303Y35D01*
X1302Y35D01*
X1301Y35D01*
X1300Y35D01*
X1299Y35D01*
X1298Y35D01*
X1297Y35D01*
X1296Y35D01*
X1295Y35D01*
X1294Y35D01*
X1293Y35D01*
X1292Y35D01*
X1291Y35D01*
X1290Y35D01*
X1289Y35D01*
X1288Y35D01*
X1287Y35D01*
X1286Y35D01*
X1285Y35D01*
X1284Y35D01*
X1283Y35D01*
X1282Y35D01*
X1281Y35D01*
X1280Y35D01*
X1279Y35D01*
X1278Y35D01*
X1277Y35D01*
X1276Y35D01*
X1275Y35D01*
X1274Y35D01*
X1273Y35D01*
X1272Y35D01*
X1271Y35D01*
X1270Y35D01*
X1269Y35D01*
X1268Y35D01*
X1267Y35D01*
X1266Y35D01*
X1265Y35D01*
X1264Y35D01*
X1263Y35D01*
X1262Y35D01*
X1261Y35D01*
X1260Y35D01*
X1259Y35D01*
X1258Y35D01*
X1257Y35D01*
X1256Y35D01*
X1255Y35D01*
X1254Y35D01*
X1253Y35D01*
X1252Y35D01*
X1251Y35D01*
X1250Y35D01*
X1249Y35D01*
X1248Y35D01*
X1247Y35D01*
X1246Y35D01*
X1245Y35D01*
X1244Y35D01*
X1243Y35D01*
X1242Y35D01*
X1241Y35D01*
X1240Y35D01*
X1239Y35D01*
X1238Y35D01*
X1237Y35D01*
X1236Y35D01*
X1235Y35D01*
X1234Y35D01*
X1233Y35D01*
X1232Y35D01*
X1231Y35D01*
X1230Y35D01*
X1229Y35D01*
X1228Y35D01*
X1227Y35D01*
X1226Y35D01*
X1225Y35D01*
X1224Y35D01*
X1223Y35D01*
X1222Y35D01*
X1221Y35D01*
X1220Y35D01*
X1219Y35D01*
X1218Y35D01*
X1217Y35D01*
X1216Y35D01*
X1215Y35D01*
X1214Y35D01*
X1213Y35D01*
X1212Y35D01*
X1211Y35D01*
X1210Y35D01*
X1209Y35D01*
X1208Y35D01*
X1207Y35D01*
X1206Y35D01*
X1205Y35D01*
X1204Y35D01*
X1203Y35D01*
X1202Y35D01*
X1201Y35D01*
X1200Y35D01*
X1199Y35D01*
X1198Y35D01*
X1197Y35D01*
X1196Y35D01*
X1195Y35D01*
X1194Y35D01*
X1193Y35D01*
X1192Y35D01*
X1191Y35D01*
X1190Y35D01*
X1189Y35D01*
X1188Y35D01*
X1187Y35D01*
X1186Y35D01*
X1185Y35D01*
X1184Y35D01*
X1183Y35D01*
X1182Y35D01*
X1181Y35D01*
X1180Y35D01*
X1179Y35D01*
X1178Y35D01*
X1177Y35D01*
X1176Y35D01*
X1175Y35D01*
X1174Y35D01*
X1173Y35D01*
X1172Y35D01*
X1171Y35D01*
X1170Y35D01*
X1169Y35D01*
X1168Y35D01*
X1167Y35D01*
X1166Y35D01*
X1165Y35D01*
X1164Y35D01*
X1163Y35D01*
X1162Y35D01*
X1161Y35D01*
X1160Y35D01*
X1159Y35D01*
X1158Y35D01*
X1157Y35D01*
X1156Y35D01*
X1155Y35D01*
X1154Y35D01*
X1153Y35D01*
X1152Y35D01*
X1151Y35D01*
X1150Y35D01*
X1149Y35D01*
X1148Y35D01*
X1147Y35D01*
X1146Y35D01*
X1145Y35D01*
X1144Y35D01*
X1143Y35D01*
X1142Y35D01*
X1141Y35D01*
X1140Y35D01*
X1139Y35D01*
X1138Y35D01*
X1137Y35D01*
X1136Y35D01*
X1135Y35D01*
X1134Y35D01*
X1133Y35D01*
X1132Y35D01*
X1131Y35D01*
X1130Y35D01*
X1129Y35D01*
X1128Y35D01*
X1127Y35D01*
X1126Y35D01*
X1125Y35D01*
X1124Y35D01*
X1123Y35D01*
X1122Y35D01*
X1121Y35D01*
X1120Y35D01*
X1119Y35D01*
X1118Y35D01*
X1117Y35D01*
X1116Y35D01*
X1115Y35D01*
X1114Y35D01*
X1113Y35D01*
X1112Y35D01*
X1111Y35D01*
X1110Y35D01*
X1109Y35D01*
X1108Y35D01*
X1107Y35D01*
X1106Y35D01*
X1105Y35D01*
X1104Y35D01*
X1103Y35D01*
X1102Y35D01*
X1101Y35D01*
X1100Y35D01*
X1099Y35D01*
X1098Y35D01*
X1097Y35D01*
X1096Y35D01*
X1095Y35D01*
X1094Y35D01*
X1093Y35D01*
X1092Y35D01*
X1091Y35D01*
X1090Y35D01*
X1089Y35D01*
X1088Y35D01*
X1087Y35D01*
X1086Y35D01*
X1085Y35D01*
X1084Y35D01*
X1083Y35D01*
X1082Y35D01*
X1081Y35D01*
X1080Y35D01*
X1079Y35D01*
X1078Y35D01*
X1077Y35D01*
X1076Y35D01*
X1075Y35D01*
X1074Y35D01*
X1073Y35D01*
X1072Y35D01*
X1071Y35D01*
X1070Y35D01*
X1069Y35D01*
X1068Y35D01*
X1067Y35D01*
X1066Y35D01*
X1065Y35D01*
X1064Y35D01*
X1063Y35D01*
X1062Y35D01*
X1061Y35D01*
X1060Y35D01*
X1059Y35D01*
X1058Y35D01*
X1057Y35D01*
X1056Y35D01*
X1055Y35D01*
X1054Y35D01*
X1053Y35D01*
X1052Y35D01*
X1051Y35D01*
X1050Y35D01*
X1049Y35D01*
X1048Y35D01*
X1047Y35D01*
X1046Y35D01*
X1045Y35D01*
X1044Y35D01*
X1043Y35D01*
X1042Y35D01*
X1041Y35D01*
X1040Y35D01*
X1039Y35D01*
X1038Y35D01*
X1037Y35D01*
X1036Y35D01*
X1035Y35D01*
X1034Y35D01*
X1033Y35D01*
X1032Y35D01*
X1031Y35D01*
X1030Y35D01*
X1029Y35D01*
X1028Y35D01*
X1027Y35D01*
X1026Y35D01*
X1025Y35D01*
X1024Y35D01*
X1023Y35D01*
X1022Y35D01*
X1021Y35D01*
X1020Y35D01*
X1019Y35D01*
X1018Y35D01*
X1017Y35D01*
X1016Y35D01*
X1015Y35D01*
X1014Y35D01*
X1013Y35D01*
X1012Y35D01*
X1011Y35D01*
X1010Y35D01*
X1009Y35D01*
X1008Y35D01*
X1007Y35D01*
X1006Y35D01*
X1005Y35D01*
X1004Y35D01*
X1003Y35D01*
X1002Y35D01*
X1001Y35D01*
X1000Y35D01*
X999Y35D01*
X998Y35D01*
X997Y35D01*
X996Y35D01*
X995Y35D01*
X994Y35D01*
X993Y35D01*
X992Y35D01*
X991Y35D01*
X990Y35D01*
X989Y35D01*
X988Y35D01*
X987Y35D01*
X986Y35D01*
X985Y35D01*
X984Y35D01*
X983Y35D01*
X982Y35D01*
X981Y35D01*
X980Y35D01*
X979Y35D01*
X978Y35D01*
X977Y35D01*
X976Y35D01*
X975Y35D01*
X974Y35D01*
X973Y35D01*
X972Y35D01*
X971Y35D01*
X970Y35D01*
X969Y35D01*
X968Y35D01*
X967Y35D01*
X966Y35D01*
X965Y35D01*
X964Y35D01*
X963Y35D01*
X962Y35D01*
X961Y35D01*
X960Y35D01*
X959Y35D01*
X958Y35D01*
X957Y35D01*
X956Y35D01*
X955Y35D01*
X954Y35D01*
X953Y35D01*
X952Y35D01*
X951Y35D01*
X950Y35D01*
X949Y35D01*
X948Y35D01*
X947Y35D01*
X946Y35D01*
X945Y35D01*
X944Y35D01*
X943Y35D01*
X942Y35D01*
X941Y35D01*
X940Y35D01*
X939Y35D01*
X938Y35D01*
X937Y35D01*
X936Y35D01*
X935Y35D01*
X934Y35D01*
X933Y35D01*
X932Y35D01*
X931Y35D01*
X930Y35D01*
X929Y35D01*
X928Y35D01*
X927Y35D01*
X926Y35D01*
X925Y35D01*
X924Y35D01*
X923Y35D01*
X922Y35D01*
X921Y35D01*
X920Y35D01*
X919Y35D01*
X918Y35D01*
X917Y35D01*
X916Y35D01*
X915Y35D01*
X914Y35D01*
X913Y35D01*
X912Y35D01*
X911Y35D01*
X910Y35D01*
X909Y35D01*
X908Y35D01*
X907Y35D01*
X906Y35D01*
X905Y35D01*
X904Y35D01*
X903Y35D01*
X902Y35D01*
X901Y35D01*
X900Y35D01*
X899Y35D01*
X898Y35D01*
X897Y35D01*
X896Y35D01*
X895Y35D01*
X894Y35D01*
X893Y35D01*
X892Y35D01*
X891Y35D01*
X890Y35D01*
X889Y35D01*
X888Y35D01*
X887Y35D01*
X886Y35D01*
X885Y35D01*
X884Y35D01*
X883Y35D01*
X882Y35D01*
X881Y35D01*
X880Y35D01*
X879Y35D01*
X878Y35D01*
X877Y35D01*
X876Y35D01*
X875Y35D01*
X874Y35D01*
X873Y35D01*
X872Y35D01*
X871Y35D01*
X870Y35D01*
X869Y35D01*
X868Y35D01*
X867Y35D01*
X866Y35D01*
X865Y35D01*
X864Y35D01*
X863Y35D01*
X862Y35D01*
X861Y35D01*
X860Y35D01*
X859Y35D01*
X858Y35D01*
X857Y35D01*
X856Y35D01*
X855Y35D01*
X854Y35D01*
X853Y35D01*
X852Y35D01*
X851Y35D01*
X850Y35D01*
X849Y35D01*
X848Y35D01*
X847Y35D01*
X846Y35D01*
X845Y35D01*
X844Y35D01*
X843Y35D01*
X842Y35D01*
X841Y35D01*
X840Y35D01*
X839Y35D01*
X838Y35D01*
X837Y35D01*
X836Y35D01*
X835Y35D01*
X834Y35D01*
X833Y35D01*
X832Y35D01*
X831Y35D01*
X830Y35D01*
X829Y35D01*
X828Y35D01*
X827Y35D01*
X826Y35D01*
X825Y35D01*
X824Y35D01*
X823Y35D01*
X822Y35D01*
X821Y35D01*
X820Y35D01*
X819Y35D01*
X818Y35D01*
X817Y35D01*
X816Y35D01*
X815Y35D01*
X814Y35D01*
X813Y35D01*
X812Y35D01*
X811Y35D01*
X810Y35D01*
X809Y35D01*
X808Y35D01*
X807Y35D01*
X806Y35D01*
X805Y35D01*
X804Y35D01*
X803Y35D01*
X802Y35D01*
X801Y35D01*
X800Y35D01*
X799Y35D01*
X798Y35D01*
X797Y35D01*
X796Y35D01*
X795Y35D01*
X794Y35D01*
X793Y35D01*
X792Y35D01*
X791Y35D01*
X790Y35D01*
X789Y35D01*
X788Y35D01*
X787Y35D01*
X786Y35D01*
X785Y35D01*
X784Y35D01*
X783Y35D01*
X782Y35D01*
X781Y35D01*
X780Y35D01*
X779Y35D01*
X778Y35D01*
X777Y35D01*
X776Y35D01*
X775Y35D01*
X774Y35D01*
X773Y35D01*
X772Y35D01*
X771Y35D01*
X770Y35D01*
X769Y35D01*
X768Y35D01*
X767Y35D01*
X766Y35D01*
X765Y35D01*
X764Y35D01*
X763Y35D01*
X762Y35D01*
X761Y35D01*
X760Y35D01*
X759Y35D01*
X758Y35D01*
X757Y35D01*
X756Y35D01*
X755Y35D01*
X754Y35D01*
X753Y35D01*
X752Y35D01*
X751Y35D01*
X750Y35D01*
X749Y35D01*
X748Y35D01*
X747Y35D01*
X746Y35D01*
X745Y35D01*
X744Y35D01*
X743Y35D01*
X742Y35D01*
X741Y35D01*
X740Y35D01*
X739Y35D01*
X738Y35D01*
X737Y35D01*
X736Y35D01*
X735Y35D01*
X734Y35D01*
X733Y35D01*
X732Y35D01*
X731Y35D01*
X730Y35D01*
X729Y35D01*
X728Y35D01*
X727Y35D01*
X726Y35D01*
X725Y35D01*
X724Y35D01*
X723Y35D01*
X722Y35D01*
X721Y35D01*
X720Y35D01*
X719Y35D01*
X718Y35D01*
X717Y35D01*
X716Y35D01*
X715Y35D01*
X714Y35D01*
X713Y35D01*
X712Y35D01*
X711Y35D01*
X710Y35D01*
X709Y35D01*
X708Y35D01*
X707Y35D01*
X706Y35D01*
X705Y35D01*
X704Y35D01*
X703Y35D01*
X702Y35D01*
X701Y35D01*
X700Y35D01*
X699Y35D01*
X698Y35D01*
X697Y35D01*
X696Y35D01*
X695Y35D01*
X694Y35D01*
X693Y35D01*
X692Y35D01*
X691Y35D01*
X690Y35D01*
X689Y35D01*
X688Y35D01*
X687Y35D01*
X686Y35D01*
X685Y35D01*
X684Y35D01*
X683Y35D01*
X682Y35D01*
X681Y35D01*
X680Y35D01*
X679Y35D01*
X678Y35D01*
X677Y35D01*
X676Y35D01*
X675Y35D01*
X674Y35D01*
X673Y35D01*
X672Y35D01*
X671Y35D01*
X670Y35D01*
X669Y35D01*
X668Y35D01*
X667Y35D01*
X666Y35D01*
X665Y35D01*
X664Y35D01*
X663Y35D01*
X662Y35D01*
X661Y35D01*
X660Y35D01*
X659Y35D01*
X658Y35D01*
X657Y35D01*
X656Y35D01*
X655Y35D01*
X654Y35D01*
X653Y35D01*
X652Y35D01*
X651Y35D01*
X650Y35D01*
X649Y35D01*
X648Y35D01*
X647Y35D01*
X646Y35D01*
X645Y35D01*
X644Y35D01*
X643Y35D01*
X642Y35D01*
X641Y35D01*
X640Y35D01*
X639Y35D01*
X638Y35D01*
X637Y35D01*
X636Y35D01*
X635Y35D01*
X634Y35D01*
X633Y35D01*
X632Y35D01*
X631Y35D01*
X630Y35D01*
X629Y35D01*
X628Y35D01*
X627Y35D01*
X626Y35D01*
X625Y35D01*
X624Y35D01*
X623Y35D01*
X622Y35D01*
X621Y35D01*
X620Y35D01*
X619Y35D01*
X618Y35D01*
X617Y35D01*
X616Y35D01*
X615Y35D01*
X614Y35D01*
X613Y35D01*
X612Y35D01*
X611Y35D01*
X610Y35D01*
X609Y35D01*
X608Y35D01*
X607Y35D01*
X606Y35D01*
X605Y35D01*
X604Y35D01*
X603Y35D01*
X602Y35D01*
X601Y35D01*
X600Y35D01*
X599Y35D01*
X598Y35D01*
X597Y35D01*
X596Y35D01*
X595Y35D01*
X594Y35D01*
X593Y35D01*
X592Y35D01*
X591Y35D01*
X590Y35D01*
X589Y35D01*
X588Y35D01*
X587Y35D01*
X586Y35D01*
X585Y35D01*
X584Y35D01*
X583Y35D01*
X582Y35D01*
X581Y35D01*
X580Y35D01*
X579Y35D01*
X578Y35D01*
X577Y35D01*
X576Y35D01*
X575Y35D01*
X574Y35D01*
X573Y35D01*
X572Y35D01*
X571Y35D01*
X570Y35D01*
X569Y35D01*
X568Y35D01*
X567Y35D01*
X566Y35D01*
X565Y35D01*
X564Y35D01*
X563Y35D01*
X562Y35D01*
X561Y35D01*
X560Y35D01*
X559Y35D01*
X558Y35D01*
X557Y35D01*
X556Y35D01*
X555Y35D01*
X554Y35D01*
X553Y35D01*
X552Y35D01*
X551Y35D01*
X550Y35D01*
X549Y35D01*
X548Y35D01*
X547Y35D01*
X546Y35D01*
X545Y35D01*
X544Y35D01*
X543Y35D01*
X542Y35D01*
X541Y35D01*
X540Y35D01*
X539Y35D01*
X538Y35D01*
X537Y35D01*
X536Y35D01*
X535Y35D01*
X534Y35D01*
X533Y35D01*
X532Y35D01*
X531Y35D01*
X530Y35D01*
X529Y35D01*
X528Y35D01*
X527Y35D01*
X526Y35D01*
X525Y35D01*
X524Y35D01*
X523Y35D01*
X522Y35D01*
X521Y35D01*
X520Y35D01*
X519Y35D01*
X518Y35D01*
X517Y35D01*
X516Y35D01*
X515Y35D01*
X514Y35D01*
X513Y35D01*
X512Y35D01*
X511Y35D01*
X510Y35D01*
X509Y35D01*
X508Y35D01*
X507Y35D01*
X506Y35D01*
X505Y35D01*
X504Y35D01*
X503Y35D01*
X502Y35D01*
X501Y35D01*
X500Y35D01*
X499Y35D01*
X498Y35D01*
X497Y35D01*
X496Y35D01*
X495Y35D01*
X494Y35D01*
X493Y35D01*
X492Y35D01*
X491Y35D01*
X490Y35D01*
X489Y35D01*
X488Y35D01*
X487Y35D01*
X486Y35D01*
X485Y35D01*
X484Y35D01*
X483Y35D01*
X482Y35D01*
X481Y35D01*
X480Y35D01*
X479Y35D01*
X478Y35D01*
X477Y35D01*
X476Y35D01*
X475Y35D01*
X474Y35D01*
X473Y35D01*
X472Y35D01*
X471Y35D01*
X470Y35D01*
X469Y35D01*
X468Y35D01*
X467Y35D01*
X466Y35D01*
X465Y35D01*
X464Y35D01*
X463Y35D01*
X462Y35D01*
X461Y35D01*
X460Y35D01*
X459Y35D01*
X458Y35D01*
X457Y35D01*
X456Y35D01*
X455Y35D01*
X454Y35D01*
X453Y35D01*
X452Y35D01*
X451Y35D01*
X450Y35D01*
X449Y35D01*
X448Y35D01*
X447Y35D01*
X446Y35D01*
X445Y35D01*
X444Y35D01*
X443Y35D01*
X442Y35D01*
X441Y35D01*
X440Y35D01*
X439Y35D01*
X438Y35D01*
X437Y35D01*
X436Y35D01*
X435Y35D01*
X434Y35D01*
X433Y35D01*
X432Y35D01*
X431Y35D01*
X430Y35D01*
X429Y35D01*
X428Y35D01*
X427Y35D01*
X426Y35D01*
X425Y35D01*
X424Y35D01*
X423Y35D01*
X422Y35D01*
X421Y35D01*
X420Y35D01*
X419Y35D01*
X418Y35D01*
X417Y35D01*
X416Y35D01*
X415Y35D01*
X414Y35D01*
X413Y35D01*
X412Y35D01*
X411Y35D01*
X410Y35D01*
X409Y35D01*
X408Y35D01*
X407Y35D01*
X406Y35D01*
X405Y35D01*
X404Y35D01*
X403Y35D01*
X402Y35D01*
X401Y35D01*
X400Y35D01*
X399Y35D01*
X398Y35D01*
X397Y35D01*
X396Y35D01*
X395Y35D01*
X394Y35D01*
X393Y35D01*
X392Y35D01*
X391Y35D01*
X390Y35D01*
X389Y35D01*
X388Y35D01*
X387Y35D01*
X386Y35D01*
X385Y35D01*
X384Y35D01*
X383Y35D01*
X382Y35D01*
X381Y35D01*
X380Y35D01*
X379Y35D01*
X378Y35D01*
X377Y35D01*
X376Y35D01*
X375Y35D01*
X374Y35D01*
X373Y35D01*
X372Y35D01*
X371Y35D01*
X370Y35D01*
X369Y35D01*
X368Y35D01*
X367Y35D01*
X366Y35D01*
X365Y35D01*
X364Y35D01*
X363Y35D01*
X362Y35D01*
X361Y35D01*
X360Y35D01*
X359Y35D01*
X358Y35D01*
X357Y35D01*
X356Y35D01*
X355Y35D01*
X354Y35D01*
X353Y35D01*
X352Y35D01*
X351Y35D01*
X350Y35D01*
X349Y35D01*
X348Y35D01*
X347Y35D01*
X346Y35D01*
X345Y35D01*
X344Y35D01*
X343Y35D01*
X342Y35D01*
X341Y35D01*
X340Y35D01*
X339Y35D01*
X338Y35D01*
X337Y35D01*
X336Y35D01*
X335Y35D01*
X334Y35D01*
X333Y35D01*
X332Y35D01*
X331Y35D01*
X330Y35D01*
X329Y35D01*
X328Y35D01*
X327Y35D01*
X326Y35D01*
X325Y35D01*
X324Y35D01*
X323Y35D01*
X322Y35D01*
X321Y35D01*
X320Y35D01*
X319Y35D01*
X318Y35D01*
X317Y35D01*
X316Y35D01*
X315Y35D01*
X314Y35D01*
X313Y35D01*
X312Y35D01*
X311Y35D01*
X310Y35D01*
X309Y35D01*
X308Y35D01*
X307Y35D01*
X306Y35D01*
X305Y35D01*
X304Y35D01*
X303Y35D01*
X302Y35D01*
X301Y35D01*
X300Y35D01*
X299Y35D01*
X298Y35D01*
X297Y35D01*
X296Y35D01*
X295Y35D01*
X294Y35D01*
X293Y35D01*
X292Y35D01*
X291Y35D01*
X290Y35D01*
X289Y35D01*
X288Y35D01*
X287Y35D01*
X286Y35D01*
X285Y35D01*
X284Y35D01*
X283Y35D01*
X282Y35D01*
X281Y35D01*
X280Y35D01*
X279Y35D01*
X278Y35D01*
X277Y35D01*
X276Y35D01*
X275Y35D01*
X274Y35D01*
X273Y35D01*
X272Y35D01*
X271Y35D01*
X270Y35D01*
X269Y35D01*
X268Y35D01*
X267Y35D01*
X266Y35D01*
X265Y35D01*
X264Y35D01*
X263Y35D01*
X262Y35D01*
X261Y35D01*
X260Y35D01*
X259Y35D01*
X258Y35D01*
X257Y35D01*
X256Y35D01*
X255Y35D01*
X254Y35D01*
X253Y35D01*
X252Y35D01*
X251Y35D01*
X250Y35D01*
X249Y35D01*
X248Y35D01*
X247Y35D01*
X246Y35D01*
X245Y35D01*
X244Y35D01*
X243Y35D01*
X242Y35D01*
X241Y35D01*
X240Y35D01*
X239Y35D01*
X238Y35D01*
X237Y35D01*
X236Y35D01*
X235Y35D01*
X234Y35D01*
X233Y35D01*
X232Y35D01*
X231Y35D01*
X230Y35D01*
X229Y35D01*
X228Y35D01*
X227Y35D01*
X226Y35D01*
X225Y35D01*
X224Y35D01*
X223Y35D01*
X222Y35D01*
X221Y35D01*
X220Y35D01*
X219Y35D01*
X218Y35D01*
X217Y35D01*
X216Y35D01*
X215Y35D01*
X214Y35D01*
X213Y35D01*
X212Y35D01*
X211Y35D01*
X210Y35D01*
X209Y35D01*
X208Y35D01*
X207Y35D01*
X206Y35D01*
X205Y35D01*
X204Y35D01*
X203Y35D01*
X202Y35D01*
X201Y35D01*
X200Y35D01*
X199Y35D01*
X198Y35D01*
X197Y35D01*
X196Y35D01*
X195Y35D01*
X194Y35D01*
X193Y35D01*
X192Y35D01*
X191Y35D01*
X190Y35D01*
X189Y35D01*
X188Y35D01*
X187Y35D01*
X186Y35D01*
X185Y35D01*
X184Y35D01*
X183Y35D01*
X182Y35D01*
X181Y35D01*
X180Y35D01*
X179Y35D01*
X178Y35D01*
X177Y35D01*
X176Y35D01*
X175Y35D01*
X174Y35D01*
X173Y35D01*
X172Y35D01*
X171Y35D01*
X170Y35D01*
X169Y35D01*
X168Y35D01*
X167Y35D01*
X166Y35D01*
X165Y35D01*
X164Y35D01*
X163Y35D01*
X162Y35D01*
X161Y35D01*
X160Y35D01*
X159Y35D01*
X158Y35D01*
X157Y35D01*
X156Y35D01*
X155Y35D01*
X154Y35D01*
X153Y35D01*
X152Y35D01*
X151Y35D01*
X150Y35D01*
X149Y35D01*
X148Y35D01*
X147Y35D01*
X146Y35D01*
X145Y35D01*
X144Y35D01*
X143Y35D01*
X142Y35D01*
X141Y35D01*
X140Y35D01*
X139Y35D01*
X138Y35D01*
X137Y35D01*
X136Y35D01*
X135Y35D01*
X134Y35D01*
X133Y35D01*
X132Y35D01*
X131Y35D01*
X130Y35D01*
X129Y35D01*
X128Y35D01*
X127Y35D01*
X126Y35D01*
X125Y35D01*
X124Y35D01*
X123Y35D01*
X122Y35D01*
X121Y35D01*
X120Y35D01*
X119Y35D01*
X118Y35D01*
X117Y35D01*
X116Y35D01*
X115Y35D01*
X114Y35D01*
X113Y35D01*
X112Y35D01*
X111Y35D01*
X110Y35D01*
X109Y35D01*
X108Y35D01*
X107Y35D01*
X106Y35D01*
X105Y35D01*
X104Y35D01*
X103Y35D01*
X102Y35D01*
X101Y35D01*
X100Y35D01*
X99Y35D01*
X98Y35D01*
X97Y35D01*
X96Y35D01*
X95Y35D01*
X94Y35D01*
X93Y35D01*
X92Y35D01*
X91Y35D01*
X90Y35D01*
X89Y35D01*
X88Y35D01*
X87Y35D01*
X86Y35D01*
X85Y35D01*
X84Y35D01*
X83Y35D01*
X82Y35D01*
X81Y35D01*
X80Y35D01*
X79Y35D01*
X78Y35D01*
X77Y35D01*
X76Y35D01*
X75Y35D01*
X74Y35D01*
X73Y35D01*
X72Y35D01*
X71Y35D01*
X70Y35D01*
X69Y35D01*
X68Y35D01*
X67Y35D01*
X66Y35D01*
X65Y35D01*
X64Y35D01*
X63Y35D01*
X62Y35D01*
X61Y35D01*
X60Y35D01*
X59Y35D01*
X58Y36D01*
X58Y37D01*
X57Y38D01*
X57Y39D01*
X56Y40D01*
X56Y42D01*
X55Y43D01*
X55Y44D01*
X54Y45D01*
X54Y47D01*
X53Y48D01*
X53Y50D01*
X52Y51D01*
X52Y52D01*
X51Y53D01*
X51Y55D01*
X50Y56D01*
X50Y58D01*
X49Y59D01*
X49Y60D01*
X48Y61D01*
X48Y63D01*
X47Y64D01*
X47Y66D01*
X46Y67D01*
X46Y68D01*
X45Y69D01*
X45Y71D01*
X44Y72D01*
X44Y74D01*
X43Y75D01*
X43Y77D01*
X42Y78D01*
X42Y80D01*
X41Y81D01*
X41Y83D01*
X40Y84D01*
X40Y86D01*
X39Y87D01*
X39Y89D01*
X38Y90D01*
X38Y92D01*
X37Y93D01*
X37Y95D01*
X36Y96D01*
X36Y98D01*
X35Y99D01*
X35Y102D01*
X34Y103D01*
X34Y105D01*
X33Y106D01*
X33Y109D01*
X32Y110D01*
X32Y112D01*
X31Y113D01*
X31Y116D01*
X30Y117D01*
X30Y119D01*
X29Y120D01*
X29Y123D01*
X28Y124D01*
X28Y127D01*
X27Y128D01*
X27Y130D01*
X26Y131D01*
X26Y135D01*
X25Y136D01*
X25Y139D01*
X24Y140D01*
X24Y143D01*
X23Y144D01*
X23Y147D01*
X22Y148D01*
X22Y152D01*
X21Y153D01*
X21Y156D01*
X20Y157D01*
X20Y161D01*
X19Y162D01*
X19Y166D01*
X18Y167D01*
X18Y171D01*
X17Y172D01*
X17Y177D01*
X16Y178D01*
X16Y183D01*
X15Y184D01*
X15Y189D01*
X14Y190D01*
X14Y196D01*
X13Y197D01*
X13Y203D01*
X12Y204D01*
X12Y211D01*
X11Y212D01*
X11Y220D01*
X10Y221D01*
X10Y230D01*
X9Y231D01*
X9Y244D01*
X8Y245D01*
X8Y277D01*
X7Y278D01*
X8Y279D01*
X8Y299D01*
X9Y300D01*
X9Y308D01*
X10Y309D01*
X10Y314D01*
X11Y315D01*
X11Y320D01*
X12Y321D01*
X12Y324D01*
X13Y325D01*
X13Y328D01*
X14Y329D01*
X14Y332D01*
X15Y333D01*
X15Y335D01*
X16Y336D01*
X16Y338D01*
X17Y339D01*
X17Y341D01*
X18Y342D01*
X18Y344D01*
X19Y345D01*
X19Y346D01*
X20Y347D01*
X20Y348D01*
X21Y349D01*
X21Y351D01*
X22Y352D01*
X22Y353D01*
X23Y354D01*
X23Y355D01*
X24Y356D01*
X24Y357D01*
X25Y358D01*
X25Y359D01*
X26Y360D01*
X27Y361D01*
X27Y362D01*
X28Y363D01*
X28Y364D01*
X29Y365D01*
X30Y366D01*
X30Y367D01*
X31Y368D01*
X32Y369D01*
X32Y370D01*
X33Y371D01*
X34Y372D01*
X34Y373D01*
X35Y374D01*
X36Y375D01*
X37Y376D01*
X38Y377D01*
X39Y378D01*
X39Y379D01*
X40Y380D01*
X41Y381D01*
X42Y382D01*
X43Y383D01*
X44Y384D01*
X45Y385D01*
X46Y386D01*
X47Y387D01*
X48Y388D01*
X49Y389D01*
X50Y390D01*
X51Y390D01*
X52Y391D01*
X53Y392D01*
X54Y393D01*
X55Y394D01*
X56Y394D01*
X57Y395D01*
X58Y396D01*
X59Y396D01*
X60Y397D01*
X61Y398D01*
X62Y399D01*
X63Y399D01*
X64Y400D01*
X65Y400D01*
X66Y401D01*
X67Y402D01*
X68Y402D01*
X69Y403D01*
X70Y403D01*
X71Y404D01*
X72Y404D01*
X73Y405D01*
X74Y406D01*
X75Y406D01*
X76Y406D01*
X77Y407D01*
X78Y407D01*
X79Y408D01*
X80Y408D01*
X81Y409D01*
X82Y409D01*
X83Y410D01*
X84Y410D01*
X85Y411D01*
X86Y411D01*
X87Y411D01*
X88Y412D01*
X89Y412D01*
X90Y413D01*
X91Y413D01*
X92Y413D01*
X93Y414D01*
X94Y414D01*
X95Y414D01*
X96Y415D01*
X97Y415D01*
X98Y415D01*
X99Y416D01*
X100Y416D01*
X101Y416D01*
X102Y417D01*
X103Y417D01*
X104Y417D01*
X105Y417D01*
X106Y418D01*
X107Y418D01*
X108Y418D01*
X109Y418D01*
X110Y419D01*
X111Y419D01*
X112Y419D01*
X113Y419D01*
X114Y420D01*
X115Y420D01*
X116Y420D01*
X117Y420D01*
X118Y421D01*
X119Y421D01*
X120Y421D01*
X121Y421D01*
X122Y421D01*
X123Y421D01*
X124Y422D01*
X125Y422D01*
X126Y422D01*
X127Y422D01*
X128Y422D01*
X129Y423D01*
X130Y423D01*
X131Y423D01*
X132Y423D01*
X133Y423D01*
X134Y423D01*
X135Y423D01*
X136Y424D01*
X137Y424D01*
X138Y424D01*
X139Y424D01*
X140Y424D01*
X141Y424D01*
X142Y424D01*
X143Y424D01*
X144Y424D01*
X145Y425D01*
X146Y425D01*
X147Y425D01*
X148Y425D01*
X149Y425D01*
X150Y425D01*
X151Y425D01*
X152Y425D01*
X153Y425D01*
X154Y425D01*
X155Y425D01*
X156Y425D01*
X157Y425D01*
X158Y425D01*
X159Y426D01*
X160Y426D01*
X161Y426D01*
X162Y426D01*
X163Y426D01*
X164Y426D01*
X165Y426D01*
X166Y426D01*
X167Y426D01*
X168Y426D01*
X169Y426D01*
X170Y426D01*
X171Y426D01*
X172Y426D01*
X173Y426D01*
X174Y426D01*
X175Y426D01*
X176Y426D01*
X177Y426D01*
X178Y426D01*
X179Y426D01*
X180Y426D01*
X181Y426D01*
X182Y426D01*
X183Y426D01*
X184Y426D01*
X185Y426D01*
X186Y426D01*
X187Y426D01*
X188Y426D01*
X189Y426D01*
X190Y426D01*
X191Y426D01*
X192Y426D01*
X193Y426D01*
X194Y426D01*
X195Y426D01*
X196Y426D01*
X197Y426D01*
X198Y426D01*
X199Y426D01*
X200Y426D01*
X201Y426D01*
X202Y426D01*
X203Y426D01*
X204Y426D01*
X205Y426D01*
X206Y426D01*
X207Y426D01*
X208Y426D01*
X209Y426D01*
X210Y426D01*
X211Y426D01*
X212Y426D01*
X213Y426D01*
X214Y426D01*
X215Y426D01*
X216Y426D01*
X217Y426D01*
X218Y426D01*
X219Y426D01*
X220Y426D01*
X221Y426D01*
X222Y426D01*
X223Y426D01*
X224Y426D01*
X225Y426D01*
X226Y426D01*
X227Y426D01*
X228Y426D01*
X229Y426D01*
X230Y426D01*
X231Y426D01*
X232Y426D01*
X233Y426D01*
X234Y426D01*
X235Y426D01*
X236Y426D01*
X237Y426D01*
X238Y426D01*
X239Y426D01*
X240Y426D01*
X241Y426D01*
X242Y426D01*
X243Y426D01*
X244Y426D01*
X245Y426D01*
X246Y426D01*
X247Y426D01*
X248Y426D01*
X249Y426D01*
X250Y426D01*
X251Y426D01*
X252Y426D01*
X253Y426D01*
X254Y426D01*
X255Y426D01*
X256Y426D01*
X257Y426D01*
X258Y426D01*
X259Y426D01*
X260Y426D01*
X261Y426D01*
X262Y426D01*
X263Y426D01*
X264Y426D01*
X265Y426D01*
X266Y426D01*
X267Y426D01*
X268Y426D01*
X269Y426D01*
X270Y426D01*
X271Y426D01*
X272Y426D01*
X273Y426D01*
X274Y426D01*
X275Y426D01*
X276Y426D01*
X277Y426D01*
X278Y426D01*
X279Y426D01*
X280Y426D01*
X281Y426D01*
X282Y426D01*
X283Y426D01*
X284Y426D01*
X285Y426D01*
X286Y426D01*
X287Y426D01*
X288Y426D01*
X289Y426D01*
X290Y426D01*
X291Y426D01*
X292Y426D01*
X293Y426D01*
X294Y426D01*
X295Y426D01*
X296Y426D01*
X297Y426D01*
X298Y426D01*
X299Y426D01*
X300Y426D01*
X301Y426D01*
X302Y426D01*
X303Y426D01*
X304Y426D01*
X305Y426D01*
X306Y426D01*
X307Y426D01*
X308Y426D01*
X309Y426D01*
X310Y426D01*
X311Y426D01*
X312Y426D01*
X313Y426D01*
X314Y426D01*
X315Y426D01*
X316Y426D01*
X317Y426D01*
X318Y426D01*
X319Y426D01*
X320Y426D01*
X321Y426D01*
X322Y426D01*
X323Y426D01*
X324Y426D01*
X325Y426D01*
X326Y426D01*
X327Y426D01*
X328Y426D01*
X329Y426D01*
X330Y426D01*
X331Y426D01*
X332Y426D01*
X333Y426D01*
X334Y426D01*
X335Y426D01*
X336Y426D01*
X337Y426D01*
X338Y426D01*
X339Y426D01*
X340Y426D01*
X341Y426D01*
X342Y426D01*
X343Y426D01*
X344Y426D01*
X345Y426D01*
X346Y426D01*
X347Y426D01*
X348Y426D01*
X349Y426D01*
X350Y426D01*
X351Y426D01*
X352Y426D01*
X353Y426D01*
X354Y426D01*
X355Y426D01*
X356Y426D01*
X357Y426D01*
X358Y426D01*
X359Y426D01*
X360Y426D01*
X361Y426D01*
X362Y426D01*
X363Y426D01*
X364Y426D01*
X365Y426D01*
X366Y426D01*
X367Y426D01*
X368Y426D01*
X369Y426D01*
X370Y426D01*
X371Y426D01*
X372Y426D01*
X373Y426D01*
X374Y426D01*
X375Y426D01*
X376Y426D01*
X377Y426D01*
X378Y426D01*
X379Y426D01*
X380Y426D01*
X381Y426D01*
X382Y426D01*
X383Y426D01*
X384Y426D01*
X385Y426D01*
X386Y426D01*
X387Y426D01*
X388Y426D01*
X389Y426D01*
X390Y426D01*
X391Y426D01*
X392Y426D01*
X393Y426D01*
X394Y426D01*
X395Y426D01*
X396Y426D01*
X397Y426D01*
X398Y426D01*
X399Y426D01*
X400Y426D01*
X401Y426D01*
X402Y426D01*
X403Y426D01*
X404Y426D01*
X405Y426D01*
X406Y426D01*
X407Y426D01*
X408Y426D01*
X409Y426D01*
X410Y426D01*
X411Y426D01*
X412Y426D01*
X413Y426D01*
X414Y427D01*
X414Y441D01*
X415Y442D01*
X415Y464D01*
X416Y465D01*
X416Y491D01*
X417Y492D01*
X417Y521D01*
X418Y522D01*
X418Y555D01*
X419Y556D01*
X419Y592D01*
X420Y593D01*
X420Y636D01*
X421Y637D01*
X421Y683D01*
X422Y684D01*
X422Y741D01*
X423Y742D01*
X423Y806D01*
X424Y807D01*
X424Y880D01*
X425Y881D01*
X425Y969D01*
X426Y970D01*
X426Y1076D01*
X427Y1077D01*
X427Y1211D01*
X428Y1212D01*
X428Y1400D01*
X429Y1401D01*
X429Y1663D01*
X430Y1664D01*
X430Y2537D01*
X429Y2538D01*
X429Y2675D01*
X428Y2676D01*
X428Y2784D01*
X427Y2785D01*
X427Y2876D01*
X426Y2877D01*
X426Y2950D01*
X425Y2951D01*
X425Y3018D01*
X424Y3019D01*
X424Y3079D01*
X423Y3080D01*
X423Y3131D01*
X422Y3132D01*
X422Y3183D01*
X421Y3184D01*
X421Y3227D01*
X420Y3228D01*
X420Y3268D01*
X419Y3269D01*
X419Y3309D01*
X418Y3310D01*
X418Y3346D01*
X417Y3347D01*
X417Y3381D01*
X416Y3382D01*
X416Y3412D01*
X415Y3413D01*
X415Y3443D01*
X414Y3444D01*
X414Y3470D01*
X413Y3471D01*
X413Y3497D01*
X412Y3498D01*
X412Y3522D01*
X411Y3523D01*
X411Y3538D01*
X410Y3539D01*
X409Y3539D01*
X408Y3539D01*
X407Y3539D01*
X406Y3539D01*
X405Y3539D01*
X404Y3539D01*
X403Y3539D01*
X402Y3539D01*
X401Y3539D01*
X400Y3539D01*
X399Y3539D01*
X398Y3539D01*
X397Y3539D01*
X396Y3539D01*
X395Y3539D01*
X394Y3539D01*
X393Y3539D01*
X392Y3539D01*
X391Y3539D01*
X390Y3539D01*
X389Y3539D01*
X388Y3539D01*
X387Y3539D01*
X386Y3539D01*
X385Y3539D01*
X384Y3539D01*
X383Y3539D01*
X382Y3539D01*
X381Y3539D01*
X380Y3539D01*
X379Y3539D01*
X378Y3539D01*
X377Y3539D01*
X376Y3539D01*
X375Y3539D01*
X374Y3539D01*
X373Y3539D01*
X372Y3539D01*
X371Y3539D01*
X370Y3539D01*
X369Y3539D01*
X368Y3539D01*
X367Y3539D01*
X366Y3539D01*
X365Y3539D01*
X364Y3539D01*
X363Y3539D01*
X362Y3539D01*
X361Y3539D01*
X360Y3539D01*
X359Y3539D01*
X358Y3539D01*
X357Y3539D01*
X356Y3539D01*
X355Y3539D01*
X354Y3539D01*
X353Y3539D01*
X352Y3539D01*
X351Y3539D01*
X350Y3539D01*
X349Y3539D01*
X348Y3539D01*
X347Y3539D01*
X346Y3539D01*
X345Y3539D01*
X344Y3539D01*
X343Y3539D01*
X342Y3539D01*
X341Y3539D01*
X340Y3539D01*
X339Y3539D01*
X338Y3539D01*
X337Y3539D01*
X336Y3539D01*
X335Y3539D01*
X334Y3539D01*
X333Y3539D01*
X332Y3539D01*
X331Y3539D01*
X330Y3539D01*
X329Y3539D01*
X328Y3539D01*
X327Y3539D01*
X326Y3539D01*
X325Y3539D01*
X324Y3539D01*
X323Y3539D01*
X322Y3539D01*
X321Y3539D01*
X320Y3539D01*
X319Y3539D01*
X318Y3539D01*
X317Y3539D01*
X316Y3539D01*
X315Y3539D01*
X314Y3539D01*
X313Y3539D01*
X312Y3539D01*
X311Y3539D01*
X310Y3539D01*
X309Y3539D01*
X308Y3539D01*
X307Y3539D01*
X306Y3539D01*
X305Y3539D01*
X304Y3539D01*
X303Y3539D01*
X302Y3539D01*
X301Y3539D01*
X300Y3539D01*
X299Y3539D01*
X298Y3539D01*
X297Y3539D01*
X296Y3539D01*
X295Y3539D01*
X294Y3539D01*
X293Y3539D01*
X292Y3539D01*
X291Y3539D01*
X290Y3539D01*
X289Y3539D01*
X288Y3539D01*
X287Y3539D01*
X286Y3539D01*
X285Y3539D01*
X284Y3539D01*
X283Y3539D01*
X282Y3539D01*
X281Y3539D01*
X280Y3539D01*
X279Y3539D01*
X278Y3539D01*
X277Y3539D01*
X276Y3539D01*
X275Y3539D01*
X274Y3539D01*
X273Y3539D01*
X272Y3539D01*
X271Y3539D01*
X270Y3539D01*
X269Y3539D01*
X268Y3539D01*
X267Y3539D01*
X266Y3539D01*
X265Y3539D01*
X264Y3539D01*
X263Y3539D01*
X262Y3539D01*
X261Y3539D01*
X260Y3539D01*
X259Y3539D01*
X258Y3539D01*
X257Y3539D01*
X256Y3539D01*
X255Y3539D01*
X254Y3539D01*
X253Y3539D01*
X252Y3539D01*
X251Y3539D01*
X250Y3539D01*
X249Y3539D01*
X248Y3539D01*
X247Y3539D01*
X246Y3539D01*
X245Y3539D01*
X244Y3539D01*
X243Y3539D01*
X242Y3539D01*
X241Y3539D01*
X240Y3539D01*
X239Y3539D01*
X238Y3539D01*
X237Y3539D01*
X236Y3539D01*
X235Y3539D01*
X234Y3539D01*
X233Y3539D01*
X232Y3539D01*
X231Y3539D01*
X230Y3539D01*
X229Y3539D01*
X228Y3539D01*
X227Y3539D01*
X226Y3539D01*
X225Y3539D01*
X224Y3539D01*
X223Y3539D01*
X222Y3539D01*
X221Y3539D01*
X220Y3539D01*
X219Y3539D01*
X218Y3539D01*
X217Y3539D01*
X216Y3539D01*
X215Y3539D01*
X214Y3539D01*
X213Y3539D01*
X212Y3539D01*
X211Y3539D01*
X210Y3539D01*
X209Y3539D01*
X208Y3539D01*
X207Y3539D01*
X206Y3539D01*
X205Y3539D01*
X204Y3539D01*
X203Y3539D01*
X202Y3539D01*
X201Y3539D01*
X200Y3539D01*
X199Y3539D01*
X198Y3539D01*
X197Y3539D01*
X196Y3539D01*
X195Y3539D01*
X194Y3539D01*
X193Y3539D01*
X192Y3539D01*
X191Y3539D01*
X190Y3539D01*
X189Y3539D01*
X188Y3539D01*
X187Y3539D01*
X186Y3539D01*
X185Y3539D01*
X184Y3539D01*
X183Y3539D01*
X182Y3539D01*
X181Y3539D01*
X180Y3539D01*
X179Y3539D01*
X178Y3539D01*
X177Y3539D01*
X176Y3539D01*
X175Y3539D01*
X174Y3539D01*
X173Y3539D01*
X172Y3539D01*
X171Y3539D01*
X170Y3539D01*
X169Y3539D01*
X168Y3539D01*
X167Y3539D01*
X166Y3539D01*
X165Y3539D01*
X164Y3539D01*
X163Y3539D01*
X162Y3539D01*
X161Y3539D01*
X160Y3539D01*
X159Y3539D01*
X158Y3539D01*
X157Y3539D01*
X156Y3539D01*
X155Y3539D01*
X154Y3539D01*
X153Y3539D01*
X152Y3539D01*
X151Y3539D01*
X150Y3539D01*
X149Y3539D01*
X148Y3539D01*
X147Y3539D01*
X146Y3539D01*
X145Y3539D01*
X144Y3539D01*
X143Y3539D01*
X142Y3539D01*
X141Y3539D01*
X140Y3539D01*
X139Y3539D01*
X138Y3539D01*
X137Y3539D01*
X136Y3539D01*
X135Y3539D01*
X134Y3539D01*
X133Y3539D01*
X132Y3539D01*
X131Y3539D01*
X130Y3539D01*
X129Y3539D01*
X128Y3539D01*
X127Y3539D01*
X126Y3539D01*
X125Y3539D01*
X124Y3539D01*
X123Y3539D01*
X122Y3539D01*
X121Y3539D01*
X120Y3539D01*
X119Y3539D01*
X118Y3539D01*
X117Y3539D01*
X116Y3539D01*
X115Y3539D01*
X115Y3540D01*
X114Y3541D01*
X114Y3543D01*
X113Y3544D01*
X113Y3545D01*
X112Y3546D01*
X112Y3548D01*
X111Y3549D01*
X111Y3550D01*
X110Y3551D01*
X110Y3553D01*
X109Y3554D01*
X109Y3556D01*
X108Y3557D01*
X108Y3558D01*
X107Y3559D01*
X107Y3561D01*
X106Y3562D01*
X106Y3564D01*
X105Y3565D01*
X105Y3566D01*
X104Y3567D01*
X104Y3569D01*
X103Y3570D01*
X103Y3572D01*
X102Y3573D01*
X102Y3575D01*
X101Y3576D01*
X101Y3578D01*
X100Y3579D01*
X100Y3580D01*
X99Y3581D01*
X99Y3583D01*
X98Y3584D01*
X98Y3586D01*
X97Y3587D01*
X97Y3589D01*
X96Y3590D01*
X96Y3592D01*
X95Y3593D01*
X95Y3595D01*
X94Y3596D01*
X94Y3598D01*
X93Y3599D01*
X93Y3602D01*
X92Y3603D01*
X92Y3605D01*
X91Y3606D01*
X91Y3608D01*
X90Y3609D01*
X90Y3612D01*
X89Y3613D01*
X89Y3615D01*
X88Y3616D01*
X88Y3619D01*
X87Y3620D01*
X87Y3622D01*
X86Y3623D01*
X86Y3626D01*
X85Y3627D01*
X85Y3630D01*
X84Y3631D01*
X84Y3633D01*
X83Y3634D01*
X83Y3637D01*
X82Y3638D01*
X82Y3641D01*
X81Y3642D01*
X81Y3645D01*
X80Y3646D01*
X80Y3650D01*
X79Y3651D01*
X79Y3654D01*
X78Y3655D01*
X78Y3659D01*
X77Y3660D01*
X77Y3664D01*
X76Y3665D01*
X76Y3669D01*
X75Y3670D01*
X75Y3674D01*
X74Y3675D01*
X74Y3679D01*
X73Y3680D01*
X73Y3685D01*
X72Y3686D01*
X72Y3691D01*
X71Y3692D01*
X71Y3698D01*
X70Y3699D01*
X70Y3704D01*
X69Y3705D01*
X69Y3712D01*
X68Y3713D01*
X68Y3721D01*
X67Y3722D01*
X67Y3732D01*
X66Y3733D01*
X66Y3745D01*
X65Y3746D01*
X65Y3775D01*
X64Y3776D01*
X64Y3780D01*
X65Y3781D01*
X65Y3801D01*
X66Y3802D01*
X66Y3809D01*
X67Y3810D01*
X67Y3816D01*
X68Y3817D01*
X68Y3821D01*
X69Y3822D01*
X69Y3826D01*
X70Y3827D01*
X70Y3830D01*
X71Y3831D01*
X71Y3834D01*
X72Y3835D01*
X72Y3837D01*
X73Y3838D01*
X73Y3841D01*
X74Y3842D01*
X74Y3844D01*
X75Y3845D01*
X75Y3846D01*
X76Y3847D01*
X76Y3849D01*
X77Y3850D01*
X77Y3851D01*
X78Y3852D01*
X78Y3854D01*
X79Y3855D01*
X79Y3856D01*
X80Y3857D01*
X80Y3858D01*
X81Y3859D01*
X81Y3860D01*
X82Y3861D01*
X82Y3862D01*
X83Y3863D01*
X83Y3864D01*
X84Y3865D01*
X85Y3866D01*
X85Y3867D01*
X86Y3868D01*
X86Y3869D01*
X87Y3870D01*
X88Y3871D01*
X88Y3872D01*
X89Y3873D01*
X90Y3874D01*
X90Y3875D01*
X91Y3876D01*
X92Y3877D01*
X93Y3878D01*
X93Y3879D01*
X94Y3880D01*
X95Y3881D01*
X96Y3882D01*
X97Y3883D01*
X98Y3884D01*
X99Y3885D01*
X100Y3886D01*
X101Y3887D01*
X101Y3888D01*
X102Y3889D01*
X103Y3889D01*
X104Y3890D01*
X105Y3891D01*
X106Y3892D01*
X107Y3893D01*
X108Y3894D01*
X109Y3895D01*
X110Y3896D01*
X111Y3896D01*
X112Y3897D01*
X113Y3898D01*
X114Y3899D01*
X115Y3899D01*
X116Y3900D01*
X117Y3901D01*
X118Y3901D01*
X119Y3902D01*
X120Y3903D01*
X121Y3903D01*
X122Y3904D01*
X123Y3905D01*
X124Y3905D01*
X125Y3906D01*
X126Y3906D01*
X127Y3907D01*
X128Y3908D01*
X129Y3908D01*
X130Y3909D01*
X131Y3909D01*
X132Y3910D01*
X133Y3910D01*
X134Y3911D01*
X135Y3911D01*
X136Y3912D01*
X137Y3912D01*
X138Y3913D01*
X139Y3913D01*
X140Y3913D01*
X141Y3914D01*
X142Y3914D01*
X143Y3915D01*
X144Y3915D01*
X145Y3916D01*
X146Y3916D01*
X147Y3916D01*
X148Y3917D01*
X149Y3917D01*
X150Y3917D01*
X151Y3918D01*
X152Y3918D01*
X153Y3918D01*
X154Y3919D01*
X155Y3919D01*
X156Y3919D01*
X157Y3920D01*
X158Y3920D01*
X159Y3920D01*
X160Y3921D01*
X161Y3921D01*
X162Y3921D01*
X163Y3921D01*
X164Y3922D01*
X165Y3922D01*
X166Y3922D01*
X167Y3922D01*
X168Y3923D01*
X169Y3923D01*
X170Y3923D01*
X171Y3923D01*
X172Y3924D01*
X173Y3924D01*
X174Y3924D01*
X175Y3924D01*
X176Y3925D01*
X177Y3925D01*
X178Y3925D01*
X179Y3925D01*
X180Y3925D01*
X181Y3925D01*
X182Y3926D01*
X183Y3926D01*
X184Y3926D01*
X185Y3926D01*
X186Y3926D01*
X187Y3926D01*
X188Y3927D01*
X189Y3927D01*
X190Y3927D01*
X191Y3927D01*
X192Y3927D01*
X193Y3927D01*
X194Y3927D01*
X195Y3927D01*
X196Y3928D01*
X197Y3928D01*
X198Y3928D01*
X199Y3928D01*
X200Y3928D01*
X201Y3928D01*
X202Y3928D01*
X203Y3928D01*
X204Y3928D01*
X205Y3928D01*
X206Y3929D01*
X207Y3929D01*
X208Y3929D01*
X209Y3929D01*
X210Y3929D01*
X211Y3929D01*
X212Y3929D01*
X213Y3929D01*
X214Y3929D01*
X215Y3929D01*
X216Y3929D01*
X217Y3929D01*
X218Y3929D01*
X219Y3929D01*
X220Y3929D01*
X221Y3929D01*
X222Y3929D01*
X223Y3929D01*
X224Y3929D01*
X225Y3929D01*
X226Y3929D01*
X227Y3929D01*
X228Y3929D01*
X229Y3929D01*
X230Y3929D01*
X231Y3929D01*
X232Y3930D01*
X233Y3930D01*
X234Y3930D01*
X235Y3930D01*
X236Y3930D01*
X237Y3930D01*
X238Y3930D01*
X239Y3930D01*
X240Y3930D01*
X241Y3930D01*
X242Y3930D01*
X243Y3930D01*
X244Y3930D01*
X245Y3930D01*
X246Y3930D01*
X247Y3930D01*
X248Y3930D01*
X249Y3930D01*
X250Y3930D01*
X251Y3930D01*
X252Y3930D01*
X253Y3930D01*
X254Y3930D01*
X255Y3930D01*
X256Y3930D01*
X257Y3930D01*
X258Y3930D01*
X259Y3930D01*
X260Y3930D01*
X261Y3930D01*
X262Y3930D01*
X263Y3930D01*
X264Y3930D01*
X265Y3930D01*
X266Y3930D01*
X267Y3930D01*
X268Y3930D01*
X269Y3930D01*
X270Y3930D01*
X271Y3930D01*
X272Y3930D01*
X273Y3930D01*
X274Y3930D01*
X275Y3930D01*
X276Y3930D01*
X277Y3930D01*
X278Y3930D01*
X279Y3930D01*
X280Y3930D01*
X281Y3930D01*
X282Y3930D01*
X283Y3930D01*
X284Y3930D01*
X285Y3930D01*
X286Y3930D01*
X287Y3930D01*
X288Y3930D01*
X289Y3930D01*
X290Y3930D01*
X291Y3930D01*
X292Y3930D01*
X293Y3930D01*
X294Y3930D01*
X295Y3930D01*
X296Y3930D01*
X297Y3930D01*
X298Y3930D01*
X299Y3930D01*
X300Y3930D01*
X301Y3930D01*
X302Y3930D01*
X303Y3930D01*
X304Y3930D01*
X305Y3930D01*
X306Y3930D01*
X307Y3930D01*
X308Y3930D01*
X309Y3930D01*
X310Y3930D01*
X311Y3930D01*
X312Y3930D01*
X313Y3930D01*
X314Y3930D01*
X315Y3930D01*
X316Y3930D01*
X317Y3930D01*
X318Y3930D01*
X319Y3930D01*
X320Y3930D01*
X321Y3930D01*
X322Y3930D01*
X323Y3930D01*
X324Y3930D01*
X325Y3930D01*
X326Y3930D01*
X327Y3930D01*
X328Y3930D01*
X329Y3930D01*
X330Y3930D01*
X331Y3930D01*
X332Y3930D01*
X333Y3930D01*
X334Y3930D01*
X335Y3930D01*
X336Y3930D01*
X337Y3930D01*
X338Y3930D01*
X339Y3930D01*
X340Y3930D01*
X341Y3930D01*
X342Y3930D01*
X343Y3930D01*
X344Y3930D01*
X345Y3930D01*
X346Y3930D01*
X347Y3930D01*
X348Y3930D01*
X349Y3930D01*
X350Y3930D01*
X351Y3930D01*
X352Y3930D01*
X353Y3930D01*
X354Y3930D01*
X355Y3930D01*
X356Y3930D01*
X357Y3930D01*
X358Y3930D01*
X359Y3930D01*
X360Y3930D01*
X361Y3930D01*
X362Y3930D01*
X363Y3930D01*
X364Y3930D01*
X365Y3930D01*
X366Y3930D01*
X367Y3930D01*
X368Y3930D01*
X369Y3930D01*
X370Y3930D01*
X371Y3930D01*
X372Y3930D01*
X373Y3930D01*
X374Y3930D01*
X375Y3930D01*
X376Y3930D01*
X377Y3930D01*
X378Y3930D01*
X379Y3930D01*
X380Y3930D01*
X381Y3930D01*
X382Y3930D01*
X383Y3930D01*
X384Y3930D01*
X385Y3930D01*
X386Y3930D01*
X387Y3930D01*
X388Y3930D01*
X389Y3930D01*
X390Y3930D01*
X391Y3930D01*
X392Y3930D01*
X393Y3930D01*
X394Y3930D01*
X395Y3930D01*
X396Y3930D01*
X397Y3930D01*
X398Y3930D01*
X399Y3930D01*
X400Y3930D01*
X401Y3930D01*
X402Y3930D01*
X403Y3930D01*
X404Y3930D01*
X405Y3930D01*
X406Y3930D01*
X407Y3930D01*
X408Y3930D01*
X409Y3930D01*
X410Y3930D01*
X411Y3930D01*
X412Y3930D01*
X413Y3930D01*
X414Y3930D01*
X415Y3930D01*
X416Y3930D01*
X417Y3930D01*
X418Y3930D01*
X419Y3930D01*
X420Y3930D01*
X421Y3930D01*
X422Y3930D01*
X423Y3930D01*
X424Y3930D01*
X425Y3930D01*
X426Y3930D01*
X427Y3930D01*
X428Y3930D01*
X429Y3930D01*
X430Y3930D01*
X431Y3930D01*
X432Y3930D01*
X433Y3930D01*
X434Y3930D01*
X435Y3930D01*
X436Y3930D01*
X437Y3930D01*
X438Y3930D01*
X439Y3930D01*
X440Y3930D01*
X441Y3930D01*
X442Y3930D01*
X443Y3930D01*
X444Y3930D01*
X445Y3930D01*
X446Y3930D01*
X447Y3930D01*
X448Y3930D01*
X449Y3930D01*
X450Y3930D01*
X451Y3930D01*
X452Y3930D01*
X453Y3930D01*
X454Y3930D01*
X455Y3930D01*
X456Y3930D01*
X457Y3930D01*
X458Y3930D01*
X459Y3930D01*
X460Y3930D01*
X461Y3930D01*
X462Y3930D01*
X463Y3930D01*
X464Y3930D01*
X465Y3930D01*
X466Y3930D01*
X467Y3930D01*
X468Y3930D01*
X469Y3930D01*
X470Y3930D01*
X471Y3930D01*
X472Y3930D01*
X473Y3930D01*
X474Y3930D01*
X475Y3930D01*
X476Y3930D01*
X477Y3930D01*
X478Y3930D01*
X479Y3930D01*
X480Y3930D01*
X481Y3930D01*
X482Y3930D01*
X483Y3930D01*
X484Y3930D01*
X485Y3930D01*
X486Y3930D01*
X487Y3930D01*
X488Y3930D01*
X489Y3930D01*
X490Y3930D01*
X491Y3930D01*
X492Y3930D01*
X493Y3930D01*
X494Y3930D01*
X495Y3930D01*
X496Y3930D01*
X497Y3930D01*
X498Y3930D01*
X499Y3930D01*
X500Y3930D01*
X501Y3930D01*
X502Y3930D01*
X503Y3930D01*
X504Y3930D01*
X505Y3930D01*
X506Y3930D01*
X507Y3930D01*
X508Y3930D01*
X509Y3930D01*
X510Y3930D01*
X511Y3930D01*
X512Y3930D01*
X513Y3930D01*
X514Y3930D01*
X515Y3930D01*
X516Y3930D01*
X517Y3930D01*
X518Y3930D01*
X519Y3930D01*
X520Y3930D01*
X521Y3930D01*
X522Y3930D01*
X523Y3930D01*
X524Y3930D01*
X525Y3930D01*
X526Y3930D01*
X527Y3930D01*
X528Y3930D01*
X529Y3930D01*
X530Y3930D01*
X531Y3930D01*
X532Y3930D01*
X533Y3930D01*
X534Y3930D01*
X535Y3930D01*
X536Y3930D01*
X537Y3930D01*
X538Y3930D01*
X539Y3930D01*
X540Y3930D01*
X541Y3930D01*
X542Y3930D01*
X543Y3930D01*
X544Y3930D01*
X545Y3930D01*
X546Y3930D01*
X547Y3930D01*
X548Y3930D01*
X549Y3930D01*
X550Y3930D01*
X551Y3930D01*
X552Y3930D01*
X553Y3930D01*
X554Y3930D01*
X555Y3930D01*
X556Y3930D01*
X557Y3930D01*
X558Y3930D01*
X559Y3930D01*
X560Y3930D01*
X561Y3930D01*
X562Y3930D01*
X563Y3930D01*
X564Y3930D01*
X565Y3930D01*
X566Y3930D01*
X567Y3930D01*
X568Y3930D01*
X569Y3930D01*
X570Y3930D01*
X571Y3930D01*
X572Y3930D01*
X573Y3930D01*
X574Y3930D01*
X575Y3930D01*
X576Y3930D01*
X577Y3930D01*
X578Y3930D01*
X579Y3930D01*
X580Y3930D01*
X581Y3930D01*
X582Y3930D01*
X583Y3930D01*
X584Y3930D01*
X585Y3930D01*
X586Y3930D01*
X587Y3930D01*
X588Y3930D01*
X589Y3930D01*
X590Y3930D01*
X591Y3930D01*
X592Y3930D01*
X593Y3930D01*
X594Y3930D01*
X595Y3930D01*
X596Y3930D01*
X597Y3930D01*
X598Y3930D01*
X599Y3930D01*
X600Y3930D01*
X601Y3930D01*
X602Y3930D01*
X603Y3930D01*
X604Y3930D01*
X605Y3930D01*
X606Y3930D01*
X607Y3930D01*
X608Y3930D01*
X609Y3930D01*
X610Y3930D01*
X611Y3930D01*
X612Y3930D01*
X613Y3930D01*
X614Y3930D01*
X615Y3930D01*
X616Y3930D01*
X617Y3930D01*
X618Y3930D01*
X619Y3930D01*
X620Y3930D01*
X621Y3930D01*
X622Y3930D01*
X623Y3930D01*
X624Y3930D01*
X625Y3930D01*
X626Y3930D01*
X627Y3930D01*
X628Y3930D01*
X629Y3930D01*
X630Y3930D01*
X631Y3930D01*
X632Y3930D01*
X633Y3930D01*
X634Y3930D01*
X635Y3930D01*
X636Y3930D01*
X637Y3930D01*
X638Y3930D01*
X639Y3930D01*
X640Y3930D01*
X641Y3930D01*
X642Y3930D01*
X643Y3930D01*
X644Y3930D01*
X645Y3930D01*
X646Y3930D01*
X647Y3930D01*
X648Y3930D01*
X649Y3930D01*
X650Y3930D01*
X651Y3930D01*
X652Y3930D01*
X653Y3930D01*
X654Y3930D01*
X655Y3930D01*
X656Y3930D01*
X657Y3930D01*
X658Y3930D01*
X659Y3930D01*
X660Y3930D01*
X661Y3930D01*
X662Y3930D01*
X663Y3930D01*
X664Y3930D01*
X665Y3930D01*
X666Y3930D01*
X667Y3930D01*
X668Y3930D01*
X669Y3930D01*
X670Y3930D01*
X671Y3930D01*
X672Y3930D01*
X673Y3930D01*
X674Y3930D01*
X675Y3930D01*
X676Y3930D01*
X677Y3930D01*
X678Y3930D01*
X679Y3930D01*
X680Y3930D01*
X681Y3930D01*
X682Y3930D01*
X683Y3930D01*
X684Y3930D01*
X685Y3930D01*
X686Y3930D01*
X687Y3930D01*
X688Y3930D01*
X689Y3930D01*
X690Y3930D01*
X691Y3930D01*
X692Y3930D01*
X693Y3930D01*
X694Y3930D01*
X695Y3930D01*
X696Y3930D01*
X697Y3930D01*
X698Y3930D01*
X699Y3930D01*
X700Y3930D01*
X701Y3930D01*
X702Y3930D01*
X703Y3930D01*
X704Y3930D01*
X705Y3930D01*
X706Y3930D01*
X707Y3930D01*
X708Y3930D01*
X709Y3930D01*
X710Y3930D01*
X711Y3930D01*
X712Y3930D01*
X713Y3930D01*
X714Y3930D01*
X715Y3930D01*
X716Y3930D01*
X717Y3930D01*
X718Y3930D01*
X719Y3930D01*
X720Y3930D01*
X721Y3930D01*
X722Y3930D01*
X723Y3930D01*
X724Y3930D01*
X725Y3930D01*
X726Y3930D01*
X727Y3930D01*
X728Y3930D01*
X729Y3930D01*
X730Y3930D01*
X731Y3930D01*
X732Y3930D01*
X733Y3930D01*
X734Y3930D01*
X735Y3930D01*
X736Y3930D01*
X737Y3930D01*
X738Y3930D01*
X739Y3930D01*
X740Y3930D01*
X741Y3930D01*
X742Y3930D01*
X743Y3930D01*
X744Y3930D01*
X745Y3930D01*
X746Y3930D01*
X747Y3930D01*
X748Y3930D01*
X749Y3930D01*
X750Y3930D01*
X751Y3930D01*
X752Y3930D01*
X753Y3930D01*
X754Y3930D01*
X755Y3930D01*
X756Y3930D01*
X757Y3930D01*
X758Y3930D01*
X759Y3930D01*
X760Y3930D01*
X761Y3930D01*
X762Y3930D01*
X763Y3930D01*
X764Y3930D01*
X765Y3930D01*
X766Y3930D01*
X767Y3930D01*
X768Y3930D01*
X769Y3930D01*
X770Y3930D01*
X771Y3930D01*
X772Y3930D01*
X773Y3930D01*
X774Y3930D01*
X775Y3930D01*
X776Y3930D01*
X777Y3930D01*
X778Y3930D01*
X779Y3930D01*
X780Y3930D01*
X781Y3930D01*
X782Y3930D01*
X783Y3930D01*
X784Y3930D01*
X785Y3930D01*
X786Y3930D01*
X787Y3930D01*
X788Y3930D01*
X789Y3930D01*
X790Y3930D01*
X791Y3930D01*
X792Y3930D01*
X793Y3930D01*
X794Y3930D01*
X795Y3930D01*
X796Y3930D01*
X797Y3930D01*
X798Y3930D01*
X799Y3930D01*
X800Y3930D01*
X801Y3930D01*
X802Y3930D01*
X803Y3930D01*
X804Y3930D01*
X805Y3930D01*
X806Y3930D01*
X807Y3930D01*
X808Y3930D01*
X809Y3930D01*
X810Y3930D01*
X811Y3930D01*
X812Y3930D01*
X813Y3930D01*
X814Y3930D01*
X815Y3930D01*
X816Y3930D01*
X817Y3930D01*
X818Y3930D01*
X819Y3930D01*
X820Y3930D01*
X821Y3930D01*
X822Y3930D01*
X823Y3930D01*
X824Y3930D01*
X825Y3930D01*
X826Y3930D01*
X827Y3930D01*
X828Y3930D01*
X829Y3930D01*
X830Y3930D01*
X831Y3930D01*
X832Y3930D01*
X833Y3930D01*
X834Y3930D01*
X835Y3930D01*
X836Y3930D01*
X837Y3930D01*
X838Y3930D01*
X839Y3930D01*
X840Y3930D01*
X841Y3930D01*
X842Y3930D01*
X843Y3930D01*
X844Y3930D01*
X845Y3930D01*
X846Y3930D01*
X847Y3930D01*
X848Y3930D01*
X849Y3930D01*
X850Y3930D01*
X851Y3930D01*
X852Y3930D01*
X853Y3930D01*
X854Y3930D01*
X855Y3930D01*
X856Y3930D01*
X857Y3930D01*
X858Y3930D01*
X859Y3930D01*
X860Y3930D01*
X861Y3930D01*
X862Y3930D01*
X863Y3930D01*
X864Y3930D01*
X865Y3930D01*
X866Y3930D01*
X867Y3930D01*
X868Y3930D01*
X869Y3930D01*
X870Y3930D01*
X871Y3930D01*
X872Y3930D01*
X873Y3930D01*
X874Y3930D01*
X875Y3930D01*
X876Y3930D01*
X877Y3930D01*
X878Y3930D01*
X879Y3930D01*
X880Y3930D01*
X881Y3930D01*
X882Y3930D01*
X883Y3930D01*
X884Y3930D01*
X885Y3930D01*
X886Y3930D01*
X887Y3930D01*
X888Y3930D01*
X889Y3930D01*
X890Y3930D01*
X891Y3930D01*
X892Y3930D01*
X893Y3930D01*
X894Y3930D01*
X895Y3930D01*
X896Y3930D01*
X897Y3930D01*
X898Y3930D01*
X899Y3930D01*
X900Y3930D01*
X901Y3930D01*
X902Y3930D01*
X903Y3930D01*
X904Y3930D01*
X905Y3930D01*
X906Y3930D01*
X907Y3930D01*
X908Y3930D01*
X909Y3930D01*
X910Y3930D01*
X911Y3930D01*
X912Y3930D01*
X913Y3930D01*
X914Y3930D01*
X915Y3930D01*
X916Y3930D01*
X917Y3930D01*
X918Y3930D01*
X919Y3930D01*
X920Y3930D01*
X921Y3930D01*
X922Y3930D01*
X923Y3930D01*
X924Y3930D01*
X925Y3930D01*
X926Y3930D01*
X927Y3930D01*
X928Y3930D01*
X929Y3930D01*
X930Y3930D01*
X931Y3930D01*
X932Y3930D01*
X933Y3930D01*
X934Y3930D01*
X935Y3930D01*
X936Y3930D01*
X937Y3930D01*
X938Y3930D01*
X939Y3930D01*
X940Y3930D01*
X941Y3930D01*
X942Y3930D01*
X943Y3930D01*
X944Y3930D01*
X945Y3930D01*
X946Y3930D01*
X947Y3930D01*
X948Y3930D01*
X949Y3930D01*
X950Y3930D01*
X951Y3930D01*
X952Y3930D01*
X953Y3930D01*
X954Y3930D01*
X955Y3930D01*
X956Y3930D01*
X957Y3930D01*
X958Y3930D01*
X959Y3930D01*
X960Y3930D01*
X961Y3930D01*
X962Y3930D01*
X963Y3930D01*
X964Y3930D01*
X965Y3930D01*
X966Y3930D01*
X967Y3930D01*
X968Y3930D01*
X969Y3930D01*
X970Y3930D01*
X971Y3930D01*
X972Y3930D01*
X973Y3930D01*
X974Y3930D01*
X975Y3930D01*
X976Y3930D01*
X977Y3930D01*
X978Y3930D01*
X979Y3930D01*
X980Y3930D01*
X981Y3930D01*
X982Y3930D01*
X983Y3930D01*
X984Y3930D01*
X985Y3930D01*
X986Y3930D01*
X987Y3930D01*
X988Y3930D01*
X989Y3930D01*
X990Y3930D01*
X991Y3930D01*
X992Y3930D01*
X993Y3930D01*
X994Y3930D01*
X995Y3930D01*
X996Y3930D01*
X997Y3930D01*
X998Y3930D01*
X999Y3930D01*
X1000Y3930D01*
X1001Y3930D01*
X1002Y3930D01*
X1003Y3930D01*
X1004Y3930D01*
X1005Y3930D01*
X1006Y3930D01*
X1007Y3930D01*
X1008Y3930D01*
X1009Y3930D01*
X1010Y3930D01*
X1011Y3930D01*
X1012Y3930D01*
X1013Y3930D01*
X1014Y3930D01*
X1015Y3930D01*
X1016Y3930D01*
X1017Y3930D01*
X1018Y3930D01*
X1019Y3930D01*
X1020Y3930D01*
X1021Y3930D01*
X1022Y3930D01*
X1023Y3930D01*
X1024Y3930D01*
X1025Y3930D01*
X1026Y3930D01*
X1027Y3930D01*
X1028Y3930D01*
X1029Y3930D01*
X1030Y3930D01*
X1031Y3930D01*
X1032Y3930D01*
X1033Y3930D01*
X1034Y3930D01*
X1035Y3930D01*
X1036Y3930D01*
X1037Y3930D01*
X1038Y3930D01*
X1039Y3930D01*
X1040Y3930D01*
X1041Y3930D01*
X1042Y3930D01*
X1043Y3930D01*
X1044Y3930D01*
X1045Y3930D01*
X1046Y3930D01*
X1047Y3930D01*
X1048Y3930D01*
X1049Y3930D01*
X1050Y3930D01*
X1051Y3930D01*
X1052Y3930D01*
X1053Y3930D01*
X1054Y3930D01*
X1055Y3930D01*
X1056Y3930D01*
X1057Y3930D01*
X1058Y3930D01*
X1059Y3930D01*
X1060Y3930D01*
X1061Y3930D01*
X1062Y3930D01*
X1063Y3930D01*
X1064Y3930D01*
X1065Y3930D01*
X1066Y3930D01*
X1067Y3930D01*
X1068Y3930D01*
X1069Y3930D01*
X1070Y3930D01*
X1071Y3930D01*
X1072Y3930D01*
X1073Y3930D01*
X1074Y3930D01*
X1075Y3930D01*
X1076Y3930D01*
X1077Y3930D01*
X1078Y3930D01*
X1079Y3930D01*
X1080Y3930D01*
X1081Y3930D01*
X1082Y3930D01*
X1083Y3930D01*
X1084Y3930D01*
X1085Y3930D01*
X1086Y3930D01*
X1087Y3930D01*
X1088Y3930D01*
X1089Y3930D01*
X1090Y3930D01*
X1091Y3930D01*
X1092Y3930D01*
X1093Y3930D01*
X1094Y3930D01*
X1095Y3930D01*
X1096Y3930D01*
X1097Y3930D01*
X1098Y3930D01*
X1099Y3930D01*
X1100Y3930D01*
X1101Y3930D01*
X1102Y3930D01*
X1103Y3930D01*
X1104Y3930D01*
X1105Y3930D01*
X1106Y3930D01*
X1107Y3930D01*
X1108Y3930D01*
X1109Y3930D01*
X1110Y3930D01*
X1111Y3930D01*
X1112Y3930D01*
X1113Y3930D01*
X1114Y3930D01*
X1115Y3930D01*
X1116Y3930D01*
X1117Y3930D01*
X1118Y3930D01*
X1119Y3930D01*
X1120Y3930D01*
X1121Y3930D01*
X1122Y3930D01*
X1123Y3930D01*
X1124Y3930D01*
X1125Y3930D01*
X1126Y3930D01*
X1127Y3930D01*
X1128Y3930D01*
X1129Y3930D01*
X1130Y3930D01*
X1131Y3930D01*
X1132Y3930D01*
X1133Y3930D01*
X1134Y3930D01*
X1135Y3930D01*
X1136Y3930D01*
X1137Y3930D01*
X1138Y3930D01*
X1139Y3930D01*
X1140Y3930D01*
X1141Y3930D01*
X1142Y3930D01*
X1143Y3930D01*
X1144Y3930D01*
X1145Y3930D01*
X1146Y3930D01*
X1147Y3930D01*
X1148Y3930D01*
X1149Y3930D01*
X1150Y3930D01*
X1151Y3930D01*
X1152Y3930D01*
X1153Y3930D01*
X1154Y3930D01*
X1155Y3930D01*
X1156Y3930D01*
X1157Y3930D01*
X1158Y3930D01*
X1159Y3930D01*
X1160Y3930D01*
X1161Y3930D01*
X1162Y3930D01*
X1163Y3930D01*
X1164Y3930D01*
X1165Y3930D01*
X1166Y3930D01*
X1167Y3930D01*
X1168Y3930D01*
X1169Y3930D01*
X1170Y3930D01*
X1171Y3930D01*
X1172Y3930D01*
X1173Y3930D01*
X1174Y3930D01*
X1175Y3930D01*
X1176Y3930D01*
X1177Y3930D01*
X1178Y3930D01*
X1179Y3930D01*
X1180Y3930D01*
X1181Y3930D01*
X1182Y3930D01*
X1183Y3930D01*
X1184Y3930D01*
X1185Y3930D01*
X1186Y3930D01*
X1187Y3930D01*
X1188Y3930D01*
X1189Y3930D01*
X1190Y3930D01*
X1191Y3930D01*
X1192Y3930D01*
X1193Y3930D01*
X1194Y3930D01*
X1195Y3930D01*
X1196Y3930D01*
X1197Y3930D01*
X1198Y3930D01*
X1199Y3930D01*
X1200Y3930D01*
X1201Y3930D01*
X1202Y3930D01*
X1203Y3930D01*
X1204Y3930D01*
X1205Y3930D01*
X1206Y3930D01*
X1207Y3930D01*
X1208Y3930D01*
X1209Y3930D01*
X1210Y3930D01*
X1211Y3930D01*
X1212Y3930D01*
X1213Y3930D01*
X1214Y3930D01*
X1215Y3930D01*
X1216Y3930D01*
X1217Y3930D01*
X1218Y3930D01*
X1219Y3930D01*
X1220Y3930D01*
X1221Y3930D01*
X1222Y3930D01*
X1223Y3930D01*
X1224Y3930D01*
X1225Y3930D01*
X1226Y3930D01*
X1227Y3930D01*
X1228Y3930D01*
X1229Y3930D01*
X1230Y3930D01*
X1231Y3930D01*
X1232Y3930D01*
X1233Y3930D01*
X1234Y3930D01*
X1235Y3930D01*
X1236Y3930D01*
X1237Y3930D01*
X1238Y3930D01*
X1239Y3930D01*
X1240Y3930D01*
X1241Y3930D01*
X1242Y3930D01*
X1243Y3930D01*
X1244Y3930D01*
X1245Y3930D01*
X1246Y3930D01*
X1247Y3930D01*
X1248Y3930D01*
X1249Y3930D01*
X1250Y3930D01*
X1251Y3930D01*
X1252Y3930D01*
X1253Y3930D01*
X1254Y3930D01*
X1255Y3930D01*
X1256Y3930D01*
X1257Y3930D01*
X1258Y3930D01*
X1259Y3930D01*
X1260Y3930D01*
X1261Y3930D01*
X1262Y3930D01*
X1263Y3930D01*
X1264Y3930D01*
X1265Y3930D01*
X1266Y3930D01*
X1267Y3930D01*
X1268Y3930D01*
X1269Y3930D01*
X1270Y3930D01*
X1271Y3930D01*
X1272Y3930D01*
X1273Y3930D01*
X1274Y3930D01*
X1275Y3930D01*
X1276Y3930D01*
X1277Y3930D01*
X1278Y3930D01*
X1279Y3930D01*
X1280Y3930D01*
X1281Y3930D01*
X1282Y3930D01*
X1283Y3930D01*
X1284Y3930D01*
X1285Y3930D01*
X1286Y3930D01*
X1287Y3930D01*
X1288Y3930D01*
X1289Y3930D01*
X1290Y3930D01*
X1291Y3930D01*
X1292Y3930D01*
X1293Y3930D01*
X1294Y3930D01*
X1295Y3930D01*
X1296Y3930D01*
X1297Y3930D01*
X1298Y3930D01*
X1299Y3930D01*
X1300Y3930D01*
X1301Y3930D01*
X1302Y3930D01*
X1303Y3930D01*
X1304Y3930D01*
X1305Y3930D01*
X1306Y3930D01*
X1307Y3930D01*
X1308Y3930D01*
X1309Y3930D01*
X1310Y3930D01*
X1311Y3930D01*
X1312Y3930D01*
X1313Y3930D01*
X1314Y3930D01*
X1315Y3930D01*
X1316Y3930D01*
X1317Y3930D01*
X1318Y3930D01*
X1319Y3930D01*
X1320Y3930D01*
X1321Y3930D01*
X1322Y3930D01*
X1323Y3930D01*
X1324Y3930D01*
X1325Y3930D01*
X1326Y3930D01*
X1327Y3930D01*
X1328Y3930D01*
X1329Y3930D01*
X1330Y3930D01*
X1331Y3930D01*
X1332Y3930D01*
X1333Y3930D01*
X1334Y3930D01*
X1335Y3930D01*
X1336Y3930D01*
X1337Y3930D01*
X1338Y3930D01*
X1339Y3930D01*
X1340Y3930D01*
X1341Y3930D01*
X1342Y3930D01*
X1343Y3930D01*
X1344Y3930D01*
X1345Y3930D01*
X1346Y3930D01*
X1347Y3930D01*
X1348Y3930D01*
X1349Y3930D01*
X1350Y3930D01*
X1351Y3930D01*
X1352Y3930D01*
X1353Y3930D01*
X1354Y3930D01*
X1355Y3930D01*
X1356Y3930D01*
X1357Y3930D01*
X1358Y3930D01*
X1359Y3930D01*
X1360Y3930D01*
X1361Y3930D01*
X1362Y3930D01*
X1363Y3930D01*
X1364Y3930D01*
X1365Y3930D01*
X1366Y3930D01*
X1367Y3930D01*
X1368Y3930D01*
X1369Y3930D01*
X1370Y3930D01*
X1371Y3930D01*
X1372Y3930D01*
X1373Y3930D01*
X1374Y3930D01*
X1375Y3930D01*
X1376Y3930D01*
X1377Y3930D01*
X1378Y3930D01*
X1379Y3930D01*
X1380Y3930D01*
X1381Y3930D01*
X1382Y3930D01*
X1383Y3930D01*
X1384Y3930D01*
X1385Y3930D01*
X1386Y3930D01*
X1387Y3930D01*
X1388Y3930D01*
X1389Y3930D01*
X1390Y3930D01*
X1391Y3930D01*
X1392Y3930D01*
X1393Y3930D01*
X1394Y3930D01*
X1395Y3930D01*
X1396Y3930D01*
X1397Y3930D01*
X1398Y3930D01*
X1399Y3930D01*
X1400Y3930D01*
X1401Y3930D01*
X1402Y3930D01*
X1403Y3930D01*
X1404Y3930D01*
X1405Y3930D01*
X1406Y3930D01*
X1407Y3930D01*
X1408Y3930D01*
X1409Y3930D01*
X1410Y3930D01*
X1411Y3930D01*
X1412Y3930D01*
X1413Y3930D01*
X1414Y3930D01*
X1415Y3930D01*
X1416Y3930D01*
X1417Y3930D01*
X1418Y3930D01*
X1419Y3930D01*
X1420Y3930D01*
X1421Y3930D01*
X1422Y3930D01*
X1423Y3930D01*
X1424Y3930D01*
X1425Y3930D01*
X1426Y3930D01*
X1427Y3930D01*
X1428Y3930D01*
X1429Y3930D01*
X1430Y3930D01*
X1431Y3930D01*
X1432Y3930D01*
X1433Y3930D01*
X1434Y3930D01*
X1435Y3930D01*
X1436Y3930D01*
X1437Y3930D01*
X1438Y3930D01*
X1439Y3930D01*
X1440Y3930D01*
X1441Y3930D01*
X1442Y3930D01*
X1443Y3930D01*
X1444Y3930D01*
X1445Y3930D01*
X1446Y3930D01*
X1447Y3930D01*
X1448Y3930D01*
X1449Y3930D01*
X1450Y3930D01*
X1451Y3930D01*
X1452Y3930D01*
X1453Y3930D01*
X1454Y3930D01*
X1455Y3930D01*
X1455Y3929D01*
X1456Y3928D01*
X1457Y3927D01*
X1457Y3926D01*
X1458Y3925D01*
X1458Y3924D01*
X1459Y3923D01*
X1459Y3922D01*
X1460Y3921D01*
X1460Y3920D01*
X1461Y3919D01*
X1461Y3918D01*
X1462Y3917D01*
X1462Y3916D01*
X1463Y3915D01*
X1463Y3914D01*
X1464Y3913D01*
X1464Y3912D01*
X1465Y3911D01*
X1465Y3910D01*
X1466Y3909D01*
X1466Y3908D01*
X1467Y3907D01*
X1468Y3906D01*
X1468Y3905D01*
X1469Y3904D01*
X1469Y3903D01*
X1470Y3902D01*
X1470Y3901D01*
X1471Y3900D01*
X1471Y3899D01*
X1472Y3898D01*
X1472Y3897D01*
X1473Y3896D01*
X1473Y3895D01*
X1474Y3894D01*
X1474Y3893D01*
X1475Y3892D01*
X1475Y3891D01*
X1476Y3890D01*
X1476Y3889D01*
X1477Y3888D01*
X1477Y3887D01*
X1478Y3886D01*
X1479Y3885D01*
X1479Y3884D01*
X1480Y3883D01*
X1480Y3882D01*
X1481Y3881D01*
X1481Y3880D01*
X1482Y3879D01*
X1482Y3878D01*
X1483Y3877D01*
X1483Y3876D01*
X1484Y3875D01*
X1484Y3874D01*
X1485Y3873D01*
X1485Y3872D01*
X1486Y3871D01*
X1486Y3870D01*
X1487Y3869D01*
X1487Y3868D01*
X1488Y3867D01*
X1488Y3866D01*
X1489Y3865D01*
X1490Y3864D01*
X1490Y3863D01*
X1491Y3862D01*
X1491Y3861D01*
X1492Y3860D01*
X1492Y3859D01*
X1493Y3858D01*
X1493Y3857D01*
X1494Y3856D01*
X1494Y3855D01*
X1495Y3854D01*
X1495Y3853D01*
X1496Y3852D01*
X1496Y3851D01*
X1497Y3850D01*
X1497Y3849D01*
X1498Y3848D01*
X1498Y3847D01*
X1499Y3846D01*
X1499Y3845D01*
X1500Y3844D01*
X1501Y3843D01*
X1501Y3842D01*
X1502Y3841D01*
X1502Y3840D01*
X1503Y3839D01*
X1503Y3838D01*
X1504Y3837D01*
X1504Y3836D01*
X1505Y3835D01*
X1505Y3834D01*
X1506Y3833D01*
X1506Y3832D01*
X1507Y3831D01*
X1507Y3830D01*
X1508Y3829D01*
X1508Y3828D01*
X1509Y3827D01*
X1509Y3826D01*
X1510Y3825D01*
X1510Y3824D01*
X1511Y3823D01*
X1511Y3822D01*
X1512Y3821D01*
X1513Y3820D01*
X1513Y3819D01*
X1514Y3818D01*
X1514Y3817D01*
X1515Y3816D01*
X1515Y3815D01*
X1516Y3814D01*
X1516Y3813D01*
X1517Y3812D01*
X1517Y3811D01*
X1518Y3810D01*
X1518Y3809D01*
X1519Y3808D01*
X1519Y3807D01*
X1520Y3806D01*
X1520Y3805D01*
X1521Y3804D01*
X1521Y3803D01*
X1522Y3802D01*
X1522Y3801D01*
X1523Y3800D01*
X1524Y3799D01*
X1524Y3798D01*
X1525Y3797D01*
X1525Y3796D01*
X1526Y3795D01*
X1526Y3794D01*
X1527Y3793D01*
X1527Y3792D01*
X1528Y3791D01*
X1528Y3790D01*
X1529Y3789D01*
X1529Y3788D01*
X1530Y3787D01*
X1530Y3786D01*
X1531Y3785D01*
X1531Y3784D01*
X1532Y3783D01*
X1532Y3782D01*
X1533Y3781D01*
X1533Y3780D01*
X1534Y3779D01*
X1535Y3778D01*
X1535Y3777D01*
X1536Y3776D01*
X1536Y3775D01*
X1537Y3774D01*
X1537Y3773D01*
X1538Y3772D01*
X1538Y3771D01*
X1539Y3770D01*
X1539Y3769D01*
X1540Y3768D01*
X1540Y3767D01*
X1541Y3766D01*
X1541Y3765D01*
X1542Y3764D01*
X1542Y3763D01*
X1543Y3762D01*
X1543Y3761D01*
X1544Y3760D01*
X1544Y3759D01*
X1545Y3758D01*
X1546Y3757D01*
X1546Y3756D01*
X1547Y3755D01*
X1547Y3754D01*
X1548Y3753D01*
X1548Y3752D01*
X1549Y3751D01*
X1549Y3750D01*
X1550Y3749D01*
X1550Y3748D01*
X1551Y3747D01*
X1551Y3746D01*
X1552Y3745D01*
X1552Y3744D01*
X1553Y3743D01*
X1553Y3742D01*
X1554Y3741D01*
X1554Y3740D01*
X1555Y3739D01*
X1556Y3738D01*
X1556Y3737D01*
X1557Y3736D01*
X1557Y3735D01*
X1558Y3734D01*
X1558Y3733D01*
X1559Y3732D01*
X1559Y3731D01*
X1560Y3730D01*
X1560Y3729D01*
X1561Y3728D01*
X1561Y3727D01*
X1562Y3726D01*
X1562Y3725D01*
X1563Y3724D01*
X1563Y3723D01*
X1564Y3722D01*
X1565Y3721D01*
X1565Y3720D01*
X1566Y3719D01*
X1566Y3718D01*
X1567Y3717D01*
X1567Y3716D01*
X1568Y3715D01*
X1568Y3714D01*
X1569Y3713D01*
X1569Y3712D01*
X1570Y3711D01*
X1570Y3710D01*
X1571Y3709D01*
X1571Y3708D01*
X1572Y3707D01*
X1572Y3706D01*
X1573Y3705D01*
X1573Y3704D01*
X1574Y3703D01*
X1575Y3702D01*
X1575Y3701D01*
X1576Y3700D01*
X1576Y3699D01*
X1577Y3698D01*
X1577Y3697D01*
X1578Y3696D01*
X1578Y3695D01*
X1579Y3694D01*
X1579Y3693D01*
X1580Y3692D01*
X1580Y3691D01*
X1581Y3690D01*
X1581Y3689D01*
X1582Y3688D01*
X1582Y3687D01*
X1583Y3686D01*
X1584Y3685D01*
X1584Y3684D01*
X1585Y3683D01*
X1585Y3682D01*
X1586Y3681D01*
X1586Y3680D01*
X1587Y3679D01*
X1587Y3678D01*
X1588Y3677D01*
X1588Y3676D01*
X1589Y3675D01*
X1589Y3674D01*
X1590Y3673D01*
X1590Y3672D01*
X1591Y3671D01*
X1591Y3670D01*
X1592Y3669D01*
X1592Y3668D01*
X1593Y3667D01*
X1594Y3666D01*
X1594Y3665D01*
X1595Y3664D01*
X1595Y3663D01*
X1596Y3662D01*
X1596Y3661D01*
X1597Y3660D01*
X1597Y3659D01*
X1598Y3658D01*
X1598Y3657D01*
X1599Y3656D01*
X1599Y3655D01*
X1600Y3654D01*
X1600Y3653D01*
X1601Y3652D01*
X1601Y3651D01*
X1602Y3650D01*
X1603Y3649D01*
X1603Y3648D01*
X1604Y3647D01*
X1604Y3646D01*
X1605Y3645D01*
X1605Y3644D01*
X1606Y3643D01*
X1606Y3642D01*
X1607Y3641D01*
X1607Y3640D01*
X1608Y3639D01*
X1608Y3638D01*
X1609Y3637D01*
X1609Y3636D01*
X1610Y3635D01*
X1610Y3634D01*
X1611Y3633D01*
X1612Y3632D01*
X1612Y3631D01*
X1613Y3630D01*
X1613Y3629D01*
X1614Y3628D01*
X1614Y3627D01*
X1615Y3626D01*
X1615Y3625D01*
X1616Y3624D01*
X1616Y3623D01*
X1617Y3622D01*
X1617Y3621D01*
X1618Y3620D01*
X1618Y3619D01*
X1619Y3618D01*
X1619Y3617D01*
X1620Y3616D01*
X1620Y3615D01*
X1621Y3614D01*
X1622Y3613D01*
X1622Y3612D01*
X1623Y3611D01*
X1623Y3610D01*
X1624Y3609D01*
X1624Y3608D01*
X1625Y3607D01*
X1625Y3606D01*
X1626Y3605D01*
X1626Y3604D01*
X1627Y3603D01*
X1627Y3602D01*
X1628Y3601D01*
X1628Y3600D01*
X1629Y3599D01*
X1629Y3598D01*
X1630Y3597D01*
X1631Y3596D01*
X1631Y3595D01*
X1632Y3594D01*
X1632Y3593D01*
X1633Y3592D01*
X1633Y3591D01*
X1634Y3590D01*
X1634Y3589D01*
X1635Y3588D01*
X1635Y3587D01*
X1636Y3586D01*
X1636Y3585D01*
X1637Y3584D01*
X1637Y3583D01*
X1638Y3582D01*
X1638Y3581D01*
X1639Y3580D01*
X1640Y3579D01*
X1640Y3578D01*
X1641Y3577D01*
X1641Y3576D01*
X1642Y3575D01*
X1642Y3574D01*
X1643Y3573D01*
X1643Y3572D01*
X1644Y3571D01*
X1644Y3570D01*
X1645Y3569D01*
X1645Y3568D01*
X1646Y3567D01*
X1646Y3566D01*
X1647Y3565D01*
X1647Y3564D01*
X1648Y3563D01*
X1649Y3562D01*
X1649Y3561D01*
X1650Y3560D01*
X1650Y3559D01*
X1651Y3558D01*
X1651Y3557D01*
X1652Y3556D01*
X1652Y3555D01*
X1653Y3554D01*
X1653Y3553D01*
X1654Y3552D01*
X1654Y3551D01*
X1655Y3550D01*
X1655Y3549D01*
X1656Y3548D01*
X1657Y3547D01*
X1657Y3546D01*
X1658Y3545D01*
X1658Y3544D01*
X1659Y3543D01*
X1659Y3542D01*
X1660Y3541D01*
X1660Y3540D01*
X1661Y3539D01*
X1661Y3538D01*
X1662Y3537D01*
X1662Y3536D01*
X1663Y3535D01*
X1663Y3534D01*
X1664Y3533D01*
X1665Y3532D01*
X1665Y3531D01*
X1666Y3530D01*
X1666Y3529D01*
X1667Y3528D01*
X1667Y3527D01*
X1668Y3526D01*
X1668Y3525D01*
X1669Y3524D01*
X1669Y3523D01*
X1670Y3522D01*
X1670Y3521D01*
X1671Y3520D01*
X1671Y3519D01*
X1672Y3518D01*
X1673Y3517D01*
X1673Y3516D01*
X1674Y3515D01*
X1674Y3514D01*
X1675Y3513D01*
X1675Y3512D01*
X1676Y3511D01*
X1676Y3510D01*
X1677Y3509D01*
X1677Y3508D01*
X1678Y3507D01*
X1678Y3506D01*
X1679Y3505D01*
X1679Y3504D01*
X1680Y3503D01*
X1681Y3502D01*
X1681Y3501D01*
X1682Y3500D01*
X1682Y3499D01*
X1683Y3498D01*
X1683Y3497D01*
X1684Y3496D01*
X1684Y3495D01*
X1685Y3494D01*
X1685Y3493D01*
X1686Y3492D01*
X1686Y3491D01*
X1687Y3490D01*
X1687Y3489D01*
X1688Y3488D01*
X1689Y3487D01*
X1689Y3486D01*
X1690Y3485D01*
X1690Y3484D01*
X1691Y3483D01*
X1691Y3482D01*
X1692Y3481D01*
X1692Y3480D01*
X1693Y3479D01*
X1693Y3478D01*
X1694Y3477D01*
X1694Y3476D01*
X1695Y3475D01*
X1695Y3474D01*
X1696Y3473D01*
X1697Y3472D01*
X1697Y3471D01*
X1698Y3470D01*
X1698Y3469D01*
X1699Y3468D01*
X1699Y3467D01*
X1700Y3466D01*
X1700Y3465D01*
X1701Y3464D01*
X1701Y3463D01*
X1702Y3462D01*
X1702Y3461D01*
X1703Y3460D01*
X1703Y3459D01*
X1704Y3458D01*
X1705Y3457D01*
X1705Y3456D01*
X1706Y3455D01*
X1706Y3454D01*
X1707Y3453D01*
X1707Y3452D01*
X1708Y3451D01*
X1708Y3450D01*
X1709Y3449D01*
X1709Y3448D01*
X1710Y3447D01*
X1710Y3446D01*
X1711Y3445D01*
X1711Y3444D01*
X1712Y3443D01*
X1713Y3442D01*
X1713Y3441D01*
X1714Y3440D01*
X1714Y3439D01*
X1715Y3438D01*
X1715Y3437D01*
X1716Y3436D01*
X1716Y3435D01*
X1717Y3434D01*
X1717Y3433D01*
X1718Y3432D01*
X1718Y3431D01*
X1719Y3430D01*
X1719Y3429D01*
X1720Y3428D01*
X1721Y3427D01*
X1721Y3426D01*
X1722Y3425D01*
X1722Y3424D01*
X1723Y3423D01*
X1723Y3422D01*
X1724Y3421D01*
X1724Y3420D01*
X1725Y3419D01*
X1725Y3418D01*
X1726Y3417D01*
X1726Y3416D01*
X1727Y3415D01*
X1727Y3414D01*
X1728Y3413D01*
X1728Y3412D01*
X1729Y3411D01*
X1730Y3410D01*
X1730Y3409D01*
X1731Y3408D01*
X1731Y3407D01*
X1732Y3406D01*
X1732Y3405D01*
X1733Y3404D01*
X1733Y3403D01*
X1734Y3402D01*
X1734Y3401D01*
X1735Y3400D01*
X1735Y3399D01*
X1736Y3398D01*
X1736Y3397D01*
X1737Y3396D01*
X1738Y3395D01*
X1738Y3394D01*
X1739Y3393D01*
X1739Y3392D01*
X1740Y3391D01*
X1740Y3390D01*
X1741Y3389D01*
X1741Y3388D01*
X1742Y3387D01*
X1742Y3386D01*
X1743Y3385D01*
X1743Y3384D01*
X1744Y3383D01*
X1745Y3382D01*
X1745Y3381D01*
X1746Y3380D01*
X1746Y3379D01*
X1747Y3378D01*
X1747Y3377D01*
X1748Y3376D01*
X1748Y3375D01*
X1749Y3374D01*
X1749Y3373D01*
X1750Y3372D01*
X1750Y3371D01*
X1751Y3370D01*
X1752Y3369D01*
X1752Y3368D01*
X1753Y3367D01*
X1753Y3366D01*
X1754Y3365D01*
X1754Y3364D01*
X1755Y3363D01*
X1755Y3362D01*
X1756Y3361D01*
X1756Y3360D01*
X1757Y3359D01*
X1758Y3358D01*
X1758Y3357D01*
X1759Y3356D01*
X1759Y3355D01*
X1760Y3354D01*
X1760Y3353D01*
X1761Y3352D01*
X1761Y3351D01*
X1762Y3350D01*
X1762Y3349D01*
X1763Y3348D01*
X1763Y3347D01*
X1764Y3346D01*
X1765Y3345D01*
X1765Y3344D01*
X1766Y3343D01*
X1766Y3342D01*
X1767Y3341D01*
X1767Y3340D01*
X1768Y3339D01*
X1768Y3338D01*
X1769Y3337D01*
X1769Y3336D01*
X1770Y3335D01*
X1770Y3334D01*
X1771Y3333D01*
X1772Y3332D01*
X1772Y3331D01*
X1773Y3330D01*
X1773Y3329D01*
X1774Y3328D01*
X1774Y3327D01*
X1775Y3326D01*
X1775Y3325D01*
X1776Y3324D01*
X1776Y3323D01*
X1777Y3322D01*
X1777Y3321D01*
X1778Y3320D01*
X1779Y3319D01*
X1779Y3318D01*
X1780Y3317D01*
X1780Y3316D01*
X1781Y3315D01*
X1781Y3314D01*
X1782Y3313D01*
X1782Y3312D01*
X1783Y3311D01*
X1783Y3310D01*
X1784Y3309D01*
X1784Y3308D01*
X1785Y3307D01*
X1786Y3306D01*
X1786Y3305D01*
X1787Y3304D01*
X1787Y3303D01*
X1788Y3302D01*
X1788Y3301D01*
X1789Y3300D01*
X1789Y3299D01*
X1790Y3298D01*
X1790Y3297D01*
X1791Y3296D01*
X1791Y3295D01*
X1792Y3294D01*
X1793Y3293D01*
X1793Y3292D01*
X1794Y3291D01*
X1794Y3290D01*
X1795Y3289D01*
X1795Y3288D01*
X1796Y3287D01*
X1796Y3286D01*
X1797Y3285D01*
X1797Y3284D01*
X1798Y3283D01*
X1798Y3282D01*
X1799Y3281D01*
X1800Y3280D01*
X1800Y3279D01*
X1801Y3278D01*
X1801Y3277D01*
X1802Y3276D01*
X1802Y3275D01*
X1803Y3274D01*
X1803Y3273D01*
X1804Y3272D01*
X1804Y3271D01*
X1805Y3270D01*
X1805Y3269D01*
X1806Y3268D01*
X1807Y3267D01*
X1807Y3266D01*
X1808Y3265D01*
X1808Y3264D01*
X1809Y3263D01*
X1809Y3262D01*
X1810Y3261D01*
X1810Y3260D01*
X1811Y3259D01*
X1811Y3258D01*
X1812Y3257D01*
X1812Y3256D01*
X1813Y3255D01*
X1814Y3254D01*
X1814Y3253D01*
X1815Y3252D01*
X1815Y3251D01*
X1816Y3250D01*
X1816Y3249D01*
X1817Y3248D01*
X1817Y3247D01*
X1818Y3246D01*
X1818Y3245D01*
X1819Y3244D01*
X1819Y3243D01*
X1820Y3242D01*
X1821Y3241D01*
X1821Y3240D01*
X1822Y3239D01*
X1822Y3238D01*
X1823Y3237D01*
X1823Y3236D01*
X1824Y3235D01*
X1824Y3234D01*
X1825Y3233D01*
X1825Y3232D01*
X1826Y3231D01*
X1826Y3230D01*
X1827Y3229D01*
X1828Y3228D01*
X1828Y3227D01*
X1829Y3226D01*
X1829Y3225D01*
X1830Y3224D01*
X1830Y3223D01*
X1831Y3222D01*
X1831Y3221D01*
X1832Y3220D01*
X1832Y3219D01*
X1833Y3218D01*
X1834Y3217D01*
X1834Y3216D01*
X1835Y3215D01*
X1835Y3214D01*
X1836Y3213D01*
X1836Y3212D01*
X1837Y3211D01*
X1837Y3210D01*
X1838Y3209D01*
X1838Y3208D01*
X1839Y3207D01*
X1840Y3206D01*
X1840Y3205D01*
X1841Y3204D01*
X1841Y3203D01*
X1842Y3202D01*
X1842Y3201D01*
X1843Y3200D01*
X1843Y3199D01*
X1844Y3198D01*
X1844Y3197D01*
X1845Y3196D01*
X1846Y3195D01*
X1846Y3194D01*
X1847Y3193D01*
X1847Y3192D01*
X1848Y3191D01*
X1848Y3190D01*
X1849Y3189D01*
X1849Y3188D01*
X1850Y3187D01*
X1850Y3186D01*
X1851Y3185D01*
X1852Y3184D01*
X1852Y3183D01*
X1853Y3182D01*
X1853Y3181D01*
X1854Y3180D01*
X1854Y3179D01*
X1855Y3178D01*
X1855Y3177D01*
X1856Y3176D01*
X1856Y3175D01*
X1857Y3174D01*
X1857Y3173D01*
X1858Y3172D01*
X1859Y3171D01*
X1859Y3170D01*
X1860Y3169D01*
X1860Y3168D01*
X1861Y3167D01*
X1861Y3166D01*
X1862Y3165D01*
X1862Y3164D01*
X1863Y3163D01*
X1863Y3162D01*
X1864Y3161D01*
X1865Y3160D01*
X1865Y3159D01*
X1866Y3158D01*
X1866Y3157D01*
X1867Y3156D01*
X1867Y3155D01*
X1868Y3154D01*
X1868Y3153D01*
X1869Y3152D01*
X1869Y3151D01*
X1870Y3150D01*
X1871Y3149D01*
X1871Y3148D01*
X1872Y3147D01*
X1872Y3146D01*
X1873Y3145D01*
X1873Y3144D01*
X1874Y3143D01*
X1874Y3142D01*
X1875Y3141D01*
X1875Y3140D01*
X1876Y3139D01*
X1877Y3138D01*
X1877Y3137D01*
X1878Y3136D01*
X1878Y3135D01*
X1879Y3134D01*
X1879Y3133D01*
X1880Y3132D01*
X1880Y3131D01*
X1881Y3130D01*
X1881Y3129D01*
X1882Y3128D01*
X1883Y3127D01*
X1883Y3126D01*
X1884Y3125D01*
X1884Y3124D01*
X1885Y3123D01*
X1885Y3122D01*
X1886Y3121D01*
X1886Y3120D01*
X1887Y3119D01*
X1887Y3118D01*
X1888Y3117D01*
X1889Y3116D01*
X1889Y3115D01*
X1890Y3114D01*
X1890Y3113D01*
X1891Y3112D01*
X1891Y3111D01*
X1892Y3110D01*
X1892Y3109D01*
X1893Y3108D01*
X1893Y3107D01*
X1894Y3106D01*
X1895Y3105D01*
X1895Y3104D01*
X1896Y3103D01*
X1896Y3102D01*
X1897Y3101D01*
X1897Y3100D01*
X1898Y3099D01*
X1898Y3098D01*
X1899Y3097D01*
X1899Y3096D01*
X1900Y3095D01*
X1901Y3094D01*
X1901Y3093D01*
X1902Y3092D01*
X1902Y3091D01*
X1903Y3090D01*
X1903Y3089D01*
X1904Y3088D01*
X1904Y3087D01*
X1905Y3086D01*
X1905Y3085D01*
X1906Y3084D01*
X1907Y3083D01*
X1907Y3082D01*
X1908Y3081D01*
X1908Y3080D01*
X1909Y3079D01*
X1909Y3078D01*
X1910Y3077D01*
X1910Y3076D01*
X1911Y3075D01*
X1911Y3074D01*
X1912Y3073D01*
X1913Y3072D01*
X1913Y3071D01*
X1914Y3070D01*
X1914Y3069D01*
X1915Y3068D01*
X1915Y3067D01*
X1916Y3066D01*
X1916Y3065D01*
X1917Y3064D01*
X1917Y3063D01*
X1918Y3062D01*
X1919Y3061D01*
X1919Y3060D01*
X1920Y3059D01*
X1920Y3058D01*
X1921Y3057D01*
X1921Y3056D01*
X1922Y3055D01*
X1922Y3054D01*
X1923Y3053D01*
X1923Y3052D01*
X1924Y3051D01*
X1925Y3050D01*
X1925Y3049D01*
X1926Y3048D01*
X1926Y3047D01*
X1927Y3046D01*
X1927Y3045D01*
X1928Y3044D01*
X1928Y3043D01*
X1929Y3042D01*
X1930Y3041D01*
X1930Y3040D01*
X1931Y3039D01*
X1931Y3038D01*
X1932Y3037D01*
X1932Y3036D01*
X1933Y3035D01*
X1933Y3034D01*
X1934Y3033D01*
X1934Y3032D01*
X1935Y3031D01*
X1936Y3030D01*
X1936Y3029D01*
X1937Y3028D01*
X1937Y3027D01*
X1938Y3026D01*
X1938Y3025D01*
X1939Y3024D01*
X1939Y3023D01*
X1940Y3022D01*
X1941Y3021D01*
X1941Y3020D01*
X1942Y3019D01*
X1942Y3018D01*
X1943Y3017D01*
X1943Y3016D01*
X1944Y3015D01*
X1944Y3014D01*
X1945Y3013D01*
X1945Y3012D01*
X1946Y3011D01*
X1947Y3010D01*
X1947Y3009D01*
X1948Y3008D01*
X1948Y3007D01*
X1949Y3006D01*
X1949Y3005D01*
X1950Y3004D01*
X1950Y3003D01*
X1951Y3002D01*
X1952Y3001D01*
X1952Y3000D01*
X1953Y2999D01*
X1953Y2998D01*
X1954Y2997D01*
X1954Y2996D01*
X1955Y2995D01*
X1955Y2994D01*
X1956Y2993D01*
X1957Y2992D01*
X1957Y2991D01*
X1958Y2990D01*
X1958Y2989D01*
X1959Y2988D01*
X1959Y2987D01*
X1960Y2986D01*
X1960Y2985D01*
X1961Y2984D01*
X1961Y2983D01*
X1962Y2982D01*
X1963Y2981D01*
X1963Y2980D01*
X1964Y2979D01*
X1964Y2978D01*
X1965Y2977D01*
X1965Y2976D01*
X1966Y2975D01*
X1966Y2974D01*
X1967Y2973D01*
X1968Y2972D01*
X1968Y2971D01*
X1969Y2970D01*
X1969Y2969D01*
X1970Y2968D01*
X1970Y2967D01*
X1971Y2966D01*
X1971Y2965D01*
X1972Y2964D01*
X1973Y2963D01*
X1973Y2962D01*
X1974Y2961D01*
X1974Y2960D01*
X1975Y2959D01*
X1975Y2958D01*
X1976Y2957D01*
X1976Y2956D01*
X1977Y2955D01*
X1977Y2954D01*
X1978Y2953D01*
X1979Y2952D01*
X1979Y2951D01*
X1980Y2950D01*
X1980Y2949D01*
X1981Y2948D01*
X1981Y2947D01*
X1982Y2946D01*
X1982Y2945D01*
X1983Y2944D01*
X1984Y2943D01*
X1984Y2942D01*
X1985Y2941D01*
X1985Y2940D01*
X1986Y2939D01*
X1986Y2938D01*
X1987Y2937D01*
X1987Y2936D01*
X1988Y2935D01*
X1988Y2934D01*
X1989Y2933D01*
X1990Y2932D01*
X1990Y2931D01*
X1991Y2930D01*
X1991Y2929D01*
X1992Y2928D01*
X1992Y2927D01*
X1993Y2926D01*
X1993Y2925D01*
X1994Y2924D01*
X1995Y2923D01*
X1995Y2922D01*
X1996Y2921D01*
X1996Y2920D01*
X1997Y2919D01*
X1997Y2918D01*
X1998Y2917D01*
X1998Y2916D01*
X1999Y2915D01*
X2000Y2914D01*
X2000Y2913D01*
X2001Y2912D01*
X2001Y2911D01*
X2002Y2910D01*
X2002Y2909D01*
X2003Y2908D01*
X2003Y2907D01*
X2004Y2906D01*
X2004Y2905D01*
X2005Y2904D01*
X2006Y2903D01*
X2006Y2902D01*
X2007Y2901D01*
X2007Y2900D01*
X2008Y2899D01*
X2008Y2898D01*
X2009Y2897D01*
X2009Y2896D01*
X2010Y2895D01*
X2011Y2894D01*
X2011Y2893D01*
X2012Y2892D01*
X2012Y2891D01*
X2013Y2890D01*
X2013Y2889D01*
X2014Y2888D01*
X2014Y2887D01*
X2015Y2886D01*
X2016Y2885D01*
X2016Y2884D01*
X2017Y2883D01*
X2017Y2882D01*
X2018Y2881D01*
X2018Y2880D01*
X2019Y2879D01*
X2019Y2878D01*
X2020Y2877D01*
X2021Y2876D01*
X2021Y2875D01*
X2022Y2874D01*
X2022Y2873D01*
X2023Y2872D01*
X2023Y2871D01*
X2024Y2870D01*
X2024Y2869D01*
X2025Y2868D01*
X2026Y2867D01*
X2026Y2866D01*
X2027Y2865D01*
X2027Y2864D01*
X2028Y2863D01*
X2028Y2862D01*
X2029Y2861D01*
X2029Y2860D01*
X2030Y2859D01*
X2031Y2858D01*
X2031Y2857D01*
X2032Y2856D01*
X2032Y2855D01*
X2033Y2854D01*
X2033Y2853D01*
X2034Y2852D01*
X2034Y2851D01*
X2035Y2850D01*
X2036Y2849D01*
X2036Y2848D01*
X2037Y2847D01*
X2037Y2846D01*
X2038Y2845D01*
X2038Y2844D01*
X2039Y2843D01*
X2039Y2842D01*
X2040Y2841D01*
X2041Y2840D01*
X2041Y2839D01*
X2042Y2838D01*
X2042Y2837D01*
X2043Y2836D01*
X2043Y2835D01*
X2044Y2834D01*
X2044Y2833D01*
X2045Y2832D01*
X2046Y2831D01*
X2046Y2830D01*
X2047Y2829D01*
X2047Y2828D01*
X2048Y2827D01*
X2048Y2826D01*
X2049Y2825D01*
X2049Y2824D01*
X2050Y2823D01*
X2051Y2822D01*
X2051Y2821D01*
X2052Y2820D01*
X2052Y2819D01*
X2053Y2818D01*
X2053Y2817D01*
X2054Y2816D01*
X2055Y2815D01*
X2055Y2814D01*
X2056Y2813D01*
X2056Y2812D01*
X2057Y2811D01*
X2057Y2810D01*
X2058Y2809D01*
X2058Y2808D01*
X2059Y2807D01*
X2060Y2806D01*
X2060Y2805D01*
X2061Y2804D01*
X2061Y2803D01*
X2062Y2802D01*
X2062Y2801D01*
X2063Y2800D01*
X2063Y2799D01*
X2064Y2798D01*
X2065Y2797D01*
X2065Y2796D01*
X2066Y2795D01*
X2066Y2794D01*
X2067Y2793D01*
X2067Y2792D01*
X2068Y2791D01*
X2068Y2790D01*
X2069Y2789D01*
X2070Y2788D01*
X2070Y2787D01*
X2071Y2786D01*
X2071Y2785D01*
X2072Y2784D01*
X2072Y2783D01*
X2073Y2782D01*
X2074Y2781D01*
X2074Y2780D01*
X2075Y2779D01*
X2075Y2778D01*
X2076Y2777D01*
X2076Y2776D01*
X2077Y2775D01*
X2077Y2774D01*
X2078Y2773D01*
X2079Y2772D01*
X2079Y2771D01*
X2080Y2770D01*
X2080Y2769D01*
X2081Y2768D01*
X2081Y2767D01*
X2082Y2766D01*
X2082Y2765D01*
X2083Y2764D01*
X2084Y2763D01*
X2084Y2762D01*
X2085Y2761D01*
X2085Y2760D01*
X2086Y2759D01*
X2086Y2758D01*
X2087Y2757D01*
X2088Y2756D01*
X2088Y2755D01*
X2089Y2754D01*
X2089Y2753D01*
X2090Y2752D01*
X2090Y2751D01*
X2091Y2750D01*
X2091Y2749D01*
X2092Y2748D01*
X2093Y2747D01*
X2093Y2746D01*
X2094Y2745D01*
X2094Y2744D01*
X2095Y2743D01*
X2095Y2742D01*
X2096Y2741D01*
X2097Y2740D01*
X2097Y2739D01*
X2098Y2738D01*
X2098Y2737D01*
X2099Y2736D01*
X2099Y2735D01*
X2100Y2734D01*
X2100Y2733D01*
X2101Y2732D01*
X2102Y2731D01*
X2102Y2730D01*
X2103Y2729D01*
X2103Y2728D01*
X2104Y2727D01*
X2104Y2726D01*
X2105Y2725D01*
X2105Y2724D01*
X2106Y2723D01*
X2107Y2722D01*
X2107Y2721D01*
X2108Y2720D01*
X2108Y2719D01*
X2109Y2718D01*
X2109Y2717D01*
X2110Y2716D01*
X2111Y2715D01*
X2111Y2714D01*
X2112Y2713D01*
X2112Y2712D01*
X2113Y2711D01*
X2113Y2710D01*
X2114Y2709D01*
X2115Y2708D01*
X2115Y2707D01*
X2116Y2706D01*
X2116Y2705D01*
X2117Y2704D01*
X2117Y2703D01*
X2118Y2702D01*
X2118Y2701D01*
X2119Y2700D01*
X2120Y2699D01*
X2120Y2698D01*
X2121Y2697D01*
X2121Y2696D01*
X2122Y2695D01*
X2122Y2694D01*
X2123Y2693D01*
X2124Y2692D01*
X2124Y2691D01*
X2125Y2690D01*
X2125Y2689D01*
X2126Y2688D01*
X2126Y2687D01*
X2127Y2686D01*
X2127Y2685D01*
X2128Y2684D01*
X2129Y2683D01*
X2129Y2682D01*
X2130Y2681D01*
X2130Y2680D01*
X2131Y2679D01*
X2131Y2678D01*
X2132Y2677D01*
X2133Y2676D01*
X2133Y2675D01*
X2134Y2674D01*
X2134Y2673D01*
X2135Y2672D01*
X2135Y2671D01*
X2136Y2670D01*
X2137Y2669D01*
X2137Y2668D01*
X2138Y2667D01*
X2138Y2666D01*
X2139Y2665D01*
X2139Y2664D01*
X2140Y2663D01*
X2140Y2662D01*
X2141Y2661D01*
X2142Y2660D01*
X2142Y2659D01*
X2143Y2658D01*
X2143Y2657D01*
X2144Y2656D01*
X2144Y2655D01*
X2145Y2654D01*
X2146Y2653D01*
X2146Y2652D01*
X2147Y2651D01*
X2147Y2650D01*
X2148Y2649D01*
X2148Y2648D01*
X2149Y2647D01*
X2150Y2646D01*
X2150Y2645D01*
X2151Y2644D01*
X2151Y2643D01*
X2152Y2642D01*
X2152Y2641D01*
X2153Y2640D01*
X2154Y2639D01*
X2154Y2638D01*
X2155Y2637D01*
X2155Y2636D01*
X2156Y2635D01*
X2156Y2634D01*
X2157Y2633D01*
X2157Y2632D01*
X2158Y2631D01*
X2159Y2630D01*
X2159Y2629D01*
X2160Y2628D01*
X2160Y2627D01*
X2161Y2626D01*
X2161Y2625D01*
X2162Y2624D01*
X2163Y2623D01*
X2163Y2622D01*
X2164Y2621D01*
X2164Y2620D01*
X2165Y2619D01*
X2165Y2618D01*
X2166Y2617D01*
X2167Y2616D01*
X2167Y2615D01*
X2168Y2614D01*
X2168Y2613D01*
X2169Y2612D01*
X2169Y2611D01*
X2170Y2610D01*
X2171Y2609D01*
X2171Y2608D01*
X2172Y2607D01*
X2172Y2606D01*
X2173Y2605D01*
X2173Y2604D01*
X2174Y2603D01*
X2175Y2602D01*
X2175Y2601D01*
X2176Y2600D01*
X2176Y2599D01*
X2177Y2598D01*
X2177Y2597D01*
X2178Y2596D01*
X2179Y2595D01*
X2179Y2594D01*
X2180Y2593D01*
X2180Y2592D01*
X2181Y2591D01*
X2181Y2590D01*
X2182Y2589D01*
X2182Y2588D01*
X2183Y2587D01*
X2184Y2586D01*
X2184Y2585D01*
X2185Y2584D01*
X2185Y2583D01*
X2186Y2582D01*
X2186Y2581D01*
X2187Y2580D01*
X2188Y2579D01*
X2188Y2578D01*
X2189Y2577D01*
X2189Y2576D01*
X2190Y2575D01*
X2190Y2574D01*
X2191Y2573D01*
X2192Y2572D01*
X2192Y2571D01*
X2193Y2570D01*
X2193Y2569D01*
X2194Y2568D01*
X2194Y2567D01*
X2195Y2566D01*
X2195Y2565D01*
X2196Y2564D01*
X2197Y2563D01*
X2197Y2562D01*
X2198Y2561D01*
X2198Y2560D01*
X2199Y2559D01*
X2199Y2558D01*
X2200Y2557D01*
X2200Y2556D01*
X2201Y2555D01*
X2202Y2554D01*
X2202Y2553D01*
X2203Y2552D01*
X2203Y2551D01*
X2204Y2550D01*
X2204Y2549D01*
X2205Y2548D01*
X2205Y2547D01*
X2206Y2546D01*
X2207Y2545D01*
X2207Y2544D01*
X2208Y2543D01*
X2208Y2542D01*
X2209Y2541D01*
X2209Y2540D01*
X2210Y2539D01*
X2211Y2538D01*
X2211Y2537D01*
X2212Y2536D01*
X2212Y2535D01*
X2213Y2534D01*
X2213Y2533D01*
X2214Y2532D01*
X2214Y2531D01*
X2215Y2530D01*
X2216Y2529D01*
X2216Y2528D01*
X2217Y2527D01*
X2217Y2526D01*
X2218Y2525D01*
X2218Y2524D01*
X2219Y2523D01*
X2219Y2522D01*
X2220Y2521D01*
X2221Y2520D01*
X2221Y2519D01*
X2222Y2518D01*
X2222Y2517D01*
X2223Y2516D01*
X2223Y2515D01*
X2224Y2514D01*
X2224Y2513D01*
X2225Y2512D01*
X2226Y2511D01*
X2226Y2510D01*
X2227Y2509D01*
X2227Y2508D01*
X2228Y2507D01*
X2228Y2506D01*
X2229Y2505D01*
X2229Y2504D01*
X2230Y2503D01*
X2231Y2502D01*
X2231Y2501D01*
X2232Y2500D01*
X2232Y2499D01*
X2233Y2498D01*
X2233Y2497D01*
X2234Y2496D01*
X2234Y2495D01*
X2235Y2494D01*
X2236Y2493D01*
X2236Y2492D01*
X2237Y2491D01*
X2237Y2490D01*
X2238Y2489D01*
X2238Y2488D01*
X2239Y2487D01*
X2239Y2486D01*
X2240Y2485D01*
X2240Y2484D01*
X2241Y2483D01*
X2242Y2482D01*
X2242Y2481D01*
X2243Y2480D01*
X2243Y2479D01*
X2244Y2478D01*
X2244Y2477D01*
X2245Y2476D01*
X2245Y2475D01*
X2246Y2474D01*
X2246Y2473D01*
X2247Y2472D01*
X2248Y2471D01*
X2248Y2470D01*
X2249Y2469D01*
X2249Y2468D01*
X2250Y2467D01*
X2250Y2466D01*
X2251Y2465D01*
X2251Y2464D01*
X2252Y2463D01*
X2252Y2462D01*
X2253Y2461D01*
X2254Y2460D01*
X2254Y2459D01*
X2255Y2458D01*
X2255Y2457D01*
X2256Y2456D01*
X2256Y2455D01*
X2257Y2454D01*
X2257Y2453D01*
X2258Y2452D01*
X2258Y2451D01*
X2259Y2450D01*
X2259Y2449D01*
X2260Y2448D01*
X2261Y2447D01*
X2261Y2446D01*
X2262Y2445D01*
X2262Y2444D01*
X2263Y2443D01*
X2263Y2442D01*
X2264Y2441D01*
X2264Y2440D01*
X2265Y2439D01*
X2265Y2438D01*
X2266Y2437D01*
X2267Y2436D01*
X2267Y2435D01*
X2268Y2434D01*
X2268Y2433D01*
X2269Y2432D01*
X2269Y2431D01*
X2270Y2430D01*
X2270Y2429D01*
X2271Y2428D01*
X2271Y2427D01*
X2272Y2426D01*
X2273Y2425D01*
X2273Y2424D01*
X2274Y2423D01*
X2274Y2422D01*
X2275Y2421D01*
X2275Y2420D01*
X2276Y2419D01*
X2276Y2418D01*
X2277Y2417D01*
X2277Y2416D01*
X2278Y2415D01*
X2278Y2414D01*
X2279Y2413D01*
X2280Y2412D01*
X2280Y2411D01*
X2281Y2410D01*
X2281Y2409D01*
X2282Y2408D01*
X2282Y2407D01*
X2283Y2406D01*
X2283Y2405D01*
X2284Y2404D01*
X2284Y2403D01*
X2285Y2402D01*
X2285Y2401D01*
X2286Y2400D01*
X2286Y2399D01*
X2287Y2398D01*
X2288Y2397D01*
X2288Y2396D01*
X2289Y2395D01*
X2289Y2394D01*
X2290Y2393D01*
X2290Y2392D01*
X2291Y2391D01*
X2291Y2390D01*
X2292Y2389D01*
X2292Y2388D01*
X2293Y2387D01*
X2293Y2386D01*
X2294Y2385D01*
X2294Y2384D01*
X2295Y2383D01*
X2295Y2382D01*
X2296Y2381D01*
X2297Y2380D01*
X2297Y2379D01*
X2298Y2378D01*
X2298Y2377D01*
X2299Y2376D01*
X2299Y2375D01*
X2300Y2374D01*
X2300Y2373D01*
X2301Y2372D01*
X2301Y2371D01*
X2302Y2370D01*
X2302Y2369D01*
X2303Y2368D01*
X2303Y2367D01*
X2304Y2366D01*
X2304Y2365D01*
X2305Y2364D01*
X2306Y2363D01*
X2306Y2362D01*
X2307Y2361D01*
X2307Y2360D01*
X2308Y2359D01*
X2308Y2358D01*
X2309Y2357D01*
X2309Y2356D01*
X2310Y2355D01*
X2310Y2354D01*
X2311Y2353D01*
X2311Y2352D01*
X2312Y2351D01*
X2312Y2350D01*
X2313Y2349D01*
X2313Y2348D01*
X2314Y2347D01*
X2315Y2346D01*
X2315Y2345D01*
X2316Y2344D01*
X2316Y2343D01*
X2317Y2342D01*
X2317Y2341D01*
X2318Y2340D01*
X2318Y2339D01*
X2319Y2338D01*
X2319Y2337D01*
X2320Y2336D01*
X2320Y2335D01*
X2321Y2334D01*
X2321Y2333D01*
X2322Y2332D01*
X2322Y2331D01*
X2323Y2330D01*
X2324Y2329D01*
X2324Y2328D01*
X2325Y2327D01*
X2325Y2326D01*
X2326Y2325D01*
X2326Y2324D01*
X2327Y2323D01*
X2327Y2322D01*
X2328Y2321D01*
X2328Y2320D01*
X2329Y2319D01*
X2329Y2318D01*
X2330Y2317D01*
X2330Y2316D01*
X2331Y2315D01*
X2331Y2314D01*
X2332Y2313D01*
X2332Y2312D01*
X2333Y2311D01*
X2333Y2310D01*
X2334Y2309D01*
X2334Y2308D01*
X2335Y2307D01*
X2335Y2306D01*
X2336Y2305D01*
X2336Y2304D01*
X2337Y2303D01*
X2338Y2302D01*
X2338Y2301D01*
X2339Y2300D01*
X2339Y2299D01*
X2340Y2298D01*
X2340Y2297D01*
X2341Y2296D01*
X2341Y2295D01*
X2342Y2294D01*
X2342Y2293D01*
X2343Y2292D01*
X2343Y2291D01*
X2344Y2290D01*
X2344Y2289D01*
X2345Y2288D01*
X2345Y2287D01*
X2346Y2286D01*
X2346Y2285D01*
X2347Y2284D01*
X2347Y2283D01*
X2348Y2282D01*
X2348Y2281D01*
X2349Y2280D01*
X2349Y2279D01*
X2350Y2278D01*
X2350Y2277D01*
X2351Y2276D01*
X2351Y2275D01*
X2352Y2274D01*
X2353Y2273D01*
X2353Y2272D01*
X2354Y2271D01*
X2354Y2270D01*
X2355Y2269D01*
X2355Y2268D01*
X2356Y2267D01*
X2356Y2266D01*
X2357Y2265D01*
X2357Y2264D01*
X2358Y2263D01*
X2358Y2262D01*
X2359Y2261D01*
X2359Y2260D01*
X2360Y2259D01*
X2360Y2258D01*
X2361Y2257D01*
X2361Y2256D01*
X2362Y2255D01*
X2362Y2254D01*
X2363Y2253D01*
X2363Y2252D01*
X2364Y2251D01*
X2364Y2250D01*
X2365Y2249D01*
X2365Y2248D01*
X2366Y2247D01*
X2366Y2246D01*
X2367Y2245D01*
X2368Y2244D01*
X2368Y2243D01*
X2369Y2242D01*
X2369Y2241D01*
X2370Y2240D01*
X2370Y2239D01*
X2371Y2238D01*
X2371Y2237D01*
X2372Y2236D01*
X2372Y2235D01*
X2373Y2234D01*
X2373Y2233D01*
X2374Y2232D01*
X2374Y2231D01*
X2375Y2230D01*
X2375Y2229D01*
X2376Y2228D01*
X2376Y2227D01*
X2377Y2226D01*
X2377Y2225D01*
X2378Y2224D01*
X2378Y2223D01*
X2379Y2222D01*
X2379Y2221D01*
X2380Y2220D01*
X2380Y2219D01*
X2381Y2218D01*
X2381Y2217D01*
X2382Y2216D01*
X2382Y2215D01*
X2383Y2214D01*
X2383Y2213D01*
X2384Y2212D01*
X2384Y2211D01*
X2385Y2210D01*
X2385Y2209D01*
X2386Y2208D01*
X2386Y2207D01*
X2387Y2206D01*
X2387Y2205D01*
X2388Y2204D01*
X2388Y2203D01*
X2389Y2202D01*
X2389Y2201D01*
X2390Y2200D01*
X2390Y2199D01*
X2391Y2198D01*
X2391Y2197D01*
X2392Y2196D01*
X2392Y2195D01*
X2393Y2194D01*
X2393Y2193D01*
X2394Y2192D01*
X2394Y2191D01*
X2395Y2190D01*
X2395Y2189D01*
X2396Y2188D01*
X2396Y2187D01*
X2397Y2186D01*
X2397Y2185D01*
X2398Y2184D01*
X2398Y2183D01*
X2399Y2182D01*
X2399Y2181D01*
X2400Y2180D01*
X2400Y2179D01*
X2401Y2178D01*
X2401Y2177D01*
X2402Y2176D01*
X2402Y2175D01*
X2403Y2174D01*
X2403Y2173D01*
X2404Y2172D01*
X2404Y2171D01*
X2405Y2170D01*
X2405Y2169D01*
X2406Y2168D01*
X2406Y2167D01*
X2407Y2166D01*
X2407Y2165D01*
X2408Y2164D01*
X2408Y2163D01*
X2409Y2162D01*
X2409Y2161D01*
X2410Y2160D01*
X2410Y2159D01*
X2411Y2158D01*
X2411Y2157D01*
X2412Y2156D01*
X2412Y2155D01*
X2413Y2154D01*
X2414Y2153D01*
X2414Y2151D01*
X2415Y2150D01*
X2415Y2149D01*
X2416Y2148D01*
X2416Y2147D01*
X2417Y2146D01*
X2417Y2145D01*
X2418Y2144D01*
X2418Y2143D01*
X2419Y2142D01*
X2419Y2141D01*
X2420Y2140D01*
X2420Y2139D01*
X2421Y2138D01*
X2421Y2137D01*
X2422Y2136D01*
X2422Y2135D01*
X2423Y2134D01*
X2423Y2133D01*
X2424Y2132D01*
X2424Y2131D01*
X2425Y2130D01*
X2425Y2129D01*
X2426Y2128D01*
X2426Y2127D01*
X2427Y2126D01*
X2427Y2125D01*
X2428Y2124D01*
X2428Y2123D01*
X2429Y2122D01*
X2429Y2121D01*
X2430Y2120D01*
X2430Y2119D01*
X2431Y2118D01*
X2431Y2117D01*
X2432Y2116D01*
X2432Y2115D01*
X2433Y2114D01*
X2433Y2113D01*
X2434Y2112D01*
X2434Y2111D01*
X2435Y2110D01*
X2435Y2109D01*
X2436Y2108D01*
X2436Y2107D01*
X2437Y2106D01*
X2437Y2105D01*
X2438Y2104D01*
X2438Y2103D01*
X2439Y2102D01*
X2439Y2101D01*
X2440Y2100D01*
X2440Y2099D01*
X2441Y2098D01*
X2441Y2097D01*
X2442Y2096D01*
X2442Y2095D01*
X2443Y2094D01*
X2443Y2093D01*
X2444Y2092D01*
X2444Y2091D01*
X2445Y2090D01*
X2445Y2089D01*
X2446Y2088D01*
X2446Y2087D01*
X2447Y2086D01*
X2447Y2085D01*
X2448Y2084D01*
X2448Y2083D01*
X2449Y2082D01*
X2449Y2081D01*
X2450Y2080D01*
X2450Y2079D01*
X2451Y2078D01*
X2451Y2077D01*
X2452Y2076D01*
X2452Y2075D01*
X2453Y2074D01*
X2453Y2073D01*
X2454Y2072D01*
X2454Y2070D01*
X2455Y2069D01*
X2455Y2068D01*
X2456Y2067D01*
X2456Y2066D01*
X2457Y2065D01*
X2457Y2064D01*
X2458Y2063D01*
X2458Y2062D01*
X2459Y2061D01*
X2459Y2060D01*
X2460Y2059D01*
X2460Y2058D01*
X2461Y2057D01*
X2461Y2056D01*
X2462Y2055D01*
X2462Y2054D01*
X2463Y2053D01*
X2463Y2052D01*
X2464Y2051D01*
X2464Y2050D01*
X2465Y2049D01*
X2465Y2048D01*
X2466Y2047D01*
X2466Y2046D01*
X2467Y2045D01*
X2467Y2044D01*
X2468Y2043D01*
X2468Y2042D01*
X2469Y2041D01*
X2469Y2040D01*
X2470Y2039D01*
X2470Y2038D01*
X2471Y2037D01*
X2471Y2035D01*
X2472Y2034D01*
X2472Y2033D01*
X2473Y2032D01*
X2473Y2031D01*
X2474Y2030D01*
X2474Y2029D01*
X2475Y2028D01*
X2475Y2027D01*
X2476Y2026D01*
X2476Y2025D01*
X2477Y2024D01*
X2477Y2023D01*
X2478Y2022D01*
X2478Y2021D01*
X2479Y2020D01*
X2479Y2019D01*
X2480Y2018D01*
X2480Y2017D01*
X2481Y2016D01*
X2481Y2015D01*
X2482Y2014D01*
X2482Y2013D01*
X2483Y2012D01*
X2483Y2011D01*
X2484Y2010D01*
X2484Y2009D01*
X2485Y2008D01*
X2485Y2006D01*
X2486Y2005D01*
X2486Y2004D01*
X2487Y2003D01*
X2487Y2002D01*
X2488Y2001D01*
X2488Y2000D01*
X2489Y1999D01*
X2489Y1998D01*
X2490Y1997D01*
X2490Y1996D01*
X2491Y1995D01*
X2491Y1994D01*
X2492Y1993D01*
X2492Y1992D01*
X2493Y1991D01*
X2493Y1990D01*
X2494Y1989D01*
X2494Y1988D01*
X2495Y1987D01*
X2495Y1986D01*
X2496Y1985D01*
X2496Y1984D01*
X2497Y1983D01*
X2497Y1982D01*
X2498Y1981D01*
X2498Y1980D01*
X2499Y1979D01*
X2499Y1977D01*
X2500Y1976D01*
X2500Y1975D01*
X2501Y1974D01*
X2501Y1973D01*
X2502Y1972D01*
X2502Y1971D01*
X2503Y1970D01*
X2503Y1969D01*
X2504Y1968D01*
X2504Y1967D01*
X2505Y1966D01*
X2505Y1965D01*
X2506Y1964D01*
X2506Y1963D01*
X2507Y1962D01*
X2507Y1961D01*
X2508Y1960D01*
X2508Y1959D01*
X2509Y1958D01*
X2509Y1957D01*
X2510Y1956D01*
X2510Y1954D01*
X2511Y1953D01*
X2511Y1952D01*
X2512Y1951D01*
X2512Y1950D01*
X2513Y1949D01*
X2513Y1948D01*
X2514Y1947D01*
X2514Y1946D01*
X2515Y1945D01*
X2515Y1944D01*
X2516Y1943D01*
X2516Y1942D01*
X2517Y1941D01*
X2517Y1940D01*
X2518Y1939D01*
X2518Y1937D01*
X2519Y1936D01*
X2519Y1935D01*
X2520Y1934D01*
X2520Y1933D01*
X2521Y1932D01*
X2521Y1931D01*
X2522Y1930D01*
X2522Y1929D01*
X2523Y1928D01*
X2523Y1927D01*
X2524Y1926D01*
X2524Y1925D01*
X2525Y1924D01*
X2525Y1923D01*
X2526Y1922D01*
X2526Y1921D01*
X2527Y1920D01*
X2527Y1918D01*
X2528Y1917D01*
X2528Y1916D01*
X2529Y1915D01*
X2529Y1914D01*
X2530Y1913D01*
X2530Y1912D01*
X2531Y1911D01*
X2531Y1910D01*
X2532Y1909D01*
X2532Y1908D01*
X2533Y1907D01*
X2533Y1906D01*
X2534Y1905D01*
X2534Y1904D01*
X2535Y1903D01*
X2535Y1901D01*
X2536Y1900D01*
X2536Y1899D01*
X2537Y1898D01*
X2537Y1897D01*
X2538Y1896D01*
X2538Y1895D01*
X2539Y1894D01*
X2539Y1893D01*
X2540Y1892D01*
X2540Y1891D01*
X2541Y1890D01*
X2541Y1889D01*
X2542Y1888D01*
X2542Y1887D01*
X2543Y1886D01*
X2543Y1885D01*
X2544Y1884D01*
X2544Y1882D01*
X2545Y1881D01*
X2545Y1880D01*
X2546Y1879D01*
X2546Y1878D01*
X2547Y1877D01*
X2547Y1876D01*
X2548Y1875D01*
X2548Y1874D01*
X2549Y1873D01*
X2549Y1872D01*
X2550Y1871D01*
X2550Y1870D01*
X2551Y1869D01*
X2551Y1867D01*
X2552Y1866D01*
X2552Y1865D01*
X2553Y1864D01*
X2553Y1863D01*
X2554Y1862D01*
X2554Y1861D01*
X2555Y1860D01*
X2555Y1859D01*
X2556Y1858D01*
X2556Y1857D01*
X2557Y1856D01*
X2557Y1855D01*
X2558Y1854D01*
X2558Y1852D01*
X2559Y1851D01*
X2559Y1850D01*
X2560Y1849D01*
X2560Y1848D01*
X2561Y1847D01*
X2561Y1846D01*
X2562Y1845D01*
X2562Y1844D01*
X2563Y1843D01*
X2563Y1842D01*
X2564Y1841D01*
X2564Y1839D01*
X2565Y1838D01*
X2565Y1837D01*
X2566Y1836D01*
X2566Y1835D01*
X2567Y1834D01*
X2567Y1833D01*
X2568Y1832D01*
X2568Y1831D01*
X2569Y1830D01*
X2569Y1829D01*
X2570Y1828D01*
X2570Y1826D01*
X2571Y1825D01*
X2571Y1824D01*
X2572Y1823D01*
X2572Y1822D01*
X2573Y1821D01*
X2573Y1820D01*
X2574Y1819D01*
X2574Y1818D01*
X2575Y1817D01*
X2575Y1816D01*
X2576Y1815D01*
X2576Y1813D01*
X2577Y1812D01*
X2577Y1811D01*
X2578Y1810D01*
X2578Y1809D01*
X2579Y1808D01*
X2579Y1807D01*
X2580Y1806D01*
X2580Y1805D01*
X2581Y1804D01*
X2581Y1803D01*
X2582Y1802D01*
X2582Y1801D01*
X2583Y1800D01*
X2583Y1798D01*
X2584Y1797D01*
X2584Y1796D01*
X2585Y1795D01*
X2585Y1794D01*
X2586Y1793D01*
X2586Y1792D01*
X2587Y1791D01*
X2587Y1790D01*
X2588Y1789D01*
X2588Y1788D01*
X2589Y1787D01*
X2589Y1785D01*
X2590Y1784D01*
X2590Y1783D01*
X2591Y1782D01*
X2591Y1781D01*
X2592Y1780D01*
X2592Y1779D01*
X2593Y1778D01*
X2593Y1777D01*
X2594Y1776D01*
X2594Y1775D01*
X2595Y1774D01*
X2595Y1772D01*
X2596Y1771D01*
X2596Y1770D01*
X2597Y1769D01*
X2597Y1768D01*
X2598Y1767D01*
X2598Y1766D01*
X2599Y1765D01*
X2599Y1764D01*
X2600Y1763D01*
X2600Y1761D01*
X2601Y1760D01*
X2601Y1759D01*
X2602Y1758D01*
X2602Y1757D01*
X2603Y1756D01*
X2603Y1755D01*
X2604Y1754D01*
X2604Y1752D01*
X2605Y1751D01*
X2605Y1750D01*
X2606Y1749D01*
X2606Y1748D01*
X2607Y1747D01*
X2607Y1746D01*
X2608Y1745D01*
X2608Y1744D01*
X2609Y1743D01*
X2609Y1741D01*
X2610Y1740D01*
X2610Y1739D01*
X2611Y1738D01*
X2611Y1737D01*
X2612Y1736D01*
X2612Y1735D01*
X2613Y1734D01*
X2613Y1733D01*
X2614Y1732D01*
X2614Y1730D01*
X2615Y1729D01*
X2615Y1728D01*
X2616Y1727D01*
X2616Y1726D01*
X2617Y1725D01*
X2617Y1724D01*
X2618Y1723D01*
X2618Y1722D01*
X2619Y1721D01*
X2619Y1719D01*
X2620Y1718D01*
X2620Y1717D01*
X2621Y1716D01*
X2621Y1715D01*
X2622Y1714D01*
X2622Y1713D01*
X2623Y1712D01*
X2623Y1711D01*
X2624Y1710D01*
X2624Y1708D01*
X2625Y1707D01*
X2625Y1706D01*
X2626Y1705D01*
X2626Y1704D01*
X2627Y1703D01*
X2627Y1702D01*
X2628Y1701D01*
X2628Y1700D01*
X2629Y1699D01*
X2629Y1697D01*
X2630Y1696D01*
X2630Y1695D01*
X2631Y1694D01*
X2631Y1693D01*
X2632Y1692D01*
X2632Y1691D01*
X2633Y1690D01*
X2633Y1689D01*
X2634Y1688D01*
X2634Y1686D01*
X2635Y1685D01*
X2635Y1684D01*
X2636Y1683D01*
X2636Y1682D01*
X2637Y1681D01*
X2637Y1680D01*
X2638Y1679D01*
X2638Y1677D01*
X2639Y1676D01*
X2639Y1675D01*
X2640Y1674D01*
X2640Y1673D01*
X2641Y1672D01*
X2641Y1671D01*
X2642Y1670D01*
X2642Y1669D01*
X2643Y1668D01*
X2643Y1666D01*
X2644Y1665D01*
X2644Y1664D01*
X2645Y1663D01*
X2645Y1662D01*
X2646Y1661D01*
X2646Y1660D01*
X2647Y1659D01*
X2647Y1657D01*
X2648Y1656D01*
X2648Y1655D01*
X2649Y1654D01*
X2649Y1653D01*
X2650Y1652D01*
X2650Y1651D01*
X2651Y1650D01*
X2651Y1648D01*
X2652Y1647D01*
X2652Y1646D01*
X2653Y1645D01*
X2653Y1644D01*
X2654Y1643D01*
X2654Y1642D01*
X2655Y1641D01*
X2655Y1639D01*
X2656Y1638D01*
X2656Y1637D01*
X2657Y1636D01*
X2657Y1635D01*
X2658Y1634D01*
X2658Y1633D01*
X2659Y1632D01*
X2659Y1630D01*
X2660Y1629D01*
X2660Y1628D01*
X2661Y1627D01*
X2661Y1626D01*
X2662Y1625D01*
X2662Y1624D01*
X2663Y1623D01*
X2663Y1621D01*
X2664Y1620D01*
X2664Y1619D01*
X2665Y1618D01*
X2665Y1617D01*
X2666Y1616D01*
X2666Y1615D01*
X2667Y1614D01*
X2667Y1612D01*
X2668Y1611D01*
X2668Y1610D01*
X2669Y1609D01*
X2669Y1608D01*
X2670Y1607D01*
X2670Y1606D01*
X2671Y1605D01*
X2671Y1603D01*
X2672Y1602D01*
X2672Y1601D01*
X2673Y1600D01*
X2673Y1599D01*
X2674Y1598D01*
X2674Y1597D01*
X2675Y1596D01*
X2675Y1594D01*
X2676Y1593D01*
X2676Y1592D01*
X2677Y1591D01*
X2677Y1590D01*
X2678Y1589D01*
X2678Y1588D01*
X2679Y1587D01*
X2679Y1585D01*
X2680Y1584D01*
X2680Y1583D01*
X2681Y1582D01*
X2681Y1581D01*
X2682Y1580D01*
X2682Y1579D01*
X2683Y1578D01*
X2683Y1576D01*
X2684Y1575D01*
X2684Y1574D01*
X2685Y1573D01*
X2685Y1572D01*
X2686Y1571D01*
X2686Y1569D01*
X2687Y1568D01*
X2687Y1567D01*
X2688Y1566D01*
X2688Y1565D01*
X2689Y1564D01*
X2689Y1563D01*
X2690Y1562D01*
X2690Y1560D01*
X2691Y1559D01*
X2691Y1558D01*
X2692Y1557D01*
X2692Y1556D01*
X2693Y1555D01*
X2693Y1553D01*
X2694Y1552D01*
X2694Y1551D01*
X2695Y1550D01*
X2695Y1549D01*
X2696Y1548D01*
X2696Y1547D01*
X2697Y1546D01*
X2697Y1544D01*
X2698Y1543D01*
X2698Y1542D01*
X2699Y1541D01*
X2699Y1540D01*
X2700Y1539D01*
X2700Y1537D01*
X2701Y1536D01*
X2701Y1535D01*
X2702Y1534D01*
X2702Y1533D01*
X2703Y1532D01*
X2703Y1530D01*
X2704Y1529D01*
X2704Y1528D01*
X2705Y1527D01*
X2705Y1526D01*
X2706Y1525D01*
X2706Y1524D01*
X2707Y1523D01*
X2707Y1521D01*
X2708Y1520D01*
X2708Y1519D01*
X2709Y1518D01*
X2709Y1517D01*
X2710Y1516D01*
X2710Y1514D01*
X2711Y1513D01*
X2711Y1512D01*
X2712Y1511D01*
X2712Y1510D01*
X2713Y1509D01*
X2713Y1508D01*
X2714Y1507D01*
X2714Y1505D01*
X2715Y1504D01*
X2715Y1503D01*
X2716Y1502D01*
X2716Y1501D01*
X2717Y1500D01*
X2717Y1498D01*
X2718Y1497D01*
X2718Y1496D01*
X2719Y1495D01*
X2719Y1494D01*
X2720Y1493D01*
X2720Y1491D01*
X2721Y1490D01*
X2721Y1489D01*
X2722Y1488D01*
X2722Y1487D01*
X2723Y1486D01*
X2723Y1485D01*
X2724Y1484D01*
X2724Y1482D01*
X2725Y1481D01*
X2725Y1480D01*
X2726Y1479D01*
X2726Y1478D01*
X2727Y1477D01*
X2727Y1475D01*
X2728Y1474D01*
X2728Y1473D01*
X2729Y1472D01*
X2729Y1471D01*
X2730Y1470D01*
X2730Y1468D01*
X2731Y1467D01*
X2731Y1466D01*
X2732Y1465D01*
X2732Y1464D01*
X2733Y1463D01*
X2733Y1461D01*
X2734Y1460D01*
X2734Y1459D01*
X2735Y1458D01*
X2735Y1457D01*
X2736Y1456D01*
X2736Y1454D01*
X2737Y1453D01*
X2737Y1452D01*
X2738Y1451D01*
X2738Y1450D01*
X2739Y1449D01*
X2739Y1447D01*
X2740Y1446D01*
X2740Y1445D01*
X2741Y1444D01*
X2741Y1443D01*
X2742Y1442D01*
X2742Y1440D01*
X2743Y1439D01*
X2743Y1438D01*
X2744Y1437D01*
X2744Y1436D01*
X2745Y1435D01*
X2745Y1433D01*
X2746Y1432D01*
X2746Y1431D01*
X2747Y1430D01*
X2747Y1429D01*
X2748Y1428D01*
X2748Y1426D01*
X2749Y1425D01*
X2749Y1424D01*
X2750Y1423D01*
X2750Y1422D01*
X2751Y1421D01*
X2751Y1419D01*
X2752Y1418D01*
X2752Y1417D01*
X2753Y1416D01*
X2753Y1415D01*
X2754Y1414D01*
X2754Y1412D01*
X2755Y1411D01*
X2755Y1410D01*
X2756Y1409D01*
X2756Y1408D01*
X2757Y1407D01*
X2757Y1405D01*
X2758Y1404D01*
X2758Y1403D01*
X2759Y1402D01*
X2759Y1401D01*
X2760Y1400D01*
X2760Y1398D01*
X2761Y1397D01*
X2761Y1396D01*
X2762Y1395D01*
X2762Y1394D01*
X2763Y1393D01*
X2763Y1391D01*
X2764Y1390D01*
X2764Y1389D01*
X2765Y1388D01*
X2765Y1387D01*
X2766Y1386D01*
X2766Y1384D01*
X2767Y1383D01*
X2767Y1382D01*
X2768Y1381D01*
X2768Y1380D01*
X2769Y1379D01*
X2769Y1377D01*
X2770Y1376D01*
X2770Y1375D01*
X2771Y1374D01*
X2771Y1373D01*
X2772Y1372D01*
X2772Y1370D01*
X2773Y1369D01*
X2773Y1368D01*
X2774Y1367D01*
X2774Y1366D01*
X2775Y1365D01*
X2775Y1363D01*
X2776Y1362D01*
X2776Y1361D01*
X2777Y1360D01*
X2777Y1359D01*
X2778Y1358D01*
X2778Y1356D01*
X2779Y1355D01*
X2779Y1354D01*
X2780Y1353D01*
X2780Y1351D01*
X2781Y1350D01*
X2781Y1349D01*
X2782Y1348D01*
X2782Y1347D01*
X2783Y1346D01*
X2783Y1344D01*
X2784Y1343D01*
X2784Y1342D01*
X2785Y1341D01*
X2785Y1340D01*
X2786Y1339D01*
X2786Y1337D01*
X2787Y1336D01*
X2787Y1335D01*
X2788Y1334D01*
X2788Y1332D01*
X2789Y1331D01*
X2789Y1330D01*
X2790Y1329D01*
X2790Y1328D01*
X2791Y1327D01*
X2791Y1325D01*
X2792Y1324D01*
X2792Y1323D01*
X2793Y1322D01*
X2793Y1320D01*
X2794Y1319D01*
X2794Y1318D01*
X2795Y1317D01*
X2795Y1316D01*
X2796Y1315D01*
X2796Y1313D01*
X2797Y1312D01*
X2797Y1311D01*
X2798Y1310D01*
X2798Y1309D01*
X2799Y1308D01*
X2799Y1306D01*
X2800Y1305D01*
X2800Y1304D01*
X2801Y1303D01*
X2801Y1301D01*
X2802Y1300D01*
X2802Y1299D01*
X2803Y1298D01*
X2803Y1297D01*
X2804Y1296D01*
X2804Y1294D01*
X2805Y1293D01*
X2805Y1292D01*
X2806Y1291D01*
X2806Y1289D01*
X2807Y1288D01*
X2807Y1287D01*
X2808Y1286D01*
X2808Y1285D01*
X2809Y1284D01*
X2809Y1282D01*
X2810Y1281D01*
X2810Y1280D01*
X2811Y1279D01*
X2811Y1278D01*
X2812Y1277D01*
X2812Y1275D01*
X2813Y1274D01*
X2813Y1273D01*
X2814Y1272D01*
X2814Y1270D01*
X2815Y1269D01*
X2815Y1268D01*
X2816Y1267D01*
X2816Y1266D01*
X2817Y1265D01*
X2817Y1263D01*
X2818Y1262D01*
X2818Y1261D01*
X2819Y1260D01*
X2819Y1258D01*
X2820Y1257D01*
X2820Y1256D01*
X2821Y1255D01*
X2821Y1254D01*
X2822Y1253D01*
X2822Y1251D01*
X2823Y1250D01*
X2823Y1249D01*
X2824Y1248D01*
X2824Y1246D01*
X2825Y1245D01*
X2825Y1244D01*
X2826Y1243D01*
X2826Y1242D01*
X2827Y1241D01*
X2827Y1239D01*
X2828Y1238D01*
X2828Y1237D01*
X2829Y1236D01*
X2829Y1234D01*
X2830Y1233D01*
X2830Y1232D01*
X2831Y1231D01*
X2831Y1229D01*
X2832Y1228D01*
X2832Y1227D01*
X2833Y1226D01*
X2833Y1225D01*
X2834Y1224D01*
X2834Y1222D01*
X2835Y1221D01*
X2835Y1220D01*
X2836Y1219D01*
X2836Y1217D01*
X2837Y1216D01*
X2837Y1215D01*
X2838Y1214D01*
X2838Y1213D01*
X2839Y1212D01*
X2839Y1210D01*
X2840Y1209D01*
X2840Y1208D01*
X2841Y1207D01*
X2841Y1205D01*
X2842Y1204D01*
X2842Y1203D01*
X2843Y1202D01*
X2843Y1200D01*
X2844Y1199D01*
X2844Y1198D01*
X2845Y1197D01*
X2845Y1196D01*
X2846Y1195D01*
X2846Y1193D01*
X2847Y1192D01*
X2847Y1191D01*
X2848Y1190D01*
X2848Y1188D01*
X2849Y1187D01*
X2849Y1186D01*
X2850Y1185D01*
X2850Y1183D01*
X2851Y1182D01*
X2851Y1181D01*
X2852Y1180D01*
X2852Y1179D01*
X2853Y1178D01*
X2853Y1176D01*
X2854Y1175D01*
X2854Y1174D01*
X2855Y1173D01*
X2855Y1171D01*
X2856Y1170D01*
X2856Y1169D01*
X2857Y1168D01*
X2857Y1166D01*
X2858Y1165D01*
X2858Y1164D01*
X2859Y1163D01*
X2859Y1162D01*
X2860Y1161D01*
X2860Y1159D01*
X2861Y1158D01*
X2861Y1157D01*
X2862Y1156D01*
X2862Y1154D01*
X2863Y1153D01*
X2863Y1152D01*
X2864Y1151D01*
X2864Y1149D01*
X2865Y1148D01*
X2865Y1147D01*
X2866Y1146D01*
X2866Y1145D01*
X2867Y1144D01*
X2867Y1142D01*
X2868Y1141D01*
X2868Y1140D01*
X2869Y1139D01*
X2869Y1137D01*
X2870Y1136D01*
X2870Y1135D01*
X2871Y1134D01*
X2871Y1132D01*
X2872Y1131D01*
X2872Y1130D01*
X2873Y1129D01*
X2873Y1127D01*
X2874Y1126D01*
X2874Y1125D01*
X2875Y1124D01*
X2875Y1122D01*
X2876Y1121D01*
X2876Y1120D01*
X2877Y1119D01*
X2877Y1118D01*
X2878Y1117D01*
X2878Y1115D01*
X2879Y1114D01*
X2879Y1113D01*
X2880Y1112D01*
X2880Y1110D01*
X2881Y1109D01*
X2881Y1108D01*
X2882Y1107D01*
X2882Y1105D01*
X2883Y1104D01*
X2883Y1103D01*
X2884Y1102D01*
X2884Y1100D01*
X2885Y1099D01*
X2885Y1098D01*
X2886Y1097D01*
X2886Y1095D01*
X2887Y1094D01*
X2887Y1093D01*
X2888Y1092D01*
X2888Y1090D01*
X2889Y1089D01*
X2889Y1088D01*
X2890Y1087D01*
X2890Y1085D01*
X2891Y1084D01*
X2891Y1083D01*
X2892Y1082D01*
X2892Y1080D01*
X2893Y1079D01*
X2893Y1078D01*
X2894Y1077D01*
X2894Y1076D01*
X2895Y1075D01*
X2895Y1073D01*
X2896Y1072D01*
X2896Y1071D01*
X2897Y1070D01*
X2897Y1068D01*
X2898Y1067D01*
X2898Y1066D01*
X2899Y1065D01*
X2899Y1063D01*
X2900Y1062D01*
X2900Y1061D01*
X2901Y1060D01*
X2901Y1058D01*
X2902Y1057D01*
X2902Y1056D01*
X2903Y1055D01*
X2903Y1053D01*
X2904Y1052D01*
X2904Y1051D01*
X2905Y1050D01*
X2905Y1048D01*
X2906Y1047D01*
X2906Y1046D01*
X2907Y1045D01*
X2907Y1043D01*
X2908Y1042D01*
X2908Y1041D01*
X2909Y1040D01*
X2909Y1038D01*
X2910Y1037D01*
X2910Y1036D01*
X2911Y1035D01*
X2911Y1034D01*
X2912Y1033D01*
X2912Y1031D01*
X2913Y1030D01*
X2913Y1029D01*
X2914Y1028D01*
X2914Y1026D01*
X2915Y1025D01*
X2916Y1026D01*
X2916Y2683D01*
X2915Y2684D01*
X2915Y2830D01*
X2914Y2831D01*
X2914Y2938D01*
X2913Y2939D01*
X2913Y3022D01*
X2912Y3023D01*
X2912Y3092D01*
X2911Y3093D01*
X2911Y3153D01*
X2910Y3154D01*
X2910Y3211D01*
X2909Y3212D01*
X2909Y3260D01*
X2908Y3261D01*
X2908Y3303D01*
X2907Y3304D01*
X2907Y3342D01*
X2906Y3343D01*
X2906Y3380D01*
X2905Y3381D01*
X2905Y3413D01*
X2904Y3414D01*
X2904Y3444D01*
X2903Y3445D01*
X2903Y3473D01*
X2902Y3474D01*
X2902Y3500D01*
X2901Y3501D01*
X2901Y3525D01*
X2900Y3526D01*
X2900Y3540D01*
X2899Y3541D01*
X2898Y3541D01*
X2897Y3541D01*
X2896Y3541D01*
X2895Y3541D01*
X2894Y3541D01*
X2893Y3541D01*
X2892Y3541D01*
X2891Y3541D01*
X2890Y3541D01*
X2889Y3541D01*
X2888Y3541D01*
X2887Y3541D01*
X2886Y3541D01*
X2885Y3541D01*
X2884Y3541D01*
X2883Y3541D01*
X2882Y3541D01*
X2881Y3541D01*
X2880Y3541D01*
X2879Y3541D01*
X2878Y3541D01*
X2877Y3541D01*
X2876Y3541D01*
X2875Y3541D01*
X2874Y3541D01*
X2873Y3541D01*
X2872Y3541D01*
X2871Y3541D01*
X2870Y3541D01*
X2869Y3541D01*
X2868Y3541D01*
X2867Y3541D01*
X2866Y3541D01*
X2865Y3541D01*
X2864Y3541D01*
X2863Y3541D01*
X2862Y3541D01*
X2861Y3541D01*
X2860Y3541D01*
X2859Y3541D01*
X2858Y3541D01*
X2857Y3541D01*
X2856Y3541D01*
X2855Y3541D01*
X2854Y3541D01*
X2853Y3541D01*
X2852Y3541D01*
X2851Y3541D01*
X2850Y3541D01*
X2849Y3541D01*
X2848Y3541D01*
X2847Y3541D01*
X2846Y3541D01*
X2845Y3541D01*
X2844Y3541D01*
X2843Y3541D01*
X2842Y3541D01*
X2841Y3541D01*
X2840Y3541D01*
X2839Y3541D01*
X2838Y3541D01*
X2837Y3541D01*
X2836Y3541D01*
X2835Y3541D01*
X2834Y3541D01*
X2833Y3541D01*
X2832Y3541D01*
X2831Y3541D01*
X2830Y3541D01*
X2829Y3541D01*
X2828Y3541D01*
X2827Y3541D01*
X2826Y3541D01*
X2825Y3541D01*
X2824Y3541D01*
X2823Y3541D01*
X2822Y3541D01*
X2821Y3541D01*
X2820Y3541D01*
X2819Y3541D01*
X2818Y3541D01*
X2817Y3541D01*
X2816Y3541D01*
X2815Y3541D01*
X2814Y3541D01*
X2813Y3541D01*
X2812Y3541D01*
X2811Y3541D01*
X2810Y3541D01*
X2809Y3541D01*
X2808Y3541D01*
X2807Y3541D01*
X2806Y3541D01*
X2805Y3541D01*
X2804Y3541D01*
X2803Y3541D01*
X2802Y3541D01*
X2801Y3541D01*
X2800Y3541D01*
X2799Y3541D01*
X2798Y3541D01*
X2797Y3541D01*
X2796Y3541D01*
X2795Y3541D01*
X2794Y3541D01*
X2793Y3541D01*
X2792Y3541D01*
X2791Y3541D01*
X2790Y3541D01*
X2789Y3541D01*
X2788Y3541D01*
X2787Y3541D01*
X2786Y3541D01*
X2785Y3541D01*
X2784Y3541D01*
X2783Y3541D01*
X2782Y3541D01*
X2781Y3541D01*
X2780Y3541D01*
X2779Y3541D01*
X2778Y3541D01*
X2777Y3541D01*
X2776Y3541D01*
X2775Y3541D01*
X2774Y3541D01*
X2773Y3541D01*
X2772Y3541D01*
X2771Y3541D01*
X2770Y3541D01*
X2769Y3541D01*
X2768Y3541D01*
X2767Y3541D01*
X2766Y3541D01*
X2765Y3541D01*
X2764Y3541D01*
X2763Y3541D01*
X2762Y3541D01*
X2761Y3541D01*
X2760Y3541D01*
X2759Y3541D01*
X2758Y3541D01*
X2757Y3541D01*
X2756Y3541D01*
X2755Y3541D01*
X2754Y3541D01*
X2753Y3541D01*
X2752Y3541D01*
X2751Y3541D01*
X2750Y3541D01*
X2749Y3541D01*
X2748Y3541D01*
X2747Y3541D01*
X2746Y3541D01*
X2745Y3541D01*
X2744Y3541D01*
X2743Y3541D01*
X2742Y3541D01*
X2741Y3541D01*
X2740Y3541D01*
X2739Y3541D01*
X2738Y3541D01*
X2737Y3541D01*
X2736Y3541D01*
X2735Y3541D01*
X2734Y3541D01*
X2733Y3541D01*
X2732Y3541D01*
X2731Y3541D01*
X2730Y3541D01*
X2729Y3541D01*
X2728Y3541D01*
X2727Y3541D01*
X2726Y3541D01*
X2725Y3541D01*
X2724Y3541D01*
X2723Y3541D01*
X2722Y3541D01*
X2721Y3541D01*
X2720Y3541D01*
X2719Y3541D01*
X2718Y3541D01*
X2717Y3541D01*
X2716Y3541D01*
X2715Y3541D01*
X2714Y3541D01*
X2713Y3541D01*
X2712Y3541D01*
X2711Y3541D01*
X2710Y3541D01*
X2709Y3541D01*
X2708Y3541D01*
X2707Y3541D01*
X2706Y3541D01*
X2705Y3541D01*
X2704Y3541D01*
X2703Y3541D01*
X2702Y3541D01*
X2701Y3541D01*
X2700Y3541D01*
X2699Y3541D01*
X2698Y3541D01*
X2697Y3541D01*
X2696Y3541D01*
X2695Y3541D01*
X2694Y3541D01*
X2693Y3541D01*
X2692Y3541D01*
X2691Y3541D01*
X2690Y3541D01*
X2689Y3541D01*
X2688Y3541D01*
X2687Y3541D01*
X2686Y3541D01*
X2685Y3541D01*
X2684Y3541D01*
X2683Y3541D01*
X2682Y3541D01*
X2681Y3541D01*
X2680Y3541D01*
X2679Y3541D01*
X2678Y3541D01*
X2677Y3541D01*
X2676Y3541D01*
X2675Y3541D01*
X2674Y3541D01*
X2673Y3541D01*
X2672Y3541D01*
X2671Y3541D01*
X2670Y3541D01*
X2669Y3541D01*
X2668Y3541D01*
X2667Y3541D01*
X2666Y3541D01*
X2665Y3541D01*
X2664Y3541D01*
X2663Y3541D01*
X2662Y3541D01*
X2661Y3541D01*
X2660Y3541D01*
X2659Y3541D01*
X2658Y3541D01*
X2657Y3541D01*
X2656Y3541D01*
X2655Y3541D01*
X2654Y3541D01*
X2653Y3541D01*
X2652Y3541D01*
X2651Y3541D01*
X2650Y3541D01*
X2649Y3541D01*
X2648Y3541D01*
X2647Y3541D01*
X2646Y3541D01*
X2645Y3541D01*
X2644Y3541D01*
X2643Y3541D01*
X2642Y3541D01*
X2641Y3541D01*
X2640Y3541D01*
X2639Y3541D01*
X2638Y3541D01*
X2637Y3541D01*
X2636Y3541D01*
X2635Y3541D01*
X2634Y3541D01*
X2633Y3541D01*
X2632Y3541D01*
X2631Y3541D01*
X2630Y3541D01*
X2629Y3541D01*
X2628Y3541D01*
X2627Y3541D01*
X2626Y3541D01*
X2625Y3541D01*
X2624Y3541D01*
X2623Y3541D01*
X2622Y3541D01*
X2621Y3541D01*
X2620Y3541D01*
X2619Y3541D01*
X2618Y3541D01*
X2617Y3541D01*
X2616Y3541D01*
X2615Y3541D01*
X2614Y3541D01*
X2613Y3541D01*
X2612Y3541D01*
X2611Y3541D01*
X2610Y3541D01*
X2609Y3541D01*
X2608Y3541D01*
X2607Y3541D01*
X2606Y3541D01*
X2605Y3541D01*
X2604Y3541D01*
X2603Y3541D01*
X2602Y3541D01*
X2601Y3541D01*
X2600Y3541D01*
X2599Y3541D01*
X2598Y3541D01*
X2597Y3541D01*
X2596Y3541D01*
X2595Y3541D01*
X2594Y3541D01*
X2593Y3541D01*
X2592Y3541D01*
X2591Y3541D01*
X2590Y3541D01*
X2589Y3541D01*
X2588Y3541D01*
X2587Y3541D01*
X2586Y3541D01*
X2585Y3541D01*
X2584Y3541D01*
X2583Y3541D01*
X2582Y3541D01*
X2581Y3541D01*
X2580Y3541D01*
X2579Y3541D01*
X2578Y3541D01*
X2577Y3541D01*
X2577Y3542D01*
X2576Y3543D01*
X2576Y3545D01*
X2575Y3546D01*
X2575Y3548D01*
X2574Y3549D01*
X2574Y3550D01*
X2573Y3551D01*
X2573Y3553D01*
X2572Y3554D01*
X2572Y3555D01*
X2571Y3556D01*
X2571Y3558D01*
X2570Y3559D01*
X2570Y3561D01*
X2569Y3562D01*
X2569Y3564D01*
X2568Y3565D01*
X2568Y3567D01*
X2567Y3568D01*
X2567Y3569D01*
X2566Y3570D01*
X2566Y3572D01*
X2565Y3573D01*
X2565Y3575D01*
X2564Y3576D01*
X2564Y3578D01*
X2563Y3579D01*
X2563Y3581D01*
X2562Y3582D01*
X2562Y3584D01*
X2561Y3585D01*
X2561Y3587D01*
X2560Y3588D01*
X2560Y3591D01*
X2559Y3592D01*
X2559Y3594D01*
X2558Y3595D01*
X2558Y3597D01*
X2557Y3598D01*
X2557Y3600D01*
X2556Y3601D01*
X2556Y3604D01*
X2555Y3605D01*
X2555Y3607D01*
X2554Y3608D01*
X2554Y3611D01*
X2553Y3612D01*
X2553Y3615D01*
X2552Y3616D01*
X2552Y3618D01*
X2551Y3619D01*
X2551Y3622D01*
X2550Y3623D01*
X2550Y3626D01*
X2549Y3627D01*
X2549Y3630D01*
X2548Y3631D01*
X2548Y3634D01*
X2547Y3635D01*
X2547Y3638D01*
X2546Y3639D01*
X2546Y3642D01*
X2545Y3643D01*
X2545Y3647D01*
X2544Y3648D01*
X2544Y3651D01*
X2543Y3652D01*
X2543Y3656D01*
X2542Y3657D01*
X2542Y3661D01*
X2541Y3662D01*
X2541Y3666D01*
X2540Y3667D01*
X2540Y3671D01*
X2539Y3672D01*
X2539Y3677D01*
X2538Y3678D01*
X2538Y3683D01*
X2537Y3684D01*
X2537Y3689D01*
X2536Y3690D01*
X2536Y3696D01*
X2535Y3697D01*
X2535Y3704D01*
X2534Y3705D01*
X2534Y3712D01*
X2533Y3713D01*
X2533Y3721D01*
X2532Y3722D01*
X2532Y3732D01*
X2531Y3733D01*
X2531Y3747D01*
X2530Y3748D01*
X2530Y3801D01*
X2531Y3802D01*
X2531Y3810D01*
X2532Y3811D01*
X2532Y3817D01*
X2533Y3818D01*
X2533Y3823D01*
X2534Y3824D01*
X2534Y3827D01*
X2535Y3828D01*
X2535Y3831D01*
X2536Y3832D01*
X2536Y3835D01*
X2537Y3836D01*
X2537Y3839D01*
X2538Y3840D01*
X2538Y3842D01*
X2539Y3843D01*
X2539Y3845D01*
X2540Y3846D01*
X2540Y3848D01*
X2541Y3849D01*
X2541Y3850D01*
X2542Y3851D01*
X2542Y3853D01*
X2543Y3854D01*
X2543Y3855D01*
X2544Y3856D01*
X2544Y3857D01*
X2545Y3858D01*
X2545Y3859D01*
X2546Y3860D01*
X2546Y3861D01*
X2547Y3862D01*
X2547Y3863D01*
X2548Y3864D01*
X2548Y3865D01*
X2549Y3866D01*
X2549Y3867D01*
X2550Y3868D01*
X2551Y3869D01*
X2551Y3870D01*
X2552Y3871D01*
X2552Y3872D01*
X2553Y3873D01*
X2554Y3874D01*
X2554Y3875D01*
X2555Y3876D01*
X2556Y3877D01*
X2557Y3878D01*
X2557Y3879D01*
X2558Y3880D01*
X2559Y3881D01*
X2560Y3882D01*
X2561Y3883D01*
X2561Y3884D01*
X2562Y3885D01*
X2563Y3886D01*
X2564Y3887D01*
X2565Y3888D01*
X2566Y3889D01*
X2567Y3890D01*
X2568Y3891D01*
X2569Y3892D01*
X2570Y3893D01*
X2571Y3894D01*
X2572Y3895D01*
X2573Y3895D01*
X2574Y3896D01*
X2575Y3897D01*
X2576Y3898D01*
X2577Y3899D01*
X2578Y3899D01*
X2579Y3900D01*
X2580Y3901D01*
X2581Y3901D01*
X2582Y3902D01*
X2583Y3903D01*
X2584Y3904D01*
X2585Y3904D01*
X2586Y3905D01*
X2587Y3905D01*
X2588Y3906D01*
X2589Y3907D01*
X2590Y3907D01*
X2591Y3908D01*
X2592Y3908D01*
X2593Y3909D01*
X2594Y3909D01*
X2595Y3910D01*
X2596Y3911D01*
X2597Y3911D01*
X2598Y3912D01*
X2599Y3912D01*
X2600Y3912D01*
X2601Y3913D01*
X2602Y3913D01*
X2603Y3914D01*
X2604Y3914D01*
X2605Y3915D01*
X2606Y3915D01*
X2607Y3916D01*
X2608Y3916D01*
X2609Y3916D01*
X2610Y3917D01*
X2611Y3917D01*
X2612Y3918D01*
X2613Y3918D01*
X2614Y3918D01*
X2615Y3919D01*
X2616Y3919D01*
X2617Y3919D01*
X2618Y3920D01*
X2619Y3920D01*
X2620Y3920D01*
X2621Y3921D01*
X2622Y3921D01*
X2623Y3921D01*
X2624Y3922D01*
X2625Y3922D01*
X2626Y3922D01*
X2627Y3922D01*
X2628Y3923D01*
X2629Y3923D01*
X2630Y3923D01*
X2631Y3923D01*
X2632Y3924D01*
X2633Y3924D01*
X2634Y3924D01*
X2635Y3924D01*
X2636Y3925D01*
X2637Y3925D01*
X2638Y3925D01*
X2639Y3925D01*
X2640Y3926D01*
X2641Y3926D01*
X2642Y3926D01*
X2643Y3926D01*
X2644Y3926D01*
X2645Y3927D01*
X2646Y3927D01*
X2647Y3927D01*
X2648Y3927D01*
X2649Y3927D01*
X2650Y3927D01*
X2651Y3928D01*
X2652Y3928D01*
X2653Y3928D01*
X2654Y3928D01*
X2655Y3928D01*
X2656Y3928D01*
X2657Y3928D01*
X2658Y3929D01*
X2659Y3929D01*
X2660Y3929D01*
X2661Y3929D01*
X2662Y3929D01*
X2663Y3929D01*
X2664Y3929D01*
X2665Y3929D01*
X2666Y3929D01*
X2667Y3930D01*
X2668Y3930D01*
X2669Y3930D01*
X2670Y3930D01*
X2671Y3930D01*
X2672Y3930D01*
X2673Y3930D01*
X2674Y3930D01*
X2675Y3930D01*
X2676Y3930D01*
X2677Y3930D01*
X2678Y3930D01*
X2679Y3930D01*
X2680Y3931D01*
D02*
G04 End of contour*
M02*