; NON-PLATED HOLES START AT T1
; THROUGH (PLATED) HOLES START AT T100
M48
INCH
T100C0.031497
T101C0.035000
T102C0.038000
%
T100
X008833Y024870
X007849Y002870
X021333Y019870
X007849Y024870
X009289Y013870
X017333Y002885
X017333Y036370
X029817Y013870
X012833Y020370
X026333Y005354
X021333Y020854
X017333Y003870
X013817Y020370
X026833Y026854
X026333Y004370
X008833Y035870
X007849Y035870
X026833Y025870
X008304Y013870
X025833Y033870
X008833Y002870
X024849Y033870
X028833Y013870
X017333Y037354
T101
X026833Y031870
X028144Y007631
X009833Y017870
X009833Y031870
X026833Y028870
X009833Y028870
X009833Y009870
X029644Y010229
X026454Y016248
X009833Y006870
X009833Y020870
X024333Y018370
T102
X001083Y002370
X017833Y001120
X016833Y001120
X001083Y001370
T00
M30
