G04 MADE WITH FRITZING*
G04 WWW.FRITZING.ORG*
G04 DOUBLE SIDED*
G04 HOLES PLATED*
G04 CONTOUR ON CENTER OF CONTOUR VECTOR*
%ASAXBY*%
%FSLAX23Y23*%
%MOIN*%
%OFA0B0*%
%SFA1.0B1.0*%
%ADD10C,0.062992*%
%ADD11C,0.075000*%
%ADD12C,0.078000*%
%ADD13R,0.062992X0.062992*%
%ADD14C,0.015748*%
%LNCOPPER1*%
G90*
G70*
G54D10*
X1733Y3735D03*
X1733Y3637D03*
X1382Y2037D03*
X1283Y2037D03*
X2683Y2685D03*
X2683Y2587D03*
X2133Y2085D03*
X2133Y1987D03*
X2982Y1387D03*
X2883Y1387D03*
X2633Y535D03*
X2633Y437D03*
X1733Y289D03*
X1733Y387D03*
X2485Y3387D03*
X2583Y3387D03*
X785Y3587D03*
X883Y3587D03*
X785Y2487D03*
X883Y2487D03*
X830Y1387D03*
X929Y1387D03*
X785Y287D03*
X883Y287D03*
G54D11*
X983Y2087D03*
X983Y1787D03*
X2433Y1837D03*
X2645Y1625D03*
X2814Y763D03*
X2964Y1023D03*
X2683Y3187D03*
X2683Y2887D03*
X983Y3187D03*
X983Y2887D03*
X983Y987D03*
X983Y687D03*
G54D12*
X108Y237D03*
X108Y137D03*
X1783Y112D03*
X1683Y112D03*
G54D13*
X1733Y289D03*
G54D14*
X1710Y3712D02*
X1710Y3759D01*
X1757Y3759D01*
X1757Y3712D01*
X1710Y3712D01*
D02*
X1358Y2061D02*
X1405Y2061D01*
X1405Y2013D01*
X1358Y2013D01*
X1358Y2061D01*
D02*
X2660Y2662D02*
X2660Y2709D01*
X2707Y2709D01*
X2707Y2662D01*
X2660Y2662D01*
D02*
X2110Y2062D02*
X2110Y2109D01*
X2157Y2109D01*
X2157Y2062D01*
X2110Y2062D01*
D02*
X2958Y1411D02*
X3005Y1411D01*
X3005Y1363D01*
X2958Y1363D01*
X2958Y1411D01*
D02*
X2610Y512D02*
X2610Y559D01*
X2657Y559D01*
X2657Y512D01*
X2610Y512D01*
D02*
X2509Y3363D02*
X2461Y3363D01*
X2461Y3411D01*
X2509Y3411D01*
X2509Y3363D01*
D02*
X809Y3563D02*
X761Y3563D01*
X761Y3611D01*
X809Y3611D01*
X809Y3563D01*
D02*
X809Y2463D02*
X761Y2463D01*
X761Y2511D01*
X809Y2511D01*
X809Y2463D01*
D02*
X854Y1363D02*
X807Y1363D01*
X807Y1411D01*
X854Y1411D01*
X854Y1363D01*
D02*
X809Y263D02*
X761Y263D01*
X761Y311D01*
X809Y311D01*
X809Y263D01*
D02*
G04 End of Copper1*
M02*