<?xml version="1.0" encoding="utf-8"?>
<!-- Generator: Adobe Illustrator 21.1.0, SVG Export Plug-In . SVG Version: 6.00 Build 0)  -->
<svg version="1.2" baseProfile="tiny" id="Layer_1" xmlns="http://www.w3.org/2000/svg" xmlns:xlink="http://www.w3.org/1999/xlink"
	 width="100%" height="100%" viewBox="0 0 282.5 319.3" xml:space="preserve">
<g id="board">
	<g>
		<path fill="#009245" d="M14.2,0.5h112.3c47.1,0,82.1,6.1,105,18.4c22.9,12.3,34.4,30.9,34.4,55.9c0,34.5-21.6,60.7-64.8,78.5
			C255,163.5,282,188,282,227c0,26.6-12.2,48.5-36.7,65.7c-24.5,17.2-67.3,25.9-128.5,25.9L4.7,318.8C1.9,312,0.5,305.4,0.5,299
			c0-4.2,1.2-7.3,3.5-9.2c2.3-1.9,5.7-2.9,10.3-2.9h17c0.9-20,1.4-64.2,1.4-132.4c0-61.5-0.5-102.2-1.4-122.1H4.7
			c-2.8-6.8-4.2-13.4-4.2-19.6c0-4.3,1.2-7.5,3.5-9.4C6.3,1.5,9.7,0.5,14.2,0.5z M104.7,133.1c7.8,1.6,17.2,2.3,28.4,2.3
			c18.6,0,32-3.5,40.2-10.4c8.2-6.9,12.2-17.8,12.2-32.7c0-16.2-4.4-28-13-35.7c-8.7-7.6-21.8-11.4-39.4-11.4
			c-9.2,0-18.6,0.8-28.2,2.3C104.7,62.3,104.7,90.8,104.7,133.1z M104.7,175.7v54.5c0,17.9,2.1,29.6,6.3,35.2
			c4.2,5.6,15.7,8.4,34.5,8.4c19.6,0,33.8-3.6,42.8-10.8c8.9-7.2,13.4-19.1,13.4-35.5c0-17.7-5.4-31.1-16.2-40.3
			c-10.8-9.2-27.5-13.7-50-13.7C125.5,173.4,115.2,174.2,104.7,175.7z"/>
	</g>
</g>
<g id="silkscreen">
	<g>
		<path fill="none" stroke="#FFFFFF" stroke-miterlimit="10" d="M14.2,0.5h112.3c47.1,0,82.1,6.1,105,18.4
			c22.9,12.3,34.4,30.9,34.4,55.9c0,34.5-21.6,60.7-64.8,78.5C255,163.5,282,188,282,227c0,26.6-12.2,48.5-36.7,65.7
			c-24.5,17.2-67.3,25.9-128.5,25.9L4.7,318.8C1.9,312,0.5,305.4,0.5,299c0-4.2,1.2-7.3,3.5-9.2c2.3-1.9,5.7-2.9,10.3-2.9h17
			c0.9-20,1.4-64.2,1.4-132.4c0-61.5-0.5-102.2-1.4-122.1H4.7c-2.8-6.8-4.2-13.4-4.2-19.6c0-4.3,1.2-7.5,3.5-9.4
			C6.3,1.5,9.7,0.5,14.2,0.5z M104.7,133.1c7.8,1.6,17.2,2.3,28.4,2.3c18.6,0,32-3.5,40.2-10.4c8.2-6.9,12.2-17.8,12.2-32.7
			c0-16.2-4.4-28-13-35.7c-8.7-7.6-21.8-11.4-39.4-11.4c-9.2,0-18.6,0.8-28.2,2.3C104.7,62.3,104.7,90.8,104.7,133.1z M104.7,175.7
			v54.5c0,17.9,2.1,29.6,6.3,35.2c4.2,5.6,15.7,8.4,34.5,8.4c19.6,0,33.8-3.6,42.8-10.8c8.9-7.2,13.4-19.1,13.4-35.5
			c0-17.7-5.4-31.1-16.2-40.3c-10.8-9.2-27.5-13.7-50-13.7C125.5,173.4,115.2,174.2,104.7,175.7z"/>
	</g>
</g>
</svg>
