<?xml version="1.0" encoding="utf-8"?>
<!-- Generator: Adobe Illustrator 21.0.0, SVG Export Plug-In . SVG Version: 6.00 Build 0)  -->
<svg version="1.2" baseProfile="tiny" id="Layer_1" xmlns="http://www.w3.org/2000/svg" xmlns:xlink="http://www.w3.org/1999/xlink"
	 width="100%" height="100%" viewBox="0 0 271 264.3" xml:space="preserve">
<g id="board">
	<path fill="#009245" d="M241.6,247.8c0.4-3.4,0.7-7.4,0.7-12.2V107.3c0-37.5,0.3-64.3,0.8-80.7h16.6c3.7,0,6.4-0.9,8-2.6
		c1.7-1.7,2.5-4.9,2.5-9.5c0-4.7-1.1-9.4-3.2-14.1h-86c-3.7,0-6.5,0.8-8.4,2.4c-1.9,1.6-2.9,4.2-2.9,7.7c0,5.1,1.1,10.4,3.2,16.1
		h21.6c0.8,16.3,1.1,43.1,1.1,80.5v88.1C179,154,162.9,119.4,147.1,91.5c-15.8-27.9-32.2-58.2-49.3-91h-82c-3.7,0-6.5,0.8-8.4,2.4
		c-1.9,1.6-2.9,4.2-2.9,7.7c0,5.1,1.1,10.4,3.4,16.1h19.7c0.8,16.3,1.2,43.1,1.3,80.5c0,69.1-0.4,111.7-1.1,128.1H11.9
		c-3.7,0-6.5,0.8-8.4,2.4c-1.9,1.6-2.9,4.1-2.9,7.5c0,0.9,0,1.7,0.1,2.6H0.5v16h270v-16H241.6z M99.4,247.8
		c-0.2-4.3-1.3-8.5-3.2-12.6H76.4c-0.6-16.3-1-68.3-1-156c18.9,45.5,39.4,86.6,61.7,123.5c12.3,20.4,21.8,35.4,28.2,45.1H99.4z"/>
</g>
<g id="silkscreen">
	<path fill="none" stroke="#FFFFFF" stroke-miterlimit="10" d="M241.6,247.8c0.4-3.4,0.7-7.4,0.7-12.2V107.3
		c0-37.5,0.3-64.3,0.8-80.7h16.6c3.7,0,6.4-0.9,8-2.6c1.7-1.7,2.5-4.9,2.5-9.5c0-4.7-1.1-9.4-3.2-14.1h-86c-3.7,0-6.5,0.8-8.4,2.4
		c-1.9,1.6-2.9,4.2-2.9,7.7c0,5.1,1.1,10.4,3.2,16.1h21.6c0.8,16.3,1.1,43.1,1.1,80.5v88.1C179,154,162.9,119.4,147.1,91.5
		c-15.8-27.9-32.2-58.2-49.3-91h-82c-3.7,0-6.5,0.8-8.4,2.4c-1.9,1.6-2.9,4.2-2.9,7.7c0,5.1,1.1,10.4,3.4,16.1h19.7
		c0.8,16.3,1.2,43.1,1.3,80.5c0,69.1-0.4,111.7-1.1,128.1H11.9c-3.7,0-6.5,0.8-8.4,2.4c-1.9,1.6-2.9,4.1-2.9,7.5
		c0,0.9,0,1.7,0.1,2.6H0.5v16h270v-16H241.6z M96.2,235.2H76.4c-0.6-16.3-1-68.3-1-156c18.9,45.5,39.4,86.6,61.7,123.5
		c12.3,20.4,21.8,35.4,28.2,45.1H99.4C99.2,243.5,98.2,239.3,96.2,235.2z"/>
</g>
<g>
</g>
<g>
</g>
<g>
</g>
<g>
</g>
<g>
</g>
<g>
</g>
<g>
</g>
<g>
</g>
<g>
</g>
<g>
</g>
<g>
</g>
<g>
</g>
<g>
</g>
<g>
</g>
<g>
</g>
</svg>
